; Version : LOCAL
; Job     : X:\0_Projects\HW-0004_A.v1.0\Board2_PCB\Board2.pcb
; User    : JG_PC:grobi
; Date    : Sun May 31 16:30:58 2026
; Format  : 2.4 / Absolute / Inch / Trailing
; Contents: Thru / Drill / Plated
M48
INCH,LZ
FMAT,2
ICI,OFF
T02C0.0157
T03C0.0315
T04C0.0413
%
M72
G90
G93X0Y0
T02
X038619Y000752
X037992Y000492
X037366Y000752
X002004
X001378Y000492
X000752Y000752
X000492Y001378
X002264
X037106
X038878
X038619Y002004
X037992Y002264
X037366Y002004
X002004
X001378Y002264
X000752Y002004
Y011775
X001378Y011516
X002004Y011775
X037366
X037992Y011516
X038619Y011775
X038878Y012402
X037106
X002264
X000492
X000752Y013028
X001378Y013287
X002004Y013028
X037366
X037992Y013287
X038619Y013028
T03
X002415Y00572
X003068Y005201
X003882Y005014
X004696Y0052
X005348Y00572
X010317
X010969Y005201
X011783Y005014
X012598Y0052
X01325Y00572
X018219
X019685Y005014
X020499Y0052
X021152Y00572
X026368
X02702Y005201
X027835Y005014
X028649Y0052
X029301Y00572
X034022
X034674Y005201
X035488Y005014
X036302Y0052
X036955Y00572
X037317Y006472
X033659
X029664
X026006
X021514
X017856
X013613
X009954
X005711
X002053
Y007307
X005711
X009954
X013613
X017856
X021514
X026006
X029664
X033659
X037317
X036955Y008059
X036302Y00858
X034674
X034022Y008059
X029301
X028649Y00858
X02702
X026368Y008059
X021152
X020499Y008579
X019685Y008766
X018871Y00858
X018219Y008059
X01325
X012598Y00858
X010969
X010317Y008059
X005348
X004696Y00858
X003068
X002415Y008059
T04
X005187Y01318
X006187
X007187
X008187
X009187
X010187
X011187
X012187
X013187
X014187
X015187
X016187
X017187
X018187
X019187
X020187
X021187
X022187
X023187
X024187
X025187
X026187
X027187
X028187
X029187
X030187
X031187
X032187
X033187
X034187
T00
M30
