*
G04 Job   : X:\0_Projects\HW-0004_A.v1.0\Board2_PCB\Board2.pcb*
G04 User  : JG_PC:grobi*
G04 Layer : DRILL.gdo*
G04 Date  : Sun May 31 16:31:31 2026*
%ICAS*%
%MOIN*%
%FSLAX26Y26*%
%OFA0.0000B0.0000*%
G90*
G74*
%ADD10C,0.00500*%
%ADD11C,0.00591*%
G01*
G54D10*
X3937007D01*
Y1377952*
X0*
Y0*
G54D11*
Y-1653542D02*
X4370078D01*
Y0*
X0*
Y-1653542*
Y-1417322D02*
X4370078D01*
X0Y-1181101D02*
X4370078D01*
X0Y-944881D02*
X4370078D01*
X0Y-708660D02*
X4370078D01*
X0Y-472440D02*
X4370078D01*
X47243Y137795D02*
X51180D01*
X47243Y1240156D02*
X51180D01*
X49212Y132873D02*
X54133Y137795D01*
X49212Y142716*
X44290Y137795*
X49212Y132873*
Y135826D02*
Y139763D01*
Y1235235D02*
X54133Y1240156D01*
X49212Y1245078*
X44290Y1240156*
X49212Y1235235*
Y1238188D02*
Y1242125D01*
X73188Y75156D02*
X77125D01*
X73188Y200432D02*
X77125D01*
X73188Y1177520D02*
X77125D01*
X73188Y1302795D02*
X77125D01*
X75156Y70235D02*
X80078Y75156D01*
X75156Y80078*
X70235Y75156*
X75156Y70235*
Y73188D02*
Y77125D01*
Y195511D02*
X80078Y200432D01*
X75156Y205353*
X70235Y200432*
X75156Y195511*
Y198465D02*
Y202401D01*
Y1172597D02*
X80078Y1177520D01*
X75156Y1182440*
X70235Y1177520*
X75156Y1172597*
Y1175550D02*
Y1179487D01*
Y1297873D02*
X80078Y1302795D01*
X75156Y1307716*
X70235Y1302795*
X75156Y1297873*
Y1300826D02*
Y1304763D01*
X109955Y109955D02*
X165633Y165633D01*
X109955Y1212318D02*
X165633Y1267995D01*
X135826Y49212D02*
X139763D01*
X135826Y226377D02*
X139763D01*
X135826Y1151575D02*
X139763D01*
X135826Y1328740D02*
X139763D01*
X137795Y44290D02*
X142716Y49212D01*
X137795Y54133*
X132873Y49212*
X137795Y44290*
Y47243D02*
Y51180D01*
Y221456D02*
X142716Y226377D01*
X137795Y231298*
X132873Y226377*
X137795Y221456*
Y224408D02*
Y228345D01*
Y1146653D02*
X142716Y1151575D01*
X137795Y1156495*
X132873Y1151575*
X137795Y1146653*
Y1149605D02*
Y1153542D01*
Y1323818D02*
X142716Y1328740D01*
X137795Y1333660*
X132873Y1328740*
X137795Y1323818*
Y1326771D02*
Y1330708D01*
X168365Y-606318D02*
X168130Y-605905D01*
Y-605432*
X168306Y-605020*
X168660Y-604665*
X169015Y-604487*
X169487Y-604370*
X169901Y-604428*
X170315Y-604665*
X177282Y-613345*
X179822Y-611220*
Y-571890*
X170610Y-564448*
X151535*
X142440Y-571890*
Y-611220*
X151535Y-618660*
X170610*
X175275Y-614881*
X168365Y-606318*
X180058Y-620668D02*
X176751Y-616712D01*
X171790Y-620845*
X171613Y-620905*
X171436Y-620965*
X171377Y-621023*
X171260Y-621082*
X171023*
X151180*
X150885Y-621023*
X150708Y-620965*
X150471Y-620845*
X140550Y-612755*
X140432Y-612637*
X140315Y-612578*
X140196Y-612401*
X140078Y-611987*
X140020Y-611810*
Y-571298*
X140078Y-571062*
X140196Y-570885*
X140315Y-570650*
X140550Y-570353*
X150471Y-562263*
X150708Y-562205*
X150885Y-562145*
X150945Y-562086*
X151180Y-562027*
X171082*
X171318Y-562086*
X171377*
X171436Y-562145*
X171613Y-562205*
X171850Y-562263*
X181771Y-570353*
X181830Y-570530*
X181948Y-570590*
X182007Y-570650*
Y-570767*
X182125Y-571003*
X182185Y-571298*
Y-611810*
X182125Y-612105*
X182007Y-612282*
X181948Y-612578*
X181771Y-612755*
X178818Y-615176*
X182007Y-619075*
X182243Y-619487*
Y-619901*
X182007Y-620315*
X181712Y-620668*
X181298Y-620905*
X180885Y-621023*
X180650*
X180412Y-620965*
X180058Y-620668*
X180117Y137795D02*
G03X137795Y180117I42322D01*
X95471Y137795J42322*
X137795Y95471I42323*
X180117Y137795J42323*
G01Y1240156D02*
G03X137795Y1282480I42322D01*
X95471Y1240156J42323*
X137795Y1197835I42323*
X180117Y1240156J42321*
G01X195432Y647243D02*
X215117D01*
X195432Y730708D02*
X215117D01*
X195767Y-611810D02*
X195826Y-612105D01*
X195945Y-612342*
X196062Y-612578*
X196298Y-612755*
X206280Y-620845*
X206456Y-620965*
X206692Y-621023*
X206928Y-621082*
X226830*
X227066*
X227185Y-621023*
X227302Y-620965*
X227597Y-620845*
X237578Y-612755*
X237755Y-612578*
X237815Y-612342*
X237932Y-612105*
X237991Y-611810*
Y-563208*
X237873Y-562795*
X237578Y-562440*
X237223Y-562263*
X236810Y-562205*
X236397Y-562263*
X235983Y-562440*
X235688Y-562795*
X235630Y-563208*
Y-611220*
X226416Y-618660*
X207342*
X198247Y-611220*
Y-563208*
X198130Y-562795*
X197835Y-562440*
X197420Y-562263*
X196948Y-562205*
X196535Y-562263*
X196180Y-562440*
X195885Y-562795*
X195767Y-563208*
Y-611810*
X198465Y75156D02*
X202401D01*
X198465Y200432D02*
X202401D01*
X198465Y1177520D02*
X202401D01*
X198465Y1302795D02*
X202401D01*
X200432Y70235D02*
X205353Y75156D01*
X200432Y80078*
X195511Y75156*
X200432Y70235*
Y73188D02*
Y77125D01*
Y195511D02*
X205353Y200432D01*
X200432Y205353*
X195511Y200432*
X200432Y195511*
Y198465D02*
Y202401D01*
Y1172597D02*
X205353Y1177520D01*
X200432Y1182440*
X195511Y1177520*
X200432Y1172597*
Y1175550D02*
Y1179487D01*
Y1297873D02*
X205353Y1302795D01*
X200432Y1307716*
X195511Y1302795*
X200432Y1297873*
Y1300826D02*
Y1304763D01*
X205275Y637401D02*
Y657086D01*
Y720865D02*
Y740550D01*
X218070Y647243D02*
G03X205275Y660038I12795D01*
X192480Y647243J12795*
X205275Y634448I12795*
X218070Y647243J12795*
G01Y730708D02*
G03X205275Y743503I12795D01*
X192480Y730708J12795*
X205275Y717912I12795*
X218070Y730708J12795*
G01X224408Y137795D02*
X228345D01*
X224408Y1240156D02*
X228345D01*
X226377Y132873D02*
X231298Y137795D01*
X226377Y142716*
X221456Y137795*
X226377Y132873*
Y135826D02*
Y139763D01*
Y1235235D02*
X231298Y1240156D01*
X226377Y1245078*
X221456Y1240156*
X226377Y1235235*
Y1238188D02*
Y1242125D01*
X231692Y572007D02*
X251377D01*
X231692Y805945D02*
X251377D01*
X241535Y562165D02*
Y581850D01*
Y796101D02*
Y815786D01*
X254055Y-595983D02*
Y-602420D01*
X291436*
Y-595983*
X272775Y-564625*
X254055Y-595983*
X254330Y572007D02*
G03X241535Y584802I12795D01*
X228740Y572007J12795*
X241535Y559212I12795*
X254330Y572007J12795*
G01Y805945D02*
G03X241535Y818740I12795D01*
X228740Y805945J12795*
X241535Y793150I12795*
X254330Y805945J12795*
G01X272185Y-562086D02*
X273542D01*
X273780Y-562145*
X273956Y-562263*
X274370Y-562558*
X274546Y-562676*
X293621Y-594920*
X293680Y-595156*
X293740Y-595275*
X293798Y-595393*
Y-595452*
Y-595570*
Y-619901*
X293680Y-620315*
X293445Y-620668*
X293030Y-620845*
X292617Y-620905*
X292205Y-620845*
X291790Y-620668*
X291555Y-620315*
X291436Y-619901*
Y-604842*
X254055*
Y-619901*
X253936Y-620315*
X253700Y-620668*
X253286Y-620845*
X252815Y-620905*
X252401Y-620845*
X251987Y-620668*
X251751Y-620315*
X251633Y-619901*
Y-595570*
Y-595452*
Y-595393*
X251692Y-595275*
X251751Y-595156*
X251810Y-594920*
X271121Y-562676*
X271416Y-562381*
X271771Y-562263*
X272007Y-562145*
X272185Y-562086*
X296928Y520078D02*
X316613D01*
X296928Y857991D02*
X316613D01*
X306771Y510235D02*
Y529920D01*
Y848150D02*
Y867835D01*
X307500Y-619901D02*
X307617Y-620373D01*
X307912Y-620668*
X308267Y-620845*
X308680Y-620905*
X309153Y-620845*
X309566Y-620668*
X309861Y-620373*
X309980Y-619901*
Y-566987*
X347597Y-620610*
X347775Y-620845*
X348070Y-620965*
X348365*
X348720Y-620845*
X349133Y-620727*
X349487Y-620550*
X349665Y-620255*
X349723Y-619901*
Y-563208*
X349605Y-562795*
X349310Y-562440*
X348956Y-562263*
X348542Y-562205*
X348130Y-562263*
X347716Y-562440*
X347420Y-562795*
X347361Y-563208*
Y-616121*
X309685Y-562558*
X309448Y-562322*
X309212Y-562205*
X308916*
X308621Y-562263*
X308150Y-562322*
X307795Y-562500*
X307617Y-562795*
X307500Y-563208*
Y-619901*
X308916Y-1068601D02*
Y-1083660D01*
X318011Y-1091101*
X337086*
X346298Y-1083660*
Y-1068601*
X337086Y-1061101*
X318011*
X308916Y-1068601*
X316948Y-1329507D02*
X306968Y-1321416D01*
X306672Y-1321121*
X306613Y-1320767*
X306672Y-1320353*
X306908Y-1319940*
X307205Y-1319645*
X307558Y-1319408*
X307971Y-1319349*
X308385Y-1319468*
X318011Y-1327322*
X337086*
X346298Y-1319881*
Y-1308897*
X337205Y-1301397*
X327401*
X326928Y-1301280*
X326633Y-1301042*
X326456Y-1300630*
X326397Y-1300216*
X326456Y-1299802*
X326633Y-1299448*
X326928Y-1299153*
X327401Y-1299035*
X337205*
X346298Y-1291535*
Y-1280550*
X337086Y-1273110*
X318011*
X308385Y-1280965*
X307971Y-1281082*
X307558Y-1281023*
X307205Y-1280845*
X306908Y-1280491*
X306672Y-1280137*
X306613Y-1279723*
X306672Y-1279310*
X306968Y-1279015*
X316948Y-1270925*
X317125Y-1270865*
X317302Y-1270806*
X317361Y-1270747*
X317597Y-1270688*
X337500*
X337795Y-1270747*
X337912Y-1270806*
X338090Y-1270865*
X338267Y-1270925*
X348247Y-1279015*
X348425Y-1279310*
X348483Y-1279546*
X348601Y-1279723*
X348660Y-1279960*
Y-1292125*
X348601Y-1292302*
X348483Y-1292716*
X348425Y-1293011*
X348247Y-1293130*
X339566Y-1300216*
X348247Y-1307302*
X348306Y-1307420*
X348425Y-1307538*
X348483Y-1307597*
Y-1307716*
X348601Y-1308130*
X348660Y-1308306*
Y-1320471*
X348601Y-1320767*
X348483Y-1321003*
X348425Y-1321240*
X348247Y-1321416*
X338267Y-1329507*
X338030Y-1329625*
X337971Y-1329685*
X337795*
X337735Y-1329743*
X337676*
X337500*
X317597*
X317361Y-1329685*
X317125Y-1329625*
X316948Y-1329507*
Y-857066D02*
X306968Y-848975D01*
X306672Y-848680*
X306613Y-848326*
X306672Y-847912*
X306908Y-847500*
X307205Y-847205*
X307558Y-846968*
X307971Y-846908*
X308385Y-847027*
X318011Y-854881*
X337086*
X346298Y-847440*
Y-836456*
X337205Y-828956*
X327401*
X326928Y-828838*
X326633Y-828601*
X326456Y-828188*
X326397Y-827775*
X326456Y-827361*
X326633Y-827007*
X326928Y-826712*
X327401Y-826593*
X337205*
X346298Y-819093*
Y-808110*
X337086Y-800668*
X318011*
X308385Y-808523*
X307971Y-808641*
X307558Y-808582*
X307205Y-808405*
X306908Y-808050*
X306672Y-807696*
X306613Y-807282*
X306672Y-806870*
X306968Y-806575*
X316948Y-798483*
X317125Y-798425*
X317302Y-798365*
X317361Y-798306*
X317597Y-798247*
X337500*
X337795Y-798306*
X337912Y-798365*
X338090Y-798425*
X338267Y-798483*
X348247Y-806575*
X348425Y-806870*
X348483Y-807105*
X348601Y-807282*
X348660Y-807520*
Y-819685*
X348601Y-819861*
X348483Y-820275*
X348425Y-820570*
X348247Y-820688*
X339566Y-827775*
X348247Y-834861*
X348306Y-834980*
X348425Y-835097*
X348483Y-835156*
Y-835275*
X348601Y-835688*
X348660Y-835865*
Y-848030*
X348601Y-848326*
X348483Y-848562*
X348425Y-848798*
X348247Y-848975*
X338267Y-857066*
X338030Y-857185*
X337971Y-857243*
X337795*
X337735Y-857302*
X337676*
X337500*
X317597*
X317361Y-857243*
X317125Y-857185*
X316948Y-857066*
X319566Y520078D02*
G03X306771Y532873I12795D01*
X293975Y520078J12795*
X306771Y507282I12795*
X319566Y520078J12795*
G01Y857991D02*
G03X306771Y870786I12795D01*
X293975Y857991J12795*
X306771Y845196I12795*
X319566Y857991J12795*
G01X338326Y-1034705D02*
X348247Y-1042795D01*
X348542Y-1043090*
X348601Y-1043562*
X348542Y-1043916*
X348425Y-1044212*
X348247Y-1044448*
X347952Y-1044685*
X347656Y-1044861*
X347361Y-1044920*
X347066*
X346830Y-1044743*
X337145Y-1036890*
X318011*
X308916Y-1044330*
Y-1065530*
X316948Y-1058975*
X317185Y-1058916*
X317302Y-1058857*
X317361*
Y-1058798*
X317656Y-1058740*
X337558*
X337795Y-1058798*
Y-1058857*
X337912*
X338090Y-1058916*
X338267Y-1058975*
X348247Y-1067007*
X348306Y-1067185*
X348425Y-1067243*
X348483Y-1067302*
Y-1067420*
X348601Y-1067835*
X348660Y-1068011*
Y-1084251*
X348601Y-1084546*
X348483Y-1084782*
X348425Y-1085020*
X348247Y-1085196*
X338326Y-1093286*
X338030Y-1093405*
X337971Y-1093465*
X337853*
X337735Y-1093523*
X337676*
X337558*
X317656*
X317420Y-1093465*
X317185Y-1093405*
X316948Y-1093286*
X307027Y-1085196*
X306908Y-1085078*
X306790Y-1085020*
X306672Y-1084842*
X306555Y-1084428*
X306495Y-1084251*
Y-1043740*
X306555Y-1043445*
X306672Y-1043208*
X306790Y-1043090*
X306908Y-1042971*
X307027Y-1042795*
X316948Y-1034705*
X317185Y-1034645*
X317361Y-1034586*
X317420Y-1034527*
X317656Y-1034468*
X337558*
X337795Y-1034527*
X337853*
X337912Y-1034586*
X338090Y-1034645*
X338326Y-1034705*
X338445Y-1544468D02*
X370216Y-1512815D01*
Y-1544468*
X338445*
X362835Y-1279015D02*
X372755Y-1270925D01*
X372991Y-1270865*
X373168Y-1270806*
X373227Y-1270747*
X373465Y-1270688*
X393365*
X393601Y-1270747*
X393660*
X393720Y-1270806*
X393897Y-1270865*
X394133Y-1270925*
X404055Y-1279015*
X404231Y-1279310*
X404290Y-1279546*
X404408Y-1279723*
X404468Y-1279960*
Y-1320471*
X404408Y-1320649*
X404290Y-1321062*
X404231Y-1321180*
X404055Y-1321416*
X394133Y-1329507*
X393897Y-1329566*
X393780Y-1329625*
X393660Y-1329685*
X393542Y-1329743*
X393365*
X373465*
X373227Y-1329685*
X372991Y-1329625*
X372755Y-1329507*
X362835Y-1321416*
X362716Y-1321298*
X362597Y-1321240*
X362480Y-1321062*
X362361Y-1320649*
X362302Y-1320471*
Y-1279960*
X362361Y-1279723*
X362480Y-1279546*
X362597Y-1279310*
X362835Y-1279015*
X364723Y-1280550D02*
Y-1319881D01*
X368208Y-1322835*
X396790Y-1276240*
X392893Y-1273110*
X373818*
X364723Y-1280550*
X370097Y-1324370D02*
X373818Y-1327322D01*
X392893*
X402105Y-1319881*
Y-1280550*
X398621Y-1277775*
X370097Y-1324370*
X370216Y-1564782D02*
X370275Y-1565255D01*
X370570Y-1565550*
X370983Y-1565727*
X371397Y-1565786*
X371810Y-1565727*
X372165Y-1565550*
X372460Y-1565255*
X372578Y-1564782*
Y-1546890*
X375353*
X375767Y-1546771*
X376121Y-1546535*
X376298Y-1546121*
X376357Y-1545708*
X376298Y-1545235*
X376121Y-1544822*
X375767Y-1544527*
X375353Y-1544468*
X372578*
Y-1509743*
X372520Y-1509448*
X372342Y-1509212*
X372105Y-1508975*
X371810Y-1508798*
X371456Y-1508680*
X371101Y-1508621*
X370806Y-1508680*
X370511Y-1508916*
X334665Y-1544763*
X334428Y-1545117*
X334310Y-1545471*
X334370Y-1545826*
X334605Y-1546240*
X334723Y-1546535*
X334960Y-1546712*
X335196Y-1546830*
X335491Y-1546890*
X370216*
Y-1564782*
X373405Y-1054782D02*
X373168Y-1054842D01*
X372991Y-1054901*
X372755Y-1055020*
X364723Y-1061515*
Y-1036890*
X403286*
X403700Y-1036771*
X404055Y-1036535*
X404231Y-1036121*
X404290Y-1035708*
X404231Y-1035235*
X404055Y-1034881*
X403700Y-1034586*
X403286Y-1034468*
X363425*
X363011Y-1034586*
X362656Y-1034881*
X362361Y-1035235*
X362243Y-1035650*
Y-1064055*
X362302Y-1064468*
X362480Y-1064763*
X362716Y-1064940*
X363130Y-1065058*
X363425Y-1065176*
X363660Y-1065235*
X363956Y-1065176*
X364192Y-1065000*
X373818Y-1057145*
X392893*
X402105Y-1064645*
Y-1083660*
X392893Y-1091042*
X373818*
X364192Y-1083247*
X363780Y-1083070*
X363425*
X363070Y-1083306*
X362716Y-1083601*
X362480Y-1084015*
X362420Y-1084428*
X362480Y-1084842*
X362775Y-1085137*
X372755Y-1093286*
X372932Y-1093405*
X373168*
X373405Y-1093523*
X393306*
X393483*
X393542Y-1093465*
X393601*
X393720Y-1093405*
X393838*
X394075Y-1093286*
X404055Y-1085137*
X404231Y-1084960*
X404290Y-1084842*
X404408Y-1084487*
X404468Y-1084251*
Y-1064055*
X404408Y-1063818*
X404290Y-1063465*
Y-1063345*
X404231Y-1063286*
X404113Y-1063168*
X404055Y-1063050*
X394075Y-1055020*
X393780Y-1054901*
X393542Y-1054842*
X393306Y-1054782*
X373405*
X378345Y501377D02*
X398030D01*
X383267Y-619901D02*
X383326Y-620315D01*
X383621Y-620668*
X384035Y-620845*
X384448Y-620905*
X384861Y-620845*
X385216Y-620668*
X385511Y-620315*
X385630Y-619901*
Y-564448*
X404350*
X404763Y-564330*
X405117Y-564093*
X405295Y-563680*
X405353Y-563267*
X405295Y-562795*
X405117Y-562381*
X404763Y-562086*
X404350Y-562027*
X364487*
X364075Y-562086*
X363780Y-562381*
X363542Y-562795*
X363483Y-563267*
X363542Y-563680*
X363780Y-564093*
X364075Y-564330*
X364487Y-564448*
X383267*
Y-619901*
X388188Y491535D02*
Y511220D01*
X394133Y-798483D02*
X404055Y-806575D01*
X404231Y-806870*
X404290Y-807105*
X404408Y-807282*
X404468Y-807520*
Y-815610*
X404408Y-815845*
X404290Y-816200*
X404231Y-816495*
X404055Y-816613*
X364723Y-848562*
Y-854881*
X403286*
X403700Y-855000*
X404055Y-855235*
X404231Y-855650*
X404290Y-856121*
X404231Y-856535*
X404055Y-856948*
X403700Y-857185*
X403286Y-857302*
X363483*
X363011Y-857185*
X362716Y-856890*
X362420Y-856593*
X362302Y-856121*
Y-848030*
X362361Y-847853*
X362480Y-847440*
X362597Y-847263*
X362716Y-847145*
X362835Y-847027*
X402105Y-815020*
Y-808110*
X392893Y-800668*
X373818*
X364192Y-808523*
X363780Y-808641*
X363365Y-808582*
X363011Y-808405*
X362775Y-808050*
X362538Y-807696*
X362480Y-807282*
Y-807046*
X362538Y-806870*
X362835Y-806575*
X372755Y-798483*
X372991Y-798425*
X373168Y-798365*
X373227Y-798306*
X373465Y-798247*
X393365*
X393601Y-798306*
X393660*
X393720Y-798365*
X393897Y-798425*
X394133Y-798483*
X400983Y501377D02*
G03X388188Y514172I12795D01*
X375393Y501377J12795*
X388188Y488582I12795*
X400983Y501377J12795*
G01X450708Y-564448D02*
X451121Y-564330D01*
X451475Y-564093*
X451653Y-563680*
X451712Y-563267*
X451653Y-562795*
X451475Y-562381*
X451121Y-562086*
X450708Y-562027*
X427676*
X427205Y-562086*
X426968Y-562381*
X426790Y-562795*
X426731Y-563267*
X426790Y-563680*
X426968Y-564093*
X427205Y-564330*
X427676Y-564448*
X438011*
Y-618601*
X427676*
X427205Y-618720*
X426968Y-619015*
X426790Y-619428*
X426731Y-619901*
X426790Y-620315*
X426968Y-620727*
X427205Y-620965*
X427676Y-621082*
X450708*
X451121Y-620965*
X451475Y-620727*
X451653Y-620315*
X451712Y-619901*
X451653Y-619428*
X451475Y-619015*
X451121Y-618720*
X450708Y-618601*
X440315*
Y-564448*
X450708*
X459763Y519960D02*
X479448D01*
X459763Y857991D02*
X479448D01*
X469605Y510117D02*
Y529802D01*
Y848150D02*
Y867835D01*
X482401Y519960D02*
G03X469605Y532755I12795D01*
X456810Y519960J12795*
X469605Y507165I12795*
X482401Y519960J12795*
G01Y857991D02*
G03X469605Y870786I12795D01*
X456810Y857991J12795*
X469605Y845196I12795*
X482401Y857991J12795*
G01X492815Y-619901D02*
X492873Y-620315D01*
X493168Y-620668*
X493582Y-620845*
X493995Y-620905*
X494408Y-620845*
X494763Y-620668*
X495058Y-620315*
X495176Y-619901*
Y-564448*
X513897*
X514310Y-564330*
X514665Y-564093*
X514842Y-563680*
X514901Y-563267*
X514842Y-562795*
X514665Y-562381*
X514310Y-562086*
X513897Y-562027*
X474035*
X473621Y-562086*
X473326Y-562381*
X473090Y-562795*
X473030Y-563267*
X473090Y-563680*
X473326Y-564093*
X473621Y-564330*
X474035Y-564448*
X492815*
Y-619901*
X500968Y1300235D02*
X536401D01*
Y1335668*
X500968*
Y1300235*
X518685Y1303188D02*
X533448Y1317952D01*
X518685Y1332716*
X503920Y1317952*
X518685Y1303188*
X525000Y572007D02*
X544685D01*
X525000Y805945D02*
X544685D01*
X534842Y562165D02*
Y581850D01*
Y796101D02*
Y815786D01*
X547637Y572007D02*
G03X534842Y584802I12795D01*
X522046Y572007J12795*
X534842Y559212I12796*
X547637Y572007J12795*
G01Y805945D02*
G03X534842Y818740I12795D01*
X522046Y805945J12795*
X534842Y793150I12796*
X547637Y805945J12795*
G01X561260Y647243D02*
X580945D01*
X561260Y730708D02*
X580945D01*
X570708Y-563916D02*
X550983Y-591968D01*
Y-619901*
X550865Y-620315*
X550630Y-620668*
X550216Y-620845*
X549802Y-620905*
X549390Y-620845*
X548975Y-620668*
X548740Y-620315*
X548621Y-619901*
Y-591968*
X528956Y-563916*
X528780Y-563562*
X528838Y-563150*
X529015Y-562735*
X529310Y-562440*
X529723Y-562205*
X530137Y-562145*
X530550Y-562205*
X530905Y-562500*
X549802Y-589428*
X568818Y-562500*
X569113Y-562205*
X569468Y-562145*
X569881Y-562205*
X570295Y-562440*
X570590Y-562735*
X570826Y-563150*
X570885Y-563562*
X570708Y-563916*
X571101Y637401D02*
Y657086D01*
Y720865D02*
Y740550D01*
X583897Y647243D02*
G03X571101Y660038I12796D01*
X558306Y647243J12795*
X571101Y634448I12795*
X583897Y647243J12795*
G01Y730708D02*
G03X571101Y743503I12796D01*
X558306Y730708J12795*
X571101Y717912I12795*
X583897Y730708J12795*
G01X600968Y1300235D02*
X636401D01*
Y1335668*
X600968*
Y1300235*
X618685Y1303188D02*
X633448Y1317952D01*
X618685Y1332716*
X603920Y1317952*
X618685Y1303188*
X700968Y1300235D02*
X736401D01*
Y1335668*
X700968*
Y1300235*
X708660Y-472440D02*
Y-1653542D01*
X718685Y1303188D02*
X733448Y1317952D01*
X718685Y1332716*
X703920Y1317952*
X718685Y1303188*
X800968Y1300235D02*
X836401D01*
Y1335668*
X800968*
Y1300235*
X818685Y1303188D02*
X833448Y1317952D01*
X818685Y1332716*
X803920Y1317952*
X818685Y1303188*
X876260Y-590550D02*
X886240Y-598641D01*
X886416Y-598877*
X886475Y-599172*
X886535Y-599350*
X886593Y-599527*
X886653Y-599645*
Y-611810*
X886593Y-611987*
X886475Y-612401*
X886416Y-612520*
X886240Y-612755*
X876318Y-620845*
X876023Y-620965*
X875965Y-621023*
X875845*
X875727Y-621082*
X875668*
X875550*
X855650*
X855412Y-621023*
X855176Y-620965*
X854940Y-620845*
X845020Y-612755*
X844723Y-612460*
X844665Y-612282*
Y-612105*
X844723Y-611692*
X844960Y-611280*
X845196Y-610983*
X845550Y-610747*
X845965Y-610688*
X846377Y-610806*
X856003Y-618660*
X875078*
X884290Y-611220*
Y-600235*
X875078Y-592735*
X855650*
X855412*
X855117Y-592676*
X854940Y-592558*
X845020Y-584468*
X844901Y-584408*
X844782Y-584290*
X844665Y-584113*
X844546Y-583700*
X844487Y-583465*
Y-571298*
X844546Y-571003*
X844665Y-570767*
X844782Y-570650*
X844901Y-570530*
X845020Y-570353*
X854940Y-562263*
X855176Y-562205*
X855353Y-562145*
X855412Y-562086*
X855650Y-562027*
X875550*
X875786Y-562086*
X875905Y-562145*
X876082Y-562205*
X876260Y-562263*
X883700Y-568345*
X883995Y-568641*
X884113Y-568995*
X884055Y-569408*
X883877Y-569822*
X883582Y-570117*
X883168Y-570353*
X882696Y-570412*
X882282Y-570295*
X875196Y-564448*
X856003*
X846908Y-571890*
Y-582873*
X856003Y-590373*
X875550*
X875786Y-590432*
X876023Y-590491*
X876260Y-590550*
X900968Y1300235D02*
X936401D01*
Y1335668*
X900968*
Y1300235*
X918685Y1303188D02*
X933448Y1317952D01*
X918685Y1332716*
X903920Y1317952*
X918685Y1303188*
X942282Y-563916D02*
X922558Y-591968D01*
Y-619901*
X922440Y-620315*
X922205Y-620668*
X921790Y-620845*
X921377Y-620905*
X920965Y-620845*
X920550Y-620668*
X920315Y-620315*
X920196Y-619901*
Y-591968*
X900530Y-563916*
X900353Y-563562*
X900412Y-563150*
X900590Y-562735*
X900885Y-562440*
X901298Y-562205*
X901712Y-562145*
X902125Y-562205*
X902480Y-562500*
X921377Y-589428*
X940393Y-562500*
X940688Y-562205*
X941042Y-562145*
X941456Y-562205*
X941870Y-562440*
X942165Y-562735*
X942401Y-563150*
X942460Y-563562*
X942282Y-563916*
X975767Y-241653D02*
Y-248090D01*
X1013150*
Y-241653*
X994487Y-210295*
X975767Y-241653*
X977361Y-1325786D02*
X1030511D01*
Y-1272637*
X977361*
Y-1325786*
X980315Y-1062991D02*
X1027558D01*
X980315Y-826771D02*
X1027558D01*
X985590Y647243D02*
X1005275D01*
X985590Y730708D02*
X1005275D01*
X987233Y-1552135D02*
X1020640Y-1518730D01*
X993897Y-207755D02*
X995255D01*
X995491Y-207815*
X995668Y-207932*
X996082Y-208227*
X996260Y-208345*
X1015335Y-240590*
X1015393Y-240826*
X1015452Y-240945*
X1015511Y-241062*
Y-241121*
Y-241240*
Y-265570*
X1015393Y-265983*
X1015156Y-266338*
X1014743Y-266515*
X1014330Y-266575*
X1013916Y-266515*
X1013503Y-266338*
X1013267Y-265983*
X1013150Y-265570*
Y-250511*
X975767*
Y-265570*
X975650Y-265983*
X975412Y-266338*
X975000Y-266515*
X974527Y-266575*
X974113Y-266515*
X973700Y-266338*
X973465Y-265983*
X973345Y-265570*
Y-241240*
Y-241121*
Y-241062*
X973405Y-240945*
X973465Y-240826*
X973523Y-240590*
X992835Y-208345*
X993130Y-208050*
X993483Y-207932*
X993720Y-207815*
X993897Y-207755*
X995432Y637401D02*
Y657086D01*
Y720865D02*
Y740550D01*
X995905Y-619901D02*
X995965Y-620373D01*
X996260Y-620668*
X996672Y-620845*
X997086Y-620905*
X997500Y-620845*
X997853Y-620668*
X998150Y-620373*
X998267Y-619901*
Y-563445*
Y-563267*
Y-563208*
X998208Y-562795*
X998030Y-562500*
X997676Y-562322*
X997263Y-562263*
X996850Y-562205*
X996555Y-562263*
X996260Y-562381*
X996082Y-562617*
X977185Y-593267*
X958345Y-562617*
X958050Y-562322*
X957815Y-562205*
X957460*
X957165Y-562263*
X956692Y-562322*
X956338Y-562500*
X956160Y-562795*
X956042Y-563208*
Y-563267*
Y-563445*
Y-619901*
X956160Y-620373*
X956456Y-620668*
X956810Y-620845*
X957223Y-620905*
X957696Y-620845*
X958110Y-620668*
X958405Y-620373*
X958523Y-619901*
Y-567520*
X976121Y-596280*
X976357Y-596515*
X976593Y-596692*
X976890Y-596751*
X977185Y-596692*
X977480Y-596751*
X977775Y-596692*
X978011Y-596515*
X978247Y-596280*
X995905Y-567520*
Y-619901*
X1000968Y1300235D02*
X1036401D01*
Y1335668*
X1000968*
Y1300235*
X1003936Y-1322835D02*
X1027558Y-1299212D01*
X1003936Y-1275590*
X980315Y-1299212*
X1003936Y-1322835*
Y-1086613D02*
Y-1039370D01*
Y-853345D02*
X1030511Y-826771D01*
X1003936Y-800196*
X977361Y-826771*
X1003936Y-853345*
Y-850393D02*
Y-803150D01*
X1008227Y647243D02*
G03X995432Y660038I12795D01*
X982637Y647243J12795*
X995432Y634448I12795*
X1008227Y647243J12795*
G01Y730708D02*
G03X995432Y743503I12795D01*
X982637Y730708J12795*
X995432Y717912I12795*
X1008227Y730708J12795*
G01X1014330Y-590432D02*
X1043030D01*
X1051712Y-600176*
Y-611280*
X1043150Y-618660*
X1014330*
Y-590432*
Y-564448D02*
X1043090D01*
X1049705Y-571830*
Y-582755*
X1043150Y-588011*
X1014330*
Y-564448*
X1018685Y1303188D02*
X1033448Y1317952D01*
X1018685Y1332716*
X1003920Y1317952*
X1018685Y1303188*
X1021850Y572007D02*
X1041535D01*
X1021850Y805945D02*
X1041535D01*
X1029212Y-265570D02*
X1029330Y-266042D01*
X1029625Y-266338*
X1029980Y-266692*
X1030393Y-266751*
X1070255*
X1070668Y-266692*
X1071023Y-266397*
X1071200Y-265983*
X1071260Y-265570*
X1071200Y-265097*
X1071023Y-264685*
X1070668Y-264448*
X1070255Y-264330*
X1031692*
Y-208877*
X1031575Y-208465*
X1031280Y-208110*
X1030865Y-207932*
X1030393Y-207873*
X1029980Y-207932*
X1029625Y-208110*
X1029330Y-208465*
X1029212Y-208877*
Y-265570*
X1030511Y-1535432D02*
G03X1003936Y-1508857I26575D01*
X977361Y-1535432J26575*
X1003936Y-1562007I26575*
X1030511Y-1535432J26575*
G01Y-1062991D02*
G03X1003936Y-1036416I26575D01*
X977361Y-1062991J26575*
X1003936Y-1089566I26575*
X1030511Y-1062991J26575*
G01X1031692Y562165D02*
Y581850D01*
Y796101D02*
Y815786D01*
X1044487Y572007D02*
G03X1031692Y584802I12795D01*
X1018897Y572007J12795*
X1031692Y559212I12795*
X1044487Y572007J12795*
G01Y805945D02*
G03X1031692Y818740I12795D01*
X1018897Y805945J12795*
X1031692Y793150I12795*
X1044487Y805945J12795*
G01X1052125Y-570885D02*
X1044507Y-562440D01*
X1044093Y-562145*
X1043680Y-562027*
X1013030*
X1012617Y-562145*
X1012263Y-562440*
X1011968Y-562795*
X1011850Y-563208*
Y-589015*
Y-589192*
Y-589370*
Y-619901*
X1011968Y-620315*
X1012263Y-620727*
X1012617Y-621023*
X1013030Y-621082*
X1044035*
X1053720Y-612637*
X1053956Y-612282*
X1054075Y-611810*
Y-599172*
X1045393Y-589370*
X1051593Y-584408*
X1051771Y-584172*
X1051948Y-583877*
X1052066Y-583582*
X1052125Y-583405*
Y-570885*
X1070137Y-571890D02*
Y-611220D01*
X1079231Y-618660*
X1098306*
X1107520Y-611220*
Y-571890*
X1098306Y-564448*
X1079231*
X1070137Y-571890*
X1085020Y-265570D02*
X1085137Y-266042D01*
X1085432Y-266338*
X1085786Y-266692*
X1086200Y-266751*
X1126062*
X1126475Y-266692*
X1126830Y-266397*
X1127007Y-265983*
X1127066Y-265570*
X1127007Y-265097*
X1126830Y-264685*
X1126475Y-264448*
X1126062Y-264330*
X1087500*
Y-208877*
X1087381Y-208465*
X1087086Y-208110*
X1086672Y-207932*
X1086200Y-207873*
X1085786Y-207932*
X1085432Y-208110*
X1085137Y-208465*
X1085020Y-208877*
Y-265570*
X1087086Y520078D02*
X1106771D01*
X1087086Y857991D02*
X1106771D01*
X1096928Y510235D02*
Y529920D01*
Y848150D02*
Y867835D01*
X1100968Y1300235D02*
X1136401D01*
Y1335668*
X1100968*
Y1300235*
X1109723Y520078D02*
G03X1096928Y532873I12795D01*
X1084133Y520078J12795*
X1096928Y507282I12795*
X1109723Y520078J12795*
G01Y857991D02*
G03X1096928Y870786I12795D01*
X1084133Y857991J12795*
X1096928Y845196I12795*
X1109723Y857991J12795*
G01X1109881Y-571298D02*
Y-611810D01*
X1109822Y-612105*
X1109705Y-612342*
X1109645Y-612578*
X1109468Y-612755*
X1099546Y-620845*
X1099251Y-620965*
X1099192Y-621023*
X1099075*
X1098956Y-621082*
X1098897*
X1098780*
X1078877*
X1078641Y-621023*
X1078405Y-620965*
X1078168Y-620845*
X1068247Y-612755*
X1068011Y-612578*
X1067893Y-612342*
X1067775Y-612105*
X1067716Y-611810*
Y-571298*
X1067775Y-571003*
X1067893Y-570767*
X1068011Y-570650*
X1068130Y-570530*
X1068247Y-570353*
X1078168Y-562263*
X1078405Y-562205*
X1078582Y-562145*
X1078641Y-562086*
X1078877Y-562027*
X1098780*
X1099015Y-562086*
X1099075*
X1099133Y-562145*
X1099310Y-562205*
X1099546Y-562263*
X1109468Y-570353*
X1109527Y-570530*
X1109645Y-570590*
X1109705Y-570650*
Y-570767*
X1109822Y-571003*
X1109881Y-571298*
X1118685Y1303188D02*
X1133448Y1317952D01*
X1118685Y1332716*
X1103920Y1317952*
X1118685Y1303188*
X1123465Y-619901D02*
X1123582Y-620373D01*
X1123877Y-620668*
X1124231Y-621023*
X1124645Y-621082*
X1164507*
X1164920Y-621023*
X1165275Y-620727*
X1165452Y-620315*
X1165511Y-619901*
X1165452Y-619428*
X1165275Y-619015*
X1164920Y-618780*
X1164507Y-618660*
X1125945*
Y-563208*
X1125826Y-562795*
X1125530Y-562440*
X1125117Y-562263*
X1124645Y-562205*
X1124231Y-562263*
X1123877Y-562440*
X1123582Y-562795*
X1123465Y-563208*
Y-619901*
X1168503Y501377D02*
X1188188D01*
X1178345Y491535D02*
Y511220D01*
X1185530Y-210117D02*
X1213700D01*
X1222912Y-217558*
Y-256890*
X1213700Y-264330*
X1185530*
Y-210117*
X1191141Y501377D02*
G03X1178345Y514172I12795D01*
X1165550Y501377J12795*
X1178345Y488582I12795*
X1191141Y501377J12795*
G01X1200968Y1300235D02*
X1236401D01*
Y1335668*
X1200968*
Y1300235*
X1214881Y-207932D02*
X1214586Y-207815D01*
X1214350Y-207755*
X1214113Y-207696*
X1184231*
X1183818Y-207815*
X1183465Y-208110*
X1183168Y-208465*
X1183050Y-208877*
Y-265570*
X1183168Y-266042*
X1183465Y-266338*
X1183818Y-266692*
X1184231Y-266751*
X1214113*
X1214350*
X1214468Y-266692*
X1214586Y-266633*
X1214881Y-266515*
X1224861Y-258425*
X1225038Y-258188*
X1225097Y-258070*
X1225216Y-257775*
X1225275Y-257480*
Y-216968*
X1225216Y-216672*
X1225097Y-216495*
Y-216318*
X1225038Y-216260*
X1224920Y-216200*
X1224861Y-216082*
X1214881Y-207932*
X1218685Y1303188D02*
X1233448Y1317952D01*
X1218685Y1332716*
X1203920Y1317952*
X1218685Y1303188*
X1241338Y-210117D02*
X1269566D01*
X1278780Y-217558*
Y-228542*
X1269566Y-236042*
X1241338*
Y-210117*
X1249920Y519960D02*
X1269605D01*
X1249920Y857991D02*
X1269605D01*
X1259763Y510117D02*
Y529802D01*
Y848150D02*
Y867835D01*
X1272558Y519960D02*
G03X1259763Y532755I12795D01*
X1246968Y519960J12795*
X1259763Y507165I12795*
X1272558Y519960J12795*
G01Y857991D02*
G03X1259763Y870786I12795D01*
X1246968Y857991J12795*
X1259763Y845196I12795*
X1272558Y857991J12795*
G01X1280727Y-230137D02*
X1280905Y-230020D01*
X1280965Y-229723*
X1281141Y-229428*
Y-229133*
Y-216968*
Y-216672*
X1280965Y-216495*
Y-216318*
X1280905Y-216260*
X1280845Y-216200*
X1280727Y-216082*
X1270688Y-207932*
X1270393Y-207815*
X1270156Y-207755*
X1269920Y-207696*
X1240156*
X1239625Y-207815*
X1239271Y-208110*
X1238975Y-208465*
X1238857Y-208877*
Y-265570*
X1238975Y-266042*
X1239271Y-266338*
X1239625Y-266515*
X1240038Y-266575*
X1240511Y-266515*
X1240925Y-266338*
X1241220Y-266042*
X1241338Y-265570*
Y-238405*
X1269093*
X1278780Y-265925*
X1279015Y-266338*
X1279428Y-266575*
X1279901Y-266633*
X1280255Y-266515*
X1280610Y-266338*
X1280905Y-266042*
X1281082Y-265630*
X1280965Y-265156*
X1271280Y-237637*
X1280727Y-230137*
X1299212Y-472440D02*
Y-1653542D01*
X1300968Y1300235D02*
X1336401D01*
Y1335668*
X1300968*
Y1300235*
X1315156Y572007D02*
X1334842D01*
X1315156Y805945D02*
X1334842D01*
X1318684Y1303188D02*
X1333448Y1317952D01*
X1318684Y1332716*
X1303920Y1317952*
X1318684Y1303188*
X1325000Y562165D02*
Y581850D01*
Y796101D02*
Y815786D01*
X1326260Y-210117D02*
X1326672Y-210000D01*
X1327027Y-209763*
X1327205Y-209350*
X1327263Y-208936*
X1327205Y-208465*
X1327027Y-208050*
X1326672Y-207755*
X1326260Y-207696*
X1303227*
X1302755Y-207755*
X1302520Y-208050*
X1302342Y-208465*
X1302282Y-208936*
X1302342Y-209350*
X1302520Y-209763*
X1302755Y-210000*
X1303227Y-210117*
X1313562*
Y-264271*
X1303227*
X1302755Y-264390*
X1302520Y-264685*
X1302342Y-265097*
X1302282Y-265570*
X1302342Y-265983*
X1302520Y-266397*
X1302755Y-266633*
X1303227Y-266751*
X1326260*
X1326672Y-266633*
X1327027Y-266397*
X1327205Y-265983*
X1327263Y-265570*
X1327205Y-265097*
X1327027Y-264685*
X1326672Y-264390*
X1326260Y-264271*
X1315865*
Y-210117*
X1326260*
X1337795Y572007D02*
G03X1325000Y584802I12795D01*
X1312204Y572007J12795*
X1325000Y559212I12795*
X1337795Y572007J12795*
G01Y805945D02*
G03X1325000Y818740I12795D01*
X1312204Y805945J12795*
X1325000Y793150I12795*
X1337795Y805945J12795*
G01X1348405Y-265570D02*
X1348523Y-266042D01*
X1348818Y-266338*
X1349172Y-266692*
X1349586Y-266751*
X1389448*
X1389861Y-266692*
X1390216Y-266397*
X1390393Y-265983*
X1390452Y-265570*
X1390393Y-265097*
X1390216Y-264685*
X1389861Y-264448*
X1389448Y-264330*
X1350885*
Y-208877*
X1350767Y-208465*
X1350471Y-208110*
X1350058Y-207932*
X1349586Y-207873*
X1349172Y-207932*
X1348818Y-208110*
X1348523Y-208465*
X1348405Y-208877*
Y-265570*
X1351416Y647243D02*
X1371101D01*
X1351416Y730708D02*
X1371101D01*
X1361260Y637401D02*
Y657086D01*
Y720865D02*
Y740550D01*
X1374055Y647243D02*
G03X1361260Y660038I12795D01*
X1348465Y647243J12795*
X1361260Y634448I12795*
X1374055Y647243J12795*
G01Y730708D02*
G03X1361260Y743503I12795D01*
X1348465Y730708J12795*
X1361260Y717912I12795*
X1374055Y730708J12795*
G01X1400968Y1300235D02*
X1436401D01*
Y1335668*
X1400968*
Y1300235*
X1404212Y-265570D02*
X1404330Y-266042D01*
X1404625Y-266338*
X1404980Y-266692*
X1405393Y-266751*
X1445255*
X1445668Y-266692*
X1446023Y-266397*
X1446200Y-265983*
X1446260Y-265570*
X1446200Y-265097*
X1446023Y-264685*
X1445668Y-264448*
X1445255Y-264330*
X1406692*
Y-208877*
X1406575Y-208465*
X1406280Y-208110*
X1405865Y-207932*
X1405393Y-207873*
X1404980Y-207932*
X1404625Y-208110*
X1404330Y-208465*
X1404212Y-208877*
Y-265570*
X1418685Y1303188D02*
X1433448Y1317952D01*
X1418685Y1332716*
X1403920Y1317952*
X1418685Y1303188*
X1491850Y-236220D02*
X1501830Y-244310D01*
X1502007Y-244546*
X1502066Y-244842*
X1502125Y-245020*
X1502185Y-245196*
X1502243Y-245315*
Y-257480*
X1502185Y-257656*
X1502066Y-258070*
X1502007Y-258188*
X1501830Y-258425*
X1491908Y-266515*
X1491613Y-266633*
X1491555Y-266692*
X1491436*
X1491318Y-266751*
X1491260*
X1491141*
X1471240*
X1471003Y-266692*
X1470767Y-266633*
X1470530Y-266515*
X1460610Y-258425*
X1460315Y-258130*
X1460255Y-257952*
Y-257775*
X1460315Y-257361*
X1460550Y-256948*
X1460786Y-256653*
X1461141Y-256416*
X1461555Y-256357*
X1461968Y-256475*
X1471593Y-264330*
X1490668*
X1499881Y-256890*
Y-245905*
X1490668Y-238405*
X1471240*
X1471003*
X1470708Y-238345*
X1470530Y-238227*
X1460610Y-230137*
X1460491Y-230078*
X1460373Y-229960*
X1460255Y-229782*
X1460137Y-229370*
X1460078Y-229133*
Y-216968*
X1460137Y-216672*
X1460255Y-216436*
X1460373Y-216318*
X1460491Y-216200*
X1460610Y-216023*
X1470530Y-207932*
X1470767Y-207873*
X1470945Y-207815*
X1471003Y-207755*
X1471240Y-207696*
X1491141*
X1491377Y-207755*
X1491495Y-207815*
X1491672Y-207873*
X1491850Y-207932*
X1499290Y-214015*
X1499586Y-214310*
X1499705Y-214665*
X1499645Y-215078*
X1499468Y-215491*
X1499172Y-215786*
X1498760Y-216023*
X1498286Y-216082*
X1497873Y-215965*
X1490786Y-210117*
X1471593*
X1462500Y-217558*
Y-228542*
X1471593Y-236042*
X1491141*
X1491377Y-236101*
X1491613Y-236160*
X1491850Y-236220*
X1500968Y1300235D02*
X1536401D01*
Y1335668*
X1500968*
Y1300235*
X1518685Y1303188D02*
X1533448Y1317952D01*
X1518685Y1332716*
X1503920Y1317952*
X1518685Y1303188*
X1575176Y-266338D02*
X1564487Y-252223D01*
X1564370Y-252046*
X1564310Y-251928*
X1564251Y-251751*
Y-251456*
Y-222932*
X1564310Y-222578*
X1564487Y-222282*
X1575058Y-208110*
X1575412Y-207815*
X1575767Y-207755*
X1576121Y-207873*
X1576475Y-208110*
X1576712Y-208465*
X1576830Y-208936*
Y-209350*
X1576653Y-209705*
X1566377Y-223523*
Y-251042*
X1576771Y-264743*
X1576890Y-265156*
Y-265630*
X1576712Y-266042*
X1576475Y-266397*
X1576121Y-266633*
X1575767Y-266692*
X1575590*
X1575412Y-266633*
X1575176Y-266338*
X1600968Y1300235D02*
X1636401D01*
Y1335668*
X1600968*
Y1300235*
X1607243Y-257480D02*
X1607302Y-257775D01*
X1607420Y-258011*
X1607538Y-258247*
X1607775Y-258425*
X1617755Y-266515*
X1617932Y-266633*
X1618168Y-266692*
X1618405Y-266751*
X1638306*
X1638542*
X1638660Y-266692*
X1638780Y-266633*
X1639075Y-266515*
X1649055Y-258425*
X1649231Y-258247*
X1649290Y-258011*
X1649408Y-257775*
X1649468Y-257480*
Y-208877*
X1649350Y-208465*
X1649055Y-208110*
X1648700Y-207932*
X1648286Y-207873*
X1647873Y-207932*
X1647460Y-208110*
X1647165Y-208465*
X1647105Y-208877*
Y-256890*
X1637893Y-264330*
X1618818*
X1609723Y-256890*
Y-208877*
X1609605Y-208465*
X1609310Y-208110*
X1608897Y-207932*
X1608425Y-207873*
X1608011Y-207932*
X1607656Y-208110*
X1607361Y-208465*
X1607243Y-208877*
Y-257480*
X1618685Y1303188D02*
X1633448Y1317952D01*
X1618685Y1332716*
X1603920Y1317952*
X1618685Y1303188*
X1663050Y-265570D02*
X1663168Y-266042D01*
X1663465Y-266338*
X1663818Y-266515*
X1664231Y-266575*
X1664705Y-266515*
X1665117Y-266338*
X1665412Y-266042*
X1665530Y-265570*
Y-212656*
X1703150Y-266280*
X1703326Y-266515*
X1703621Y-266633*
X1703916*
X1704271Y-266515*
X1704685Y-266397*
X1705038Y-266220*
X1705216Y-265925*
X1705275Y-265570*
Y-208877*
X1705156Y-208465*
X1704861Y-208110*
X1704507Y-207932*
X1704093Y-207873*
X1703680Y-207932*
X1703267Y-208110*
X1702971Y-208465*
X1702912Y-208877*
Y-261790*
X1665235Y-208227*
X1665000Y-207991*
X1664763Y-207873*
X1664468*
X1664172Y-207932*
X1663700Y-207991*
X1663345Y-208168*
X1663168Y-208465*
X1663050Y-208877*
Y-265570*
X1700968Y1300235D02*
X1736401D01*
Y1335668*
X1700968*
Y1300235*
X1718685Y1303188D02*
X1733448Y1317952D01*
X1718685Y1332716*
X1703920Y1317952*
X1718685Y1303188*
X1718857Y-265570D02*
X1718975Y-266042D01*
X1719271Y-266338*
X1719625Y-266692*
X1720038Y-266751*
X1759901*
X1760315Y-266692*
X1760668Y-266397*
X1760845Y-265983*
X1760905Y-265570*
X1760845Y-265097*
X1760668Y-264685*
X1760315Y-264448*
X1759901Y-264330*
X1721338*
Y-208877*
X1721220Y-208465*
X1720925Y-208110*
X1720511Y-207932*
X1720038Y-207873*
X1719625Y-207932*
X1719271Y-208110*
X1718975Y-208465*
X1718857Y-208877*
Y-265570*
X1736928Y-564448D02*
X1765097D01*
X1774310Y-571890*
Y-611220*
X1765097Y-618660*
X1736928*
Y-564448*
X1766280Y-562263D02*
X1765983Y-562145D01*
X1765747Y-562086*
X1765511Y-562027*
X1735630*
X1735216Y-562145*
X1734861Y-562440*
X1734566Y-562795*
X1734448Y-563208*
Y-619901*
X1734566Y-620373*
X1734861Y-620668*
X1735216Y-621023*
X1735630Y-621082*
X1765511*
X1765747*
X1765865Y-621023*
X1765983Y-620965*
X1766280Y-620845*
X1776260Y-612755*
X1776436Y-612520*
X1776495Y-612401*
X1776613Y-612105*
X1776672Y-611810*
Y-571298*
X1776613Y-571003*
X1776495Y-570826*
Y-570650*
X1776436Y-570590*
X1776318Y-570530*
X1776260Y-570412*
X1766280Y-562263*
X1767165Y-1515235D02*
X1777086Y-1507145D01*
X1777322Y-1507086*
X1777500Y-1507027*
X1777558Y-1506968*
X1777795Y-1506908*
X1797696*
X1797932Y-1506968*
X1797991*
X1798050Y-1507027*
X1798227Y-1507086*
X1798465Y-1507145*
X1808385Y-1515235*
X1808562Y-1515530*
X1808621Y-1515767*
X1808740Y-1515945*
X1808798Y-1516180*
Y-1556692*
X1808740Y-1556870*
X1808621Y-1557282*
X1808562Y-1557401*
X1808385Y-1557637*
X1798465Y-1565727*
X1798227Y-1565786*
X1798110Y-1565845*
X1797991Y-1565905*
X1797873Y-1565965*
X1797696*
X1777795*
X1777558Y-1565905*
X1777322Y-1565845*
X1777086Y-1565727*
X1767165Y-1557637*
X1767046Y-1557520*
X1766928Y-1557460*
X1766810Y-1557282*
X1766692Y-1556870*
X1766633Y-1556692*
Y-1516180*
X1766692Y-1515945*
X1766810Y-1515767*
X1766928Y-1515530*
X1767165Y-1515235*
Y-806575D02*
X1777086Y-798483D01*
X1777322Y-798425*
X1777500Y-798365*
X1777558Y-798306*
X1777795Y-798247*
X1797696*
X1797932Y-798306*
X1797991*
X1798050Y-798365*
X1798227Y-798425*
X1798465Y-798483*
X1808385Y-806575*
X1808562Y-806870*
X1808621Y-807105*
X1808740Y-807282*
X1808798Y-807520*
Y-848030*
X1808740Y-848208*
X1808621Y-848621*
X1808562Y-848740*
X1808385Y-848975*
X1798465Y-857066*
X1798227Y-857125*
X1798110Y-857185*
X1797991Y-857243*
X1797873Y-857302*
X1797696*
X1777795*
X1777558Y-857243*
X1777322Y-857185*
X1777086Y-857066*
X1767165Y-848975*
X1767046Y-848857*
X1766928Y-848798*
X1766810Y-848621*
X1766692Y-848208*
X1766633Y-848030*
Y-807520*
X1766692Y-807282*
X1766810Y-807105*
X1766928Y-806870*
X1767165Y-806575*
X1767460Y-1042795D02*
X1777381Y-1034705D01*
X1777617Y-1034645*
X1777795Y-1034586*
X1777853Y-1034527*
X1778090Y-1034468*
X1797991*
X1798227Y-1034527*
X1798286*
X1798345Y-1034586*
X1798523Y-1034645*
X1798760Y-1034705*
X1808680Y-1042795*
X1808857Y-1043090*
X1808916Y-1043326*
X1809035Y-1043503*
X1809093Y-1043740*
Y-1084251*
X1809035Y-1084428*
X1808916Y-1084842*
X1808857Y-1084960*
X1808680Y-1085196*
X1798760Y-1093286*
X1798523Y-1093345*
X1798405Y-1093405*
X1798286Y-1093465*
X1798168Y-1093523*
X1797991*
X1778090*
X1777853Y-1093465*
X1777617Y-1093405*
X1777381Y-1093286*
X1767460Y-1085196*
X1767342Y-1085078*
X1767223Y-1085020*
X1767105Y-1084842*
X1766987Y-1084428*
X1766928Y-1084251*
Y-1043740*
X1766987Y-1043503*
X1767105Y-1043326*
X1767223Y-1043090*
X1767460Y-1042795*
X1768227Y-1279015D02*
X1778150Y-1270925D01*
X1778385Y-1270865*
X1778562Y-1270806*
X1778621Y-1270747*
X1778857Y-1270688*
X1798760*
X1798995Y-1270747*
X1799055*
X1799113Y-1270806*
X1799290Y-1270865*
X1799527Y-1270925*
X1809448Y-1279015*
X1809625Y-1279310*
X1809685Y-1279546*
X1809802Y-1279723*
X1809861Y-1279960*
Y-1320471*
X1809802Y-1320649*
X1809685Y-1321062*
X1809625Y-1321180*
X1809448Y-1321416*
X1799527Y-1329507*
X1799290Y-1329566*
X1799172Y-1329625*
X1799055Y-1329685*
X1798936Y-1329743*
X1798760*
X1778857*
X1778621Y-1329685*
X1778385Y-1329625*
X1778150Y-1329507*
X1768227Y-1321416*
X1768110Y-1321298*
X1767991Y-1321240*
X1767873Y-1321062*
X1767755Y-1320649*
X1767696Y-1320471*
Y-1279960*
X1767755Y-1279723*
X1767873Y-1279546*
X1767991Y-1279310*
X1768227Y-1279015*
X1769055Y-1516771D02*
Y-1556101D01*
X1772538Y-1559055*
X1801121Y-1512460*
X1797223Y-1509330*
X1778150*
X1769055Y-1516771*
Y-808110D02*
Y-847440D01*
X1772538Y-850393*
X1801121Y-803798*
X1797223Y-800668*
X1778150*
X1769055Y-808110*
X1769350Y-1044330D02*
Y-1083660D01*
X1772835Y-1086613*
X1801416Y-1040020*
X1797520Y-1036890*
X1778445*
X1769350Y-1044330*
X1770117Y-1280550D02*
Y-1319881D01*
X1773601Y-1322835*
X1802185Y-1276240*
X1798286Y-1273110*
X1779212*
X1770117Y-1280550*
X1774428Y-1560590D02*
X1778150Y-1563542D01*
X1797223*
X1806436Y-1556101*
Y-1516771*
X1802952Y-1513995*
X1774428Y-1560590*
Y-851928D02*
X1778150Y-854881D01*
X1797223*
X1806436Y-847440*
Y-808110*
X1802952Y-805335*
X1774428Y-851928*
X1774723Y-1088150D02*
X1778445Y-1091101D01*
X1797520*
X1806731Y-1083660*
Y-1044330*
X1803247Y-1041555*
X1774723Y-1088150*
X1775491Y-1324370D02*
X1779212Y-1327322D01*
X1798286*
X1807500Y-1319881*
Y-1280550*
X1804015Y-1277775*
X1775491Y-1324370*
X1775747Y647243D02*
X1795432D01*
X1775747Y730708D02*
X1795432D01*
X1785590Y637401D02*
Y657086D01*
Y720865D02*
Y740550D01*
X1798385Y647243D02*
G03X1785590Y660038I12795D01*
X1772795Y647243J12795*
X1785590Y634448I12795*
X1798385Y647243J12795*
G01Y730708D02*
G03X1785590Y743503I12795D01*
X1772795Y730708J12795*
X1785590Y717912I12795*
X1798385Y730708J12795*
G01X1800968Y1300235D02*
X1836401D01*
Y1335668*
X1800968*
Y1300235*
X1812007Y572007D02*
X1831692D01*
X1812007Y805945D02*
X1831692D01*
X1813818Y-383680D02*
X1813936Y-384153D01*
X1814231Y-384448*
X1814586Y-384625*
X1815000Y-384685*
X1815471Y-384625*
X1815885Y-384448*
X1816180Y-384153*
X1816298Y-383680*
Y-356515*
X1853680*
Y-383680*
X1853740Y-384153*
X1854035Y-384448*
X1854448Y-384625*
X1854861Y-384685*
X1855275Y-384625*
X1855630Y-384448*
X1855925Y-384153*
X1856042Y-383680*
Y-326987*
X1855925Y-326575*
X1855630Y-326220*
X1855275Y-326042*
X1854861Y-325983*
X1854448Y-326042*
X1854035Y-326220*
X1853740Y-326575*
X1853680Y-326987*
Y-354153*
X1816298*
Y-326987*
X1816180Y-326575*
X1815885Y-326220*
X1815471Y-326042*
X1815000Y-325983*
X1814586Y-326042*
X1814231Y-326220*
X1813936Y-326575*
X1813818Y-326987*
Y-383680*
X1815708Y-210117D02*
X1816121Y-210000D01*
X1816475Y-209763*
X1816653Y-209350*
X1816712Y-208936*
X1816653Y-208465*
X1816475Y-208110*
X1816121Y-207815*
X1815708Y-207696*
X1775845*
X1775432Y-207815*
X1775078Y-208110*
X1774782Y-208465*
X1774665Y-208877*
Y-265570*
X1774782Y-265983*
X1775078Y-266338*
X1775432Y-266633*
X1775845Y-266751*
X1815708*
X1816121Y-266633*
X1816475Y-266397*
X1816653Y-265983*
X1816712Y-265570*
X1816653Y-265097*
X1816475Y-264685*
X1816121Y-264390*
X1815708Y-264271*
X1777145*
Y-238405*
X1803897*
X1804310Y-238286*
X1804665Y-237991*
X1804842Y-237637*
X1804901Y-237223*
X1804842Y-236810*
X1804665Y-236397*
X1804310Y-236101*
X1803897Y-236042*
X1777145*
Y-210117*
X1815708*
X1818685Y1303188D02*
X1833448Y1317952D01*
X1818685Y1332716*
X1803920Y1317952*
X1818685Y1303188*
X1821850Y-564448D02*
X1822263Y-564330D01*
X1822617Y-564093*
X1822795Y-563680*
X1822853Y-563267*
X1822795Y-562795*
X1822617Y-562381*
X1822263Y-562086*
X1821850Y-562027*
X1798818*
X1798345Y-562086*
X1798110Y-562381*
X1797932Y-562795*
X1797873Y-563267*
X1797932Y-563680*
X1798110Y-564093*
X1798345Y-564330*
X1798818Y-564448*
X1809153*
Y-618601*
X1798818*
X1798345Y-618720*
X1798110Y-619015*
X1797932Y-619428*
X1797873Y-619901*
X1797932Y-620315*
X1798110Y-620727*
X1798345Y-620965*
X1798818Y-621082*
X1821850*
X1822263Y-620965*
X1822617Y-620727*
X1822795Y-620315*
X1822853Y-619901*
X1822795Y-619428*
X1822617Y-619015*
X1822263Y-618720*
X1821850Y-618601*
X1811456*
Y-564448*
X1821850*
Y562165D02*
Y581850D01*
Y796101D02*
Y815786D01*
X1822971Y-806575D02*
X1832893Y-798483D01*
X1833130Y-798425*
X1833306Y-798365*
X1833365Y-798306*
X1833601Y-798247*
X1853503*
X1853740Y-798306*
X1853798*
X1853857Y-798365*
X1854035Y-798425*
X1854271Y-798483*
X1864192Y-806575*
X1864370Y-806870*
X1864428Y-807105*
X1864546Y-807282*
X1864605Y-807520*
Y-848030*
X1864546Y-848208*
X1864428Y-848621*
X1864370Y-848740*
X1864192Y-848975*
X1854271Y-857066*
X1854035Y-857125*
X1853916Y-857185*
X1853798Y-857243*
X1853680Y-857302*
X1853503*
X1833601*
X1833365Y-857243*
X1833130Y-857185*
X1832893Y-857066*
X1822971Y-848975*
X1822853Y-848857*
X1822735Y-848798*
X1822617Y-848621*
X1822500Y-848208*
X1822440Y-848030*
Y-807520*
X1822500Y-807282*
X1822617Y-807105*
X1822735Y-806870*
X1822971Y-806575*
X1823267Y-1042795D02*
X1833188Y-1034705D01*
X1833425Y-1034645*
X1833601Y-1034586*
X1833660Y-1034527*
X1833897Y-1034468*
X1853798*
X1854035Y-1034527*
X1854093*
X1854153Y-1034586*
X1854330Y-1034645*
X1854566Y-1034705*
X1864487Y-1042795*
X1864665Y-1043090*
X1864723Y-1043326*
X1864842Y-1043503*
X1864901Y-1043740*
Y-1084251*
X1864842Y-1084428*
X1864723Y-1084842*
X1864665Y-1084960*
X1864487Y-1085196*
X1854566Y-1093286*
X1854330Y-1093345*
X1854212Y-1093405*
X1854093Y-1093465*
X1853975Y-1093523*
X1853798*
X1833897*
X1833660Y-1093465*
X1833425Y-1093405*
X1833188Y-1093286*
X1823267Y-1085196*
X1823150Y-1085078*
X1823030Y-1085020*
X1822912Y-1084842*
X1822795Y-1084428*
X1822735Y-1084251*
Y-1043740*
X1822795Y-1043503*
X1822912Y-1043326*
X1823030Y-1043090*
X1823267Y-1042795*
X1824861Y-808110D02*
Y-847440D01*
X1828345Y-850393*
X1856928Y-803798*
X1853030Y-800668*
X1833956*
X1824861Y-808110*
X1825156Y-1044330D02*
Y-1083660D01*
X1828641Y-1086613*
X1857223Y-1040020*
X1853326Y-1036890*
X1834251*
X1825156Y-1044330*
X1830235Y-851928D02*
X1833956Y-854881D01*
X1853030*
X1862243Y-847440*
Y-808110*
X1858760Y-805335*
X1830235Y-851928*
X1830530Y-1088150D02*
X1834251Y-1091101D01*
X1853326*
X1862538Y-1083660*
Y-1044330*
X1859055Y-1041555*
X1830530Y-1088150*
X1832007Y-1327322D02*
X1831535Y-1327440D01*
X1831298Y-1327676*
X1831121Y-1328090*
X1831062Y-1328562*
X1831121Y-1328975*
X1831298Y-1329390*
X1831535Y-1329685*
X1832007Y-1329743*
X1855038*
X1855452Y-1329685*
X1855806Y-1329390*
X1855983Y-1328975*
X1856042Y-1328562*
X1855983Y-1328090*
X1855806Y-1327676*
X1855452Y-1327440*
X1855038Y-1327322*
X1844645*
Y-1271870*
X1844586Y-1271456*
X1844408Y-1271160*
X1844113Y-1270983*
X1843700Y-1270925*
X1843405Y-1270865*
X1843110*
X1842873Y-1270983*
X1842637Y-1271220*
X1831121Y-1287401*
X1830945Y-1287815*
Y-1288227*
X1831121Y-1288582*
X1831416Y-1288877*
X1831771Y-1289113*
X1832185Y-1289231*
X1832420*
X1832597Y-1289172*
X1832893Y-1288818*
X1842342Y-1275590*
Y-1327322*
X1832007*
X1834645Y572007D02*
G03X1821850Y584802I12795D01*
X1809055Y572007J12795*
X1821850Y559212I12795*
X1834645Y572007J12795*
G01Y805945D02*
G03X1821850Y818740I12795D01*
X1809055Y805945J12795*
X1821850Y793150I12795*
X1834645Y805945J12795*
G01X1846475Y-595983D02*
Y-602420D01*
X1883857*
Y-595983*
X1865196Y-564625*
X1846475Y-595983*
X1854271Y-1507145D02*
X1864192Y-1515235D01*
X1864370Y-1515530*
X1864428Y-1515767*
X1864546Y-1515945*
X1864605Y-1516180*
Y-1524271*
X1864546Y-1524507*
X1864428Y-1524861*
X1864370Y-1525156*
X1864192Y-1525275*
X1824861Y-1557223*
Y-1563542*
X1863425*
X1863838Y-1563660*
X1864192Y-1563897*
X1864370Y-1564310*
X1864428Y-1564782*
X1864370Y-1565196*
X1864192Y-1565610*
X1863838Y-1565845*
X1863425Y-1565965*
X1823621*
X1823150Y-1565845*
X1822853Y-1565550*
X1822558Y-1565255*
X1822440Y-1564782*
Y-1556692*
X1822500Y-1556515*
X1822617Y-1556101*
X1822735Y-1555925*
X1822853Y-1555806*
X1822971Y-1555688*
X1862243Y-1523680*
Y-1516771*
X1853030Y-1509330*
X1833956*
X1824330Y-1517185*
X1823916Y-1517302*
X1823503Y-1517243*
X1823150Y-1517066*
X1822912Y-1516712*
X1822676Y-1516357*
X1822617Y-1515945*
Y-1515708*
X1822676Y-1515530*
X1822971Y-1515235*
X1832893Y-1507145*
X1833130Y-1507086*
X1833306Y-1507027*
X1833365Y-1506968*
X1833601Y-1506908*
X1853503*
X1853740Y-1506968*
X1853798*
X1853857Y-1507027*
X1854035Y-1507086*
X1854271Y-1507145*
X1856987Y-147460D02*
X1857046Y-147873D01*
X1857342Y-148227*
X1857755Y-148405*
X1858168Y-148465*
X1858582Y-148405*
X1858936Y-148227*
X1859231Y-147873*
X1859350Y-147460*
Y-92007*
X1878070*
X1878483Y-91890*
X1878838Y-91653*
X1879015Y-91240*
X1879075Y-90826*
X1879015Y-90353*
X1878838Y-89940*
X1878483Y-89645*
X1878070Y-89586*
X1838208*
X1837795Y-89645*
X1837500Y-89940*
X1837263Y-90353*
X1837205Y-90826*
X1837263Y-91240*
X1837500Y-91653*
X1837795Y-91890*
X1838208Y-92007*
X1856987*
Y-147460*
X1862302Y-236220D02*
X1872282Y-244310D01*
X1872460Y-244546*
X1872520Y-244842*
X1872578Y-245020*
X1872637Y-245196*
X1872696Y-245315*
Y-257480*
X1872637Y-257656*
X1872520Y-258070*
X1872460Y-258188*
X1872282Y-258425*
X1862361Y-266515*
X1862066Y-266633*
X1862007Y-266692*
X1861890*
X1861771Y-266751*
X1861712*
X1861593*
X1841692*
X1841456Y-266692*
X1841220Y-266633*
X1840983Y-266515*
X1831062Y-258425*
X1830767Y-258130*
X1830708Y-257952*
Y-257775*
X1830767Y-257361*
X1831003Y-256948*
X1831240Y-256653*
X1831593Y-256416*
X1832007Y-256357*
X1832420Y-256475*
X1842046Y-264330*
X1861121*
X1870335Y-256890*
Y-245905*
X1861121Y-238405*
X1841692*
X1841456*
X1841160Y-238345*
X1840983Y-238227*
X1831062Y-230137*
X1830945Y-230078*
X1830826Y-229960*
X1830708Y-229782*
X1830590Y-229370*
X1830530Y-229133*
Y-216968*
X1830590Y-216672*
X1830708Y-216436*
X1830826Y-216318*
X1830945Y-216200*
X1831062Y-216023*
X1840983Y-207932*
X1841220Y-207873*
X1841397Y-207815*
X1841456Y-207755*
X1841692Y-207696*
X1861593*
X1861830Y-207755*
X1861948Y-207815*
X1862125Y-207873*
X1862302Y-207932*
X1869743Y-214015*
X1870038Y-214310*
X1870156Y-214665*
X1870097Y-215078*
X1869920Y-215491*
X1869625Y-215786*
X1869212Y-216023*
X1868740Y-216082*
X1868326Y-215965*
X1861240Y-210117*
X1842046*
X1832952Y-217558*
Y-228542*
X1842046Y-236042*
X1861593*
X1861830Y-236101*
X1862066Y-236160*
X1862302Y-236220*
X1864605Y-562086D02*
X1865965D01*
X1866200Y-562145*
X1866377Y-562263*
X1866790Y-562558*
X1866968Y-562676*
X1886042Y-594920*
X1886101Y-595156*
X1886160Y-595275*
X1886220Y-595393*
Y-595452*
Y-595570*
Y-619901*
X1886101Y-620315*
X1885865Y-620668*
X1885452Y-620845*
X1885038Y-620905*
X1884625Y-620845*
X1884212Y-620668*
X1883975Y-620315*
X1883857Y-619901*
Y-604842*
X1846475*
Y-619901*
X1846357Y-620315*
X1846121Y-620668*
X1845708Y-620845*
X1845235Y-620905*
X1844822Y-620845*
X1844408Y-620668*
X1844172Y-620315*
X1844055Y-619901*
Y-595570*
Y-595452*
Y-595393*
X1844113Y-595275*
X1844172Y-595156*
X1844231Y-594920*
X1863542Y-562676*
X1863838Y-562381*
X1864192Y-562263*
X1864428Y-562145*
X1864605Y-562086*
X1869625Y-383680D02*
X1869743Y-384093D01*
X1869920Y-384330*
X1870275Y-384507*
X1870630Y-384625*
X1871042Y-384743*
X1871338*
X1871633Y-384566*
X1871928Y-384271*
X1890767Y-353680*
X1909665Y-384271*
X1909901Y-384566*
X1910137Y-384743*
X1910491*
X1910845Y-384625*
X1911260Y-384507*
X1911613Y-384330*
X1911790Y-384035*
X1911850Y-383680*
Y-326987*
X1911731Y-326575*
X1911436Y-326220*
X1911082Y-326042*
X1910668Y-325983*
X1910255Y-326042*
X1909842Y-326220*
X1909546Y-326575*
X1909487Y-326987*
Y-379370*
X1891830Y-350610*
X1891593Y-350432*
X1891298Y-350315*
X1891062Y-350255*
X1890767*
X1890471*
X1890235Y-350315*
X1890000Y-350432*
X1889705Y-350610*
X1872105Y-379370*
Y-326987*
X1871987Y-326575*
X1871692Y-326220*
X1871280Y-326042*
X1870806Y-325983*
X1870393Y-326042*
X1870038Y-326220*
X1869743Y-326575*
X1869625Y-326987*
Y-383503*
Y-383680*
X1877243Y857991D02*
X1896928D01*
X1887086Y848150D02*
Y867835D01*
X1888760Y-1322302D02*
Y-1328740D01*
X1888818Y-1329035*
X1888877Y-1329212*
X1888995Y-1329330*
X1889113Y-1329390*
X1889350Y-1329685*
X1889705Y-1329743*
X1896200*
X1896555Y-1329685*
X1896850Y-1329390*
X1897145Y-1329153*
X1897205Y-1328740*
Y-1322302*
X1897145Y-1321890*
X1896850Y-1321653*
X1896555Y-1321357*
X1896200Y-1321298*
X1889705*
X1889350Y-1321357*
X1889113Y-1321653*
X1888995Y-1321712*
X1888877Y-1321830*
X1888818Y-1322066*
X1888760Y-1322302*
X1889763Y-1558523D02*
Y-1564960D01*
X1889822Y-1565255*
X1889881Y-1565432*
X1890000Y-1565550*
X1890117Y-1565610*
X1890353Y-1565905*
X1890708Y-1565965*
X1897205*
X1897558Y-1565905*
X1897853Y-1565610*
X1898150Y-1565373*
X1898208Y-1564960*
Y-1558523*
X1898150Y-1558110*
X1897853Y-1557873*
X1897558Y-1557578*
X1897205Y-1557520*
X1890708*
X1890353Y-1557578*
X1890117Y-1557873*
X1890000Y-1557932*
X1889881Y-1558050*
X1889822Y-1558286*
X1889763Y-1558523*
Y-849861D02*
Y-856298D01*
X1889822Y-856593*
X1889881Y-856771*
X1890000Y-856890*
X1890117Y-856948*
X1890353Y-857243*
X1890708Y-857302*
X1897205*
X1897558Y-857243*
X1897853Y-856948*
X1898150Y-856712*
X1898208Y-856298*
Y-849861*
X1898150Y-849448*
X1897853Y-849212*
X1897558Y-848916*
X1897205Y-848857*
X1890708*
X1890353Y-848916*
X1890117Y-849212*
X1890000Y-849271*
X1889881Y-849390*
X1889822Y-849625*
X1889763Y-849861*
X1890058Y-1086082D02*
Y-1092520D01*
X1890117Y-1092815*
X1890176Y-1092991*
X1890295Y-1093110*
X1890412Y-1093168*
X1890650Y-1093465*
X1891003Y-1093523*
X1897500*
X1897853Y-1093465*
X1898150Y-1093168*
X1898445Y-1092932*
X1898503Y-1092520*
Y-1086082*
X1898445Y-1085668*
X1898150Y-1085432*
X1897853Y-1085137*
X1897500Y-1085078*
X1891003*
X1890650Y-1085137*
X1890412Y-1085432*
X1890295Y-1085491*
X1890176Y-1085610*
X1890117Y-1085845*
X1890058Y-1086082*
X1890708Y-1323247D02*
X1895255D01*
Y-1327795*
X1890708*
Y-1323247*
X1891712Y-1559468D02*
X1896260D01*
Y-1564015*
X1891712*
Y-1559468*
Y-850806D02*
X1896260D01*
Y-855353*
X1891712*
Y-850806*
X1892007Y-1087027D02*
X1896555D01*
Y-1091575*
X1892007*
Y-1087027*
X1892835Y-147460D02*
X1892952Y-147932D01*
X1893247Y-148227*
X1893601Y-148405*
X1894015Y-148465*
X1894487Y-148405*
X1894901Y-148227*
X1895196Y-147932*
X1895315Y-147460*
Y-120295*
X1932696*
Y-147460*
X1932755Y-147932*
X1933050Y-148227*
X1933465Y-148405*
X1933877Y-148465*
X1934290Y-148405*
X1934645Y-148227*
X1934940Y-147932*
X1935058Y-147460*
Y-90767*
X1934940Y-90353*
X1934645Y-90000*
X1934290Y-89822*
X1933877Y-89763*
X1933465Y-89822*
X1933050Y-90000*
X1932755Y-90353*
X1932696Y-90767*
Y-117932*
X1895315*
Y-90767*
X1895196Y-90353*
X1894901Y-90000*
X1894487Y-89822*
X1894015Y-89763*
X1893601Y-89822*
X1893247Y-90000*
X1892952Y-90353*
X1892835Y-90767*
Y-147460*
X1899881Y857991D02*
G03X1887086Y870786I12795D01*
X1874290Y857991J12795*
X1887086Y845196I12795*
X1899881Y857991J12795*
G01X1900968Y1300235D02*
X1936401D01*
Y1335668*
X1900968*
Y1300235*
X1918110Y-236220D02*
X1928090Y-244310D01*
X1928267Y-244546*
X1928326Y-244842*
X1928385Y-245020*
X1928445Y-245196*
X1928503Y-245315*
Y-257480*
X1928445Y-257656*
X1928326Y-258070*
X1928267Y-258188*
X1928090Y-258425*
X1918168Y-266515*
X1917873Y-266633*
X1917815Y-266692*
X1917696*
X1917578Y-266751*
X1917520*
X1917401*
X1897500*
X1897263Y-266692*
X1897027Y-266633*
X1896790Y-266515*
X1886870Y-258425*
X1886575Y-258130*
X1886515Y-257952*
Y-257775*
X1886575Y-257361*
X1886810Y-256948*
X1887046Y-256653*
X1887401Y-256416*
X1887815Y-256357*
X1888227Y-256475*
X1897853Y-264330*
X1916928*
X1926141Y-256890*
Y-245905*
X1916928Y-238405*
X1897500*
X1897263*
X1896968Y-238345*
X1896790Y-238227*
X1886870Y-230137*
X1886751Y-230078*
X1886633Y-229960*
X1886515Y-229782*
X1886397Y-229370*
X1886338Y-229133*
Y-216968*
X1886397Y-216672*
X1886515Y-216436*
X1886633Y-216318*
X1886751Y-216200*
X1886870Y-216023*
X1896790Y-207932*
X1897027Y-207873*
X1897205Y-207815*
X1897263Y-207755*
X1897500Y-207696*
X1917401*
X1917637Y-207755*
X1917755Y-207815*
X1917932Y-207873*
X1918110Y-207932*
X1925550Y-214015*
X1925845Y-214310*
X1925965Y-214665*
X1925905Y-215078*
X1925727Y-215491*
X1925432Y-215786*
X1925020Y-216023*
X1924546Y-216082*
X1924133Y-215965*
X1917046Y-210117*
X1897853*
X1888760Y-217558*
Y-228542*
X1897853Y-236042*
X1917401*
X1917637Y-236101*
X1917873Y-236160*
X1918110Y-236220*
X1918685Y1303188D02*
X1933448Y1317952D01*
X1918685Y1332716*
X1903920Y1317952*
X1918685Y1303188*
X1923188Y-1279015D02*
X1933110Y-1270925D01*
X1933345Y-1270865*
X1933523Y-1270806*
X1933582Y-1270747*
X1933818Y-1270688*
X1953720*
X1953956Y-1270747*
X1954015*
X1954075Y-1270806*
X1954251Y-1270865*
X1954487Y-1270925*
X1964408Y-1279015*
X1964586Y-1279310*
X1964645Y-1279546*
X1964763Y-1279723*
X1964822Y-1279960*
Y-1320471*
X1964763Y-1320649*
X1964645Y-1321062*
X1964586Y-1321180*
X1964408Y-1321416*
X1954487Y-1329507*
X1954251Y-1329566*
X1954133Y-1329625*
X1954015Y-1329685*
X1953897Y-1329743*
X1953720*
X1933818*
X1933582Y-1329685*
X1933345Y-1329625*
X1933110Y-1329507*
X1923188Y-1321416*
X1923070Y-1321298*
X1922952Y-1321240*
X1922835Y-1321062*
X1922716Y-1320649*
X1922656Y-1320471*
Y-1279960*
X1922716Y-1279723*
X1922835Y-1279546*
X1922952Y-1279310*
X1923188Y-1279015*
X1925078Y-1280550D02*
Y-1319881D01*
X1928562Y-1322835*
X1957145Y-1276240*
X1953247Y-1273110*
X1934172*
X1925078Y-1280550*
X1927735Y-835806D02*
X1959507Y-804153D01*
Y-835806*
X1927735*
X1930156Y-1068247D02*
Y-1085727D01*
X1935471Y-1091101*
X1956023*
X1961280Y-1085727*
Y-1068247*
X1959566Y-1063168*
X1931751*
X1930156Y-1068247*
Y-1042322D02*
Y-1055727D01*
X1931751Y-1060806*
X1959566*
X1961280Y-1055727*
Y-1042322*
X1956023Y-1036890*
X1935471*
X1930156Y-1042322*
X1930452Y-1324370D02*
X1934172Y-1327322D01*
X1953247*
X1962460Y-1319881*
Y-1280550*
X1958975Y-1277775*
X1930452Y-1324370*
X1933582Y-358641D02*
X1952538D01*
X1952952Y-358700*
X1953247Y-358936*
X1953425Y-359231*
X1953483Y-359586*
X1953425Y-360058*
X1953247Y-360353*
X1952952Y-360590*
X1952538Y-360650*
X1933582*
X1933168Y-360590*
X1932873Y-360353*
X1932696Y-360058*
X1932637Y-359586*
X1932696Y-359231*
X1932815Y-358936*
X1933110Y-358700*
X1933582Y-358641*
X1934113Y-1565727D02*
X1924133Y-1557637D01*
X1923838Y-1557342*
X1923780Y-1556987*
X1923838Y-1556575*
X1924075Y-1556160*
X1924370Y-1555865*
X1924723Y-1555630*
X1925137Y-1555570*
X1925550Y-1555688*
X1935176Y-1563542*
X1954251*
X1963465Y-1556101*
Y-1545117*
X1954370Y-1537617*
X1944566*
X1944093Y-1537500*
X1943798Y-1537263*
X1943621Y-1536850*
X1943562Y-1536436*
X1943621Y-1536023*
X1943798Y-1535668*
X1944093Y-1535373*
X1944566Y-1535255*
X1954370*
X1963465Y-1527755*
Y-1516771*
X1954251Y-1509330*
X1935176*
X1925550Y-1517185*
X1925137Y-1517302*
X1924723Y-1517243*
X1924370Y-1517066*
X1924075Y-1516712*
X1923838Y-1516357*
X1923780Y-1515945*
X1923838Y-1515530*
X1924133Y-1515235*
X1934113Y-1507145*
X1934290Y-1507086*
X1934468Y-1507027*
X1934527Y-1506968*
X1934763Y-1506908*
X1954665*
X1954960Y-1506968*
X1955078Y-1507027*
X1955255Y-1507086*
X1955432Y-1507145*
X1965412Y-1515235*
X1965590Y-1515530*
X1965650Y-1515767*
X1965767Y-1515945*
X1965826Y-1516180*
Y-1528345*
X1965767Y-1528523*
X1965650Y-1528936*
X1965590Y-1529231*
X1965412Y-1529350*
X1956731Y-1536436*
X1965412Y-1543523*
X1965471Y-1543641*
X1965590Y-1543760*
X1965650Y-1543818*
Y-1543936*
X1965767Y-1544350*
X1965826Y-1544527*
Y-1556692*
X1965767Y-1556987*
X1965650Y-1557223*
X1965590Y-1557460*
X1965412Y-1557637*
X1955432Y-1565727*
X1955196Y-1565845*
X1955137Y-1565905*
X1954960*
X1954901Y-1565965*
X1954842*
X1954665*
X1934763*
X1934527Y-1565905*
X1934290Y-1565845*
X1934113Y-1565727*
X1939782Y-619901D02*
X1939842Y-620373D01*
X1940137Y-620668*
X1940550Y-620845*
X1940965Y-620905*
X1941377Y-620845*
X1941731Y-620668*
X1942027Y-620373*
X1942145Y-619901*
Y-563445*
Y-563267*
Y-563208*
X1942086Y-562795*
X1941908Y-562500*
X1941555Y-562322*
X1941141Y-562263*
X1940727Y-562205*
X1940432Y-562263*
X1940137Y-562381*
X1939960Y-562617*
X1921062Y-593267*
X1902223Y-562617*
X1901928Y-562322*
X1901692Y-562205*
X1901338*
X1901042Y-562263*
X1900570Y-562322*
X1900216Y-562500*
X1900038Y-562795*
X1899920Y-563208*
Y-563267*
Y-563445*
Y-619901*
X1900038Y-620373*
X1900335Y-620668*
X1900688Y-620845*
X1901101Y-620905*
X1901575Y-620845*
X1901987Y-620668*
X1902282Y-620373*
X1902401Y-619901*
Y-567520*
X1920000Y-596280*
X1920235Y-596515*
X1920471Y-596692*
X1920767Y-596751*
X1921062Y-596692*
X1921357Y-596751*
X1921653Y-596692*
X1921890Y-596515*
X1922125Y-596280*
X1939782Y-567520*
Y-619901*
X1951121Y-92007D02*
X1979350D01*
X1988562Y-99448*
Y-110432*
X1979350Y-117932*
X1951121*
Y-92007*
X1958660Y501377D02*
X1978345D01*
X1958660Y876575D02*
X1978345D01*
X1959507Y-856121D02*
X1959566Y-856593D01*
X1959861Y-856890*
X1960275Y-857066*
X1960688Y-857125*
X1961101Y-857066*
X1961456Y-856890*
X1961751Y-856593*
X1961870Y-856121*
Y-838227*
X1964645*
X1965058Y-838110*
X1965412Y-837873*
X1965590Y-837460*
X1965650Y-837046*
X1965590Y-836575*
X1965412Y-836160*
X1965058Y-835865*
X1964645Y-835806*
X1961870*
Y-801082*
X1961810Y-800786*
X1961633Y-800550*
X1961397Y-800315*
X1961101Y-800137*
X1960747Y-800020*
X1960393Y-799960*
X1960097Y-800020*
X1959802Y-800255*
X1923956Y-836101*
X1923720Y-836456*
X1923601Y-836810*
X1923660Y-837165*
X1923897Y-837578*
X1924015Y-837873*
X1924251Y-838050*
X1924487Y-838168*
X1924782Y-838227*
X1959507*
Y-856121*
X1963582Y-1056260D02*
X1961692Y-1061928D01*
X1963582Y-1067597*
Y-1067775*
X1963641Y-1068011*
Y-1086260*
Y-1086436*
X1963582Y-1086613*
X1963523Y-1086850*
X1963286Y-1087086*
X1957381Y-1093168*
X1957145Y-1093405*
X1956790Y-1093465*
X1956555Y-1093523*
X1934881*
X1934705*
X1934527Y-1093465*
X1934290Y-1093405*
X1934055Y-1093168*
X1928150Y-1087086*
X1927912Y-1086850*
X1927795Y-1086613*
Y-1086260*
Y-1068011*
Y-1067775*
Y-1067656*
X1927853Y-1067597*
X1929743Y-1061928*
X1927853Y-1056260*
X1927795Y-1056200*
Y-1055845*
Y-1041672*
Y-1041436*
X1927912Y-1041141*
X1928150Y-1040845*
X1934055Y-1034763*
X1934290Y-1034586*
X1934527Y-1034527*
X1934705Y-1034468*
X1934881*
X1956555*
X1956790Y-1034527*
X1957145Y-1034586*
X1957381Y-1034763*
X1963286Y-1040845*
X1963523Y-1041200*
X1963582Y-1041436*
X1963641Y-1041672*
Y-1055845*
Y-1056082*
X1963582Y-1056200*
Y-1056260*
X1968503Y491535D02*
Y511220D01*
Y866731D02*
Y886416D01*
X1979586Y-334133D02*
X1989507Y-326042D01*
X1989743Y-325983*
X1989920Y-325925*
X1989980Y-325865*
X1990216Y-325806*
X2010117*
X2010353Y-325865*
X2010412*
X2010471Y-325925*
X2010650Y-325983*
X2010885Y-326042*
X2020806Y-334133*
X2020983Y-334428*
X2021042Y-334665*
X2021160Y-334842*
X2021220Y-335078*
Y-375590*
X2021160Y-375767*
X2021042Y-376180*
X2020983Y-376298*
X2020806Y-376535*
X2010885Y-384625*
X2010650Y-384685*
X2010530Y-384743*
X2010412Y-384802*
X2010295Y-384861*
X2010117*
X1990216*
X1989980Y-384802*
X1989743Y-384743*
X1989507Y-384625*
X1979586Y-376535*
X1979468Y-376416*
X1979350Y-376357*
X1979231Y-376180*
X1979113Y-375767*
X1979055Y-375590*
Y-335078*
X1979113Y-334842*
X1979231Y-334665*
X1979350Y-334428*
X1979586Y-334133*
X1979763Y-1042795D02*
X1989685Y-1034705D01*
X1989920Y-1034645*
X1990097Y-1034586*
X1990156Y-1034527*
X1990393Y-1034468*
X2010295*
X2010530Y-1034527*
X2010590*
X2010650Y-1034586*
X2010826Y-1034645*
X2011062Y-1034705*
X2020983Y-1042795*
X2021160Y-1043090*
X2021220Y-1043326*
X2021338Y-1043503*
X2021397Y-1043740*
Y-1084251*
X2021338Y-1084428*
X2021220Y-1084842*
X2021160Y-1084960*
X2020983Y-1085196*
X2011062Y-1093286*
X2010826Y-1093345*
X2010708Y-1093405*
X2010590Y-1093465*
X2010471Y-1093523*
X2010295*
X1990393*
X1990156Y-1093465*
X1989920Y-1093405*
X1989685Y-1093286*
X1979763Y-1085196*
X1979645Y-1085078*
X1979527Y-1085020*
X1979408Y-1084842*
X1979290Y-1084428*
X1979231Y-1084251*
Y-1043740*
X1979290Y-1043503*
X1979408Y-1043326*
X1979527Y-1043090*
X1979763Y-1042795*
X1980000Y-1515235D02*
X1989920Y-1507145D01*
X1990156Y-1507086*
X1990335Y-1507027*
X1990393Y-1506968*
X1990630Y-1506908*
X2010530*
X2010767Y-1506968*
X2010826*
X2010885Y-1507027*
X2011062Y-1507086*
X2011298Y-1507145*
X2021220Y-1515235*
X2021397Y-1515530*
X2021456Y-1515767*
X2021575Y-1515945*
X2021633Y-1516180*
Y-1556692*
X2021575Y-1556870*
X2021456Y-1557282*
X2021397Y-1557401*
X2021220Y-1557637*
X2011298Y-1565727*
X2011062Y-1565786*
X2010945Y-1565845*
X2010826Y-1565905*
X2010708Y-1565965*
X2010530*
X1990630*
X1990393Y-1565905*
X1990156Y-1565845*
X1989920Y-1565727*
X1980000Y-1557637*
X1979881Y-1557520*
X1979763Y-1557460*
X1979645Y-1557282*
X1979527Y-1556870*
X1979468Y-1556692*
Y-1516180*
X1979527Y-1515945*
X1979645Y-1515767*
X1979763Y-1515530*
X1980000Y-1515235*
Y-806575D02*
X1989920Y-798483D01*
X1990156Y-798425*
X1990335Y-798365*
X1990393Y-798306*
X1990630Y-798247*
X2010530*
X2010767Y-798306*
X2010826*
X2010885Y-798365*
X2011062Y-798425*
X2011298Y-798483*
X2021220Y-806575*
X2021397Y-806870*
X2021456Y-807105*
X2021575Y-807282*
X2021633Y-807520*
Y-848030*
X2021575Y-848208*
X2021456Y-848621*
X2021397Y-848740*
X2021220Y-848975*
X2011298Y-857066*
X2011062Y-857125*
X2010945Y-857185*
X2010826Y-857243*
X2010708Y-857302*
X2010530*
X1990630*
X1990393Y-857243*
X1990156Y-857185*
X1989920Y-857066*
X1980000Y-848975*
X1979881Y-848857*
X1979763Y-848798*
X1979645Y-848621*
X1979527Y-848208*
X1979468Y-848030*
Y-807520*
X1979527Y-807282*
X1979645Y-807105*
X1979763Y-806870*
X1980000Y-806575*
X1981298Y501377D02*
G03X1968503Y514172I12795D01*
X1955708Y501377J12795*
X1968503Y488582I12795*
X1981298Y501377J12795*
G01Y876575D02*
G03X1968503Y889370I12795D01*
X1955708Y876575J12795*
X1968503Y863780I12795*
X1981298Y876575J12795*
G01X1981475Y-335668D02*
Y-375000D01*
X1984960Y-377952*
X2013542Y-331357*
X2009645Y-328227*
X1990570*
X1981475Y-335668*
X1981653Y-1044330D02*
Y-1083660D01*
X1985137Y-1086613*
X2013720Y-1040020*
X2009822Y-1036890*
X1990747*
X1981653Y-1044330*
X1981890Y-1516771D02*
Y-1556101D01*
X1985373Y-1559055*
X2013956Y-1512460*
X2010058Y-1509330*
X1990983*
X1981890Y-1516771*
Y-808110D02*
Y-847440D01*
X1985373Y-850393*
X2013956Y-803798*
X2010058Y-800668*
X1990983*
X1981890Y-808110*
X1986850Y-379487D02*
X1990570Y-382440D01*
X2009645*
X2018857Y-375000*
Y-335668*
X2015373Y-332893*
X1986850Y-379487*
X1987027Y-1088150D02*
X1990747Y-1091101D01*
X2009822*
X2019035Y-1083660*
Y-1044330*
X2015550Y-1041555*
X1987027Y-1088150*
X1987263Y-1560590D02*
X1990983Y-1563542D01*
X2010058*
X2019271Y-1556101*
Y-1516771*
X2015786Y-1513995*
X1987263Y-1560590*
Y-851928D02*
X1990983Y-854881D01*
X2010058*
X2019271Y-847440*
Y-808110*
X2015786Y-805335*
X1987263Y-851928*
X1989566Y-1291003D02*
X1989330Y-1291062D01*
X1989153Y-1291121*
X1988916Y-1291240*
X1980885Y-1297735*
Y-1273110*
X2019448*
X2019861Y-1272991*
X2020216Y-1272755*
X2020393Y-1272342*
X2020452Y-1271928*
X2020393Y-1271456*
X2020216Y-1271101*
X2019861Y-1270806*
X2019448Y-1270688*
X1979586*
X1979172Y-1270806*
X1978818Y-1271101*
X1978523Y-1271456*
X1978405Y-1271870*
Y-1300275*
X1978465Y-1300688*
X1978641Y-1300983*
X1978877Y-1301160*
X1979290Y-1301280*
X1979586Y-1301397*
X1979822Y-1301456*
X1980117Y-1301397*
X1980353Y-1301220*
X1989980Y-1293365*
X2009055*
X2018267Y-1300865*
Y-1319881*
X2009055Y-1327263*
X1989980*
X1980353Y-1319468*
X1979940Y-1319290*
X1979586*
X1979231Y-1319527*
X1978877Y-1319822*
X1978641Y-1320235*
X1978582Y-1320649*
X1978641Y-1321062*
X1978936Y-1321357*
X1988916Y-1329507*
X1989093Y-1329625*
X1989330*
X1989566Y-1329743*
X2009468*
X2009645*
X2009705Y-1329685*
X2009763*
X2009881Y-1329625*
X2010000*
X2010235Y-1329507*
X2020216Y-1321357*
X2020393Y-1321180*
X2020452Y-1321062*
X2020570Y-1320708*
X2020630Y-1320471*
Y-1300275*
X2020570Y-1300038*
X2020452Y-1299685*
Y-1299566*
X2020393Y-1299507*
X2020275Y-1299390*
X2020216Y-1299271*
X2010235Y-1291240*
X2009940Y-1291121*
X2009705Y-1291062*
X2009468Y-1291003*
X1989566*
X1990511Y-112027D02*
X1990688Y-111908D01*
X1990747Y-111613*
X1990925Y-111318*
Y-111023*
Y-98857*
Y-98562*
X1990747Y-98385*
Y-98208*
X1990688Y-98150*
X1990630Y-98090*
X1990511Y-97971*
X1980471Y-89822*
X1980176Y-89705*
X1979940Y-89645*
X1979705Y-89586*
X1949940*
X1949408Y-89705*
X1949055Y-90000*
X1948760Y-90353*
X1948641Y-90767*
Y-147460*
X1948760Y-147932*
X1949055Y-148227*
X1949408Y-148405*
X1949822Y-148465*
X1950295Y-148405*
X1950708Y-148227*
X1951003Y-147932*
X1951121Y-147460*
Y-120295*
X1978877*
X1988562Y-147815*
X1988798Y-148227*
X1989212Y-148465*
X1989685Y-148523*
X1990038Y-148405*
X1990393Y-148227*
X1990688Y-147932*
X1990865Y-147520*
X1990747Y-147046*
X1981062Y-119527*
X1990511Y-112027*
X1996771Y-564448D02*
X1997185Y-564330D01*
X1997538Y-564093*
X1997716Y-563680*
X1997775Y-563267*
X1997716Y-562795*
X1997538Y-562440*
X1997185Y-562145*
X1996771Y-562027*
X1956908*
X1956495Y-562145*
X1956141Y-562440*
X1955845Y-562795*
X1955727Y-563208*
Y-619901*
X1955845Y-620315*
X1956141Y-620668*
X1956495Y-620965*
X1956908Y-621082*
X1996771*
X1997185Y-620965*
X1997538Y-620727*
X1997716Y-620315*
X1997775Y-619901*
X1997716Y-619428*
X1997538Y-619015*
X1997185Y-618720*
X1996771Y-618601*
X1958208*
Y-592735*
X1984960*
X1985373Y-592617*
X1985727Y-592322*
X1985905Y-591968*
X1985965Y-591555*
X1985905Y-591141*
X1985727Y-590727*
X1985373Y-590432*
X1984960Y-590373*
X1958208*
Y-564448*
X1996771*
X2000968Y1300235D02*
X2036401D01*
Y1335668*
X2000968*
Y1300235*
X2006928Y-99448D02*
Y-138780D01*
X2016023Y-146220*
X2035097*
X2044310Y-138780*
Y-99448*
X2035097Y-92007*
X2016023*
X2006928Y-99448*
X2016141Y-236220D02*
X2026121Y-244310D01*
X2026298Y-244546*
X2026357Y-244842*
X2026416Y-245020*
X2026475Y-245196*
X2026535Y-245315*
Y-257480*
X2026475Y-257656*
X2026357Y-258070*
X2026298Y-258188*
X2026121Y-258425*
X2016200Y-266515*
X2015905Y-266633*
X2015845Y-266692*
X2015727*
X2015610Y-266751*
X2015550*
X2015432*
X1995530*
X1995295Y-266692*
X1995058Y-266633*
X1994822Y-266515*
X1984901Y-258425*
X1984605Y-258130*
X1984546Y-257952*
Y-257775*
X1984605Y-257361*
X1984842Y-256948*
X1985078Y-256653*
X1985432Y-256416*
X1985845Y-256357*
X1986260Y-256475*
X1995885Y-264330*
X2014960*
X2024172Y-256890*
Y-245905*
X2014960Y-238405*
X1995530*
X1995295*
X1995000Y-238345*
X1994822Y-238227*
X1984901Y-230137*
X1984782Y-230078*
X1984665Y-229960*
X1984546Y-229782*
X1984428Y-229370*
X1984370Y-229133*
Y-216968*
X1984428Y-216672*
X1984546Y-216436*
X1984665Y-216318*
X1984782Y-216200*
X1984901Y-216023*
X1994822Y-207932*
X1995058Y-207873*
X1995235Y-207815*
X1995295Y-207755*
X1995530Y-207696*
X2015432*
X2015668Y-207755*
X2015786Y-207815*
X2015965Y-207873*
X2016141Y-207932*
X2023582Y-214015*
X2023877Y-214310*
X2023995Y-214665*
X2023936Y-215078*
X2023760Y-215491*
X2023465Y-215786*
X2023050Y-216023*
X2022578Y-216082*
X2022165Y-215965*
X2015078Y-210117*
X1995885*
X1986790Y-217558*
Y-228542*
X1995885Y-236042*
X2015432*
X2015668Y-236101*
X2015905Y-236160*
X2016141Y-236220*
X2018685Y1303188D02*
X2033448Y1317952D01*
X2018685Y1332716*
X2003920Y1317952*
X2018685Y1303188*
X2031495Y-619901D02*
X2031555Y-620315D01*
X2031850Y-620668*
X2032263Y-620845*
X2032676Y-620905*
X2033090Y-620845*
X2033445Y-620668*
X2033740Y-620315*
X2033857Y-619901*
Y-564448*
X2052578*
X2052991Y-564330*
X2053345Y-564093*
X2053523Y-563680*
X2053582Y-563267*
X2053523Y-562795*
X2053345Y-562381*
X2052991Y-562086*
X2052578Y-562027*
X2012716*
X2012302Y-562086*
X2012007Y-562381*
X2011771Y-562795*
X2011712Y-563267*
X2011771Y-563680*
X2012007Y-564093*
X2012302Y-564330*
X2012716Y-564448*
X2031495*
Y-619901*
X2034802Y-1279015D02*
X2044723Y-1270925D01*
X2044960Y-1270865*
X2045137Y-1270806*
X2045196Y-1270747*
X2045432Y-1270688*
X2065335*
X2065570Y-1270747*
X2065630*
X2065688Y-1270806*
X2065865Y-1270865*
X2066101Y-1270925*
X2076023Y-1279015*
X2076200Y-1279310*
X2076260Y-1279546*
X2076377Y-1279723*
X2076436Y-1279960*
Y-1320471*
X2076377Y-1320649*
X2076260Y-1321062*
X2076200Y-1321180*
X2076023Y-1321416*
X2066101Y-1329507*
X2065865Y-1329566*
X2065747Y-1329625*
X2065630Y-1329685*
X2065511Y-1329743*
X2065335*
X2045432*
X2045196Y-1329685*
X2044960Y-1329625*
X2044723Y-1329507*
X2034802Y-1321416*
X2034685Y-1321298*
X2034566Y-1321240*
X2034448Y-1321062*
X2034330Y-1320649*
X2034271Y-1320471*
Y-1279960*
X2034330Y-1279723*
X2034448Y-1279546*
X2034566Y-1279310*
X2034802Y-1279015*
X2035393Y-334133D02*
X2045315Y-326042D01*
X2045550Y-325983*
X2045727Y-325925*
X2045786Y-325865*
X2046023Y-325806*
X2065925*
X2066160Y-325865*
X2066220*
X2066280Y-325925*
X2066456Y-325983*
X2066692Y-326042*
X2076613Y-334133*
X2076790Y-334428*
X2076850Y-334665*
X2076968Y-334842*
X2077027Y-335078*
Y-375590*
X2076968Y-375767*
X2076850Y-376180*
X2076790Y-376298*
X2076613Y-376535*
X2066692Y-384625*
X2066456Y-384685*
X2066338Y-384743*
X2066220Y-384802*
X2066101Y-384861*
X2065925*
X2046023*
X2045786Y-384802*
X2045550Y-384743*
X2045315Y-384625*
X2035393Y-376535*
X2035275Y-376416*
X2035156Y-376357*
X2035038Y-376180*
X2034920Y-375767*
X2034861Y-375590*
Y-335078*
X2034920Y-334842*
X2035038Y-334665*
X2035156Y-334428*
X2035393Y-334133*
X2035570Y-1042795D02*
X2045491Y-1034705D01*
X2045727Y-1034645*
X2045905Y-1034586*
X2045965Y-1034527*
X2046200Y-1034468*
X2066101*
X2066338Y-1034527*
X2066397*
X2066456Y-1034586*
X2066633Y-1034645*
X2066870Y-1034705*
X2076790Y-1042795*
X2076968Y-1043090*
X2077027Y-1043326*
X2077145Y-1043503*
X2077205Y-1043740*
Y-1084251*
X2077145Y-1084428*
X2077027Y-1084842*
X2076968Y-1084960*
X2076790Y-1085196*
X2066870Y-1093286*
X2066633Y-1093345*
X2066515Y-1093405*
X2066397Y-1093465*
X2066280Y-1093523*
X2066101*
X2046200*
X2045965Y-1093465*
X2045727Y-1093405*
X2045491Y-1093286*
X2035570Y-1085196*
X2035452Y-1085078*
X2035335Y-1085020*
X2035216Y-1084842*
X2035097Y-1084428*
X2035038Y-1084251*
Y-1043740*
X2035097Y-1043503*
X2035216Y-1043326*
X2035335Y-1043090*
X2035570Y-1042795*
X2035806Y-1515235D02*
X2045727Y-1507145D01*
X2045965Y-1507086*
X2046141Y-1507027*
X2046200Y-1506968*
X2046436Y-1506908*
X2066338*
X2066575Y-1506968*
X2066633*
X2066692Y-1507027*
X2066870Y-1507086*
X2067105Y-1507145*
X2077027Y-1515235*
X2077205Y-1515530*
X2077263Y-1515767*
X2077381Y-1515945*
X2077440Y-1516180*
Y-1556692*
X2077381Y-1556870*
X2077263Y-1557282*
X2077205Y-1557401*
X2077027Y-1557637*
X2067105Y-1565727*
X2066870Y-1565786*
X2066751Y-1565845*
X2066633Y-1565905*
X2066515Y-1565965*
X2066338*
X2046436*
X2046200Y-1565905*
X2045965Y-1565845*
X2045727Y-1565727*
X2035806Y-1557637*
X2035688Y-1557520*
X2035570Y-1557460*
X2035452Y-1557282*
X2035335Y-1556870*
X2035275Y-1556692*
Y-1516180*
X2035335Y-1515945*
X2035452Y-1515767*
X2035570Y-1515530*
X2035806Y-1515235*
Y-806575D02*
X2045727Y-798483D01*
X2045965Y-798425*
X2046141Y-798365*
X2046200Y-798306*
X2046436Y-798247*
X2066338*
X2066575Y-798306*
X2066633*
X2066692Y-798365*
X2066870Y-798425*
X2067105Y-798483*
X2077027Y-806575*
X2077205Y-806870*
X2077263Y-807105*
X2077381Y-807282*
X2077440Y-807520*
Y-848030*
X2077381Y-848208*
X2077263Y-848621*
X2077205Y-848740*
X2077027Y-848975*
X2067105Y-857066*
X2066870Y-857125*
X2066751Y-857185*
X2066633Y-857243*
X2066515Y-857302*
X2066338*
X2046436*
X2046200Y-857243*
X2045965Y-857185*
X2045727Y-857066*
X2035806Y-848975*
X2035688Y-848857*
X2035570Y-848798*
X2035452Y-848621*
X2035335Y-848208*
X2035275Y-848030*
Y-807520*
X2035335Y-807282*
X2035452Y-807105*
X2035570Y-806870*
X2035806Y-806575*
X2036692Y-1280550D02*
Y-1319881D01*
X2040176Y-1322835*
X2068760Y-1276240*
X2064861Y-1273110*
X2045786*
X2036692Y-1280550*
X2037282Y-335668D02*
Y-375000D01*
X2040767Y-377952*
X2069350Y-331357*
X2065452Y-328227*
X2046377*
X2037282Y-335668*
X2037460Y-1044330D02*
Y-1083660D01*
X2040945Y-1086613*
X2069527Y-1040020*
X2065630Y-1036890*
X2046555*
X2037460Y-1044330*
X2037696Y-1516771D02*
Y-1556101D01*
X2041180Y-1559055*
X2069763Y-1512460*
X2065865Y-1509330*
X2046790*
X2037696Y-1516771*
Y-808110D02*
Y-847440D01*
X2041180Y-850393*
X2069763Y-803798*
X2065865Y-800668*
X2046790*
X2037696Y-808110*
X2040078Y519960D02*
X2059763D01*
X2040078Y857873D02*
X2059763D01*
X2042066Y-1324370D02*
X2045786Y-1327322D01*
X2064861*
X2074075Y-1319881*
Y-1280550*
X2070590Y-1277775*
X2042066Y-1324370*
X2042597Y-210117D02*
X2070826D01*
X2080038Y-217558*
Y-228542*
X2070826Y-236042*
X2042597*
Y-210117*
X2042656Y-379487D02*
X2046377Y-382440D01*
X2065452*
X2074665Y-375000*
Y-335668*
X2071180Y-332893*
X2042656Y-379487*
X2042835Y-1088150D02*
X2046555Y-1091101D01*
X2065630*
X2074842Y-1083660*
Y-1044330*
X2071357Y-1041555*
X2042835Y-1088150*
X2043070Y-1560590D02*
X2046790Y-1563542D01*
X2065865*
X2075078Y-1556101*
Y-1516771*
X2071593Y-1513995*
X2043070Y-1560590*
Y-851928D02*
X2046790Y-854881D01*
X2065865*
X2075078Y-847440*
Y-808110*
X2071593Y-805335*
X2043070Y-851928*
X2046672Y-98857D02*
Y-139370D01*
X2046613Y-139665*
X2046495Y-139901*
X2046436Y-140137*
X2046260Y-140315*
X2036338Y-148405*
X2036042Y-148523*
X2035983Y-148582*
X2035865*
X2035747Y-148641*
X2035688*
X2035570*
X2015668*
X2015432Y-148582*
X2015196Y-148523*
X2014960Y-148405*
X2005038Y-140315*
X2004802Y-140137*
X2004685Y-139901*
X2004566Y-139665*
X2004507Y-139370*
Y-98857*
X2004566Y-98562*
X2004685Y-98326*
X2004802Y-98208*
X2004920Y-98090*
X2005038Y-97912*
X2014960Y-89822*
X2015196Y-89763*
X2015373Y-89705*
X2015432Y-89645*
X2015668Y-89586*
X2035570*
X2035806Y-89645*
X2035865*
X2035925Y-89705*
X2036101Y-89763*
X2036338Y-89822*
X2046260Y-97912*
X2046318Y-98090*
X2046436Y-98150*
X2046495Y-98208*
Y-98326*
X2046613Y-98562*
X2046672Y-98857*
X2049920Y510117D02*
Y529802D01*
Y848030D02*
Y867716D01*
X2060255Y-139370D02*
X2060315Y-139665D01*
X2060432Y-139901*
X2060550Y-140137*
X2060786Y-140315*
X2070767Y-148405*
X2070945Y-148523*
X2071180Y-148582*
X2071416Y-148641*
X2091318*
X2091555*
X2091672Y-148582*
X2091790Y-148523*
X2092086Y-148405*
X2102066Y-140315*
X2102243Y-140137*
X2102302Y-139901*
X2102420Y-139665*
X2102480Y-139370*
Y-90767*
X2102361Y-90353*
X2102066Y-90000*
X2101712Y-89822*
X2101298Y-89763*
X2100885Y-89822*
X2100471Y-90000*
X2100176Y-90353*
X2100117Y-90767*
Y-138780*
X2090905Y-146220*
X2071830*
X2062735Y-138780*
Y-90767*
X2062617Y-90353*
X2062322Y-90000*
X2061908Y-89822*
X2061436Y-89763*
X2061023Y-89822*
X2060668Y-90000*
X2060373Y-90353*
X2060255Y-90767*
Y-139370*
X2062716Y519960D02*
G03X2049920Y532755I12795D01*
X2037125Y519960J12795*
X2049920Y507165I12795*
X2062716Y519960J12795*
G01Y857873D02*
G03X2049920Y870668I12795D01*
X2037125Y857873J12795*
X2049920Y845078I12795*
X2062716Y857873J12795*
G01X2081987Y-230137D02*
X2082165Y-230020D01*
X2082223Y-229723*
X2082401Y-229428*
Y-229133*
Y-216968*
Y-216672*
X2082223Y-216495*
Y-216318*
X2082165Y-216260*
X2082105Y-216200*
X2081987Y-216082*
X2071948Y-207932*
X2071653Y-207815*
X2071416Y-207755*
X2071180Y-207696*
X2041416*
X2040885Y-207815*
X2040530Y-208110*
X2040235Y-208465*
X2040117Y-208877*
Y-265570*
X2040235Y-266042*
X2040530Y-266338*
X2040885Y-266515*
X2041298Y-266575*
X2041771Y-266515*
X2042185Y-266338*
X2042480Y-266042*
X2042597Y-265570*
Y-238405*
X2071180*
X2071593Y-238345*
X2071771Y-238286*
X2071830*
X2071948Y-238227*
X2081987Y-230137*
X2090610Y-1279015D02*
X2100530Y-1270925D01*
X2100767Y-1270865*
X2100945Y-1270806*
X2101003Y-1270747*
X2101240Y-1270688*
X2121141*
X2121377Y-1270747*
X2121436*
X2121495Y-1270806*
X2121672Y-1270865*
X2121908Y-1270925*
X2131830Y-1279015*
X2132007Y-1279310*
X2132066Y-1279546*
X2132185Y-1279723*
X2132243Y-1279960*
Y-1320471*
X2132185Y-1320649*
X2132066Y-1321062*
X2132007Y-1321180*
X2131830Y-1321416*
X2121908Y-1329507*
X2121672Y-1329566*
X2121555Y-1329625*
X2121436Y-1329685*
X2121318Y-1329743*
X2121141*
X2101240*
X2101003Y-1329685*
X2100767Y-1329625*
X2100530Y-1329507*
X2090610Y-1321416*
X2090491Y-1321298*
X2090373Y-1321240*
X2090255Y-1321062*
X2090137Y-1320649*
X2090078Y-1320471*
Y-1279960*
X2090137Y-1279723*
X2090255Y-1279546*
X2090373Y-1279310*
X2090610Y-1279015*
X2091200Y-334133D02*
X2101121Y-326042D01*
X2101357Y-325983*
X2101535Y-325925*
X2101593Y-325865*
X2101830Y-325806*
X2121731*
X2121968Y-325865*
X2122027*
X2122086Y-325925*
X2122263Y-325983*
X2122500Y-326042*
X2132420Y-334133*
X2132597Y-334428*
X2132656Y-334665*
X2132775Y-334842*
X2132835Y-335078*
Y-375590*
X2132775Y-375767*
X2132656Y-376180*
X2132597Y-376298*
X2132420Y-376535*
X2122500Y-384625*
X2122263Y-384685*
X2122145Y-384743*
X2122027Y-384802*
X2121908Y-384861*
X2121731*
X2101830*
X2101593Y-384802*
X2101357Y-384743*
X2101121Y-384625*
X2091200Y-376535*
X2091082Y-376416*
X2090965Y-376357*
X2090845Y-376180*
X2090727Y-375767*
X2090668Y-375590*
Y-335078*
X2090727Y-334842*
X2090845Y-334665*
X2090965Y-334428*
X2091200Y-334133*
X2091377Y-1042795D02*
X2101298Y-1034705D01*
X2101535Y-1034645*
X2101712Y-1034586*
X2101771Y-1034527*
X2102007Y-1034468*
X2121908*
X2122145Y-1034527*
X2122205*
X2122263Y-1034586*
X2122440Y-1034645*
X2122676Y-1034705*
X2132597Y-1042795*
X2132775Y-1043090*
X2132835Y-1043326*
X2132952Y-1043503*
X2133011Y-1043740*
Y-1084251*
X2132952Y-1084428*
X2132835Y-1084842*
X2132775Y-1084960*
X2132597Y-1085196*
X2122676Y-1093286*
X2122440Y-1093345*
X2122322Y-1093405*
X2122205Y-1093465*
X2122086Y-1093523*
X2121908*
X2102007*
X2101771Y-1093465*
X2101535Y-1093405*
X2101298Y-1093286*
X2091377Y-1085196*
X2091260Y-1085078*
X2091141Y-1085020*
X2091023Y-1084842*
X2090905Y-1084428*
X2090845Y-1084251*
Y-1043740*
X2090905Y-1043503*
X2091023Y-1043326*
X2091141Y-1043090*
X2091377Y-1042795*
X2091613Y-1515235D02*
X2101535Y-1507145D01*
X2101771Y-1507086*
X2101948Y-1507027*
X2102007Y-1506968*
X2102243Y-1506908*
X2122145*
X2122381Y-1506968*
X2122440*
X2122500Y-1507027*
X2122676Y-1507086*
X2122912Y-1507145*
X2132835Y-1515235*
X2133011Y-1515530*
X2133070Y-1515767*
X2133188Y-1515945*
X2133247Y-1516180*
Y-1556692*
X2133188Y-1556870*
X2133070Y-1557282*
X2133011Y-1557401*
X2132835Y-1557637*
X2122912Y-1565727*
X2122676Y-1565786*
X2122558Y-1565845*
X2122440Y-1565905*
X2122322Y-1565965*
X2122145*
X2102243*
X2102007Y-1565905*
X2101771Y-1565845*
X2101535Y-1565727*
X2091613Y-1557637*
X2091495Y-1557520*
X2091377Y-1557460*
X2091260Y-1557282*
X2091141Y-1556870*
X2091082Y-1556692*
Y-1516180*
X2091141Y-1515945*
X2091260Y-1515767*
X2091377Y-1515530*
X2091613Y-1515235*
Y-806575D02*
X2101535Y-798483D01*
X2101771Y-798425*
X2101948Y-798365*
X2102007Y-798306*
X2102243Y-798247*
X2122145*
X2122381Y-798306*
X2122440*
X2122500Y-798365*
X2122676Y-798425*
X2122912Y-798483*
X2132835Y-806575*
X2133011Y-806870*
X2133070Y-807105*
X2133188Y-807282*
X2133247Y-807520*
Y-848030*
X2133188Y-848208*
X2133070Y-848621*
X2133011Y-848740*
X2132835Y-848975*
X2122912Y-857066*
X2122676Y-857125*
X2122558Y-857185*
X2122440Y-857243*
X2122322Y-857302*
X2122145*
X2102243*
X2102007Y-857243*
X2101771Y-857185*
X2101535Y-857066*
X2091613Y-848975*
X2091495Y-848857*
X2091377Y-848798*
X2091260Y-848621*
X2091141Y-848208*
X2091082Y-848030*
Y-807520*
X2091141Y-807282*
X2091260Y-807105*
X2091377Y-806870*
X2091613Y-806575*
X2092500Y-1280550D02*
Y-1319881D01*
X2095983Y-1322835*
X2124566Y-1276240*
X2120668Y-1273110*
X2101593*
X2092500Y-1280550*
X2093090Y-335668D02*
Y-375000D01*
X2096575Y-377952*
X2125156Y-331357*
X2121260Y-328227*
X2102185*
X2093090Y-335668*
X2093267Y-1044330D02*
Y-1083660D01*
X2096751Y-1086613*
X2125335Y-1040020*
X2121436Y-1036890*
X2102361*
X2093267Y-1044330*
X2093503Y-1516771D02*
Y-1556101D01*
X2096987Y-1559055*
X2125570Y-1512460*
X2121672Y-1509330*
X2102597*
X2093503Y-1516771*
Y-808110D02*
Y-847440D01*
X2096987Y-850393*
X2125570Y-803798*
X2121672Y-800668*
X2102597*
X2093503Y-808110*
X2097873Y-1324370D02*
X2101593Y-1327322D01*
X2120668*
X2129881Y-1319881*
Y-1280550*
X2126397Y-1277775*
X2097873Y-1324370*
X2098465Y-379487D02*
X2102185Y-382440D01*
X2121260*
X2130471Y-375000*
Y-335668*
X2126987Y-332893*
X2098465Y-379487*
X2098641Y-1088150D02*
X2102361Y-1091101D01*
X2121436*
X2130650Y-1083660*
Y-1044330*
X2127165Y-1041555*
X2098641Y-1088150*
X2098877Y-1560590D02*
X2102597Y-1563542D01*
X2121672*
X2130885Y-1556101*
Y-1516771*
X2127401Y-1513995*
X2098877Y-1560590*
Y-851928D02*
X2102597Y-854881D01*
X2121672*
X2130885Y-847440*
Y-808110*
X2127401Y-805335*
X2098877Y-851928*
X2100968Y1300235D02*
X2136401D01*
Y1335668*
X2100968*
Y1300235*
X2105315Y572007D02*
X2125000D01*
X2105315Y805945D02*
X2125000D01*
X2108385Y-564448D02*
X2108798Y-564330D01*
X2109153Y-564093*
X2109330Y-563680*
X2109390Y-563267*
X2109330Y-562795*
X2109153Y-562440*
X2108798Y-562145*
X2108385Y-562027*
X2068523*
X2068110Y-562145*
X2067755Y-562440*
X2067460Y-562795*
X2067342Y-563208*
Y-619901*
X2067460Y-620315*
X2067755Y-620668*
X2068110Y-620965*
X2068523Y-621082*
X2108385*
X2108798Y-620965*
X2109153Y-620727*
X2109330Y-620315*
X2109390Y-619901*
X2109330Y-619428*
X2109153Y-619015*
X2108798Y-618720*
X2108385Y-618601*
X2069822*
Y-592735*
X2096575*
X2096987Y-592617*
X2097342Y-592322*
X2097520Y-591968*
X2097578Y-591555*
X2097520Y-591141*
X2097342Y-590727*
X2096987Y-590432*
X2096575Y-590373*
X2069822*
Y-564448*
X2108385*
X2115156Y562165D02*
Y581850D01*
Y796101D02*
Y815786D01*
X2118685Y1303188D02*
X2133448Y1317952D01*
X2118685Y1332716*
X2103920Y1317952*
X2118685Y1303188*
X2125630Y-564448D02*
X2153857D01*
X2163070Y-571890*
Y-582873*
X2153857Y-590373*
X2125630*
Y-564448*
X2127952Y572007D02*
G03X2115156Y584802I12796D01*
X2102361Y572007J12795*
X2115156Y559212I12795*
X2127952Y572007J12795*
G01Y805945D02*
G03X2115156Y818740I12796D01*
X2102361Y805945J12795*
X2115156Y793150I12795*
X2127952Y805945J12795*
G01X2136968Y-210117D02*
X2137381Y-210000D01*
X2137735Y-209763*
X2137912Y-209350*
X2137971Y-208936*
X2137912Y-208465*
X2137735Y-208110*
X2137381Y-207815*
X2136968Y-207696*
X2097105*
X2096692Y-207815*
X2096338Y-208110*
X2096042Y-208465*
X2095925Y-208877*
Y-265570*
X2096042Y-265983*
X2096338Y-266338*
X2096692Y-266633*
X2097105Y-266751*
X2136968*
X2137381Y-266633*
X2137735Y-266397*
X2137912Y-265983*
X2137971Y-265570*
X2137912Y-265097*
X2137735Y-264685*
X2137381Y-264390*
X2136968Y-264271*
X2098405*
Y-238405*
X2125156*
X2125570Y-238286*
X2125925Y-237991*
X2126101Y-237637*
X2126160Y-237223*
X2126101Y-236810*
X2125925Y-236397*
X2125570Y-236101*
X2125156Y-236042*
X2098405*
Y-210117*
X2136968*
X2141575Y647243D02*
X2161260D01*
X2141575Y730708D02*
X2161260D01*
X2147952Y-89822D02*
X2157873Y-97912D01*
X2158168Y-98208*
X2158227Y-98680*
X2158168Y-99035*
X2158050Y-99330*
X2157873Y-99566*
X2157578Y-99802*
X2157282Y-99980*
X2156987Y-100038*
X2156692*
X2156456Y-99861*
X2146771Y-92007*
X2127637*
X2118542Y-99448*
Y-138780*
X2127637Y-146220*
X2146712*
X2155925Y-138780*
Y-124310*
X2147125*
X2146712Y-124192*
X2146416Y-123956*
X2146180Y-123542*
X2146121Y-123130*
X2146180Y-122716*
X2146416Y-122361*
X2146712Y-122066*
X2147125Y-121948*
X2157105*
X2157578Y-122066*
X2157932Y-122302*
X2158227Y-122656*
X2158286Y-123130*
Y-139370*
X2158227Y-139665*
X2158110Y-139842*
X2158050Y-140137*
X2157873Y-140315*
X2147952Y-148405*
X2147656Y-148523*
X2147597Y-148582*
X2147480*
X2147361Y-148641*
X2147302*
X2147185*
X2127282*
X2127046Y-148582*
X2126810Y-148523*
X2126575Y-148405*
X2116653Y-140315*
X2116535Y-140196*
X2116416Y-140137*
X2116298Y-139960*
X2116180Y-139546*
X2116121Y-139370*
Y-98857*
X2116180Y-98621*
X2116298Y-98445*
X2116416Y-98208*
X2116653Y-97912*
X2126575Y-89822*
X2126810Y-89763*
X2126987Y-89705*
X2127046Y-89645*
X2127282Y-89586*
X2147185*
X2147420Y-89645*
X2147480*
X2147538Y-89705*
X2147716Y-89763*
X2147952Y-89822*
X2151416Y637401D02*
Y657086D01*
Y720865D02*
Y740550D01*
X2162243Y-266515D02*
X2152322Y-258425D01*
X2152027Y-258247*
X2151968Y-258011*
X2151850Y-257775*
X2151790Y-257480*
Y-216968*
X2151850Y-216672*
X2151968Y-216436*
X2152086Y-216318*
X2152145Y-216200*
X2152263Y-216023*
X2162243Y-207932*
X2162420Y-207873*
X2162597Y-207815*
X2162656Y-207755*
X2162893Y-207696*
X2182795*
X2183090Y-207755*
X2183208Y-207815*
X2183385Y-207873*
X2183562Y-207932*
X2193542Y-216023*
X2193780Y-216318*
X2193897Y-216790*
X2193838Y-217145*
X2193720Y-217440*
X2193542Y-217676*
X2193247Y-217912*
X2192952Y-218090*
X2192656Y-218150*
X2192361*
X2192125Y-217971*
X2182381Y-210117*
X2163306*
X2154212Y-217558*
Y-256890*
X2163306Y-264330*
X2182381*
X2192125Y-256475*
X2192361Y-256357*
X2192656Y-256298*
X2192952Y-256357*
X2193247Y-256535*
X2193542Y-256771*
X2193720Y-257066*
X2193838Y-257420*
X2193897Y-257775*
X2193780Y-258130*
X2193542Y-258425*
X2183562Y-266515*
X2183326Y-266633*
X2183267Y-266692*
X2183090*
X2183030Y-266751*
X2182971*
X2182795*
X2162893*
X2162656Y-266692*
X2162420Y-266633*
X2162243Y-266515*
X2164212Y647243D02*
G03X2151416Y660038I12796D01*
X2138621Y647243J12795*
X2151416Y634448I12795*
X2164212Y647243J12795*
G01Y730708D02*
G03X2151416Y743503I12796D01*
X2138621Y730708J12795*
X2151416Y717912I12795*
X2164212Y730708J12795*
G01X2165020Y-584468D02*
X2165196Y-584350D01*
X2165255Y-584055*
X2165432Y-583760*
Y-583465*
Y-571298*
Y-571003*
X2165255Y-570826*
Y-570650*
X2165196Y-570590*
X2165137Y-570530*
X2165020Y-570412*
X2154980Y-562263*
X2154685Y-562145*
X2154448Y-562086*
X2154212Y-562027*
X2124448*
X2123916Y-562145*
X2123562Y-562440*
X2123267Y-562795*
X2123150Y-563208*
Y-619901*
X2123267Y-620373*
X2123562Y-620668*
X2123916Y-620845*
X2124330Y-620905*
X2124802Y-620845*
X2125216Y-620668*
X2125511Y-620373*
X2125630Y-619901*
Y-592735*
X2153385*
X2163070Y-620255*
X2163306Y-620668*
X2163720Y-620905*
X2164192Y-620965*
X2164546Y-620845*
X2164901Y-620668*
X2165196Y-620373*
X2165373Y-619960*
X2165255Y-619487*
X2155570Y-591968*
X2165020Y-584468*
X2171751Y-147460D02*
X2171870Y-147932D01*
X2172165Y-148227*
X2172520Y-148405*
X2172932Y-148465*
X2173405Y-148405*
X2173818Y-148227*
X2174113Y-147932*
X2174231Y-147460*
Y-120295*
X2211613*
Y-147460*
X2211672Y-147932*
X2211968Y-148227*
X2212381Y-148405*
X2212795Y-148465*
X2213208Y-148405*
X2213562Y-148227*
X2213857Y-147932*
X2213975Y-147460*
Y-90767*
X2213857Y-90353*
X2213562Y-90000*
X2213208Y-89822*
X2212795Y-89763*
X2212381Y-89822*
X2211968Y-90000*
X2211672Y-90353*
X2211613Y-90767*
Y-117932*
X2174231*
Y-90767*
X2174113Y-90353*
X2173818Y-90000*
X2173405Y-89822*
X2172932Y-89763*
X2172520Y-89822*
X2172165Y-90000*
X2171870Y-90353*
X2171751Y-90767*
Y-147460*
X2178306Y-326042D02*
X2188227Y-334133D01*
X2188405Y-334428*
X2188465Y-334665*
X2188582Y-334842*
X2188641Y-335078*
Y-343168*
X2188582Y-343405*
X2188465Y-343760*
X2188405Y-344055*
X2188227Y-344172*
X2148897Y-376121*
Y-382440*
X2187460*
X2187873Y-382558*
X2188227Y-382795*
X2188405Y-383208*
X2188465Y-383680*
X2188405Y-384093*
X2188227Y-384507*
X2187873Y-384743*
X2187460Y-384861*
X2147656*
X2147185Y-384743*
X2146890Y-384448*
X2146593Y-384153*
X2146475Y-383680*
Y-375590*
X2146535Y-375412*
X2146653Y-375000*
X2146771Y-374822*
X2146890Y-374705*
X2147007Y-374586*
X2186280Y-342578*
Y-335668*
X2177066Y-328227*
X2157991*
X2148365Y-336082*
X2147952Y-336200*
X2147538Y-336141*
X2147185Y-335965*
X2146948Y-335610*
X2146712Y-335255*
X2146653Y-334842*
Y-334605*
X2146712Y-334428*
X2147007Y-334133*
X2156928Y-326042*
X2157165Y-325983*
X2157342Y-325925*
X2157401Y-325865*
X2157637Y-325806*
X2177538*
X2177775Y-325865*
X2177835*
X2177893Y-325925*
X2178070Y-325983*
X2178306Y-326042*
X2200968Y1300235D02*
X2236401D01*
Y1335668*
X2200968*
Y1300235*
X2203700Y-382853D02*
X2244035D01*
X2244448Y-382912*
X2244743Y-383150*
X2244920Y-383445*
Y-383798*
X2244861Y-384271*
X2244743Y-384566*
X2244448Y-384802*
X2244035Y-384861*
X2203700*
X2203286Y-384802*
X2202991Y-384566*
X2202815Y-384271*
X2202755Y-383798*
X2202815Y-383445*
X2202932Y-383150*
X2203227Y-382912*
X2203700Y-382853*
X2218685Y1303188D02*
X2233448Y1317952D01*
X2218685Y1332716*
X2203920Y1317952*
X2218685Y1303188*
X2239015Y-210117D02*
X2239428Y-210000D01*
X2239782Y-209763*
X2239960Y-209350*
X2240020Y-208936*
X2239960Y-208465*
X2239782Y-208050*
X2239428Y-207755*
X2239015Y-207696*
X2215983*
X2215511Y-207755*
X2215275Y-208050*
X2215097Y-208465*
X2215038Y-208936*
X2215097Y-209350*
X2215275Y-209763*
X2215511Y-210000*
X2215983Y-210117*
X2226318*
Y-264271*
X2215983*
X2215511Y-264390*
X2215275Y-264685*
X2215097Y-265097*
X2215038Y-265570*
X2215097Y-265983*
X2215275Y-266397*
X2215511Y-266633*
X2215983Y-266751*
X2239015*
X2239428Y-266633*
X2239782Y-266397*
X2239960Y-265983*
X2240020Y-265570*
X2239960Y-265097*
X2239782Y-264685*
X2239428Y-264390*
X2239015Y-264271*
X2228621*
Y-210117*
X2239015*
X2260393Y-359763D02*
Y-366200D01*
X2297775*
Y-359763*
X2279113Y-328405*
X2260393Y-359763*
X2269782Y-147460D02*
X2269901Y-147932D01*
X2270196Y-148227*
X2270550Y-148405*
X2270965Y-148465*
X2271436Y-148405*
X2271850Y-148227*
X2272145Y-147932*
X2272263Y-147460*
Y-120295*
X2309645*
Y-147460*
X2309705Y-147932*
X2310000Y-148227*
X2310412Y-148405*
X2310826Y-148465*
X2311240Y-148405*
X2311593Y-148227*
X2311890Y-147932*
X2312007Y-147460*
Y-90767*
X2311890Y-90353*
X2311593Y-90000*
X2311240Y-89822*
X2310826Y-89763*
X2310412Y-89822*
X2310000Y-90000*
X2309705Y-90353*
X2309645Y-90767*
Y-117932*
X2272263*
Y-90767*
X2272145Y-90353*
X2271850Y-90000*
X2271436Y-89822*
X2270965Y-89763*
X2270550Y-89822*
X2270196Y-90000*
X2269901Y-90353*
X2269782Y-90767*
Y-147460*
X2278523Y-325865D02*
X2279881D01*
X2280117Y-325925*
X2280295Y-326042*
X2280708Y-326338*
X2280885Y-326456*
X2299960Y-358700*
X2300020Y-358936*
X2300078Y-359055*
X2300137Y-359172*
Y-359231*
Y-359350*
Y-383680*
X2300020Y-384093*
X2299782Y-384448*
X2299370Y-384625*
X2298956Y-384685*
X2298542Y-384625*
X2298130Y-384448*
X2297893Y-384093*
X2297775Y-383680*
Y-368621*
X2260393*
Y-383680*
X2260275Y-384093*
X2260038Y-384448*
X2259625Y-384625*
X2259153Y-384685*
X2258740Y-384625*
X2258326Y-384448*
X2258090Y-384093*
X2257971Y-383680*
Y-359350*
Y-359231*
Y-359172*
X2258030Y-359055*
X2258090Y-358936*
X2258150Y-358700*
X2277460Y-326456*
X2277755Y-326160*
X2278110Y-326042*
X2278345Y-325925*
X2278523Y-325865*
X2300968Y1300235D02*
X2336401D01*
Y1335668*
X2300968*
Y1300235*
X2302205Y-210117D02*
X2302617Y-210000D01*
X2302971Y-209763*
X2303150Y-209350*
X2303208Y-208936*
X2303150Y-208465*
X2302971Y-208110*
X2302617Y-207815*
X2302205Y-207696*
X2262342*
X2261928Y-207815*
X2261575Y-208110*
X2261280Y-208465*
X2261160Y-208877*
Y-265570*
X2261280Y-265983*
X2261575Y-266338*
X2261928Y-266515*
X2262342Y-266575*
X2262815Y-266515*
X2263227Y-266338*
X2263523Y-265983*
X2263641Y-265570*
Y-235747*
X2290393*
X2290806Y-235688*
X2291160Y-235393*
X2291338Y-234980*
X2291397Y-234566*
X2291338Y-234153*
X2291160Y-233740*
X2290806Y-233445*
X2290393Y-233326*
X2263641*
Y-210117*
X2302205*
X2318685Y1303188D02*
X2333448Y1317952D01*
X2318685Y1332716*
X2303920Y1317952*
X2318685Y1303188*
X2325412Y-377420D02*
Y-383857D01*
X2325471Y-384153*
X2325530Y-384330*
X2325650Y-384448*
X2325767Y-384507*
X2326003Y-384802*
X2326357Y-384861*
X2332853*
X2333208Y-384802*
X2333503Y-384507*
X2333798Y-384271*
X2333857Y-383857*
Y-377420*
X2333798Y-377007*
X2333503Y-376771*
X2333208Y-376475*
X2332853Y-376416*
X2326357*
X2326003Y-376475*
X2325767Y-376771*
X2325650Y-376830*
X2325530Y-376948*
X2325471Y-377185*
X2325412Y-377420*
X2327361Y-378365D02*
X2331908D01*
Y-382912*
X2327361*
Y-378365*
X2328070Y-99448D02*
Y-138780D01*
X2337165Y-146220*
X2356240*
X2365452Y-138780*
Y-99448*
X2356240Y-92007*
X2337165*
X2328070Y-99448*
X2348562Y-210117D02*
X2348975Y-210000D01*
X2349330Y-209763*
X2349507Y-209350*
X2349566Y-208936*
X2349507Y-208465*
X2349330Y-208050*
X2348975Y-207755*
X2348562Y-207696*
X2325530*
X2325058Y-207755*
X2324822Y-208050*
X2324645Y-208465*
X2324586Y-208936*
X2324645Y-209350*
X2324822Y-209763*
X2325058Y-210000*
X2325530Y-210117*
X2335865*
Y-264271*
X2325530*
X2325058Y-264390*
X2324822Y-264685*
X2324645Y-265097*
X2324586Y-265570*
X2324645Y-265983*
X2324822Y-266397*
X2325058Y-266633*
X2325530Y-266751*
X2348562*
X2348975Y-266633*
X2349330Y-266397*
X2349507Y-265983*
X2349566Y-265570*
X2349507Y-265097*
X2349330Y-264685*
X2348975Y-264390*
X2348562Y-264271*
X2338168*
Y-210117*
X2348562*
X2367815Y-98857D02*
Y-139370D01*
X2367755Y-139665*
X2367637Y-139901*
X2367578Y-140137*
X2367401Y-140315*
X2357480Y-148405*
X2357185Y-148523*
X2357125Y-148582*
X2357007*
X2356890Y-148641*
X2356830*
X2356712*
X2336810*
X2336575Y-148582*
X2336338Y-148523*
X2336101Y-148405*
X2326180Y-140315*
X2325945Y-140137*
X2325826Y-139901*
X2325708Y-139665*
X2325650Y-139370*
Y-98857*
X2325708Y-98562*
X2325826Y-98326*
X2325945Y-98208*
X2326062Y-98090*
X2326180Y-97912*
X2336101Y-89822*
X2336338Y-89763*
X2336515Y-89705*
X2336575Y-89645*
X2336810Y-89586*
X2356712*
X2356948Y-89645*
X2357007*
X2357066Y-89705*
X2357243Y-89763*
X2357480Y-89822*
X2367401Y-97912*
X2367460Y-98090*
X2367578Y-98150*
X2367637Y-98208*
Y-98326*
X2367755Y-98562*
X2367815Y-98857*
X2381397Y-147460D02*
X2381515Y-147932D01*
X2381810Y-148227*
X2382165Y-148582*
X2382578Y-148641*
X2422440*
X2422853Y-148582*
X2423208Y-148286*
X2423385Y-147873*
X2423445Y-147460*
X2423385Y-146987*
X2423208Y-146575*
X2422853Y-146338*
X2422440Y-146220*
X2383877*
Y-90767*
X2383760Y-90353*
X2383465Y-90000*
X2383050Y-89822*
X2382578Y-89763*
X2382165Y-89822*
X2381810Y-90000*
X2381515Y-90353*
X2381397Y-90767*
Y-147460*
X2382873Y-384861D02*
X2381280D01*
X2380925Y-384802*
X2380630Y-384625*
X2380335Y-384390*
X2380216Y-384035*
X2361023Y-327401*
X2360965Y-326928*
X2361141Y-326575*
X2361495Y-326280*
X2361908Y-326042*
X2362322Y-325983*
X2362735Y-326042*
X2363090Y-326220*
X2363326Y-326633*
X2382046Y-382322*
X2400885Y-326633*
X2401121Y-326220*
X2401475Y-326042*
X2401890Y-325983*
X2402302Y-326042*
X2402716Y-326280*
X2403011Y-326575*
X2403130Y-326928*
X2403070Y-327401*
X2383995Y-384035*
X2383818Y-384390*
X2383465Y-384625*
X2383227Y-384802*
X2382873Y-384861*
X2400968Y1300235D02*
X2436401D01*
Y1335668*
X2400968*
Y1300235*
X2411751Y-210117D02*
X2412165Y-210000D01*
X2412520Y-209763*
X2412696Y-209350*
X2412755Y-208936*
X2412696Y-208465*
X2412520Y-208110*
X2412165Y-207815*
X2411751Y-207696*
X2371890*
X2371475Y-207815*
X2371121Y-208110*
X2370826Y-208465*
X2370708Y-208877*
Y-265570*
X2370826Y-265983*
X2371121Y-266338*
X2371475Y-266633*
X2371890Y-266751*
X2411751*
X2412165Y-266633*
X2412520Y-266397*
X2412696Y-265983*
X2412755Y-265570*
X2412696Y-265097*
X2412520Y-264685*
X2412165Y-264390*
X2411751Y-264271*
X2373188*
Y-238405*
X2399940*
X2400353Y-238286*
X2400708Y-237991*
X2400885Y-237637*
X2400945Y-237223*
X2400885Y-236810*
X2400708Y-236397*
X2400353Y-236101*
X2399940Y-236042*
X2373188*
Y-210117*
X2411751*
X2418685Y1303188D02*
X2433448Y1317952D01*
X2418685Y1332716*
X2403920Y1317952*
X2418685Y1303188*
X2428995Y-210117D02*
X2457165D01*
X2466377Y-217558*
Y-256890*
X2457165Y-264330*
X2428995*
Y-210117*
X2446948Y-326042D02*
X2456870Y-334133D01*
X2457046Y-334428*
X2457105Y-334665*
X2457223Y-334842*
X2457282Y-335078*
Y-343168*
X2457223Y-343405*
X2457105Y-343760*
X2457046Y-344055*
X2456870Y-344172*
X2417538Y-376121*
Y-382440*
X2456101*
X2456515Y-382558*
X2456870Y-382795*
X2457046Y-383208*
X2457105Y-383680*
X2457046Y-384093*
X2456870Y-384507*
X2456515Y-384743*
X2456101Y-384861*
X2416298*
X2415826Y-384743*
X2415530Y-384448*
X2415235Y-384153*
X2415117Y-383680*
Y-375590*
X2415176Y-375412*
X2415295Y-375000*
X2415412Y-374822*
X2415530Y-374705*
X2415650Y-374586*
X2454920Y-342578*
Y-335668*
X2445708Y-328227*
X2426633*
X2417007Y-336082*
X2416593Y-336200*
X2416180Y-336141*
X2415826Y-335965*
X2415590Y-335610*
X2415353Y-335255*
X2415295Y-334842*
Y-334605*
X2415353Y-334428*
X2415650Y-334133*
X2425570Y-326042*
X2425806Y-325983*
X2425983Y-325925*
X2426042Y-325865*
X2426280Y-325806*
X2446180*
X2446416Y-325865*
X2446475*
X2446535Y-325925*
X2446712Y-325983*
X2446948Y-326042*
X2458345Y-207932D02*
X2458050Y-207815D01*
X2457815Y-207755*
X2457578Y-207696*
X2427696*
X2427282Y-207815*
X2426928Y-208110*
X2426633Y-208465*
X2426515Y-208877*
Y-265570*
X2426633Y-266042*
X2426928Y-266338*
X2427282Y-266692*
X2427696Y-266751*
X2457578*
X2457815*
X2457932Y-266692*
X2458050Y-266633*
X2458345Y-266515*
X2468326Y-258425*
X2468503Y-258188*
X2468562Y-258070*
X2468680Y-257775*
X2468740Y-257480*
Y-216968*
X2468680Y-216672*
X2468562Y-216495*
Y-216318*
X2468503Y-216260*
X2468385Y-216200*
X2468326Y-216082*
X2458345Y-207932*
X2478247Y-92007D02*
X2478660Y-91890D01*
X2479015Y-91653*
X2479192Y-91240*
X2479251Y-90826*
X2479192Y-90353*
X2479015Y-90000*
X2478660Y-89705*
X2478247Y-89586*
X2438385*
X2437971Y-89705*
X2437617Y-90000*
X2437322Y-90353*
X2437205Y-90767*
Y-147460*
X2437322Y-147873*
X2437617Y-148227*
X2437971Y-148523*
X2438385Y-148641*
X2478247*
X2478660Y-148523*
X2479015Y-148286*
X2479192Y-147873*
X2479251Y-147460*
X2479192Y-146987*
X2479015Y-146575*
X2478660Y-146280*
X2478247Y-146160*
X2439685*
Y-120295*
X2466436*
X2466850Y-120176*
X2467205Y-119881*
X2467381Y-119527*
X2467440Y-119113*
X2467381Y-118700*
X2467205Y-118286*
X2466850Y-117991*
X2466436Y-117932*
X2439685*
Y-92007*
X2478247*
X2482440Y-377420D02*
Y-383857D01*
X2482500Y-384153*
X2482558Y-384330*
X2482676Y-384448*
X2482795Y-384507*
X2483030Y-384802*
X2483385Y-384861*
X2489881*
X2490235Y-384802*
X2490530Y-384507*
X2490826Y-384271*
X2490885Y-383857*
Y-377420*
X2490826Y-377007*
X2490530Y-376771*
X2490235Y-376475*
X2489881Y-376416*
X2483385*
X2483030Y-376475*
X2482795Y-376771*
X2482676Y-376830*
X2482558Y-376948*
X2482500Y-377185*
X2482440Y-377420*
X2484390Y-378365D02*
X2488936D01*
Y-382912*
X2484390*
Y-378365*
X2499390Y-264743D02*
X2509605Y-251160D01*
Y-223523*
X2499330Y-209705*
X2499153Y-209350*
X2499212Y-208936*
X2499330Y-208465*
X2499566Y-208110*
X2499861Y-207873*
X2500216Y-207755*
X2500570Y-207815*
X2500806Y-208110*
X2511377Y-222282*
X2511495Y-222520*
X2511555Y-222637*
X2511613Y-222815*
X2511672Y-222991*
X2511731Y-223050*
Y-251456*
Y-251633*
X2511672Y-251692*
Y-251751*
Y-251928*
X2511613Y-252105*
X2511377Y-252342*
X2500925Y-266338*
X2500630Y-266633*
X2500452Y-266692*
X2500275*
X2499920Y-266633*
X2499625Y-266397*
X2499448Y-266042*
X2499271Y-265630*
X2499212Y-265156*
X2499390Y-264743*
X2500968Y1300235D02*
X2536401D01*
Y1335668*
X2500968*
Y1300235*
X2516870Y-334133D02*
X2526790Y-326042D01*
X2527027Y-325983*
X2527205Y-325925*
X2527263Y-325865*
X2527500Y-325806*
X2547401*
X2547637Y-325865*
X2547696*
X2547755Y-325925*
X2547932Y-325983*
X2548168Y-326042*
X2558090Y-334133*
X2558267Y-334428*
X2558326Y-334665*
X2558445Y-334842*
X2558503Y-335078*
Y-375590*
X2558445Y-375767*
X2558326Y-376180*
X2558267Y-376298*
X2558090Y-376535*
X2548168Y-384625*
X2547932Y-384685*
X2547815Y-384743*
X2547696Y-384802*
X2547578Y-384861*
X2547401*
X2527500*
X2527263Y-384802*
X2527027Y-384743*
X2526790Y-384625*
X2516870Y-376535*
X2516751Y-376416*
X2516633Y-376357*
X2516515Y-376180*
X2516397Y-375767*
X2516338Y-375590*
Y-335078*
X2516397Y-334842*
X2516515Y-334665*
X2516633Y-334428*
X2516870Y-334133*
X2518685Y1303188D02*
X2533448Y1317952D01*
X2518685Y1332716*
X2503920Y1317952*
X2518685Y1303188*
X2518760Y-335668D02*
Y-375000D01*
X2522243Y-377952*
X2550826Y-331357*
X2546928Y-328227*
X2527853*
X2518760Y-335668*
X2524133Y-379487D02*
X2527853Y-382440D01*
X2546928*
X2556141Y-375000*
Y-335668*
X2552656Y-332893*
X2524133Y-379487*
X2524842Y-118110D02*
X2534822Y-126200D01*
X2535000Y-126436*
X2535058Y-126731*
X2535117Y-126908*
X2535176Y-127086*
X2535235Y-127205*
Y-139370*
X2535176Y-139546*
X2535058Y-139960*
X2535000Y-140078*
X2534822Y-140315*
X2524901Y-148405*
X2524605Y-148523*
X2524546Y-148582*
X2524428*
X2524310Y-148641*
X2524251*
X2524133*
X2504231*
X2503995Y-148582*
X2503760Y-148523*
X2503523Y-148405*
X2493601Y-140315*
X2493306Y-140020*
X2493247Y-139842*
Y-139665*
X2493306Y-139251*
X2493542Y-138838*
X2493780Y-138542*
X2494133Y-138306*
X2494546Y-138247*
X2494960Y-138365*
X2504586Y-146220*
X2523660*
X2532873Y-138780*
Y-127795*
X2523660Y-120295*
X2504231*
X2503995*
X2503700Y-120235*
X2503523Y-120117*
X2493601Y-112027*
X2493483Y-111968*
X2493365Y-111850*
X2493247Y-111672*
X2493130Y-111260*
X2493070Y-111023*
Y-98857*
X2493130Y-98562*
X2493247Y-98326*
X2493365Y-98208*
X2493483Y-98090*
X2493601Y-97912*
X2503523Y-89822*
X2503760Y-89763*
X2503936Y-89705*
X2503995Y-89645*
X2504231Y-89586*
X2524133*
X2524370Y-89645*
X2524487Y-89705*
X2524665Y-89763*
X2524842Y-89822*
X2532282Y-95905*
X2532578Y-96200*
X2532696Y-96555*
X2532637Y-96968*
X2532460Y-97381*
X2532165Y-97676*
X2531751Y-97912*
X2531280Y-97971*
X2530865Y-97853*
X2523780Y-92007*
X2504586*
X2495491Y-99448*
Y-110432*
X2504586Y-117932*
X2524133*
X2524370Y-117991*
X2524605Y-118050*
X2524842Y-118110*
X2539370Y-472440D02*
Y-1653542D01*
X2590708Y647243D02*
X2610393D01*
X2590708Y730708D02*
X2610393D01*
X2600550Y637401D02*
Y657086D01*
Y720865D02*
Y740550D01*
X2600968Y1300235D02*
X2636401D01*
Y1335668*
X2600968*
Y1300235*
X2610176Y-243188D02*
X2610590Y-243130D01*
X2610885Y-242835*
X2611062Y-242420*
Y-242007*
Y-241593*
X2610885Y-241240*
X2610590Y-240945*
X2610176Y-240826*
X2595530*
Y-226298*
X2595471Y-225885*
X2595235Y-225590*
X2594822Y-225353*
X2594350Y-225295*
X2593995Y-225353*
X2593641Y-225590*
X2593345Y-225885*
X2593286Y-226298*
Y-240826*
X2578700*
X2578227Y-240945*
X2577991Y-241240*
X2577815Y-241593*
X2577755Y-242007*
X2577815Y-242420*
X2577991Y-242835*
X2578227Y-243130*
X2578700Y-243188*
X2593286*
Y-257716*
X2593345Y-258188*
X2593641Y-258483*
X2593995Y-258660*
X2594350Y-258720*
X2594822Y-258660*
X2595235Y-258483*
X2595471Y-258188*
X2595530Y-257716*
Y-243188*
X2610176*
X2613345Y647243D02*
G03X2600550Y660038I12795D01*
X2587755Y647243J12795*
X2600550Y634448I12795*
X2613345Y647243J12795*
G01Y730708D02*
G03X2600550Y743503I12795D01*
X2587755Y730708J12795*
X2600550Y717912I12795*
X2613345Y730708J12795*
G01X2618685Y1303188D02*
X2633448Y1317952D01*
X2618685Y1332716*
X2603920Y1317952*
X2618685Y1303188*
X2626968Y572007D02*
X2646653D01*
X2626968Y805945D02*
X2646653D01*
X2628838Y-264802D02*
X2668641Y-208168D01*
X2668936Y-207873*
X2669350Y-207815*
X2669763Y-207932*
X2670117Y-208110*
X2670471Y-208405*
X2670650Y-208818*
X2670708Y-209231*
X2670590Y-209645*
X2630727Y-266220*
X2630609Y-266456*
X2630373Y-266575*
X2630196Y-266633*
X2630019*
X2629605Y-266515*
X2629251Y-266338*
X2628956Y-266042*
X2628719Y-265688*
X2628660Y-265216*
X2628838Y-264802*
X2636810Y562165D02*
Y581850D01*
Y796101D02*
Y815786D01*
X2649605Y572007D02*
G03X2636810Y584802I12795D01*
X2624015Y572007J12795*
X2636810Y559212I12795*
X2649605Y572007J12795*
G01Y805945D02*
G03X2636810Y818740I12795D01*
X2624015Y805945J12795*
X2636810Y793150I12795*
X2649605Y805945J12795*
G01X2692205Y520078D02*
X2711890D01*
X2692205Y857991D02*
X2711890D01*
X2692558Y-240530D02*
X2711515D01*
X2711928Y-240590*
X2712223Y-240826*
X2712401Y-241121*
X2712460Y-241475*
X2712401Y-241948*
X2712223Y-242243*
X2711928Y-242480*
X2711515Y-242538*
X2692558*
X2692145Y-242480*
X2691850Y-242243*
X2691672Y-241948*
X2691613Y-241475*
X2691672Y-241121*
X2691790Y-240826*
X2692086Y-240590*
X2692558Y-240530*
X2700968Y1300235D02*
X2736401D01*
Y1335668*
X2700968*
Y1300235*
X2702046Y510235D02*
Y529920D01*
Y848150D02*
Y867835D01*
X2714842Y520078D02*
G03X2702046Y532873I12796D01*
X2689251Y520078J12795*
X2702046Y507282I12795*
X2714842Y520078J12795*
G01Y857991D02*
G03X2702046Y870786I12796D01*
X2689251Y857991J12795*
X2702046Y845196I12795*
X2714842Y857991J12795*
G01X2718685Y1303188D02*
X2733448Y1317952D01*
X2718685Y1332716*
X2703920Y1317952*
X2718685Y1303188*
X2773621Y501377D02*
X2793306D01*
X2780786Y-216023D02*
X2790708Y-207932D01*
X2790945Y-207873*
X2791121Y-207815*
X2791180Y-207755*
X2791416Y-207696*
X2811318*
X2811555Y-207755*
X2811613*
X2811672Y-207815*
X2811850Y-207873*
X2812086Y-207932*
X2822007Y-216023*
X2822185Y-216318*
X2822243Y-216555*
X2822361Y-216731*
X2822420Y-216968*
Y-257480*
X2822361Y-257656*
X2822243Y-258070*
X2822185Y-258188*
X2822007Y-258425*
X2812086Y-266515*
X2811850Y-266575*
X2811731Y-266633*
X2811613Y-266692*
X2811495Y-266751*
X2811318*
X2791416*
X2791180Y-266692*
X2790945Y-266633*
X2790708Y-266515*
X2780786Y-258425*
X2780668Y-258306*
X2780550Y-258247*
X2780432Y-258070*
X2780315Y-257656*
X2780255Y-257480*
Y-216968*
X2780315Y-216731*
X2780432Y-216555*
X2780550Y-216318*
X2780786Y-216023*
X2782676Y-217558D02*
Y-256890D01*
X2786160Y-259842*
X2814743Y-213247*
X2810845Y-210117*
X2791771*
X2782676Y-217558*
X2783465Y491535D02*
Y511220D01*
X2788050Y-261377D02*
X2791771Y-264330D01*
X2810845*
X2820058Y-256890*
Y-217558*
X2816575Y-214782*
X2788050Y-261377*
X2796260Y501377D02*
G03X2783465Y514172I12795D01*
X2770668Y501377J12795*
X2783465Y488582I12796*
X2796260Y501377J12795*
G01X2800968Y1300235D02*
X2836401D01*
Y1335668*
X2800968*
Y1300235*
X2818685Y1303188D02*
X2833448Y1317952D01*
X2818685Y1332716*
X2803920Y1317952*
X2818685Y1303188*
X2836593Y-216023D02*
X2846515Y-207932D01*
X2846751Y-207873*
X2846928Y-207815*
X2846987Y-207755*
X2847223Y-207696*
X2867125*
X2867361Y-207755*
X2867420*
X2867480Y-207815*
X2867656Y-207873*
X2867893Y-207932*
X2877815Y-216023*
X2877991Y-216318*
X2878050Y-216555*
X2878168Y-216731*
X2878227Y-216968*
Y-257480*
X2878168Y-257656*
X2878050Y-258070*
X2877991Y-258188*
X2877815Y-258425*
X2867893Y-266515*
X2867656Y-266575*
X2867538Y-266633*
X2867420Y-266692*
X2867302Y-266751*
X2867125*
X2847223*
X2846987Y-266692*
X2846751Y-266633*
X2846515Y-266515*
X2836593Y-258425*
X2836475Y-258306*
X2836357Y-258247*
X2836240Y-258070*
X2836121Y-257656*
X2836062Y-257480*
Y-216968*
X2836121Y-216731*
X2836240Y-216555*
X2836357Y-216318*
X2836593Y-216023*
X2838483Y-217558D02*
Y-256890D01*
X2841968Y-259842*
X2870550Y-213247*
X2866653Y-210117*
X2847578*
X2838483Y-217558*
X2843857Y-261377D02*
X2847578Y-264330D01*
X2866653*
X2875865Y-256890*
Y-217558*
X2872381Y-214782*
X2843857Y-261377*
X2855038Y519960D02*
X2874723D01*
X2855038Y857991D02*
X2874723D01*
X2864881Y510117D02*
Y529802D01*
Y848150D02*
Y867835D01*
X2877676Y519960D02*
G03X2864881Y532755I12795D01*
X2852086Y519960J12795*
X2864881Y507165I12795*
X2877676Y519960J12795*
G01Y857991D02*
G03X2864881Y870786I12795D01*
X2852086Y857991J12795*
X2864881Y845196I12795*
X2877676Y857991J12795*
G01X2900968Y1300235D02*
X2936401D01*
Y1335668*
X2900968*
Y1300235*
X2903385Y-259310D02*
Y-265747D01*
X2903445Y-266042*
X2903503Y-266220*
X2903621Y-266338*
X2903740Y-266397*
X2903975Y-266692*
X2904330Y-266751*
X2910826*
X2911180Y-266692*
X2911475Y-266397*
X2911771Y-266160*
X2911830Y-265747*
Y-259310*
X2911771Y-258897*
X2911475Y-258660*
X2911180Y-258365*
X2910826Y-258306*
X2904330*
X2903975Y-258365*
X2903740Y-258660*
X2903621Y-258720*
X2903503Y-258838*
X2903445Y-259075*
X2903385Y-259310*
X2905335Y-260255D02*
X2909881D01*
Y-264802*
X2905335*
Y-260255*
X2918685Y1303188D02*
X2933448Y1317952D01*
X2918685Y1332716*
X2903920Y1317952*
X2918685Y1303188*
X2920275Y572007D02*
X2939960D01*
X2920275Y805945D02*
X2939960D01*
X2930117Y562165D02*
Y581850D01*
Y796101D02*
Y815786D01*
X2937815Y-216023D02*
X2947735Y-207932D01*
X2947971Y-207873*
X2948150Y-207815*
X2948208Y-207755*
X2948445Y-207696*
X2968345*
X2968582Y-207755*
X2968641*
X2968700Y-207815*
X2968877Y-207873*
X2969113Y-207932*
X2979035Y-216023*
X2979212Y-216318*
X2979271Y-216555*
X2979390Y-216731*
X2979448Y-216968*
Y-257480*
X2979390Y-257656*
X2979271Y-258070*
X2979212Y-258188*
X2979035Y-258425*
X2969113Y-266515*
X2968877Y-266575*
X2968760Y-266633*
X2968641Y-266692*
X2968523Y-266751*
X2968345*
X2948445*
X2948208Y-266692*
X2947971Y-266633*
X2947735Y-266515*
X2937815Y-258425*
X2937696Y-258306*
X2937578Y-258247*
X2937460Y-258070*
X2937342Y-257656*
X2937282Y-257480*
Y-216968*
X2937342Y-216731*
X2937460Y-216555*
X2937578Y-216318*
X2937815Y-216023*
X2939705Y-217558D02*
Y-256890D01*
X2943188Y-259842*
X2971771Y-213247*
X2967873Y-210117*
X2948798*
X2939705Y-217558*
X2940000Y-1306180D02*
X2940412Y-1306121D01*
X2940708Y-1305826*
X2940885Y-1305412*
Y-1305000*
Y-1304586*
X2940708Y-1304231*
X2940412Y-1303936*
X2940000Y-1303818*
X2925353*
Y-1289290*
X2925295Y-1288877*
X2925058Y-1288582*
X2924645Y-1288345*
X2924172Y-1288286*
X2923818Y-1288345*
X2923465Y-1288582*
X2923168Y-1288877*
X2923110Y-1289290*
Y-1303818*
X2908523*
X2908050Y-1303936*
X2907815Y-1304231*
X2907637Y-1304586*
X2907578Y-1305000*
X2907637Y-1305412*
X2907815Y-1305826*
X2908050Y-1306121*
X2908523Y-1306180*
X2923110*
Y-1320708*
X2923168Y-1321180*
X2923465Y-1321475*
X2923818Y-1321653*
X2924172Y-1321712*
X2924645Y-1321653*
X2925058Y-1321475*
X2925295Y-1321180*
X2925353Y-1320708*
Y-1306180*
X2940000*
Y-1069960D02*
X2940412Y-1069901D01*
X2940708Y-1069605*
X2940885Y-1069192*
Y-1068780*
Y-1068365*
X2940708Y-1068011*
X2940412Y-1067716*
X2940000Y-1067597*
X2925353*
Y-1053070*
X2925295Y-1052656*
X2925058Y-1052361*
X2924645Y-1052125*
X2924172Y-1052066*
X2923818Y-1052125*
X2923465Y-1052361*
X2923168Y-1052656*
X2923110Y-1053070*
Y-1067597*
X2908523*
X2908050Y-1067716*
X2907815Y-1068011*
X2907637Y-1068365*
X2907578Y-1068780*
X2907637Y-1069192*
X2907815Y-1069605*
X2908050Y-1069901*
X2908523Y-1069960*
X2923110*
Y-1084487*
X2923168Y-1084960*
X2923465Y-1085255*
X2923818Y-1085432*
X2924172Y-1085491*
X2924645Y-1085432*
X2925058Y-1085255*
X2925295Y-1084960*
X2925353Y-1084487*
Y-1069960*
X2940000*
Y-833740D02*
X2940412Y-833680D01*
X2940708Y-833385*
X2940885Y-832971*
Y-832558*
Y-832145*
X2940708Y-831790*
X2940412Y-831495*
X2940000Y-831377*
X2925353*
Y-816850*
X2925295Y-816436*
X2925058Y-816141*
X2924645Y-815905*
X2924172Y-815845*
X2923818Y-815905*
X2923465Y-816141*
X2923168Y-816436*
X2923110Y-816850*
Y-831377*
X2908523*
X2908050Y-831495*
X2907815Y-831790*
X2907637Y-832145*
X2907578Y-832558*
X2907637Y-832971*
X2907815Y-833385*
X2908050Y-833680*
X2908523Y-833740*
X2923110*
Y-848267*
X2923168Y-848740*
X2923465Y-849035*
X2923818Y-849212*
X2924172Y-849271*
X2924645Y-849212*
X2925058Y-849035*
X2925295Y-848740*
X2925353Y-848267*
Y-833740*
X2940000*
X2941003Y-1542401D02*
X2941416Y-1542342D01*
X2941712Y-1542046*
X2941890Y-1541633*
Y-1541220*
Y-1540806*
X2941712Y-1540452*
X2941416Y-1540156*
X2941003Y-1540038*
X2926357*
Y-1525511*
X2926298Y-1525097*
X2926062Y-1524802*
X2925650Y-1524566*
X2925176Y-1524507*
X2924822Y-1524566*
X2924468Y-1524802*
X2924172Y-1525097*
X2924113Y-1525511*
Y-1540038*
X2909527*
X2909055Y-1540156*
X2908818Y-1540452*
X2908641Y-1540806*
X2908582Y-1541220*
X2908641Y-1541633*
X2908818Y-1542046*
X2909055Y-1542342*
X2909527Y-1542401*
X2924113*
Y-1556928*
X2924172Y-1557401*
X2924468Y-1557696*
X2924822Y-1557873*
X2925176Y-1557932*
X2925650Y-1557873*
X2926062Y-1557696*
X2926298Y-1557401*
X2926357Y-1556928*
Y-1542401*
X2941003*
X2942912Y572007D02*
G03X2930117Y584802I12795D01*
X2917322Y572007J12795*
X2930117Y559212I12795*
X2942912Y572007J12795*
G01Y805945D02*
G03X2930117Y818740I12795D01*
X2917322Y805945J12795*
X2930117Y793150I12795*
X2942912Y805945J12795*
G01X2945078Y-261377D02*
X2948798Y-264330D01*
X2967873*
X2977086Y-256890*
Y-217558*
X2973601Y-214782*
X2945078Y-261377*
X2956535Y647243D02*
X2976220D01*
X2956535Y730708D02*
X2976220D01*
X2958660Y-1327795D02*
X2998465Y-1271160D01*
X2998760Y-1270865*
X2999172Y-1270806*
X2999586Y-1270925*
X2999940Y-1271101*
X3000295Y-1271397*
X3000471Y-1271810*
X3000530Y-1272223*
X3000412Y-1272637*
X2960550Y-1329212*
X2960432Y-1329448*
X2960196Y-1329566*
X2960020Y-1329625*
X2959842*
X2959428Y-1329507*
X2959075Y-1329330*
X2958780Y-1329035*
X2958542Y-1328680*
X2958483Y-1328208*
X2958660Y-1327795*
Y-1091575D02*
X2998465Y-1034940D01*
X2998760Y-1034645*
X2999172Y-1034586*
X2999586Y-1034705*
X2999940Y-1034881*
X3000295Y-1035176*
X3000471Y-1035590*
X3000530Y-1036003*
X3000412Y-1036416*
X2960550Y-1092991*
X2960432Y-1093227*
X2960196Y-1093345*
X2960020Y-1093405*
X2959842*
X2959428Y-1093286*
X2959075Y-1093110*
X2958780Y-1092815*
X2958542Y-1092460*
X2958483Y-1091987*
X2958660Y-1091575*
Y-855353D02*
X2998465Y-798720D01*
X2998760Y-798425*
X2999172Y-798365*
X2999586Y-798483*
X2999940Y-798660*
X3000295Y-798956*
X3000471Y-799370*
X3000530Y-799782*
X3000412Y-800196*
X2960550Y-856771*
X2960432Y-857007*
X2960196Y-857125*
X2960020Y-857185*
X2959842*
X2959428Y-857066*
X2959075Y-856890*
X2958780Y-856593*
X2958542Y-856240*
X2958483Y-855767*
X2958660Y-855353*
X2959665Y-1564015D02*
X2999468Y-1507381D01*
X2999763Y-1507086*
X3000176Y-1507027*
X3000590Y-1507145*
X3000945Y-1507322*
X3001298Y-1507617*
X3001475Y-1508030*
X3001535Y-1508445*
X3001416Y-1508857*
X2961555Y-1565432*
X2961436Y-1565668*
X2961200Y-1565786*
X2961023Y-1565845*
X2960845*
X2960432Y-1565727*
X2960078Y-1565550*
X2959782Y-1565255*
X2959546Y-1564901*
X2959487Y-1564428*
X2959665Y-1564015*
X2965688Y-619901D02*
X2965747Y-620315D01*
X2966042Y-620668*
X2966456Y-620845*
X2966870Y-620905*
X2967282Y-620845*
X2967637Y-620668*
X2967932Y-620315*
X2968050Y-619901*
Y-564448*
X2986771*
X2987185Y-564330*
X2987538Y-564093*
X2987716Y-563680*
X2987775Y-563267*
X2987716Y-562795*
X2987538Y-562381*
X2987185Y-562086*
X2986771Y-562027*
X2946908*
X2946495Y-562086*
X2946200Y-562381*
X2945965Y-562795*
X2945905Y-563267*
X2945965Y-563680*
X2946200Y-564093*
X2946495Y-564330*
X2946908Y-564448*
X2965688*
Y-619901*
X2966377Y637401D02*
Y657086D01*
Y720865D02*
Y740550D01*
X2979172Y647243D02*
G03X2966377Y660038I12795D01*
X2953582Y647243J12795*
X2966377Y634448I12795*
X2979172Y647243J12795*
G01Y730708D02*
G03X2966377Y743503I12795D01*
X2953582Y730708J12795*
X2966377Y717912I12795*
X2979172Y730708J12795*
G01X3000968Y1300235D02*
X3036401D01*
Y1335668*
X3000968*
Y1300235*
X3004015Y-571890D02*
Y-611220D01*
X3013110Y-618660*
X3032185*
X3041397Y-611220*
Y-571890*
X3032185Y-564448*
X3013110*
X3004015Y-571890*
X3004192Y-228011D02*
X3003956Y-228070D01*
X3003780Y-228130*
X3003542Y-228247*
X2995511Y-234743*
Y-210117*
X3034075*
X3034487Y-210000*
X3034842Y-209763*
X3035020Y-209350*
X3035078Y-208936*
X3035020Y-208465*
X3034842Y-208110*
X3034487Y-207815*
X3034075Y-207696*
X2994212*
X2993798Y-207815*
X2993445Y-208110*
X2993150Y-208465*
X2993030Y-208877*
Y-237282*
X2993090Y-237696*
X2993267Y-237991*
X2993503Y-238168*
X2993916Y-238286*
X2994212Y-238405*
X2994448Y-238465*
X2994743Y-238405*
X2994980Y-238227*
X3004605Y-230373*
X3023680*
X3032893Y-237873*
Y-256890*
X3023680Y-264271*
X3004605*
X2994980Y-256475*
X2994566Y-256298*
X2994212*
X2993857Y-256535*
X2993503Y-256830*
X2993267Y-257243*
X2993208Y-257656*
X2993267Y-258070*
X2993562Y-258365*
X3003542Y-266515*
X3003720Y-266633*
X3003956*
X3004192Y-266751*
X3024093*
X3024271*
X3024330Y-266692*
X3024390*
X3024507Y-266633*
X3024625*
X3024861Y-266515*
X3034842Y-258365*
X3035020Y-258188*
X3035078Y-258070*
X3035196Y-257716*
X3035255Y-257480*
Y-237282*
X3035196Y-237046*
X3035078Y-236692*
Y-236575*
X3035020Y-236515*
X3034901Y-236397*
X3034842Y-236280*
X3024861Y-228247*
X3024566Y-228130*
X3024330Y-228070*
X3024093Y-228011*
X3004192*
X3018685Y1303188D02*
X3033448Y1317952D01*
X3018685Y1332716*
X3003920Y1317952*
X3018685Y1303188*
X3022381Y-1303523D02*
X3041338D01*
X3041751Y-1303582*
X3042046Y-1303818*
X3042223Y-1304113*
X3042282Y-1304468*
X3042223Y-1304940*
X3042046Y-1305235*
X3041751Y-1305471*
X3041338Y-1305530*
X3022381*
X3021968Y-1305471*
X3021672Y-1305235*
X3021495Y-1304940*
X3021436Y-1304468*
X3021495Y-1304113*
X3021613Y-1303818*
X3021908Y-1303582*
X3022381Y-1303523*
Y-1067302D02*
X3041338D01*
X3041751Y-1067361*
X3042046Y-1067597*
X3042223Y-1067893*
X3042282Y-1068247*
X3042223Y-1068720*
X3042046Y-1069015*
X3041751Y-1069251*
X3041338Y-1069310*
X3022381*
X3021968Y-1069251*
X3021672Y-1069015*
X3021495Y-1068720*
X3021436Y-1068247*
X3021495Y-1067893*
X3021613Y-1067597*
X3021908Y-1067361*
X3022381Y-1067302*
Y-831082D02*
X3041338D01*
X3041751Y-831141*
X3042046Y-831377*
X3042223Y-831672*
X3042282Y-832027*
X3042223Y-832500*
X3042046Y-832795*
X3041751Y-833030*
X3041338Y-833090*
X3022381*
X3021968Y-833030*
X3021672Y-832795*
X3021495Y-832500*
X3021436Y-832027*
X3021495Y-831672*
X3021613Y-831377*
X3021908Y-831141*
X3022381Y-831082*
X3023385Y-1539743D02*
X3042342D01*
X3042755Y-1539802*
X3043050Y-1540038*
X3043227Y-1540335*
X3043286Y-1540688*
X3043227Y-1541160*
X3043050Y-1541456*
X3042755Y-1541692*
X3042342Y-1541751*
X3023385*
X3022971Y-1541692*
X3022676Y-1541456*
X3022500Y-1541160*
X3022440Y-1540688*
X3022500Y-1540335*
X3022617Y-1540038*
X3022912Y-1539802*
X3023385Y-1539743*
X3043760Y-571298D02*
Y-611810D01*
X3043700Y-612105*
X3043582Y-612342*
X3043523Y-612578*
X3043345Y-612755*
X3033425Y-620845*
X3033130Y-620965*
X3033070Y-621023*
X3032952*
X3032835Y-621082*
X3032775*
X3032656*
X3012755*
X3012520Y-621023*
X3012282Y-620965*
X3012046Y-620845*
X3002125Y-612755*
X3001890Y-612578*
X3001771Y-612342*
X3001653Y-612105*
X3001593Y-611810*
Y-571298*
X3001653Y-571003*
X3001771Y-570767*
X3001890Y-570650*
X3002007Y-570530*
X3002125Y-570353*
X3012046Y-562263*
X3012282Y-562205*
X3012460Y-562145*
X3012520Y-562086*
X3012755Y-562027*
X3032656*
X3032893Y-562086*
X3032952*
X3033011Y-562145*
X3033188Y-562205*
X3033425Y-562263*
X3043345Y-570353*
X3043405Y-570530*
X3043523Y-570590*
X3043582Y-570650*
Y-570767*
X3043700Y-571003*
X3043760Y-571298*
X3049428Y-216023D02*
X3059350Y-207932D01*
X3059586Y-207873*
X3059763Y-207815*
X3059822Y-207755*
X3060058Y-207696*
X3079960*
X3080196Y-207755*
X3080255*
X3080315Y-207815*
X3080491Y-207873*
X3080727Y-207932*
X3090650Y-216023*
X3090826Y-216318*
X3090885Y-216555*
X3091003Y-216731*
X3091062Y-216968*
Y-257480*
X3091003Y-257656*
X3090885Y-258070*
X3090826Y-258188*
X3090650Y-258425*
X3080727Y-266515*
X3080491Y-266575*
X3080373Y-266633*
X3080255Y-266692*
X3080137Y-266751*
X3079960*
X3060058*
X3059822Y-266692*
X3059586Y-266633*
X3059350Y-266515*
X3049428Y-258425*
X3049310Y-258306*
X3049192Y-258247*
X3049075Y-258070*
X3048956Y-257656*
X3048897Y-257480*
Y-216968*
X3048956Y-216731*
X3049075Y-216555*
X3049192Y-216318*
X3049428Y-216023*
X3051318Y-217558D02*
Y-256890D01*
X3054802Y-259842*
X3083385Y-213247*
X3079487Y-210117*
X3060412*
X3051318Y-217558*
X3056692Y-261377D02*
X3060412Y-264330D01*
X3079487*
X3088700Y-256890*
Y-217558*
X3085216Y-214782*
X3056692Y-261377*
X3057342Y-619901D02*
X3057460Y-620373D01*
X3057755Y-620668*
X3058110Y-621023*
X3058523Y-621082*
X3098385*
X3098798Y-621023*
X3099153Y-620727*
X3099330Y-620315*
X3099390Y-619901*
X3099330Y-619428*
X3099153Y-619015*
X3098798Y-618780*
X3098385Y-618660*
X3059822*
Y-563208*
X3059705Y-562795*
X3059408Y-562440*
X3058995Y-562263*
X3058523Y-562205*
X3058110Y-562263*
X3057755Y-562440*
X3057460Y-562795*
X3057342Y-563208*
Y-619901*
X3100968Y1300235D02*
X3136401D01*
Y1335668*
X3100968*
Y1300235*
X3105235Y-216023D02*
X3115156Y-207932D01*
X3115393Y-207873*
X3115570Y-207815*
X3115630Y-207755*
X3115865Y-207696*
X3135767*
X3136003Y-207755*
X3136062*
X3136121Y-207815*
X3136298Y-207873*
X3136535Y-207932*
X3146456Y-216023*
X3146633Y-216318*
X3146692Y-216555*
X3146810Y-216731*
X3146870Y-216968*
Y-257480*
X3146810Y-257656*
X3146692Y-258070*
X3146633Y-258188*
X3146456Y-258425*
X3136535Y-266515*
X3136298Y-266575*
X3136180Y-266633*
X3136062Y-266692*
X3135945Y-266751*
X3135767*
X3115865*
X3115630Y-266692*
X3115393Y-266633*
X3115156Y-266515*
X3105235Y-258425*
X3105117Y-258306*
X3105000Y-258247*
X3104881Y-258070*
X3104763Y-257656*
X3104705Y-257480*
Y-216968*
X3104763Y-216731*
X3104881Y-216555*
X3105000Y-216318*
X3105235Y-216023*
X3107125Y-217558D02*
Y-256890D01*
X3110610Y-259842*
X3139192Y-213247*
X3135295Y-210117*
X3116220*
X3107125Y-217558*
X3110610Y-1279015D02*
X3120530Y-1270925D01*
X3120767Y-1270865*
X3120945Y-1270806*
X3121003Y-1270747*
X3121240Y-1270688*
X3141141*
X3141377Y-1270747*
X3141436*
X3141495Y-1270806*
X3141672Y-1270865*
X3141908Y-1270925*
X3151830Y-1279015*
X3152007Y-1279310*
X3152066Y-1279546*
X3152185Y-1279723*
X3152243Y-1279960*
Y-1320471*
X3152185Y-1320649*
X3152066Y-1321062*
X3152007Y-1321180*
X3151830Y-1321416*
X3141908Y-1329507*
X3141672Y-1329566*
X3141555Y-1329625*
X3141436Y-1329685*
X3141318Y-1329743*
X3141141*
X3121240*
X3121003Y-1329685*
X3120767Y-1329625*
X3120530Y-1329507*
X3110610Y-1321416*
X3110491Y-1321298*
X3110373Y-1321240*
X3110255Y-1321062*
X3110137Y-1320649*
X3110078Y-1320471*
Y-1279960*
X3110137Y-1279723*
X3110255Y-1279546*
X3110373Y-1279310*
X3110610Y-1279015*
Y-1042795D02*
X3120530Y-1034705D01*
X3120767Y-1034645*
X3120945Y-1034586*
X3121003Y-1034527*
X3121240Y-1034468*
X3141141*
X3141377Y-1034527*
X3141436*
X3141495Y-1034586*
X3141672Y-1034645*
X3141908Y-1034705*
X3151830Y-1042795*
X3152007Y-1043090*
X3152066Y-1043326*
X3152185Y-1043503*
X3152243Y-1043740*
Y-1084251*
X3152185Y-1084428*
X3152066Y-1084842*
X3152007Y-1084960*
X3151830Y-1085196*
X3141908Y-1093286*
X3141672Y-1093345*
X3141555Y-1093405*
X3141436Y-1093465*
X3141318Y-1093523*
X3141141*
X3121240*
X3121003Y-1093465*
X3120767Y-1093405*
X3120530Y-1093286*
X3110610Y-1085196*
X3110491Y-1085078*
X3110373Y-1085020*
X3110255Y-1084842*
X3110137Y-1084428*
X3110078Y-1084251*
Y-1043740*
X3110137Y-1043503*
X3110255Y-1043326*
X3110373Y-1043090*
X3110610Y-1042795*
Y-806575D02*
X3120530Y-798483D01*
X3120767Y-798425*
X3120945Y-798365*
X3121003Y-798306*
X3121240Y-798247*
X3141141*
X3141377Y-798306*
X3141436*
X3141495Y-798365*
X3141672Y-798425*
X3141908Y-798483*
X3151830Y-806575*
X3152007Y-806870*
X3152066Y-807105*
X3152185Y-807282*
X3152243Y-807520*
Y-848030*
X3152185Y-848208*
X3152066Y-848621*
X3152007Y-848740*
X3151830Y-848975*
X3141908Y-857066*
X3141672Y-857125*
X3141555Y-857185*
X3141436Y-857243*
X3141318Y-857302*
X3141141*
X3121240*
X3121003Y-857243*
X3120767Y-857185*
X3120530Y-857066*
X3110610Y-848975*
X3110491Y-848857*
X3110373Y-848798*
X3110255Y-848621*
X3110137Y-848208*
X3110078Y-848030*
Y-807520*
X3110137Y-807282*
X3110255Y-807105*
X3110373Y-806870*
X3110610Y-806575*
X3111613Y-1515235D02*
X3121535Y-1507145D01*
X3121771Y-1507086*
X3121948Y-1507027*
X3122007Y-1506968*
X3122243Y-1506908*
X3142145*
X3142381Y-1506968*
X3142440*
X3142500Y-1507027*
X3142676Y-1507086*
X3142912Y-1507145*
X3152835Y-1515235*
X3153011Y-1515530*
X3153070Y-1515767*
X3153188Y-1515945*
X3153247Y-1516180*
Y-1556692*
X3153188Y-1556870*
X3153070Y-1557282*
X3153011Y-1557401*
X3152835Y-1557637*
X3142912Y-1565727*
X3142676Y-1565786*
X3142558Y-1565845*
X3142440Y-1565905*
X3142322Y-1565965*
X3142145*
X3122243*
X3122007Y-1565905*
X3121771Y-1565845*
X3121535Y-1565727*
X3111613Y-1557637*
X3111495Y-1557520*
X3111377Y-1557460*
X3111260Y-1557282*
X3111141Y-1556870*
X3111082Y-1556692*
Y-1516180*
X3111141Y-1515945*
X3111260Y-1515767*
X3111377Y-1515530*
X3111613Y-1515235*
X3112500Y-1280550D02*
Y-1319881D01*
X3115983Y-1322835*
X3144566Y-1276240*
X3140668Y-1273110*
X3121593*
X3112500Y-1280550*
Y-1044330D02*
Y-1083660D01*
X3115983Y-1086613*
X3144566Y-1040020*
X3140668Y-1036890*
X3121593*
X3112500Y-1044330*
Y-808110D02*
Y-847440D01*
X3115983Y-850393*
X3144566Y-803798*
X3140668Y-800668*
X3121593*
X3112500Y-808110*
Y-261377D02*
X3116220Y-264330D01*
X3135295*
X3144507Y-256890*
Y-217558*
X3141023Y-214782*
X3112500Y-261377*
X3113503Y-1516771D02*
Y-1556101D01*
X3116987Y-1559055*
X3145570Y-1512460*
X3141672Y-1509330*
X3122597*
X3113503Y-1516771*
X3117873Y-1324370D02*
X3121593Y-1327322D01*
X3140668*
X3149881Y-1319881*
Y-1280550*
X3146397Y-1277775*
X3117873Y-1324370*
Y-1088150D02*
X3121593Y-1091101D01*
X3140668*
X3149881Y-1083660*
Y-1044330*
X3146397Y-1041555*
X3117873Y-1088150*
Y-851928D02*
X3121593Y-854881D01*
X3140668*
X3149881Y-847440*
Y-808110*
X3146397Y-805335*
X3117873Y-851928*
X3118685Y1303188D02*
X3133448Y1317952D01*
X3118685Y1332716*
X3103920Y1317952*
X3118685Y1303188*
X3118877Y-1560590D02*
X3122597Y-1563542D01*
X3141672*
X3150885Y-1556101*
Y-1516771*
X3147401Y-1513995*
X3118877Y-1560590*
X3154192Y-564448D02*
X3154605Y-564330D01*
X3154960Y-564093*
X3155137Y-563680*
X3155196Y-563267*
X3155137Y-562795*
X3154960Y-562440*
X3154605Y-562145*
X3154192Y-562027*
X3114330*
X3113916Y-562145*
X3113562Y-562440*
X3113267Y-562795*
X3113150Y-563208*
Y-619901*
X3113267Y-620315*
X3113562Y-620668*
X3113916Y-620965*
X3114330Y-621082*
X3154192*
X3154605Y-620965*
X3154960Y-620727*
X3155137Y-620315*
X3155196Y-619901*
X3155137Y-619428*
X3154960Y-619015*
X3154605Y-618720*
X3154192Y-618601*
X3115630*
Y-592735*
X3142381*
X3142795Y-592617*
X3143150Y-592322*
X3143326Y-591968*
X3143385Y-591555*
X3143326Y-591141*
X3143150Y-590727*
X3142795Y-590432*
X3142381Y-590373*
X3115630*
Y-564448*
X3154192*
X3166416Y-1279015D02*
X3176338Y-1270925D01*
X3176575Y-1270865*
X3176751Y-1270806*
X3176810Y-1270747*
X3177046Y-1270688*
X3196948*
X3197185Y-1270747*
X3197243*
X3197302Y-1270806*
X3197480Y-1270865*
X3197716Y-1270925*
X3207637Y-1279015*
X3207815Y-1279310*
X3207873Y-1279546*
X3207991Y-1279723*
X3208050Y-1279960*
Y-1320471*
X3207991Y-1320649*
X3207873Y-1321062*
X3207815Y-1321180*
X3207637Y-1321416*
X3197716Y-1329507*
X3197480Y-1329566*
X3197361Y-1329625*
X3197243Y-1329685*
X3197125Y-1329743*
X3196948*
X3177046*
X3176810Y-1329685*
X3176575Y-1329625*
X3176338Y-1329507*
X3166416Y-1321416*
X3166298Y-1321298*
X3166180Y-1321240*
X3166062Y-1321062*
X3165945Y-1320649*
X3165885Y-1320471*
Y-1279960*
X3165945Y-1279723*
X3166062Y-1279546*
X3166180Y-1279310*
X3166416Y-1279015*
Y-1042795D02*
X3176338Y-1034705D01*
X3176575Y-1034645*
X3176751Y-1034586*
X3176810Y-1034527*
X3177046Y-1034468*
X3196948*
X3197185Y-1034527*
X3197243*
X3197302Y-1034586*
X3197480Y-1034645*
X3197716Y-1034705*
X3207637Y-1042795*
X3207815Y-1043090*
X3207873Y-1043326*
X3207991Y-1043503*
X3208050Y-1043740*
Y-1084251*
X3207991Y-1084428*
X3207873Y-1084842*
X3207815Y-1084960*
X3207637Y-1085196*
X3197716Y-1093286*
X3197480Y-1093345*
X3197361Y-1093405*
X3197243Y-1093465*
X3197125Y-1093523*
X3196948*
X3177046*
X3176810Y-1093465*
X3176575Y-1093405*
X3176338Y-1093286*
X3166416Y-1085196*
X3166298Y-1085078*
X3166180Y-1085020*
X3166062Y-1084842*
X3165945Y-1084428*
X3165885Y-1084251*
Y-1043740*
X3165945Y-1043503*
X3166062Y-1043326*
X3166180Y-1043090*
X3166416Y-1042795*
Y-806575D02*
X3176338Y-798483D01*
X3176575Y-798425*
X3176751Y-798365*
X3176810Y-798306*
X3177046Y-798247*
X3196948*
X3197185Y-798306*
X3197243*
X3197302Y-798365*
X3197480Y-798425*
X3197716Y-798483*
X3207637Y-806575*
X3207815Y-806870*
X3207873Y-807105*
X3207991Y-807282*
X3208050Y-807520*
Y-848030*
X3207991Y-848208*
X3207873Y-848621*
X3207815Y-848740*
X3207637Y-848975*
X3197716Y-857066*
X3197480Y-857125*
X3197361Y-857185*
X3197243Y-857243*
X3197125Y-857302*
X3196948*
X3177046*
X3176810Y-857243*
X3176575Y-857185*
X3176338Y-857066*
X3166416Y-848975*
X3166298Y-848857*
X3166180Y-848798*
X3166062Y-848621*
X3165945Y-848208*
X3165885Y-848030*
Y-807520*
X3165945Y-807282*
X3166062Y-807105*
X3166180Y-806870*
X3166416Y-806575*
X3167420Y-1515235D02*
X3177342Y-1507145D01*
X3177578Y-1507086*
X3177755Y-1507027*
X3177815Y-1506968*
X3178050Y-1506908*
X3197952*
X3198188Y-1506968*
X3198247*
X3198306Y-1507027*
X3198483Y-1507086*
X3198720Y-1507145*
X3208641Y-1515235*
X3208818Y-1515530*
X3208877Y-1515767*
X3208995Y-1515945*
X3209055Y-1516180*
Y-1556692*
X3208995Y-1556870*
X3208877Y-1557282*
X3208818Y-1557401*
X3208641Y-1557637*
X3198720Y-1565727*
X3198483Y-1565786*
X3198365Y-1565845*
X3198247Y-1565905*
X3198130Y-1565965*
X3197952*
X3178050*
X3177815Y-1565905*
X3177578Y-1565845*
X3177342Y-1565727*
X3167420Y-1557637*
X3167302Y-1557520*
X3167185Y-1557460*
X3167066Y-1557282*
X3166948Y-1556870*
X3166890Y-1556692*
Y-1516180*
X3166948Y-1515945*
X3167066Y-1515767*
X3167185Y-1515530*
X3167420Y-1515235*
X3168306Y-1280550D02*
Y-1319881D01*
X3171790Y-1322835*
X3200373Y-1276240*
X3196475Y-1273110*
X3177401*
X3168306Y-1280550*
Y-1044330D02*
Y-1083660D01*
X3171790Y-1086613*
X3200373Y-1040020*
X3196475Y-1036890*
X3177401*
X3168306Y-1044330*
Y-808110D02*
Y-847440D01*
X3171790Y-850393*
X3200373Y-803798*
X3196475Y-800668*
X3177401*
X3168306Y-808110*
X3169310Y-1516771D02*
Y-1556101D01*
X3172795Y-1559055*
X3201377Y-1512460*
X3197480Y-1509330*
X3178405*
X3169310Y-1516771*
X3171436Y-564448D02*
X3199665D01*
X3208877Y-571890*
Y-582873*
X3199665Y-590373*
X3171436*
Y-564448*
X3173680Y-1324370D02*
X3177401Y-1327322D01*
X3196475*
X3205688Y-1319881*
Y-1280550*
X3202205Y-1277775*
X3173680Y-1324370*
Y-1088150D02*
X3177401Y-1091101D01*
X3196475*
X3205688Y-1083660*
Y-1044330*
X3202205Y-1041555*
X3173680Y-1088150*
Y-851928D02*
X3177401Y-854881D01*
X3196475*
X3205688Y-847440*
Y-808110*
X3202205Y-805335*
X3173680Y-851928*
X3174685Y-1560590D02*
X3178405Y-1563542D01*
X3197480*
X3206692Y-1556101*
Y-1516771*
X3203208Y-1513995*
X3174685Y-1560590*
X3200968Y1300235D02*
X3236401D01*
Y1335668*
X3200968*
Y1300235*
X3210826Y-584468D02*
X3211003Y-584350D01*
X3211062Y-584055*
X3211240Y-583760*
Y-583465*
Y-571298*
Y-571003*
X3211062Y-570826*
Y-570650*
X3211003Y-570590*
X3210945Y-570530*
X3210826Y-570412*
X3200786Y-562263*
X3200491Y-562145*
X3200255Y-562086*
X3200020Y-562027*
X3170255*
X3169723Y-562145*
X3169370Y-562440*
X3169075Y-562795*
X3168956Y-563208*
Y-619901*
X3169075Y-620373*
X3169370Y-620668*
X3169723Y-620845*
X3170137Y-620905*
X3170610Y-620845*
X3171023Y-620668*
X3171318Y-620373*
X3171436Y-619901*
Y-592735*
X3199192*
X3208877Y-620255*
X3209113Y-620668*
X3209527Y-620905*
X3210000Y-620965*
X3210353Y-620845*
X3210708Y-620668*
X3211003Y-620373*
X3211180Y-619960*
X3211062Y-619487*
X3201377Y-591968*
X3210826Y-584468*
X3218685Y1303188D02*
X3233448Y1317952D01*
X3218685Y1332716*
X3203920Y1317952*
X3218685Y1303188*
X3219802Y-266338D02*
X3209113Y-252223D01*
X3208995Y-252046*
X3208936Y-251928*
X3208877Y-251751*
Y-251456*
Y-222932*
X3208936Y-222578*
X3209113Y-222282*
X3219685Y-208110*
X3220038Y-207815*
X3220393Y-207755*
X3220747Y-207873*
X3221101Y-208110*
X3221338Y-208465*
X3221456Y-208936*
Y-209350*
X3221280Y-209705*
X3211003Y-223523*
Y-251042*
X3221397Y-264743*
X3221515Y-265156*
Y-265630*
X3221338Y-266042*
X3221101Y-266397*
X3220747Y-266633*
X3220393Y-266692*
X3220216*
X3220038Y-266633*
X3219802Y-266338*
X3227243Y-595983D02*
Y-602420D01*
X3264625*
Y-595983*
X3245965Y-564625*
X3227243Y-595983*
X3233208Y-1322302D02*
Y-1328740D01*
X3233267Y-1329035*
X3233326Y-1329212*
X3233445Y-1329330*
X3233562Y-1329390*
X3233798Y-1329685*
X3234153Y-1329743*
X3240650*
X3241003Y-1329685*
X3241298Y-1329390*
X3241593Y-1329153*
X3241653Y-1328740*
Y-1322302*
X3241593Y-1321890*
X3241298Y-1321653*
X3241003Y-1321357*
X3240650Y-1321298*
X3234153*
X3233798Y-1321357*
X3233562Y-1321653*
X3233445Y-1321712*
X3233326Y-1321830*
X3233267Y-1322066*
X3233208Y-1322302*
Y-1086082D02*
Y-1092520D01*
X3233267Y-1092815*
X3233326Y-1092991*
X3233445Y-1093110*
X3233562Y-1093168*
X3233798Y-1093465*
X3234153Y-1093523*
X3240650*
X3241003Y-1093465*
X3241298Y-1093168*
X3241593Y-1092932*
X3241653Y-1092520*
Y-1086082*
X3241593Y-1085668*
X3241298Y-1085432*
X3241003Y-1085137*
X3240650Y-1085078*
X3234153*
X3233798Y-1085137*
X3233562Y-1085432*
X3233445Y-1085491*
X3233326Y-1085610*
X3233267Y-1085845*
X3233208Y-1086082*
Y-849861D02*
Y-856298D01*
X3233267Y-856593*
X3233326Y-856771*
X3233445Y-856890*
X3233562Y-856948*
X3233798Y-857243*
X3234153Y-857302*
X3240650*
X3241003Y-857243*
X3241298Y-856948*
X3241593Y-856712*
X3241653Y-856298*
Y-849861*
X3241593Y-849448*
X3241298Y-849212*
X3241003Y-848916*
X3240650Y-848857*
X3234153*
X3233798Y-848916*
X3233562Y-849212*
X3233445Y-849271*
X3233326Y-849390*
X3233267Y-849625*
X3233208Y-849861*
X3234212Y-1558523D02*
Y-1564960D01*
X3234271Y-1565255*
X3234330Y-1565432*
X3234448Y-1565550*
X3234566Y-1565610*
X3234802Y-1565905*
X3235156Y-1565965*
X3241653*
X3242007Y-1565905*
X3242302Y-1565610*
X3242597Y-1565373*
X3242656Y-1564960*
Y-1558523*
X3242597Y-1558110*
X3242302Y-1557873*
X3242007Y-1557578*
X3241653Y-1557520*
X3235156*
X3234802Y-1557578*
X3234566Y-1557873*
X3234448Y-1557932*
X3234330Y-1558050*
X3234271Y-1558286*
X3234212Y-1558523*
X3235156Y-1323247D02*
X3239705D01*
Y-1327795*
X3235156*
Y-1323247*
Y-1087027D02*
X3239705D01*
Y-1091575*
X3235156*
Y-1087027*
Y-850806D02*
X3239705D01*
Y-855353*
X3235156*
Y-850806*
X3236160Y-1559468D02*
X3240708D01*
Y-1564015*
X3236160*
Y-1559468*
X3245373Y-562086D02*
X3246731D01*
X3246968Y-562145*
X3247145Y-562263*
X3247558Y-562558*
X3247735Y-562676*
X3266810Y-594920*
X3266870Y-595156*
X3266928Y-595275*
X3266987Y-595393*
Y-595452*
Y-595570*
Y-619901*
X3266870Y-620315*
X3266633Y-620668*
X3266220Y-620845*
X3265806Y-620905*
X3265393Y-620845*
X3264980Y-620668*
X3264743Y-620315*
X3264625Y-619901*
Y-604842*
X3227243*
Y-619901*
X3227125Y-620315*
X3226890Y-620668*
X3226475Y-620845*
X3226003Y-620905*
X3225590Y-620845*
X3225176Y-620668*
X3224940Y-620315*
X3224822Y-619901*
Y-595570*
Y-595452*
Y-595393*
X3224881Y-595275*
X3224940Y-595156*
X3225000Y-594920*
X3244310Y-562676*
X3244605Y-562381*
X3244960Y-562263*
X3245196Y-562145*
X3245373Y-562086*
X3267637Y-1279015D02*
X3277558Y-1270925D01*
X3277795Y-1270865*
X3277971Y-1270806*
X3278030Y-1270747*
X3278267Y-1270688*
X3298168*
X3298405Y-1270747*
X3298465*
X3298523Y-1270806*
X3298700Y-1270865*
X3298936Y-1270925*
X3308857Y-1279015*
X3309035Y-1279310*
X3309093Y-1279546*
X3309212Y-1279723*
X3309271Y-1279960*
Y-1320471*
X3309212Y-1320649*
X3309093Y-1321062*
X3309035Y-1321180*
X3308857Y-1321416*
X3298936Y-1329507*
X3298700Y-1329566*
X3298582Y-1329625*
X3298465Y-1329685*
X3298345Y-1329743*
X3298168*
X3278267*
X3278030Y-1329685*
X3277795Y-1329625*
X3277558Y-1329507*
X3267637Y-1321416*
X3267520Y-1321298*
X3267401Y-1321240*
X3267282Y-1321062*
X3267165Y-1320649*
X3267105Y-1320471*
Y-1279960*
X3267165Y-1279723*
X3267282Y-1279546*
X3267401Y-1279310*
X3267637Y-1279015*
Y-1042795D02*
X3277558Y-1034705D01*
X3277795Y-1034645*
X3277971Y-1034586*
X3278030Y-1034527*
X3278267Y-1034468*
X3298168*
X3298405Y-1034527*
X3298465*
X3298523Y-1034586*
X3298700Y-1034645*
X3298936Y-1034705*
X3308857Y-1042795*
X3309035Y-1043090*
X3309093Y-1043326*
X3309212Y-1043503*
X3309271Y-1043740*
Y-1084251*
X3309212Y-1084428*
X3309093Y-1084842*
X3309035Y-1084960*
X3308857Y-1085196*
X3298936Y-1093286*
X3298700Y-1093345*
X3298582Y-1093405*
X3298465Y-1093465*
X3298345Y-1093523*
X3298168*
X3278267*
X3278030Y-1093465*
X3277795Y-1093405*
X3277558Y-1093286*
X3267637Y-1085196*
X3267520Y-1085078*
X3267401Y-1085020*
X3267282Y-1084842*
X3267165Y-1084428*
X3267105Y-1084251*
Y-1043740*
X3267165Y-1043503*
X3267282Y-1043326*
X3267401Y-1043090*
X3267637Y-1042795*
Y-806575D02*
X3277558Y-798483D01*
X3277795Y-798425*
X3277971Y-798365*
X3278030Y-798306*
X3278267Y-798247*
X3298168*
X3298405Y-798306*
X3298465*
X3298523Y-798365*
X3298700Y-798425*
X3298936Y-798483*
X3308857Y-806575*
X3309035Y-806870*
X3309093Y-807105*
X3309212Y-807282*
X3309271Y-807520*
Y-848030*
X3309212Y-848208*
X3309093Y-848621*
X3309035Y-848740*
X3308857Y-848975*
X3298936Y-857066*
X3298700Y-857125*
X3298582Y-857185*
X3298465Y-857243*
X3298345Y-857302*
X3298168*
X3278267*
X3278030Y-857243*
X3277795Y-857185*
X3277558Y-857066*
X3267637Y-848975*
X3267520Y-848857*
X3267401Y-848798*
X3267282Y-848621*
X3267165Y-848208*
X3267105Y-848030*
Y-807520*
X3267165Y-807282*
X3267282Y-807105*
X3267401Y-806870*
X3267637Y-806575*
X3269527Y-1280550D02*
Y-1319881D01*
X3273011Y-1322835*
X3301593Y-1276240*
X3297696Y-1273110*
X3278621*
X3269527Y-1280550*
Y-1044330D02*
Y-1083660D01*
X3273011Y-1086613*
X3301593Y-1040020*
X3297696Y-1036890*
X3278621*
X3269527Y-1044330*
Y-808110D02*
Y-847440D01*
X3273011Y-850393*
X3301593Y-803798*
X3297696Y-800668*
X3278621*
X3269527Y-808110*
X3274901Y-1324370D02*
X3278621Y-1327322D01*
X3297696*
X3306908Y-1319881*
Y-1280550*
X3303425Y-1277775*
X3274901Y-1324370*
Y-1088150D02*
X3278621Y-1091101D01*
X3297696*
X3306908Y-1083660*
Y-1044330*
X3303425Y-1041555*
X3274901Y-1088150*
Y-851928D02*
X3278621Y-854881D01*
X3297696*
X3306908Y-847440*
Y-808110*
X3303425Y-805335*
X3274901Y-851928*
X3276613Y-1563542D02*
X3276141Y-1563660D01*
X3275905Y-1563897*
X3275727Y-1564310*
X3275668Y-1564782*
X3275727Y-1565196*
X3275905Y-1565610*
X3276141Y-1565905*
X3276613Y-1565965*
X3299645*
X3300058Y-1565905*
X3300412Y-1565610*
X3300590Y-1565196*
X3300650Y-1564782*
X3300590Y-1564310*
X3300412Y-1563897*
X3300058Y-1563660*
X3299645Y-1563542*
X3289251*
Y-1508090*
X3289192Y-1507676*
X3289015Y-1507381*
X3288720Y-1507205*
X3288306Y-1507145*
X3288011Y-1507086*
X3287716*
X3287480Y-1507205*
X3287243Y-1507440*
X3275727Y-1523621*
X3275550Y-1524035*
Y-1524448*
X3275727Y-1524802*
X3276023Y-1525097*
X3276377Y-1525335*
X3276790Y-1525452*
X3277027*
X3277205Y-1525393*
X3277500Y-1525038*
X3286948Y-1511810*
Y-1563542*
X3276613*
X3280688Y-619901D02*
X3280806Y-620373D01*
X3281101Y-620668*
X3281456Y-620845*
X3281870Y-620905*
X3282342Y-620845*
X3282755Y-620668*
X3283050Y-620373*
X3283168Y-619901*
Y-566987*
X3320786Y-620610*
X3320965Y-620845*
X3321260Y-620965*
X3321555*
X3321908Y-620845*
X3322322Y-620727*
X3322676Y-620550*
X3322853Y-620255*
X3322912Y-619901*
Y-563208*
X3322795Y-562795*
X3322500Y-562440*
X3322145Y-562263*
X3321731Y-562205*
X3321318Y-562263*
X3320905Y-562440*
X3320610Y-562795*
X3320550Y-563208*
Y-616121*
X3282873Y-562558*
X3282637Y-562322*
X3282401Y-562205*
X3282105*
X3281810Y-562263*
X3281338Y-562322*
X3280983Y-562500*
X3280806Y-562795*
X3280688Y-563208*
Y-619901*
X3291731Y-265570D02*
X3291790Y-266042D01*
X3292086Y-266338*
X3292500Y-266515*
X3292912Y-266575*
X3293326Y-266515*
X3293680Y-266338*
X3293975Y-266042*
X3294093Y-265570*
Y-209113*
Y-208936*
Y-208877*
X3294035Y-208465*
X3293857Y-208168*
X3293503Y-207991*
X3293090Y-207932*
X3292676Y-207873*
X3292381Y-207932*
X3292086Y-208050*
X3291908Y-208286*
X3273011Y-238936*
X3254172Y-208286*
X3253877Y-207991*
X3253641Y-207873*
X3253286*
X3252991Y-207932*
X3252520Y-207991*
X3252165Y-208168*
X3251987Y-208465*
X3251870Y-208877*
Y-208936*
Y-209113*
Y-265570*
X3251987Y-266042*
X3252282Y-266338*
X3252637Y-266515*
X3253050Y-266575*
X3253523Y-266515*
X3253936Y-266338*
X3254231Y-266042*
X3254350Y-265570*
Y-213188*
X3271948Y-241948*
X3272185Y-242185*
X3272420Y-242361*
X3272716Y-242420*
X3273011Y-242361*
X3273306Y-242420*
X3273601Y-242361*
X3273838Y-242185*
X3274075Y-241948*
X3291731Y-213188*
Y-265570*
X3300968Y1300235D02*
X3336401D01*
Y1335668*
X3300968*
Y1300235*
X3318685Y1303188D02*
X3333448Y1317952D01*
X3318685Y1332716*
X3303920Y1317952*
X3318685Y1303188*
X3322381Y-1515235D02*
X3332302Y-1507145D01*
X3332538Y-1507086*
X3332716Y-1507027*
X3332775Y-1506968*
X3333011Y-1506908*
X3352912*
X3353150Y-1506968*
X3353208*
X3353267Y-1507027*
X3353445Y-1507086*
X3353680Y-1507145*
X3363601Y-1515235*
X3363780Y-1515530*
X3363838Y-1515767*
X3363956Y-1515945*
X3364015Y-1516180*
Y-1556692*
X3363956Y-1556870*
X3363838Y-1557282*
X3363780Y-1557401*
X3363601Y-1557637*
X3353680Y-1565727*
X3353445Y-1565786*
X3353326Y-1565845*
X3353208Y-1565905*
X3353090Y-1565965*
X3352912*
X3333011*
X3332775Y-1565905*
X3332538Y-1565845*
X3332302Y-1565727*
X3322381Y-1557637*
X3322263Y-1557520*
X3322145Y-1557460*
X3322027Y-1557282*
X3321908Y-1556870*
X3321850Y-1556692*
Y-1516180*
X3321908Y-1515945*
X3322027Y-1515767*
X3322145Y-1515530*
X3322381Y-1515235*
X3324271Y-1516771D02*
Y-1556101D01*
X3327755Y-1559055*
X3356338Y-1512460*
X3352440Y-1509330*
X3333365*
X3324271Y-1516771*
X3329645Y-1560590D02*
X3333365Y-1563542D01*
X3352440*
X3361653Y-1556101*
Y-1516771*
X3358168Y-1513995*
X3329645Y-1560590*
X3334015Y-1291003D02*
X3333780Y-1291062D01*
X3333601Y-1291121*
X3333365Y-1291240*
X3325335Y-1297735*
Y-1273110*
X3363897*
X3364310Y-1272991*
X3364665Y-1272755*
X3364842Y-1272342*
X3364901Y-1271928*
X3364842Y-1271456*
X3364665Y-1271101*
X3364310Y-1270806*
X3363897Y-1270688*
X3324035*
X3323621Y-1270806*
X3323267Y-1271101*
X3322971Y-1271456*
X3322853Y-1271870*
Y-1300275*
X3322912Y-1300688*
X3323090Y-1300983*
X3323326Y-1301160*
X3323740Y-1301280*
X3324035Y-1301397*
X3324271Y-1301456*
X3324566Y-1301397*
X3324802Y-1301220*
X3334428Y-1293365*
X3353503*
X3362716Y-1300865*
Y-1319881*
X3353503Y-1327263*
X3334428*
X3324802Y-1319468*
X3324390Y-1319290*
X3324035*
X3323680Y-1319527*
X3323326Y-1319822*
X3323090Y-1320235*
X3323030Y-1320649*
X3323090Y-1321062*
X3323385Y-1321357*
X3333365Y-1329507*
X3333542Y-1329625*
X3333780*
X3334015Y-1329743*
X3353916*
X3354093*
X3354153Y-1329685*
X3354212*
X3354330Y-1329625*
X3354448*
X3354685Y-1329507*
X3364665Y-1321357*
X3364842Y-1321180*
X3364901Y-1321062*
X3365020Y-1320708*
X3365078Y-1320471*
Y-1300275*
X3365020Y-1300038*
X3364901Y-1299685*
Y-1299566*
X3364842Y-1299507*
X3364723Y-1299390*
X3364665Y-1299271*
X3354685Y-1291240*
X3354390Y-1291121*
X3354153Y-1291062*
X3353916Y-1291003*
X3334015*
Y-1054782D02*
X3333780Y-1054842D01*
X3333601Y-1054901*
X3333365Y-1055020*
X3325335Y-1061515*
Y-1036890*
X3363897*
X3364310Y-1036771*
X3364665Y-1036535*
X3364842Y-1036121*
X3364901Y-1035708*
X3364842Y-1035235*
X3364665Y-1034881*
X3364310Y-1034586*
X3363897Y-1034468*
X3324035*
X3323621Y-1034586*
X3323267Y-1034881*
X3322971Y-1035235*
X3322853Y-1035650*
Y-1064055*
X3322912Y-1064468*
X3323090Y-1064763*
X3323326Y-1064940*
X3323740Y-1065058*
X3324035Y-1065176*
X3324271Y-1065235*
X3324566Y-1065176*
X3324802Y-1065000*
X3334428Y-1057145*
X3353503*
X3362716Y-1064645*
Y-1083660*
X3353503Y-1091042*
X3334428*
X3324802Y-1083247*
X3324390Y-1083070*
X3324035*
X3323680Y-1083306*
X3323326Y-1083601*
X3323090Y-1084015*
X3323030Y-1084428*
X3323090Y-1084842*
X3323385Y-1085137*
X3333365Y-1093286*
X3333542Y-1093405*
X3333780*
X3334015Y-1093523*
X3353916*
X3354093*
X3354153Y-1093465*
X3354212*
X3354330Y-1093405*
X3354448*
X3354685Y-1093286*
X3364665Y-1085137*
X3364842Y-1084960*
X3364901Y-1084842*
X3365020Y-1084487*
X3365078Y-1084251*
Y-1064055*
X3365020Y-1063818*
X3364901Y-1063465*
Y-1063345*
X3364842Y-1063286*
X3364723Y-1063168*
X3364665Y-1063050*
X3354685Y-1055020*
X3354390Y-1054901*
X3354153Y-1054842*
X3353916Y-1054782*
X3334015*
Y-818562D02*
X3333780Y-818621D01*
X3333601Y-818680*
X3333365Y-818798*
X3325335Y-825295*
Y-800668*
X3363897*
X3364310Y-800550*
X3364665Y-800315*
X3364842Y-799901*
X3364901Y-799487*
X3364842Y-799015*
X3364665Y-798660*
X3364310Y-798365*
X3363897Y-798247*
X3324035*
X3323621Y-798365*
X3323267Y-798660*
X3322971Y-799015*
X3322853Y-799428*
Y-827835*
X3322912Y-828247*
X3323090Y-828542*
X3323326Y-828720*
X3323740Y-828838*
X3324035Y-828956*
X3324271Y-829015*
X3324566Y-828956*
X3324802Y-828780*
X3334428Y-820925*
X3353503*
X3362716Y-828425*
Y-847440*
X3353503Y-854822*
X3334428*
X3324802Y-847027*
X3324390Y-846850*
X3324035*
X3323680Y-847086*
X3323326Y-847381*
X3323090Y-847795*
X3323030Y-848208*
X3323090Y-848621*
X3323385Y-848916*
X3333365Y-857066*
X3333542Y-857185*
X3333780*
X3334015Y-857302*
X3353916*
X3354093*
X3354153Y-857243*
X3354212*
X3354330Y-857185*
X3354448*
X3354685Y-857066*
X3364665Y-848916*
X3364842Y-848740*
X3364901Y-848621*
X3365020Y-848267*
X3365078Y-848030*
Y-827835*
X3365020Y-827597*
X3364901Y-827243*
Y-827125*
X3364842Y-827066*
X3364723Y-826948*
X3364665Y-826830*
X3354685Y-818798*
X3354390Y-818680*
X3354153Y-818621*
X3353916Y-818562*
X3334015*
X3347007Y-620845D02*
X3337086Y-612755D01*
X3336790Y-612578*
X3336731Y-612342*
X3336613Y-612105*
X3336555Y-611810*
Y-571298*
X3336613Y-571003*
X3336731Y-570767*
X3336850Y-570650*
X3336908Y-570530*
X3337027Y-570353*
X3347007Y-562263*
X3347185Y-562205*
X3347361Y-562145*
X3347420Y-562086*
X3347656Y-562027*
X3367558*
X3367853Y-562086*
X3367971Y-562145*
X3368150Y-562205*
X3368326Y-562263*
X3378306Y-570353*
X3378542Y-570650*
X3378660Y-571121*
X3378601Y-571475*
X3378483Y-571771*
X3378306Y-572007*
X3378011Y-572243*
X3377716Y-572420*
X3377420Y-572480*
X3377125*
X3376890Y-572302*
X3367145Y-564448*
X3348070*
X3338975Y-571890*
Y-611220*
X3348070Y-618660*
X3367145*
X3376890Y-610806*
X3377125Y-610688*
X3377420Y-610630*
X3377716Y-610688*
X3378011Y-610865*
X3378306Y-611101*
X3378483Y-611397*
X3378601Y-611751*
X3378660Y-612105*
X3378542Y-612460*
X3378306Y-612755*
X3368326Y-620845*
X3368090Y-620965*
X3368030Y-621023*
X3367853*
X3367795Y-621082*
X3367735*
X3367558*
X3347656*
X3347420Y-621023*
X3347185Y-620965*
X3347007Y-620845*
X3347538Y-265570D02*
X3347597Y-266042D01*
X3347893Y-266338*
X3348306Y-266515*
X3348720Y-266575*
X3349133Y-266515*
X3349487Y-266338*
X3349782Y-266042*
X3349901Y-265570*
Y-209113*
Y-208936*
Y-208877*
X3349842Y-208465*
X3349665Y-208168*
X3349310Y-207991*
X3348897Y-207932*
X3348483Y-207873*
X3348188Y-207932*
X3347893Y-208050*
X3347716Y-208286*
X3328818Y-238936*
X3309980Y-208286*
X3309685Y-207991*
X3309448Y-207873*
X3309093*
X3308798Y-207932*
X3308326Y-207991*
X3307971Y-208168*
X3307795Y-208465*
X3307676Y-208877*
Y-208936*
Y-209113*
Y-265570*
X3307795Y-266042*
X3308090Y-266338*
X3308445Y-266515*
X3308857Y-266575*
X3309330Y-266515*
X3309743Y-266338*
X3310038Y-266042*
X3310156Y-265570*
Y-213188*
X3327755Y-241948*
X3327991Y-242185*
X3328227Y-242361*
X3328523Y-242420*
X3328818Y-242361*
X3329113Y-242420*
X3329408Y-242361*
X3329645Y-242185*
X3329881Y-241948*
X3347538Y-213188*
Y-265570*
X3356062Y647243D02*
X3375747D01*
X3356062Y730708D02*
X3375747D01*
X3365905Y637401D02*
Y657086D01*
Y720865D02*
Y740550D01*
X3378188Y-1515235D02*
X3388110Y-1507145D01*
X3388345Y-1507086*
X3388523Y-1507027*
X3388582Y-1506968*
X3388818Y-1506908*
X3408720*
X3408956Y-1506968*
X3409015*
X3409075Y-1507027*
X3409251Y-1507086*
X3409487Y-1507145*
X3419408Y-1515235*
X3419586Y-1515530*
X3419645Y-1515767*
X3419763Y-1515945*
X3419822Y-1516180*
Y-1556692*
X3419763Y-1556870*
X3419645Y-1557282*
X3419586Y-1557401*
X3419408Y-1557637*
X3409487Y-1565727*
X3409251Y-1565786*
X3409133Y-1565845*
X3409015Y-1565905*
X3408897Y-1565965*
X3408720*
X3388818*
X3388582Y-1565905*
X3388345Y-1565845*
X3388110Y-1565727*
X3378188Y-1557637*
X3378070Y-1557520*
X3377952Y-1557460*
X3377835Y-1557282*
X3377716Y-1556870*
X3377656Y-1556692*
Y-1516180*
X3377716Y-1515945*
X3377835Y-1515767*
X3377952Y-1515530*
X3378188Y-1515235*
X3378700Y647243D02*
G03X3365905Y660038I12795D01*
X3353110Y647243J12795*
X3365905Y634448I12795*
X3378700Y647243J12795*
G01Y730708D02*
G03X3365905Y743503I12795D01*
X3353110Y730708J12795*
X3365905Y717912I12795*
X3378700Y730708J12795*
G01X3379251Y-1279015D02*
X3389172Y-1270925D01*
X3389408Y-1270865*
X3389586Y-1270806*
X3389645Y-1270747*
X3389881Y-1270688*
X3409782*
X3410020Y-1270747*
X3410078*
X3410137Y-1270806*
X3410315Y-1270865*
X3410550Y-1270925*
X3420471Y-1279015*
X3420650Y-1279310*
X3420708Y-1279546*
X3420826Y-1279723*
X3420885Y-1279960*
Y-1320471*
X3420826Y-1320649*
X3420708Y-1321062*
X3420650Y-1321180*
X3420471Y-1321416*
X3410550Y-1329507*
X3410315Y-1329566*
X3410196Y-1329625*
X3410078Y-1329685*
X3409960Y-1329743*
X3409782*
X3389881*
X3389645Y-1329685*
X3389408Y-1329625*
X3389172Y-1329507*
X3379251Y-1321416*
X3379133Y-1321298*
X3379015Y-1321240*
X3378897Y-1321062*
X3378780Y-1320649*
X3378720Y-1320471*
Y-1279960*
X3378780Y-1279723*
X3378897Y-1279546*
X3379015Y-1279310*
X3379251Y-1279015*
Y-1042795D02*
X3389172Y-1034705D01*
X3389408Y-1034645*
X3389586Y-1034586*
X3389645Y-1034527*
X3389881Y-1034468*
X3409782*
X3410020Y-1034527*
X3410078*
X3410137Y-1034586*
X3410315Y-1034645*
X3410550Y-1034705*
X3420471Y-1042795*
X3420650Y-1043090*
X3420708Y-1043326*
X3420826Y-1043503*
X3420885Y-1043740*
Y-1084251*
X3420826Y-1084428*
X3420708Y-1084842*
X3420650Y-1084960*
X3420471Y-1085196*
X3410550Y-1093286*
X3410315Y-1093345*
X3410196Y-1093405*
X3410078Y-1093465*
X3409960Y-1093523*
X3409782*
X3389881*
X3389645Y-1093465*
X3389408Y-1093405*
X3389172Y-1093286*
X3379251Y-1085196*
X3379133Y-1085078*
X3379015Y-1085020*
X3378897Y-1084842*
X3378780Y-1084428*
X3378720Y-1084251*
Y-1043740*
X3378780Y-1043503*
X3378897Y-1043326*
X3379015Y-1043090*
X3379251Y-1042795*
Y-806575D02*
X3389172Y-798483D01*
X3389408Y-798425*
X3389586Y-798365*
X3389645Y-798306*
X3389881Y-798247*
X3409782*
X3410020Y-798306*
X3410078*
X3410137Y-798365*
X3410315Y-798425*
X3410550Y-798483*
X3420471Y-806575*
X3420650Y-806870*
X3420708Y-807105*
X3420826Y-807282*
X3420885Y-807520*
Y-848030*
X3420826Y-848208*
X3420708Y-848621*
X3420650Y-848740*
X3420471Y-848975*
X3410550Y-857066*
X3410315Y-857125*
X3410196Y-857185*
X3410078Y-857243*
X3409960Y-857302*
X3409782*
X3389881*
X3389645Y-857243*
X3389408Y-857185*
X3389172Y-857066*
X3379251Y-848975*
X3379133Y-848857*
X3379015Y-848798*
X3378897Y-848621*
X3378780Y-848208*
X3378720Y-848030*
Y-807520*
X3378780Y-807282*
X3378897Y-807105*
X3379015Y-806870*
X3379251Y-806575*
X3380078Y-1516771D02*
Y-1556101D01*
X3383562Y-1559055*
X3412145Y-1512460*
X3408247Y-1509330*
X3389172*
X3380078Y-1516771*
X3380550Y-264743D02*
X3390767Y-251160D01*
Y-223523*
X3380491Y-209705*
X3380315Y-209350*
X3380373Y-208936*
X3380491Y-208465*
X3380727Y-208110*
X3381023Y-207873*
X3381377Y-207755*
X3381731Y-207815*
X3381968Y-208110*
X3392538Y-222282*
X3392656Y-222520*
X3392716Y-222637*
X3392775Y-222815*
X3392835Y-222991*
X3392893Y-223050*
Y-251456*
Y-251633*
X3392835Y-251692*
Y-251751*
Y-251928*
X3392775Y-252105*
X3392538Y-252342*
X3382086Y-266338*
X3381790Y-266633*
X3381613Y-266692*
X3381436*
X3381082Y-266633*
X3380786Y-266397*
X3380610Y-266042*
X3380432Y-265630*
X3380373Y-265156*
X3380550Y-264743*
X3381141Y-1280550D02*
Y-1319881D01*
X3384625Y-1322835*
X3413208Y-1276240*
X3409310Y-1273110*
X3390235*
X3381141Y-1280550*
Y-1044330D02*
Y-1083660D01*
X3384625Y-1086613*
X3413208Y-1040020*
X3409310Y-1036890*
X3390235*
X3381141Y-1044330*
Y-808110D02*
Y-847440D01*
X3384625Y-850393*
X3413208Y-803798*
X3409310Y-800668*
X3390235*
X3381141Y-808110*
X3385452Y-1560590D02*
X3389172Y-1563542D01*
X3408247*
X3417460Y-1556101*
Y-1516771*
X3413975Y-1513995*
X3385452Y-1560590*
X3386515Y-1324370D02*
X3390235Y-1327322D01*
X3409310*
X3418523Y-1319881*
Y-1280550*
X3415038Y-1277775*
X3386515Y-1324370*
Y-1088150D02*
X3390235Y-1091101D01*
X3409310*
X3418523Y-1083660*
Y-1044330*
X3415038Y-1041555*
X3386515Y-1088150*
Y-851928D02*
X3390235Y-854881D01*
X3409310*
X3418523Y-847440*
Y-808110*
X3415038Y-805335*
X3386515Y-851928*
X3392322Y572007D02*
X3412007D01*
X3392322Y805945D02*
X3412007D01*
X3400968Y1300235D02*
X3436401D01*
Y1335668*
X3400968*
Y1300235*
X3402165Y562165D02*
Y581850D01*
Y796101D02*
Y815786D01*
X3414960Y572007D02*
G03X3402165Y584802I12795D01*
X3389370Y572007J12795*
X3402165Y559212I12795*
X3414960Y572007J12795*
G01Y805945D02*
G03X3402165Y818740I12795D01*
X3389370Y805945J12795*
X3402165Y793150I12795*
X3414960Y805945J12795*
G01X3418685Y1303188D02*
X3433448Y1317952D01*
X3418685Y1332716*
X3403920Y1317952*
X3418685Y1303188*
X3433227Y-564448D02*
X3433641Y-564330D01*
X3433995Y-564093*
X3434172Y-563680*
X3434231Y-563267*
X3434172Y-562795*
X3433995Y-562440*
X3433641Y-562145*
X3433227Y-562027*
X3393365*
X3392952Y-562145*
X3392597Y-562440*
X3392302Y-562795*
X3392185Y-563208*
Y-619901*
X3392302Y-620315*
X3392597Y-620668*
X3392952Y-620965*
X3393365Y-621082*
X3433227*
X3433641Y-620965*
X3433995Y-620727*
X3434172Y-620315*
X3434231Y-619901*
X3434172Y-619428*
X3433995Y-619015*
X3433641Y-618720*
X3433227Y-618601*
X3394665*
Y-592735*
X3421416*
X3421830Y-592617*
X3422185Y-592322*
X3422361Y-591968*
X3422420Y-591555*
X3422361Y-591141*
X3422185Y-590727*
X3421830Y-590432*
X3421416Y-590373*
X3394665*
Y-564448*
X3433227*
X3433995Y-1515235D02*
X3443916Y-1507145D01*
X3444153Y-1507086*
X3444330Y-1507027*
X3444390Y-1506968*
X3444625Y-1506908*
X3464527*
X3464763Y-1506968*
X3464822*
X3464881Y-1507027*
X3465058Y-1507086*
X3465295Y-1507145*
X3475216Y-1515235*
X3475393Y-1515530*
X3475452Y-1515767*
X3475570Y-1515945*
X3475630Y-1516180*
Y-1556692*
X3475570Y-1556870*
X3475452Y-1557282*
X3475393Y-1557401*
X3475216Y-1557637*
X3465295Y-1565727*
X3465058Y-1565786*
X3464940Y-1565845*
X3464822Y-1565905*
X3464705Y-1565965*
X3464527*
X3444625*
X3444390Y-1565905*
X3444153Y-1565845*
X3443916Y-1565727*
X3433995Y-1557637*
X3433877Y-1557520*
X3433760Y-1557460*
X3433641Y-1557282*
X3433523Y-1556870*
X3433465Y-1556692*
Y-1516180*
X3433523Y-1515945*
X3433641Y-1515767*
X3433760Y-1515530*
X3433995Y-1515235*
X3435058Y-1279015D02*
X3444980Y-1270925D01*
X3445216Y-1270865*
X3445393Y-1270806*
X3445452Y-1270747*
X3445688Y-1270688*
X3465590*
X3465826Y-1270747*
X3465885*
X3465945Y-1270806*
X3466121Y-1270865*
X3466357Y-1270925*
X3476280Y-1279015*
X3476456Y-1279310*
X3476515Y-1279546*
X3476633Y-1279723*
X3476692Y-1279960*
Y-1320471*
X3476633Y-1320649*
X3476515Y-1321062*
X3476456Y-1321180*
X3476280Y-1321416*
X3466357Y-1329507*
X3466121Y-1329566*
X3466003Y-1329625*
X3465885Y-1329685*
X3465767Y-1329743*
X3465590*
X3445688*
X3445452Y-1329685*
X3445216Y-1329625*
X3444980Y-1329507*
X3435058Y-1321416*
X3434940Y-1321298*
X3434822Y-1321240*
X3434705Y-1321062*
X3434586Y-1320649*
X3434527Y-1320471*
Y-1279960*
X3434586Y-1279723*
X3434705Y-1279546*
X3434822Y-1279310*
X3435058Y-1279015*
Y-1042795D02*
X3444980Y-1034705D01*
X3445216Y-1034645*
X3445393Y-1034586*
X3445452Y-1034527*
X3445688Y-1034468*
X3465590*
X3465826Y-1034527*
X3465885*
X3465945Y-1034586*
X3466121Y-1034645*
X3466357Y-1034705*
X3476280Y-1042795*
X3476456Y-1043090*
X3476515Y-1043326*
X3476633Y-1043503*
X3476692Y-1043740*
Y-1084251*
X3476633Y-1084428*
X3476515Y-1084842*
X3476456Y-1084960*
X3476280Y-1085196*
X3466357Y-1093286*
X3466121Y-1093345*
X3466003Y-1093405*
X3465885Y-1093465*
X3465767Y-1093523*
X3465590*
X3445688*
X3445452Y-1093465*
X3445216Y-1093405*
X3444980Y-1093286*
X3435058Y-1085196*
X3434940Y-1085078*
X3434822Y-1085020*
X3434705Y-1084842*
X3434586Y-1084428*
X3434527Y-1084251*
Y-1043740*
X3434586Y-1043503*
X3434705Y-1043326*
X3434822Y-1043090*
X3435058Y-1042795*
Y-806575D02*
X3444980Y-798483D01*
X3445216Y-798425*
X3445393Y-798365*
X3445452Y-798306*
X3445688Y-798247*
X3465590*
X3465826Y-798306*
X3465885*
X3465945Y-798365*
X3466121Y-798425*
X3466357Y-798483*
X3476280Y-806575*
X3476456Y-806870*
X3476515Y-807105*
X3476633Y-807282*
X3476692Y-807520*
Y-848030*
X3476633Y-848208*
X3476515Y-848621*
X3476456Y-848740*
X3476280Y-848975*
X3466357Y-857066*
X3466121Y-857125*
X3466003Y-857185*
X3465885Y-857243*
X3465767Y-857302*
X3465590*
X3445688*
X3445452Y-857243*
X3445216Y-857185*
X3444980Y-857066*
X3435058Y-848975*
X3434940Y-848857*
X3434822Y-848798*
X3434705Y-848621*
X3434586Y-848208*
X3434527Y-848030*
Y-807520*
X3434586Y-807282*
X3434705Y-807105*
X3434822Y-806870*
X3435058Y-806575*
X3435885Y-1516771D02*
Y-1556101D01*
X3439370Y-1559055*
X3467952Y-1512460*
X3464055Y-1509330*
X3444980*
X3435885Y-1516771*
X3436948Y-1280550D02*
Y-1319881D01*
X3440432Y-1322835*
X3469015Y-1276240*
X3465117Y-1273110*
X3446042*
X3436948Y-1280550*
Y-1044330D02*
Y-1083660D01*
X3440432Y-1086613*
X3469015Y-1040020*
X3465117Y-1036890*
X3446042*
X3436948Y-1044330*
Y-808110D02*
Y-847440D01*
X3440432Y-850393*
X3469015Y-803798*
X3465117Y-800668*
X3446042*
X3436948Y-808110*
X3441260Y-1560590D02*
X3444980Y-1563542D01*
X3464055*
X3473267Y-1556101*
Y-1516771*
X3469782Y-1513995*
X3441260Y-1560590*
X3442322Y-1324370D02*
X3446042Y-1327322D01*
X3465117*
X3474330Y-1319881*
Y-1280550*
X3470845Y-1277775*
X3442322Y-1324370*
Y-1088150D02*
X3446042Y-1091101D01*
X3465117*
X3474330Y-1083660*
Y-1044330*
X3470845Y-1041555*
X3442322Y-1088150*
Y-851928D02*
X3446042Y-854881D01*
X3465117*
X3474330Y-847440*
Y-808110*
X3470845Y-805335*
X3442322Y-851928*
X3457558Y520078D02*
X3477243D01*
X3457558Y857991D02*
X3477243D01*
X3467401Y510235D02*
Y529920D01*
Y848150D02*
Y867835D01*
X3480196Y520078D02*
G03X3467401Y532873I12795D01*
X3454605Y520078J12795*
X3467401Y507282I12795*
X3480196Y520078J12795*
G01Y857991D02*
G03X3467401Y870786I12795D01*
X3454605Y857991J12795*
X3467401Y845196I12795*
X3480196Y857991J12795*
G01X3538975Y501377D02*
X3558660D01*
X3548818Y491535D02*
Y511220D01*
X3561613Y501377D02*
G03X3548818Y514172I12795D01*
X3536023Y501377J12795*
X3548818Y488582I12795*
X3561613Y501377J12795*
G01X3620393Y519960D02*
X3640078D01*
X3620393Y857991D02*
X3640078D01*
X3630235Y510117D02*
Y529802D01*
Y848150D02*
Y867835D01*
X3643030Y519960D02*
G03X3630235Y532755I12795D01*
X3617440Y519960J12795*
X3630235Y507165I12795*
X3643030Y519960J12795*
G01Y857991D02*
G03X3630235Y870786I12795D01*
X3617440Y857991J12795*
X3630235Y845196I12795*
X3643030Y857991J12795*
G01X3685630Y572007D02*
X3705315D01*
X3685630Y805945D02*
X3705315D01*
X3695471Y562165D02*
Y581850D01*
Y796101D02*
Y815786D01*
X3708267Y572007D02*
G03X3695471Y584802I12796D01*
X3682676Y572007J12795*
X3695471Y559212I12795*
X3708267Y572007J12795*
G01Y805945D02*
G03X3695471Y818740I12796D01*
X3682676Y805945J12795*
X3695471Y793150I12795*
X3708267Y805945J12795*
G01X3708660Y137795D02*
X3712597D01*
X3708660Y1240156D02*
X3712597D01*
X3710630Y132873D02*
X3715550Y137795D01*
X3710630Y142716*
X3705708Y137795*
X3710630Y132873*
Y135826D02*
Y139763D01*
Y1235235D02*
X3715550Y1240156D01*
X3710630Y1245078*
X3705708Y1240156*
X3710630Y1235235*
Y1238188D02*
Y1242125D01*
X3721890Y647243D02*
X3741575D01*
X3721890Y730708D02*
X3741575D01*
X3731731Y637401D02*
Y657086D01*
Y720865D02*
Y740550D01*
X3734605Y75156D02*
X3738542D01*
X3734605Y200432D02*
X3738542D01*
X3734605Y1177520D02*
X3738542D01*
X3734605Y1302795D02*
X3738542D01*
X3736575Y70235D02*
X3741495Y75156D01*
X3736575Y80078*
X3731653Y75156*
X3736575Y70235*
Y73188D02*
Y77125D01*
Y195511D02*
X3741495Y200432D01*
X3736575Y205353*
X3731653Y200432*
X3736575Y195511*
Y198465D02*
Y202401D01*
Y1172597D02*
X3741495Y1177520D01*
X3736575Y1182440*
X3731653Y1177520*
X3736575Y1172597*
Y1175550D02*
Y1179487D01*
Y1297873D02*
X3741495Y1302795D01*
X3736575Y1307716*
X3731653Y1302795*
X3736575Y1297873*
Y1300826D02*
Y1304763D01*
X3744527Y647243D02*
G03X3731731Y660038I12796D01*
X3718936Y647243J12795*
X3731731Y634448I12795*
X3744527Y647243J12795*
G01Y730708D02*
G03X3731731Y743503I12796D01*
X3718936Y730708J12795*
X3731731Y717912I12795*
X3744527Y730708J12795*
G01X3771373Y109955D02*
X3827050Y165633D01*
X3771373Y1212318D02*
X3827050Y1267995D01*
X3779527Y-472440D02*
Y-1653542D01*
X3797243Y49212D02*
X3801180D01*
X3797243Y226377D02*
X3801180D01*
X3797243Y1151575D02*
X3801180D01*
X3797243Y1328740D02*
X3801180D01*
X3799212Y44290D02*
X3804133Y49212D01*
X3799212Y54133*
X3794290Y49212*
X3799212Y44290*
Y47243D02*
Y51180D01*
Y221456D02*
X3804133Y226377D01*
X3799212Y231298*
X3794290Y226377*
X3799212Y221456*
Y224408D02*
Y228345D01*
Y1146653D02*
X3804133Y1151575D01*
X3799212Y1156495*
X3794290Y1151575*
X3799212Y1146653*
Y1149605D02*
Y1153542D01*
Y1323818D02*
X3804133Y1328740D01*
X3799212Y1333660*
X3794290Y1328740*
X3799212Y1323818*
Y1326771D02*
Y1330708D01*
X3841535Y137795D02*
G03X3799212Y180117I42322D01*
X3756890Y137795J42322*
X3799212Y95471I42322*
X3841535Y137795J42323*
G01Y1240156D02*
G03X3799212Y1282480I42322D01*
X3756890Y1240156J42323*
X3799212Y1197835I42322*
X3841535Y1240156J42321*
G01X3859881Y75156D02*
X3863818D01*
X3859881Y200432D02*
X3863818D01*
X3859881Y1177520D02*
X3863818D01*
X3859881Y1302795D02*
X3863818D01*
X3861850Y70235D02*
X3866771Y75156D01*
X3861850Y80078*
X3856928Y75156*
X3861850Y70235*
Y73188D02*
Y77125D01*
Y195511D02*
X3866771Y200432D01*
X3861850Y205353*
X3856928Y200432*
X3861850Y195511*
Y198465D02*
Y202401D01*
Y1172597D02*
X3866771Y1177520D01*
X3861850Y1182440*
X3856928Y1177520*
X3861850Y1172597*
Y1175550D02*
Y1179487D01*
Y1297873D02*
X3866771Y1302795D01*
X3861850Y1307716*
X3856928Y1302795*
X3861850Y1297873*
Y1300826D02*
Y1304763D01*
X3885826Y137795D02*
X3889763D01*
X3885826Y1240156D02*
X3889763D01*
X3887795Y132873D02*
X3892716Y137795D01*
X3887795Y142716*
X3882873Y137795*
X3887795Y132873*
Y135826D02*
Y139763D01*
Y1235235D02*
X3892716Y1240156D01*
X3887795Y1245078*
X3882873Y1240156*
X3887795Y1235235*
Y1238188D02*
Y1242125D01*
X3917716Y-564448D02*
X3945945D01*
X3955156Y-571890*
Y-582873*
X3945945Y-590373*
X3917716*
Y-564448*
X3957105Y-584468D02*
X3957282Y-584350D01*
X3957342Y-584055*
X3957520Y-583760*
Y-583465*
Y-571298*
Y-571003*
X3957342Y-570826*
Y-570650*
X3957282Y-570590*
X3957223Y-570530*
X3957105Y-570412*
X3947066Y-562263*
X3946771Y-562145*
X3946535Y-562086*
X3946298Y-562027*
X3916535*
X3916003Y-562145*
X3915650Y-562440*
X3915353Y-562795*
X3915235Y-563208*
Y-619901*
X3915353Y-620373*
X3915650Y-620668*
X3916003Y-620845*
X3916416Y-620905*
X3916890Y-620845*
X3917302Y-620668*
X3917597Y-620373*
X3917716Y-619901*
Y-592735*
X3946298*
X3946712Y-592676*
X3946890Y-592617*
X3946948*
X3947066Y-592558*
X3957105Y-584468*
X3971042Y-619901D02*
X3971160Y-620373D01*
X3971456Y-620668*
X3971810Y-621023*
X3972223Y-621082*
X4012086*
X4012500Y-621023*
X4012853Y-620727*
X4013030Y-620315*
X4013090Y-619901*
X4013030Y-619428*
X4012853Y-619015*
X4012500Y-618780*
X4012086Y-618660*
X3973523*
Y-563208*
X3973405Y-562795*
X3973110Y-562440*
X3972696Y-562263*
X3972223Y-562205*
X3971810Y-562263*
X3971456Y-562440*
X3971160Y-562795*
X3971042Y-563208*
Y-619901*
X4026908Y-1564782D02*
X4027027Y-1565255D01*
X4027322Y-1565550*
X4027676Y-1565727*
X4028090Y-1565786*
X4028562Y-1565727*
X4028975Y-1565550*
X4029271Y-1565255*
X4029390Y-1564782*
Y-1511870*
X4067007Y-1565491*
X4067185Y-1565727*
X4067480Y-1565845*
X4067775*
X4068130Y-1565727*
X4068542Y-1565610*
X4068897Y-1565432*
X4069075Y-1565137*
X4069133Y-1564782*
Y-1508090*
X4069015Y-1507676*
X4068720Y-1507322*
X4068365Y-1507145*
X4067952Y-1507086*
X4067538Y-1507145*
X4067125Y-1507322*
X4066830Y-1507676*
X4066771Y-1508090*
Y-1561003*
X4029093Y-1507440*
X4028857Y-1507205*
X4028621Y-1507086*
X4028326*
X4028030Y-1507145*
X4027558Y-1507205*
X4027205Y-1507381*
X4027027Y-1507676*
X4026908Y-1508090*
Y-1564782*
X4029330Y-595983D02*
Y-602420D01*
X4066712*
Y-595983*
X4048050Y-564625*
X4029330Y-595983*
X4041023Y-1272578D02*
X4021298Y-1300630D01*
Y-1328562*
X4021180Y-1328975*
X4020945Y-1329330*
X4020530Y-1329507*
X4020117Y-1329566*
X4019705Y-1329507*
X4019290Y-1329330*
X4019055Y-1328975*
X4018936Y-1328562*
Y-1300630*
X3999271Y-1272578*
X3999093Y-1272223*
X3999153Y-1271810*
X3999330Y-1271397*
X3999625Y-1271101*
X4000038Y-1270865*
X4000452Y-1270806*
X4000865Y-1270865*
X4001220Y-1271160*
X4020117Y-1298090*
X4039133Y-1271160*
X4039428Y-1270865*
X4039782Y-1270806*
X4040196Y-1270865*
X4040610Y-1271101*
X4040905Y-1271397*
X4041141Y-1271810*
X4041200Y-1272223*
X4041023Y-1272578*
Y-1036357D02*
X4021298Y-1064408D01*
Y-1092342*
X4021180Y-1092755*
X4020945Y-1093110*
X4020530Y-1093286*
X4020117Y-1093345*
X4019705Y-1093286*
X4019290Y-1093110*
X4019055Y-1092755*
X4018936Y-1092342*
Y-1064408*
X3999271Y-1036357*
X3999093Y-1036003*
X3999153Y-1035590*
X3999330Y-1035176*
X3999625Y-1034881*
X4000038Y-1034645*
X4000452Y-1034586*
X4000865Y-1034645*
X4001220Y-1034940*
X4020117Y-1061870*
X4039133Y-1034940*
X4039428Y-1034645*
X4039782Y-1034586*
X4040196Y-1034645*
X4040610Y-1034881*
X4040905Y-1035176*
X4041141Y-1035590*
X4041200Y-1036003*
X4041023Y-1036357*
Y-800137D02*
X4021298Y-828188D01*
Y-856121*
X4021180Y-856535*
X4020945Y-856890*
X4020530Y-857066*
X4020117Y-857125*
X4019705Y-857066*
X4019290Y-856890*
X4019055Y-856535*
X4018936Y-856121*
Y-828188*
X3999271Y-800137*
X3999093Y-799782*
X3999153Y-799370*
X3999330Y-798956*
X3999625Y-798660*
X4000038Y-798425*
X4000452Y-798365*
X4000865Y-798425*
X4001220Y-798720*
X4020117Y-825650*
X4039133Y-798720*
X4039428Y-798425*
X4039782Y-798365*
X4040196Y-798425*
X4040610Y-798660*
X4040905Y-798956*
X4041141Y-799370*
X4041200Y-799782*
X4041023Y-800137*
X4047460Y-562086D02*
X4048818D01*
X4049055Y-562145*
X4049231Y-562263*
X4049645Y-562558*
X4049822Y-562676*
X4068897Y-594920*
X4068956Y-595156*
X4069015Y-595275*
X4069075Y-595393*
Y-595452*
Y-595570*
Y-619901*
X4068956Y-620315*
X4068720Y-620668*
X4068306Y-620845*
X4067893Y-620905*
X4067480Y-620845*
X4067066Y-620668*
X4066830Y-620315*
X4066712Y-619901*
Y-604842*
X4029330*
Y-619901*
X4029212Y-620315*
X4028975Y-620668*
X4028562Y-620845*
X4028090Y-620905*
X4027676Y-620845*
X4027263Y-620668*
X4027027Y-620315*
X4026908Y-619901*
Y-595570*
Y-595452*
Y-595393*
X4026968Y-595275*
X4027027Y-595156*
X4027086Y-594920*
X4046397Y-562676*
X4046692Y-562381*
X4047046Y-562263*
X4047282Y-562145*
X4047460Y-562086*
X4085196Y-1516771D02*
Y-1556101D01*
X4094290Y-1563542*
X4113365*
X4122578Y-1556101*
Y-1516771*
X4113365Y-1509330*
X4094290*
X4085196Y-1516771*
X4095826Y-1273110D02*
X4096240Y-1272991D01*
X4096593Y-1272755*
X4096771Y-1272342*
X4096830Y-1271928*
X4096771Y-1271456*
X4096593Y-1271101*
X4096240Y-1270806*
X4095826Y-1270688*
X4055965*
X4055550Y-1270806*
X4055196Y-1271101*
X4054901Y-1271456*
X4054782Y-1271870*
Y-1328562*
X4054901Y-1328975*
X4055196Y-1329330*
X4055550Y-1329625*
X4055965Y-1329743*
X4095826*
X4096240Y-1329625*
X4096593Y-1329390*
X4096771Y-1328975*
X4096830Y-1328562*
X4096771Y-1328090*
X4096593Y-1327676*
X4096240Y-1327381*
X4095826Y-1327263*
X4057263*
Y-1301397*
X4084015*
X4084428Y-1301280*
X4084782Y-1300983*
X4084960Y-1300630*
X4085020Y-1300216*
X4084960Y-1299802*
X4084782Y-1299390*
X4084428Y-1299093*
X4084015Y-1299035*
X4057263*
Y-1273110*
X4095826*
Y-1036890D02*
X4096240Y-1036771D01*
X4096593Y-1036535*
X4096771Y-1036121*
X4096830Y-1035708*
X4096771Y-1035235*
X4096593Y-1034881*
X4096240Y-1034586*
X4095826Y-1034468*
X4055965*
X4055550Y-1034586*
X4055196Y-1034881*
X4054901Y-1035235*
X4054782Y-1035650*
Y-1092342*
X4054901Y-1092755*
X4055196Y-1093110*
X4055550Y-1093405*
X4055965Y-1093523*
X4095826*
X4096240Y-1093405*
X4096593Y-1093168*
X4096771Y-1092755*
X4096830Y-1092342*
X4096771Y-1091870*
X4096593Y-1091456*
X4096240Y-1091160*
X4095826Y-1091042*
X4057263*
Y-1065176*
X4084015*
X4084428Y-1065058*
X4084782Y-1064763*
X4084960Y-1064408*
X4085020Y-1063995*
X4084960Y-1063582*
X4084782Y-1063168*
X4084428Y-1062873*
X4084015Y-1062815*
X4057263*
Y-1036890*
X4095826*
Y-800668D02*
X4096240Y-800550D01*
X4096593Y-800315*
X4096771Y-799901*
X4096830Y-799487*
X4096771Y-799015*
X4096593Y-798660*
X4096240Y-798365*
X4095826Y-798247*
X4055965*
X4055550Y-798365*
X4055196Y-798660*
X4054901Y-799015*
X4054782Y-799428*
Y-856121*
X4054901Y-856535*
X4055196Y-856890*
X4055550Y-857185*
X4055965Y-857302*
X4095826*
X4096240Y-857185*
X4096593Y-856948*
X4096771Y-856535*
X4096830Y-856121*
X4096771Y-855650*
X4096593Y-855235*
X4096240Y-854940*
X4095826Y-854822*
X4057263*
Y-828956*
X4084015*
X4084428Y-828838*
X4084782Y-828542*
X4084960Y-828188*
X4085020Y-827775*
X4084960Y-827361*
X4084782Y-826948*
X4084428Y-826653*
X4084015Y-826593*
X4057263*
Y-800668*
X4095826*
X4102735Y-619901D02*
X4102795Y-620315D01*
X4103090Y-620668*
X4103503Y-620845*
X4103916Y-620905*
X4104330Y-620845*
X4104685Y-620668*
X4104980Y-620315*
X4105097Y-619901*
Y-564448*
X4123818*
X4124231Y-564330*
X4124586Y-564093*
X4124763Y-563680*
X4124822Y-563267*
X4124763Y-562795*
X4124586Y-562381*
X4124231Y-562086*
X4123818Y-562027*
X4083956*
X4083542Y-562086*
X4083247Y-562381*
X4083011Y-562795*
X4082952Y-563267*
X4083011Y-563680*
X4083247Y-564093*
X4083542Y-564330*
X4083956Y-564448*
X4102735*
Y-619901*
X4124940Y-1516180D02*
Y-1556692D01*
X4124881Y-1556987*
X4124763Y-1557223*
X4124705Y-1557460*
X4124527Y-1557637*
X4114605Y-1565727*
X4114310Y-1565845*
X4114251Y-1565905*
X4114133*
X4114015Y-1565965*
X4113956*
X4113838*
X4093936*
X4093700Y-1565905*
X4093465Y-1565845*
X4093227Y-1565727*
X4083306Y-1557637*
X4083070Y-1557460*
X4082952Y-1557223*
X4082835Y-1556987*
X4082775Y-1556692*
Y-1516180*
X4082835Y-1515885*
X4082952Y-1515650*
X4083070Y-1515530*
X4083188Y-1515412*
X4083306Y-1515235*
X4093227Y-1507145*
X4093465Y-1507086*
X4093641Y-1507027*
X4093700Y-1506968*
X4093936Y-1506908*
X4113838*
X4114075Y-1506968*
X4114133*
X4114192Y-1507027*
X4114370Y-1507086*
X4114605Y-1507145*
X4124527Y-1515235*
X4124586Y-1515412*
X4124705Y-1515471*
X4124763Y-1515530*
Y-1515650*
X4124881Y-1515885*
X4124940Y-1516180*
X4142420Y-1299212D02*
X4152401Y-1307302D01*
X4152578Y-1307538*
X4152637Y-1307835*
X4152696Y-1308011*
X4152755Y-1308188*
X4152815Y-1308306*
Y-1320471*
X4152755Y-1320649*
X4152637Y-1321062*
X4152578Y-1321180*
X4152401Y-1321416*
X4142480Y-1329507*
X4142185Y-1329625*
X4142125Y-1329685*
X4142007*
X4141890Y-1329743*
X4141830*
X4141712*
X4121810*
X4121575Y-1329685*
X4121338Y-1329625*
X4121101Y-1329507*
X4111180Y-1321416*
X4110885Y-1321121*
X4110826Y-1320944*
Y-1320767*
X4110885Y-1320353*
X4111121Y-1319940*
X4111357Y-1319645*
X4111712Y-1319408*
X4112125Y-1319349*
X4112538Y-1319468*
X4122165Y-1327322*
X4141240*
X4150452Y-1319881*
Y-1308897*
X4141240Y-1301397*
X4121810*
X4121575*
X4121280Y-1301338*
X4121101Y-1301220*
X4111180Y-1293130*
X4111062Y-1293070*
X4110945Y-1292952*
X4110826Y-1292775*
X4110708Y-1292361*
X4110650Y-1292125*
Y-1279960*
X4110708Y-1279665*
X4110826Y-1279428*
X4110945Y-1279310*
X4111062Y-1279192*
X4111180Y-1279015*
X4121101Y-1270925*
X4121338Y-1270865*
X4121515Y-1270806*
X4121575Y-1270747*
X4121810Y-1270688*
X4141712*
X4141948Y-1270747*
X4142066Y-1270806*
X4142243Y-1270865*
X4142420Y-1270925*
X4149861Y-1277007*
X4150156Y-1277302*
X4150275Y-1277656*
X4150216Y-1278070*
X4150038Y-1278483*
X4149743Y-1278780*
X4149330Y-1279015*
X4148857Y-1279075*
X4148445Y-1278956*
X4141357Y-1273110*
X4122165*
X4113070Y-1280550*
Y-1291535*
X4122165Y-1299035*
X4141712*
X4141948Y-1299093*
X4142185Y-1299153*
X4142420Y-1299212*
Y-1062991D02*
X4152401Y-1071082D01*
X4152578Y-1071318*
X4152637Y-1071613*
X4152696Y-1071790*
X4152755Y-1071968*
X4152815Y-1072086*
Y-1084251*
X4152755Y-1084428*
X4152637Y-1084842*
X4152578Y-1084960*
X4152401Y-1085196*
X4142480Y-1093286*
X4142185Y-1093405*
X4142125Y-1093465*
X4142007*
X4141890Y-1093523*
X4141830*
X4141712*
X4121810*
X4121575Y-1093465*
X4121338Y-1093405*
X4121101Y-1093286*
X4111180Y-1085196*
X4110885Y-1084901*
X4110826Y-1084723*
Y-1084546*
X4110885Y-1084133*
X4111121Y-1083720*
X4111357Y-1083425*
X4111712Y-1083188*
X4112125Y-1083130*
X4112538Y-1083247*
X4122165Y-1091101*
X4141240*
X4150452Y-1083660*
Y-1072676*
X4141240Y-1065176*
X4121810*
X4121575*
X4121280Y-1065117*
X4121101Y-1065000*
X4111180Y-1056908*
X4111062Y-1056850*
X4110945Y-1056731*
X4110826Y-1056555*
X4110708Y-1056141*
X4110650Y-1055905*
Y-1043740*
X4110708Y-1043445*
X4110826Y-1043208*
X4110945Y-1043090*
X4111062Y-1042971*
X4111180Y-1042795*
X4121101Y-1034705*
X4121338Y-1034645*
X4121515Y-1034586*
X4121575Y-1034527*
X4121810Y-1034468*
X4141712*
X4141948Y-1034527*
X4142066Y-1034586*
X4142243Y-1034645*
X4142420Y-1034705*
X4149861Y-1040786*
X4150156Y-1041082*
X4150275Y-1041436*
X4150216Y-1041850*
X4150038Y-1042263*
X4149743Y-1042558*
X4149330Y-1042795*
X4148857Y-1042853*
X4148445Y-1042735*
X4141357Y-1036890*
X4122165*
X4113070Y-1044330*
Y-1055315*
X4122165Y-1062815*
X4141712*
X4141948Y-1062873*
X4142185Y-1062932*
X4142420Y-1062991*
Y-826771D02*
X4152401Y-834861D01*
X4152578Y-835097*
X4152637Y-835393*
X4152696Y-835570*
X4152755Y-835747*
X4152815Y-835865*
Y-848030*
X4152755Y-848208*
X4152637Y-848621*
X4152578Y-848740*
X4152401Y-848975*
X4142480Y-857066*
X4142185Y-857185*
X4142125Y-857243*
X4142007*
X4141890Y-857302*
X4141830*
X4141712*
X4121810*
X4121575Y-857243*
X4121338Y-857185*
X4121101Y-857066*
X4111180Y-848975*
X4110885Y-848680*
X4110826Y-848503*
Y-848326*
X4110885Y-847912*
X4111121Y-847500*
X4111357Y-847205*
X4111712Y-846968*
X4112125Y-846908*
X4112538Y-847027*
X4122165Y-854881*
X4141240*
X4150452Y-847440*
Y-836456*
X4141240Y-828956*
X4121810*
X4121575*
X4121280Y-828897*
X4121101Y-828780*
X4111180Y-820688*
X4111062Y-820630*
X4110945Y-820511*
X4110826Y-820335*
X4110708Y-819920*
X4110650Y-819685*
Y-807520*
X4110708Y-807223*
X4110826Y-806987*
X4110945Y-806870*
X4111062Y-806751*
X4111180Y-806575*
X4121101Y-798483*
X4121338Y-798425*
X4121515Y-798365*
X4121575Y-798306*
X4121810Y-798247*
X4141712*
X4141948Y-798306*
X4142066Y-798365*
X4142243Y-798425*
X4142420Y-798483*
X4149861Y-804566*
X4150156Y-804861*
X4150275Y-805216*
X4150216Y-805630*
X4150038Y-806042*
X4149743Y-806338*
X4149330Y-806575*
X4148857Y-806633*
X4148445Y-806515*
X4141357Y-800668*
X4122165*
X4113070Y-808110*
Y-819093*
X4122165Y-826593*
X4141712*
X4141948Y-826653*
X4142185Y-826712*
X4142420Y-826771*
X4179625Y-564448D02*
X4180038Y-564330D01*
X4180393Y-564093*
X4180570Y-563680*
X4180630Y-563267*
X4180570Y-562795*
X4180393Y-562440*
X4180038Y-562145*
X4179625Y-562027*
X4139763*
X4139350Y-562145*
X4138995Y-562440*
X4138700Y-562795*
X4138582Y-563208*
Y-619901*
X4138700Y-620315*
X4138995Y-620668*
X4139350Y-620965*
X4139763Y-621082*
X4179625*
X4180038Y-620965*
X4180393Y-620727*
X4180570Y-620315*
X4180630Y-619901*
X4180570Y-619428*
X4180393Y-619015*
X4180038Y-618720*
X4179625Y-618601*
X4141062*
Y-592735*
X4167815*
X4168227Y-592617*
X4168582Y-592322*
X4168760Y-591968*
X4168818Y-591555*
X4168760Y-591141*
X4168582Y-590727*
X4168227Y-590432*
X4167815Y-590373*
X4141062*
Y-564448*
X4179625*
X4196870D02*
X4225038D01*
X4234251Y-571890*
Y-611220*
X4225038Y-618660*
X4196870*
Y-564448*
X4226220Y-562263D02*
X4225925Y-562145D01*
X4225688Y-562086*
X4225452Y-562027*
X4195570*
X4195156Y-562145*
X4194802Y-562440*
X4194507Y-562795*
X4194390Y-563208*
Y-619901*
X4194507Y-620373*
X4194802Y-620668*
X4195156Y-621023*
X4195570Y-621082*
X4225452*
X4225688*
X4225806Y-621023*
X4225925Y-620965*
X4226220Y-620845*
X4236200Y-612755*
X4236377Y-612520*
X4236436Y-612401*
X4236555Y-612105*
X4236613Y-611810*
Y-571298*
X4236555Y-571003*
X4236436Y-570826*
Y-570650*
X4236377Y-570590*
X4236260Y-570530*
X4236200Y-570412*
X4226220Y-562263*
M02*
