*
G04 Job   : X:\0_Projects\HW-0004_A.v1.0\Board2_PCB\Board2.pcb*
G04 User  : JG_PC:grobi*
G04 Layer : SolderMask1.gdo*
G04 Date  : Sun May 31 16:31:31 2026*
%ICAS*%
%MOIN*%
%FSLAX26Y26*%
%OFA0.0000B0.0000*%
G90*
G74*
%ADD10C,0.00500*%
%ADD12C,0.05512*%
%ADD13C,0.06614*%
%ADD11C,0.24409*%
G01*
G54D10*
X3937007D01*
Y1377952*
X0*
Y0*
G54D11*
X137795Y137795D03*
Y1240156D03*
X3799212Y137795D03*
Y1240156D03*
G54D12*
X205275Y647243D03*
Y730708D03*
X241535Y572007D03*
Y805945D03*
X306771Y520078D03*
Y857991D03*
X388188Y501377D03*
X469605Y519960D03*
Y857991D03*
X534842Y572007D03*
Y805945D03*
X571101Y647243D03*
Y730708D03*
X995432Y647243D03*
Y730708D03*
X1031692Y572007D03*
Y805945D03*
X1096928Y520078D03*
Y857991D03*
X1178345Y501377D03*
X1259763Y519960D03*
Y857991D03*
X1325000Y572007D03*
Y805945D03*
X1361260Y647243D03*
Y730708D03*
X1785590Y647243D03*
Y730708D03*
X1821850Y572007D03*
Y805945D03*
X1887086Y857991D03*
X1968503Y501377D03*
Y876575D03*
X2049920Y519960D03*
Y857873D03*
X2115156Y572007D03*
Y805945D03*
X2151416Y647243D03*
Y730708D03*
X2600550Y647243D03*
Y730708D03*
X2636810Y572007D03*
Y805945D03*
X2702046Y520078D03*
Y857991D03*
X2783465Y501377D03*
X2864881Y519960D03*
Y857991D03*
X2930117Y572007D03*
Y805945D03*
X2966377Y647243D03*
Y730708D03*
X3365905Y647243D03*
Y730708D03*
X3402165Y572007D03*
Y805945D03*
X3467401Y520078D03*
Y857991D03*
X3548818Y501377D03*
X3630235Y519960D03*
Y857991D03*
X3695471Y572007D03*
Y805945D03*
X3731731Y647243D03*
Y730708D03*
G54D13*
X518685Y1317952D03*
X618685D03*
X718685D03*
X818685D03*
X918685D03*
X1018685D03*
X1118685D03*
X1218685D03*
X1318684D03*
X1418685D03*
X1518685D03*
X1618685D03*
X1718685D03*
X1818685D03*
X1918685D03*
X2018685D03*
X2118685D03*
X2218685D03*
X2318685D03*
X2418685D03*
X2518685D03*
X2618685D03*
X2718685D03*
X2818685D03*
X2918685D03*
X3018685D03*
X3118685D03*
X3218685D03*
X3318685D03*
X3418685D03*
M02*
