*
G04 Job   : X:\0_Projects\HW-0004_A.v1.0\PCB\Board1.pcb*
G04 User  : JG_PC:grobi*
G04 Layer : Layer2.gdo*
G04 Date  : Sun May 31 19:23:08 2026*
%ICAS*%
%MOIN*%
%FSLAX26Y26*%
%OFA0.0000B0.0000*%
G90*
G74*
%AMVB_RECTANGLE*
21,1,$1,$2,0,0,$3*
%
%AMVB_DONUT*
$2=$2X2*
1,1,$1,0,0*
1,0,$1-$2,0,0*
%
%AMVB_RCRECTANGLE*
$3=$3X2*
21,1,$1-$3,$2,0,0,0*
21,1,$1,$2-$3,0,0,0*
$1=$1/2*
$2=$2/2*
$3=$3/2*
$1=$1-$3*
$2=$2-$3*
1,1,$3X2,0-$1,0-$2*
1,1,$3X2,0-$1,$2*
1,1,$3X2,$1,$2*
1,1,$3X2,$1,0-$2*
%
%ADD10C,0.00500*%
%ADD11C,0.01000*%
%ADD13C,0.02362*%
%ADD12C,0.02400*%
%ADD18C,0.05315*%
%ADD15C,0.06220*%
%ADD17VB_RECTANGLE,0.05315X0.05315X180.00000*%
%ADD16VB_DONUT,0.23622X0.05906*%
%ADD14VB_RCRECTANGLE,0.03150X0.07480X0.01575*%
G01*
G36*
X-1910630Y-101625D02*
G02X-1907630Y-98625I3000D01*
X-1904680Y-101075J3000*
G01X-1903922Y-105130*
G03X-1903125Y-108525I36892J6875*
G01X-1900886Y-116391*
G03X-1899781Y-119690I36097J10257*
G01X-1896823Y-127327*
G03X-1895410Y-130525I34993J13557*
G01X-1891783Y-137806*
G03X-1890085Y-140858I33605J16702*
G01X-1885787Y-147800*
G03X-1883815Y-150682I31921J19732*
G01X-1878878Y-157218*
G03X-1876636Y-159915I29947J22615*
G01X-1871151Y-165932*
G03X-1868690Y-168393I27738J25276*
G01X-1862670Y-173882*
G03X-1859975Y-176122I25311J27707*
G01X-1853438Y-181058*
G03X-1850555Y-183032I22615J29947*
G01X-1843615Y-187330*
G03X-1840561Y-189028I19756J31907*
G01X-1833280Y-192655*
G03X-1830083Y-194067I16753J33581*
G01X-1822445Y-197025*
G03X-1819145Y-198131I13555J34992*
G01X-1811280Y-200370*
G03X-1807886Y-201166I10270J36095*
G01X-1799855Y-202667*
G03X-1796405Y-203148I6895J36887*
G01X-1788293Y-203900*
G03X-1784803Y-204062I3490J37365*
G01X-1776612*
G03X-1773122Y-203900J37527*
G01X-1765012Y-203148*
G03X-1761561Y-202667I3443J37368*
G01X-1753530Y-201166*
G03X-1750135Y-200370I6875J36892*
G01X-1742272Y-198131*
G03X-1738970Y-197025I10253J36098*
G01X-1732991Y-194710*
Y-455117*
G03X-1712991Y-475117I20000*
X-1692991Y-455117J20000*
X-1712991Y-435117I20000*
X-1732991Y-455117J20000*
G01Y-194710*
X-1731332Y-194067*
G03X-1728136Y-192655I13557J34994*
G01X-1720855Y-189028*
G03X-1717801Y-187330I16702J33605*
G01X-1710861Y-183032*
G03X-1707977Y-181058I19732J31922*
G01X-1701441Y-176122*
G03X-1698746Y-173882I22616J29947*
G01X-1692725Y-168393*
G03X-1690265Y-165932I25277J27737*
G01X-1684780Y-159915*
G03X-1682538Y-157218I27705J25312*
G01X-1677602Y-150682*
G03X-1676327Y-148887I29947J22616*
G01Y-766535*
G03X-1656327Y-786535I20000*
X-1636327Y-766535J20000*
X-1656327Y-746535I20000*
X-1676327Y-766535J20000*
G01Y-148887*
G03X-1675628Y-147800I31222J20820*
G01X-1672997Y-143550*
Y-498995*
G03X-1669190Y-508187I13000*
G01X-1647663Y-529713*
G03X-1638470Y-533521I9192J9192*
G01X-1624723*
Y-665747*
G03X-1604723Y-685747I20000*
X-1584723Y-665747J20000*
X-1604723Y-645747I20000*
X-1624723Y-665747J20000*
G01Y-533521*
X-1495430*
G03X-1486236Y-529713J13000*
G01X-1464710Y-508187*
G03X-1460902Y-498995I9192J9192*
G01Y-425245*
G03X-1464710Y-416052I13000*
G01X-1486236Y-394525*
G03X-1495430Y-390718I9193J9192*
G01X-1531980*
G02X-1534980Y-387718J3000*
X-1534575Y-386211I3000*
G03X-1531895Y-376263I17131J9947*
X-1539226Y-360876I19810*
G02X-1540337Y-358546I1888J2330*
X-1539226Y-356216I3000*
G03X-1531895Y-340830I12480J15385*
X-1539226Y-325443I19810*
G02X-1540337Y-323113I1888J2330*
X-1539226Y-320783I3000*
G03X-1536636Y-318257I12480J15385*
G02X-1534355Y-317205I2281J1947*
X-1532308Y-318011J3000*
G03X-1510650Y-326545I21657J23215*
X-1478902Y-294796J31748*
G01Y-251490*
G03X-1510650Y-219742I31747J0*
X-1542246Y-248385J31747*
G02X-1545232Y-251091I2986J293*
X-1546083Y-250967J3000*
G03X-1551706Y-250153I5622J18997*
X-1558756Y-251450J19811*
G02X-1559823Y-251646I1067J2804*
X-1562781Y-249148J3000*
G03X-1582312Y-232655I19531J3317*
X-1592405Y-235418J19810*
G02X-1593932Y-235836I1527J2582*
X-1596463Y-234446J3000*
G03X-1623250Y-219741I26786J17043*
X-1654997Y-251490J31748*
G01Y-294796*
G03X-1623250Y-326545I31747*
X-1611947Y-324465J31748*
G02X-1610880Y-324268I1067J2802*
X-1607880Y-327268J3000*
X-1608758Y-329390I3000*
G01X-1669190Y-389821*
G03X-1672997Y-399013I9192J9192*
G01Y-143550*
X-1671331Y-140858*
G03X-1669632Y-137806I31906J19755*
G01X-1666006Y-130525*
G03X-1664593Y-127327I33580J16754*
G01X-1661635Y-119690*
G03X-1660530Y-116391I34992J13556*
G01X-1658291Y-108525*
G03X-1657493Y-105130I36095J10270*
G01X-1655992Y-97100*
G03X-1655511Y-93643I36888J6896*
G01X-1654760Y-85537*
G03X-1654597Y-82047I37365J3490*
G01Y-73856*
G03X-1654760Y-70366I37527*
G01X-1655511Y-62261*
G03X-1655992Y-58805I37370J3440*
G01X-1657493Y-50775*
G03X-1658291Y-47380I36892J6875*
G01X-1660530Y-39513*
G03X-1661635Y-36215I36097J10257*
G01X-1664593Y-28577*
G03X-1666006Y-25380I34992J13555*
G01X-1669632Y-18097*
G03X-1671331Y-15045I33605J16703*
G01X-1675628Y-8105*
G03X-1677602Y-5221I31921J19732*
G01X-1682538Y1313*
G03X-1684780Y4010I29947J22614*
G01X-1690265Y10027*
G03X-1692725Y12487I27737J25275*
G01X-1698746Y17976*
G03X-1701441Y20216I25311J27706*
G01X-1707977Y25152*
G03X-1710861Y27126I22615J29946*
G01X-1717801Y31423*
G03X-1720855Y33122I19756J31905*
G01X-1728136Y36748*
G03X-1731332Y38161I16753J33580*
G01X-1738970Y41120*
G03X-1742272Y42226I13555J34994*
G01X-1750135Y44463*
G03X-1753530Y45260I10270J36095*
G01X-1757585Y46020*
G02X-1760035Y48968I550J2948*
X-1757035Y51968I3000*
G01X-1409842*
G02X-1406842Y48968J3000*
X-1409253Y46026I3000*
G03X-1447101Y-156I9253J46183*
X-1421575Y-42027I47101*
G01Y-285038*
G03X-1401575Y-305038I20000*
X-1381575Y-285038J20000*
X-1401575Y-265038I20000*
X-1421575Y-285038J20000*
G01Y-42027*
G03X-1400000Y-47260I21575J41870*
X-1368818Y-35461J47102*
G01Y-285038*
G03X-1364487Y-297467I20000*
G01Y-407480*
G03X-1358188Y-422050I20000*
G01Y-683070*
G03X-1338188Y-703070I20000*
X-1318188Y-683070J20000*
X-1338188Y-663070I20000*
X-1358188Y-683070J20000*
G01Y-422050*
G03X-1344487Y-427480I13700J14570*
X-1324487Y-407480J20000*
X-1344487Y-387480I20000*
X-1364487Y-407480J20000*
G01Y-297467*
G03X-1348818Y-305038I15669J12429*
X-1340078Y-303028J20000*
G01Y-361023*
G03X-1320078Y-381023I20000*
X-1302826Y-371141J20000*
G01Y-1045535*
G03X-1282826Y-1065535I20000*
X-1262826Y-1045535J20000*
X-1282826Y-1025535I20000*
X-1302826Y-1045535J20000*
G01Y-371141*
G03X-1300078Y-361023I17252J10117*
X-1320078Y-341023I20000*
X-1340078Y-361023J20000*
G01Y-303028*
G03X-1328818Y-285038I8740J17990*
X-1348818Y-265038I20000*
X-1368818Y-285038J20000*
G01Y-35461*
G03X-1353181Y-5327I31181J35303*
G02X-1350200Y-2656I2981J328*
G01X-1349800*
G02X-1346817Y-5327J3000*
G03X-1300000Y-47260I46817J5171*
X-1279055Y-42346J47103*
G01Y-765353*
G03X-1259055Y-785353I20000*
X-1239055Y-765353J20000*
X-1259055Y-745353I20000*
X-1279055Y-765353J20000*
G01Y-42346*
G03X-1263306Y-29690I20945J42190*
G01Y-361023*
G03X-1243306Y-381023I20000*
X-1223306Y-361023J20000*
X-1243306Y-341023I20000*
X-1263306Y-361023J20000*
G01Y-29690*
G03X-1253181Y-5327I36693J29534*
G02X-1250200Y-2656I2981J328*
G01X-1249800*
G02X-1246817Y-5327J3000*
G03X-1234566Y-32153I46817J5171*
G01Y-285038*
G03X-1214566Y-305038I20000*
X-1194566Y-285038J20000*
X-1214566Y-265038I20000*
X-1234566Y-285038J20000*
G01Y-32153*
G03X-1200000Y-47260I34566J31997*
X-1186957Y-45417J47103*
G01Y-713237*
G03X-1184615Y-718895I8000*
G01X-1181931Y-721577*
Y-1277302*
G03X-1161931Y-1297302I20000*
X-1141931Y-1277302J20000*
X-1161931Y-1257302I20000*
X-1181931Y-1277302J20000*
G01Y-721577*
X-1177585Y-725925*
G03X-1171928Y-728267I5657J5657*
G01X-1129986*
G03X-1124330Y-725925J8000*
G01X-1117300Y-718895*
G03X-1114957Y-713237I5657J5657*
G01Y-671296*
G03X-1117300Y-665640I8000*
G01X-1124330Y-658610*
G03X-1129986Y-656267I5655J5657*
G01X-1171928*
G03X-1177585Y-658610J8000*
G01X-1184615Y-665640*
G03X-1186957Y-671296I5657J5656*
G01Y-45417*
G03X-1169605Y-36140I13042J45261*
G01Y-457480*
G03X-1149605Y-477480I20000*
X-1129605Y-457480J20000*
X-1149605Y-437480I20000*
X-1169605Y-457480J20000*
G01Y-36140*
G03X-1167243Y-34005I30394J35984*
G01Y-285038*
G03X-1147243Y-305038I20000*
X-1127243Y-285038J20000*
X-1147243Y-265038I20000*
X-1167243Y-285038J20000*
G01Y-34005*
G03X-1153181Y-5327I32756J33848*
G02X-1150200Y-2656I2981J328*
G01X-1149800*
G02X-1146817Y-5327J3000*
G03X-1100000Y-47260I46817J5171*
X-1073178Y-38876J47103*
G01Y-1243306*
G03X-1053178Y-1263306I20000*
X-1033178Y-1243306J20000*
X-1053178Y-1223306I20000*
X-1073178Y-1243306J20000*
G01Y-38876*
G03X-1070786Y-37106I26821J38720*
G01Y-577952*
G03X-1050786Y-597952I20000*
X-1037322Y-592740J20000*
G01Y-610235*
G03X-1022001Y-629680I20000*
G02X-1019703Y-632597I702J2917*
X-1019793Y-633326I3000*
G03X-1020393Y-638188I19400J4862*
X-1011455Y-654851I20000*
G02X-1010113Y-657350I1658J2499*
X-1010581Y-658959I3000*
G03X-1013700Y-669685I16880J10725*
X-993700Y-689685I20000*
X-990060Y-689350J20000*
G02X-989512Y-689300I547J2950*
X-986512Y-692300J3000*
X-986515Y-692431I3002*
G03X-986535Y-693306I19980J876*
X-966535Y-713306I20000*
X-957156Y-710971J20000*
G02X-955750Y-710620I1406J2649*
X-953513Y-711621J3000*
G01X-953363Y-711790*
G02X-952600Y-713788I2236J1998*
X-953122Y-715482I3000*
G03X-956613Y-726771I16509J11288*
X-936613Y-746771I20000*
X-922575Y-741016J20000*
G02X-920470Y-740153I2105J2137*
X-918313Y-741068J3000*
G03X-903936Y-747165I14377J13903*
X-889900Y-741412J20000*
G02X-887795Y-740550I2105J2137*
X-885690Y-741412J3000*
G03X-871653Y-747165I14036J14247*
X-851801Y-729598J20000*
G02X-848823Y-726963I2977J365*
X-848515Y-726980J3000*
G03X-846456Y-727086I2059J19893*
X-828267Y-715402J20000*
G01Y-1080708*
G03X-808267Y-1100708I20000*
X-788267Y-1080708J20000*
X-808267Y-1060708I20000*
X-828267Y-1080708J20000*
G01Y-715402*
G03X-826456Y-707086I18188J8316*
X-828260Y-698785I20000*
G02X-828530Y-697540I2729J1245*
X-825530Y-694540I3000*
X-824820Y-694626J3000*
G03X-820078Y-695196I4741J19430*
X-800078Y-675196J20000*
X-820078Y-655196I20000*
X-840078Y-675196J20000*
X-838275Y-683496I20000*
G02X-838003Y-684741I2730J1245*
X-841003Y-687741I3000*
X-841715Y-687656J3000*
G03X-846456Y-687086I4740J19430*
X-866307Y-704652J20000*
G02X-869285Y-707287I2977J365*
X-869595Y-707271J3000*
G03X-871653Y-707165I2058J19893*
X-885690Y-712917J20000*
G02X-887795Y-713780I2105J2137*
X-889900Y-712917J3000*
G03X-903936Y-707165I14035J14247*
X-917975Y-712920J20000*
G02X-920080Y-713782I2105J2137*
X-922236Y-712867J3000*
G03X-936613Y-706771I14377J13903*
X-945992Y-709106J20000*
G02X-947400Y-709456I1407J2650*
X-949635Y-708456J3000*
G01X-949785Y-708288*
G02X-950550Y-706288I2235J2000*
X-950025Y-704595I3000*
G03X-946535Y-693306I16509J11289*
X-966535Y-673306I20000*
X-970176Y-673640J20000*
G02X-970722Y-673690I546J2950*
X-973722Y-670690J3000*
X-973720Y-670560I3002*
G03X-973700Y-669685I19980J875*
X-982638Y-653021I20000*
G02X-983980Y-650522I1658J2498*
X-983512Y-648913I3000*
G03X-980393Y-638188I16880J10725*
X-995715Y-618743I20000*
G02X-998012Y-615826I702J2917*
X-997922Y-615097I3000*
G03X-997322Y-610235I19400J4862*
X-1017322Y-590235I20000*
X-1037322Y-610235J20000*
G01Y-592740*
G03X-1030786Y-577952I13463J14787*
X-1050786Y-557952I20000*
X-1070786Y-577952J20000*
G01Y-37106*
G03X-1064093Y-30643I29213J36950*
G01Y-361023*
G03X-1044093Y-381023I20000*
X-1024093Y-361023J20000*
X-1044093Y-341023I20000*
X-1064093Y-361023J20000*
G01Y-30643*
G03X-1053181Y-5327I35906J30487*
G02X-1050200Y-2656I2981J328*
G01X-1049800*
G02X-1046817Y-5327J3000*
G03X-1035353Y-31280I46817J5171*
G01Y-285038*
G03X-1015353Y-305038I20000*
X-1001890Y-299827J20000*
G01Y-472835*
G03X-981890Y-492835I20000*
X-961890Y-472835J20000*
X-981890Y-452835I20000*
X-1001890Y-472835J20000*
G01Y-299827*
G03X-995353Y-285038I13463J14789*
X-1015353Y-265038I20000*
X-1035353Y-285038J20000*
G01Y-31280*
G03X-1000000Y-47260I35353J31124*
X-967637Y-34381J47103*
G01Y-285038*
G03X-947637Y-305038I20000*
X-927637Y-285038J20000*
X-947637Y-265038I20000*
X-967637Y-285038J20000*
G01Y-34381*
G03X-953181Y-5327I32362J34225*
G02X-950200Y-2656I2981J328*
G01X-949800*
G02X-946817Y-5327J3000*
G03X-922290Y-41650I46817J5171*
G01Y-600590*
G03X-894290Y-628590I28000*
X-866290Y-600590J28000*
X-894290Y-572590I28000*
X-922290Y-600590J28000*
G01Y-41650*
G03X-900000Y-47260I22290J41494*
X-853181Y-5327J47103*
G02X-851101Y-2795I2981J328*
G01Y-415747*
G03X-831101Y-435747I20000*
X-811101Y-415747J20000*
X-831101Y-395747I20000*
X-851101Y-415747J20000*
G01Y-2795*
G02X-850200Y-2656I901J2860*
G01X-849800*
G02X-846817Y-5327J3000*
G03X-835747Y-30827I46817J5171*
G01Y-285038*
G03X-815747Y-305038I20000*
X-795747Y-285038J20000*
X-815747Y-265038I20000*
X-835747Y-285038J20000*
G01Y-30827*
G03X-800000Y-47260I35747J30671*
X-793621Y-46825J47103*
G01Y-678345*
G03X-773621Y-698345I20000*
X-753621Y-678345J20000*
X-773621Y-658345I20000*
X-793621Y-678345J20000*
G01Y-46825*
G03X-767243Y-34005I6378J46669*
G01Y-285038*
G03X-748345Y-305008I20000*
G01Y-634645*
G03X-728345Y-654645I20000*
X-708345Y-634645J20000*
X-728345Y-614645I20000*
X-748345Y-634645J20000*
G01Y-305008*
G03X-747243Y-305038I1102J19970*
X-727243Y-285038J20000*
X-747243Y-265038I20000*
X-767243Y-285038J20000*
G01Y-34005*
G03X-753181Y-5327I32756J33848*
G02X-750200Y-2656I2981J328*
G01X-749800*
G02X-746817Y-5327J3000*
G03X-700000Y-47260I46817J5171*
X-682597Y-43926J47103*
G01Y-1080708*
G03X-662597Y-1100708I20000*
X-642597Y-1080708J20000*
X-662597Y-1060708I20000*
X-682597Y-1080708J20000*
G01Y-43926*
G03X-681416Y-43438I17402J43770*
G01Y-610235*
G03X-661416Y-630235I20000*
X-645590Y-622463J20000*
G01Y-998425*
G03X-625590Y-1018425I20000*
X-622361Y-1018162J20000*
G01Y-1235038*
G03X-602361Y-1255038I20000*
X-582361Y-1235038J20000*
X-602361Y-1215038I20000*
X-622361Y-1235038J20000*
G01Y-1018162*
G03X-605590Y-998425I3229J19737*
X-625590Y-978425I20000*
X-645590Y-998425J20000*
G01Y-622463*
G03X-641416Y-610235I15825J12227*
X-661416Y-590235I20000*
X-681416Y-610235J20000*
G01Y-43438*
G03X-663306Y-29690I18583J43282*
G01Y-361023*
G03X-643306Y-381023I20000*
X-623306Y-361023J20000*
X-643306Y-341023I20000*
X-663306Y-361023J20000*
G01Y-29690*
G03X-653181Y-5327I36693J29534*
G02X-650200Y-2656I2981J328*
G01X-649800*
G02X-646817Y-5327J3000*
G03X-634566Y-32153I46817J5171*
G01Y-285038*
G03X-622361Y-303457I20000*
G01Y-774802*
G03X-620393Y-783455I20000*
G01Y-883070*
G03X-600393Y-903070I20000*
X-580393Y-883070J20000*
X-600393Y-863070I20000*
X-620393Y-883070J20000*
G01Y-783455*
G03X-602361Y-794802I18032J8652*
X-582361Y-774802J20000*
X-602361Y-754802I20000*
X-622361Y-774802J20000*
G01Y-303457*
G03X-614566Y-305038I7795J18419*
X-609763Y-304453J20000*
G01Y-585038*
G03X-589763Y-605038I20000*
X-575905Y-599460J20000*
G01Y-625196*
G03X-555905Y-645196I20000*
X-549133Y-644015J20000*
G01Y-740945*
G03X-548740Y-744893I20000*
G01Y-977165*
G03X-528740Y-997165I20000*
X-508740Y-977165J20000*
X-528740Y-957165I20000*
X-548740Y-977165J20000*
G01Y-744893*
G03X-529133Y-760945I19606J3948*
X-510650Y-748582J20000*
G02X-507876Y-746728I2773J1145*
X-506541Y-747042J3000*
G03X-497637Y-749133I8903J17909*
X-486587Y-745803J20000*
G02X-484930Y-745305I1657J2501*
X-482480Y-746575J3000*
G03X-469408Y-754770I16338J11536*
G01Y-1086810*
G03X-449408Y-1106810I20000*
X-429408Y-1086810J20000*
X-449408Y-1066810I20000*
X-469408Y-1086810J20000*
G01Y-1009055*
G03X-449408Y-1029055I20000*
X-429408Y-1009055J20000*
X-449408Y-989055I20000*
X-469408Y-1009055J20000*
G01Y-931298*
G03X-449408Y-951298I20000*
X-429408Y-931298J20000*
X-449408Y-911298I20000*
X-469408Y-931298J20000*
G01Y-754770*
G03X-466141Y-755038I3267J19732*
X-455091Y-751710J20000*
G02X-453435Y-751210I1656J2500*
X-450983Y-752480J3000*
G03X-434645Y-760945I16337J11535*
X-414645Y-740945J20000*
X-434645Y-720945I20000*
X-445695Y-724273J20000*
G02X-447352Y-724773I1657J2500*
X-449802Y-723503J3000*
G03X-466141Y-715038I16338J11535*
X-477190Y-718368J20000*
G02X-478848Y-718867I1657J2500*
X-481300Y-717598J3000*
G03X-497637Y-709133I16337J11535*
X-516121Y-721495J20000*
G02X-518893Y-723350I2772J1145*
X-520230Y-723035J3000*
G03X-529133Y-720945I8903J17909*
X-549133Y-740945J20000*
G01Y-644015*
G03X-535905Y-625196I6772J18819*
X-555905Y-605196I20000*
X-575905Y-625196J20000*
G01Y-599460*
G03X-569763Y-585038I13857J14421*
X-589763Y-565038I20000*
X-609763Y-585038J20000*
G01Y-304453*
G03X-594566Y-285038I4802J19415*
X-614566Y-265038I20000*
X-634566Y-285038J20000*
G01Y-32153*
G03X-600000Y-47260I34566J31997*
X-566456Y-33225J47103*
G01Y-285038*
G03X-546771Y-305036I20000*
G01Y-561023*
G03X-526771Y-581023I20000*
X-506771Y-561023J20000*
X-526771Y-541023I20000*
X-546771Y-561023J20000*
G01Y-305036*
G03X-546456Y-305038I315J19997*
X-526456Y-285038J20000*
X-546456Y-265038I20000*
X-566456Y-285038J20000*
G01Y-33225*
G03X-553181Y-5327I33543J33068*
G02X-550200Y-2656I2981J328*
G01X-549800*
G02X-546817Y-5327J3000*
G03X-500000Y-47260I46817J5171*
X-463306Y-29690J47103*
G01Y-361023*
G03X-443306Y-381023I20000*
X-423306Y-361023J20000*
X-443306Y-341023I20000*
X-463306Y-361023J20000*
G01Y-29690*
G03X-453181Y-5327I36693J29534*
G02X-450200Y-2656I2981J328*
G01X-449800*
G02X-446817Y-5327J3000*
G03X-434566Y-32153I46817J5171*
G01Y-285038*
G03X-414566Y-305038I20000*
X-394566Y-285038J20000*
X-414566Y-265038I20000*
X-434566Y-285038J20000*
G01Y-32153*
G03X-400000Y-47260I34566J31997*
X-391653Y-46513J47103*
G01Y-1086810*
G03X-371653Y-1106810I20000*
X-351653Y-1086810J20000*
X-371653Y-1066810I20000*
X-391653Y-1086810J20000*
G01Y-1009055*
G03X-371653Y-1029055I20000*
X-351653Y-1009055J20000*
X-371653Y-989055I20000*
X-391653Y-1009055J20000*
G01Y-931298*
G03X-371653Y-951298I20000*
X-351653Y-931298J20000*
X-371653Y-911298I20000*
X-391653Y-931298J20000*
G01Y-46513*
G03X-367637Y-34381I8346J46357*
G01Y-285038*
G03X-347637Y-305038I20000*
X-327637Y-285038J20000*
X-347637Y-265038I20000*
X-367637Y-285038J20000*
G01Y-34381*
G03X-353181Y-5327I32362J34225*
G02X-350200Y-2656I2981J328*
G01X-349800*
G02X-346817Y-5327J3000*
G03X-313897Y-45162I46817J5171*
G01Y-1086810*
G03X-293897Y-1106810I20000*
X-273897Y-1086810J20000*
X-293897Y-1066810I20000*
X-313897Y-1086810J20000*
G01Y-1009055*
G03X-293897Y-1029055I20000*
X-273897Y-1009055J20000*
X-293897Y-989055I20000*
X-313897Y-1009055J20000*
G01Y-931298*
G03X-293897Y-951298I20000*
X-273897Y-931298J20000*
X-293897Y-911298I20000*
X-313897Y-931298J20000*
G01Y-45162*
G03X-300000Y-47260I13897J45006*
X-265668Y-32406J47103*
G01Y-812597*
G03X-245668Y-832597I20000*
X-234566Y-829233J20000*
G01Y-1166535*
G03X-214566Y-1186535I20000*
X-194566Y-1166535J20000*
X-214566Y-1146535I20000*
X-234566Y-1166535J20000*
G01Y-1103542*
G03X-214566Y-1123542I20000*
X-194566Y-1103542J20000*
X-214566Y-1083542I20000*
X-234566Y-1103542J20000*
G01Y-1040550*
G03X-214566Y-1060550I20000*
X-194566Y-1040550J20000*
X-214566Y-1020550I20000*
X-234566Y-1040550J20000*
G01Y-977558*
G03X-214566Y-997558I20000*
X-194566Y-977558J20000*
X-214566Y-957558I20000*
X-234566Y-977558J20000*
G01Y-914566*
G03X-214566Y-934566I20000*
X-194566Y-914566J20000*
X-214566Y-894566I20000*
X-234566Y-914566J20000*
G01Y-851575*
G03X-214566Y-871575I20000*
X-194566Y-851575J20000*
X-214566Y-831575I20000*
X-234566Y-851575J20000*
G01Y-829233*
G03X-225668Y-812597I11102J16635*
X-245668Y-792597I20000*
X-265668Y-812597J20000*
G01Y-32406*
G03X-262912Y-29195I34331J32250*
G01Y-361023*
G03X-244408Y-380967I20000*
G01Y-638975*
G03X-234172Y-656430I20000*
G01Y-740945*
G03X-214172Y-760945I20000*
X-194172Y-740945J20000*
X-214172Y-720945I20000*
X-234172Y-740945J20000*
G01Y-656430*
G03X-224408Y-658975I9764J17455*
X-204408Y-638975J20000*
X-224408Y-618975I20000*
X-244408Y-638975J20000*
G01Y-380967*
G03X-242912Y-381023I1495J19944*
X-222912Y-361023J20000*
X-242912Y-341023I20000*
X-262912Y-361023J20000*
G01Y-29195*
G03X-253181Y-5327I37087J29039*
G02X-250200Y-2656I2981J328*
G01X-249800*
G02X-246817Y-5327J3000*
G03X-234172Y-32573I46817J5171*
G01Y-285038*
G03X-214172Y-305038I20000*
X-194172Y-285038J20000*
X-214172Y-265038I20000*
X-234172Y-285038J20000*
G01Y-32573*
G03X-200000Y-47260I34172J32417*
X-168030Y-34750J47103*
G01Y-285038*
G03X-148030Y-305038I20000*
X-128030Y-285038J20000*
X-148030Y-265038I20000*
X-168030Y-285038J20000*
G01Y-34750*
G03X-153181Y-5327I31969J34593*
G02X-150200Y-2656I2981J328*
G01X-149800*
G02X-146817Y-5327J3000*
G03X-100000Y-47260I46817J5171*
X-97952Y-47215J47103*
G01Y-473227*
G03X-77952Y-493227I20000*
X-57952Y-473227J20000*
X-77952Y-453227I20000*
X-97952Y-473227J20000*
G01Y-47215*
G03X-64093Y-30643I2047J47058*
G01Y-361023*
G03X-44093Y-381023I20000*
X-24093Y-361023J20000*
X-44093Y-341023I20000*
X-64093Y-361023J20000*
G01Y-30643*
G03X-53181Y-5327I35906J30487*
G02X-50200Y-2656I2981J328*
G01X-49800*
G02X-46817Y-5327J3000*
G03X-35353Y-31280I46817J5171*
G01Y-285038*
G03X-15353Y-305038I20000*
X4645Y-285038J20000*
X-15353Y-265038I19999*
X-35353Y-285038J20000*
G01Y-31280*
G03X0Y-47260I35353J31124*
X23306Y-41088J47103*
G01Y-472835*
G03X36692Y-491708I20000*
G01Y-525590*
G03X56692Y-545590I20000*
X76692Y-525590J20000*
X56692Y-505590I20000*
X36692Y-525590J20000*
G01Y-491708*
G03X43306Y-492835I6613J18873*
X63306Y-472835J20000*
X43306Y-452835I20000*
X23306Y-472835J20000*
G01Y-41088*
G03X30393Y-36140I23306J40932*
G01Y-339763*
G03X50393Y-359763I20000*
X70393Y-339763J20000*
X50393Y-319763I20000*
X30393Y-339763J20000*
G01Y-36140*
G03X32755Y-34005I30393J35984*
G01Y-285038*
G03X52755Y-305038I20000*
X72755Y-285038J20000*
X52755Y-265038I20000*
X32755Y-285038J20000*
G01Y-34005*
G03X46817Y-5327I32755J33848*
G02X49800Y-2656I2982J328*
G01X50200*
G02X53181Y-5327J3000*
G03X100000Y-47260I46818J5171*
X102511Y-47192J47103*
G01Y-600590*
G03X130511Y-628590I28000*
X158511Y-600590J28000*
X130511Y-572590I28000*
X102511Y-600590J28000*
G01Y-47192*
G03X146817Y-5327I2511J47036*
G02X149800Y-2656I2982J328*
G01X150200*
G02X153181Y-5327J3000*
G03X164251Y-30827I46818J5171*
G01Y-285038*
G03X173700Y-302030I20000*
G01Y-415747*
G03X193700Y-435747I20000*
X204322Y-432693J20000*
G01Y-1158110*
G03X206322Y-1170455I39102*
G01Y-1258110*
G03X243425Y-1295212I37102*
X280527Y-1258110J37102*
X243425Y-1221007I37102*
X206322Y-1258110J37102*
G01Y-1170455*
G03X243425Y-1197212I37102J12345*
X282527Y-1158110J39102*
X243425Y-1119007I39102*
X204322Y-1158110J39102*
G01Y-1058110*
G03X243425Y-1097212I39102*
X282527Y-1058110J39102*
X243425Y-1019007I39102*
X204322Y-1058110J39102*
G01Y-958110*
G03X243425Y-997212I39102*
X282527Y-958110J39102*
X243425Y-919007I39102*
X204322Y-958110J39102*
G01Y-858110*
G03X243425Y-897212I39102*
X282527Y-858110J39102*
X243425Y-819007I39102*
X204322Y-858110J39102*
G01Y-432693*
G03X213700Y-415747I10622J16945*
X193700Y-395747I20000*
X173700Y-415747J20000*
G01Y-302030*
G03X184251Y-305038I10550J16991*
X204251Y-285038J20000*
X184251Y-265038I20000*
X164251Y-285038J20000*
G01Y-30827*
G03X200000Y-47260I35748J30671*
X220550Y-42540J47103*
G01Y-649605*
G03X240550Y-669605I20000*
X260550Y-649605J20000*
X258673Y-641145I20000*
G02X258391Y-639876I2717J1269*
X261190Y-636883I3000*
G03X279842Y-616928I1347J19955*
X259842Y-596928I20000*
X239842Y-616928J20000*
X241720Y-625388I20000*
G02X242001Y-626658I2718J1270*
X239203Y-629651I3000*
G03X220550Y-649605I1347J19954*
G01Y-42540*
G03X232755Y-34005I20550J42383*
G01Y-285038*
G03X252755Y-305038I20000*
X272755Y-285038J20000*
X252755Y-265038I20000*
X232755Y-285038J20000*
G01Y-34005*
G03X246817Y-5327I32755J33848*
G02X249800Y-2656I2982J328*
G01X250200*
G02X253181Y-5327J3000*
G03X296535Y-47131I46818J5171*
G01Y-713780*
G03X316535Y-733780I20000*
X336535Y-713780J20000*
X316535Y-693780I20000*
X296535Y-713780J20000*
G01Y-47131*
G03X300000Y-47260I3465J46975*
X336298Y-30173J47103*
G01Y-361023*
G03X356298Y-381023I20000*
X376298Y-361023J20000*
X356298Y-341023I20000*
X336298Y-361023J20000*
G01Y-30173*
G03X346817Y-5327I36298J30017*
G02X349800Y-2656I2982J328*
G01X350200*
G02X353181Y-5327J3000*
G03X365038Y-31722I46818J5171*
G01Y-285038*
G03X385038Y-305038I20000*
X405038Y-285038J20000*
X385038Y-265038I20000*
X365038Y-285038J20000*
G01Y-31722*
G03X400000Y-47260I34961J31566*
X425526Y-39742J47103*
G01Y-624560*
G03X445526Y-644560I20000*
X465526Y-624560J20000*
X445526Y-604560I20000*
X425526Y-624560J20000*
G01Y-39742*
G03X433150Y-33620I25526J39586*
G01Y-285038*
G03X453150Y-305038I20000*
X473150Y-285038J20000*
X453150Y-265038I20000*
X433150Y-285038J20000*
G01Y-33620*
G03X446817Y-5327I33150J33463*
G02X449800Y-2656I2982J328*
G01X450200*
G02X453181Y-5327J3000*
G03X494520Y-46940I46818J5171*
G01Y-624560*
G03X514520Y-644560I20000*
X534520Y-624560J20000*
X514520Y-604560I20000*
X494520Y-624560J20000*
G01Y-46940*
G03X500000Y-47260I5480J46783*
X543780Y-17535J47103*
G01Y-335432*
G03X563780Y-355432I20000*
X583780Y-335432J20000*
X563780Y-315432I20000*
X543780Y-335432J20000*
G01Y-17535*
G03X546817Y-5327I43780J17378*
G02X549800Y-2656I2982J328*
G01X550200*
G02X553181Y-5327J3000*
G03X565432Y-32153I46818J5171*
G01Y-285038*
G03X585432Y-305038I20000*
X605432Y-285038J20000*
X585432Y-265038I20000*
X565432Y-285038J20000*
G01Y-32153*
G03X600000Y-47260I34567J31997*
X623558Y-40945J47103*
G01Y-624560*
G03X643558Y-644560I20000*
X663558Y-624560J20000*
X643558Y-604560I20000*
X623558Y-624560J20000*
G01Y-40945*
G03X632755Y-34005I23558J40788*
G01Y-285038*
G03X652755Y-305038I20000*
X672755Y-285038J20000*
X652755Y-265038I20000*
X632755Y-285038J20000*
G01Y-34005*
G03X646817Y-5327I32755J33848*
G02X649800Y-2656I2982J328*
G01X650200*
G02X653181Y-5327J3000*
G03X683542Y-44290I46818J5171*
G01Y-368110*
G03X692157Y-384552I20000*
G01Y-624560*
G03X712157Y-644560I20000*
X721731Y-642118J20000*
G01Y-880708*
G03X741731Y-900708I20000*
X761731Y-880708J20000*
X741731Y-860708I20000*
X721731Y-880708J20000*
G01Y-642118*
G03X732157Y-624560I9573J17558*
X712157Y-604560I20000*
X692157Y-624560J20000*
G01Y-384552*
G03X703542Y-388110I11385J16442*
X723542Y-368110J20000*
X703542Y-348110I20000*
X683542Y-368110J20000*
G01Y-44290*
G03X700000Y-47260I16457J44134*
X746817Y-5327J47103*
G02X749800Y-2656I2982J328*
G01X750200*
G02X753181Y-5327J3000*
G03X764645Y-31280I46818J5171*
G01Y-285038*
G03X784645Y-305038I20000*
X795747Y-301675J20000*
G01Y-698818*
G03X798000Y-708038I20000*
G01Y-1053505*
G03X800342Y-1059162I8000*
G01X807371Y-1066191*
G03X813028Y-1068535I5657J5655*
G01X854970*
G03X860626Y-1066191J8000*
G01X867656Y-1059162*
G03X870000Y-1053505I5656J5657*
G01Y-1011565*
G03X867656Y-1005907I8000*
G01X860626Y-998878*
G03X854970Y-996535I5655J5656*
G01X813028*
G03X807371Y-998878J8000*
G01X800342Y-1005907*
G03X798000Y-1011565I5657J5657*
G01Y-708038*
G03X815747Y-718818I17747J9220*
X835747Y-698818J20000*
X815747Y-678818I20000*
X795747Y-698818J20000*
G01Y-301675*
G03X804645Y-285038I11102J16636*
X784645Y-265038I20000*
X764645Y-285038J20000*
G01Y-31280*
G03X800000Y-47260I35354J31124*
X812676Y-45521J47103*
G01Y-203936*
G03X823652Y-221785I20000*
G01Y-624456*
G03X843652Y-644456I20000*
X863652Y-624456J20000*
X843652Y-604456I20000*
X823652Y-624456J20000*
G01Y-221785*
G03X832676Y-223936I9023J17848*
X852676Y-203936J20000*
X832676Y-183936I20000*
X812676Y-203936J20000*
G01Y-45521*
G03X846817Y-5327I12676J45365*
G02X849800Y-2656I2982J328*
G01X850200*
G02X853181Y-5327J3000*
G03X900000Y-47260I46818J5171*
X946817Y-5327J47103*
G02X949800Y-2656I2982J328*
G01X950200*
G02X953181Y-5327J3000*
G03X965826Y-32573I46818J5171*
G01Y-766387*
G03X968170Y-772045I8000*
G01X975198Y-779073*
G03X980855Y-781416I5657J5657*
G01X1022797*
G03X1028453Y-779073J8000*
G01X1035483Y-772045*
G03X1037826Y-766387I5657J5657*
G01Y-724446*
G03X1035483Y-718790I8000*
G01X1028453Y-711760*
G03X1022797Y-709416I5655J5656*
G01X980855*
G03X975198Y-711760J8000*
G01X968170Y-718790*
G03X965826Y-724446I5656J5656*
G01Y-32573*
G03X1000000Y-47260I34173J32417*
X1046817Y-5327J47103*
G02X1049800Y-2656I2982J328*
G01X1050200*
G02X1053181Y-5327J3000*
G03X1100000Y-47260I46818J5171*
X1146817Y-5327J47103*
G02X1149800Y-2656I2982J328*
G01X1150200*
G02X1153181Y-5327J3000*
G03X1200000Y-47260I46818J5171*
X1246817Y-5327J47103*
G02X1249800Y-2656I2982J328*
G01X1250200*
G02X1253181Y-5327J3000*
G03X1300000Y-47260I46818J5171*
X1346817Y-5327J47103*
G02X1349800Y-2656I2982J328*
G01X1350200*
G02X1353181Y-5327J3000*
G03X1400000Y-47260I46818J5171*
X1446817Y-5327J47103*
G02X1449800Y-2656I2982J328*
G01X1450200*
G02X1453181Y-5327J3000*
G03X1465826Y-32573I46818J5170*
G01Y-1270325*
G03X1468170Y-1275981I8000*
G01X1475198Y-1283010*
G03X1480855Y-1285353I5657J5657*
G01X1522797*
G03X1528453Y-1283010J8000*
G01X1535483Y-1275981*
G03X1537826Y-1270325I5657J5656*
G01Y-1228383*
G03X1535483Y-1222726I8000*
G01X1528453Y-1215696*
G03X1522797Y-1213353I5655J5657*
G01X1480855*
G03X1475198Y-1215696J8000*
G01X1468170Y-1222726*
G03X1465826Y-1228383I5656J5657*
G01Y-32573*
G03X1500000Y-47260I34173J32415*
X1547101Y-157J47102*
X1509253Y46026I47101*
G02X1506842Y48968I589J2942*
X1509842Y51968I3000*
G01X1593251*
Y-994093*
G03X1635826Y-1036668I42575*
X1678401Y-994093J42575*
X1635826Y-951520I42575*
X1593251Y-994093J42573*
G01Y51968*
X1857035*
G02X1860035Y48968J3000*
X1857585Y46020I3000*
G01X1853530Y45260*
G03X1850135Y44463I6875J36892*
G01X1842272Y42226*
G03X1838970Y41120I10253J36100*
G01X1831332Y38161*
G03X1828136Y36748I13557J34992*
G01X1820855Y33122*
G03X1817801Y31423I16702J33604*
G01X1810861Y27126*
G03X1807977Y25152I19732J31920*
G01X1801441Y20216*
G03X1798746Y17976I22616J29946*
G01X1792725Y12487*
G03X1790265Y10027I25277J27735*
G01X1784780Y4010*
G03X1782538Y1313I27705J25310*
G01X1777602Y-5222*
G03X1775628Y-8105I29947J22615*
G01X1771331Y-15045*
G03X1769632Y-18097I31906J19755*
G01X1766006Y-25380*
G03X1764593Y-28577I33580J16752*
G01X1761635Y-36215*
G03X1760530Y-39513I34992J13556*
G01X1758291Y-47380*
G03X1757493Y-50775I36095J10270*
G01X1755992Y-58805*
G03X1755511Y-62261I36888J6895*
G01X1754760Y-70366*
G03X1754597Y-73856I37365J3490*
G01Y-82047*
G03X1754760Y-85537I37527*
G01X1755511Y-93643*
G03X1755992Y-97100I37370J3440*
G01X1757493Y-105130*
G03X1758291Y-108525I36892J6875*
G01X1760530Y-116391*
G03X1761635Y-119690I36097J10257*
G01X1764593Y-127327*
G03X1766006Y-130525I34992J13557*
G01X1769632Y-137806*
G03X1771331Y-140858I33605J16702*
G01X1775628Y-147800*
G03X1777602Y-150682I31921J19732*
G01X1782538Y-157218*
G03X1784780Y-159915I29947J22615*
G01X1790265Y-165932*
G03X1792725Y-168393I27737J25276*
G01X1798101Y-173295*
Y-1020668*
G03X1806101Y-1028668I8000*
G01X1859251*
G03X1867251Y-1020668J8000*
G01Y-967520*
G03X1859251Y-959520I8000*
G01X1806101*
G03X1798101Y-967520J8000*
G01Y-173295*
X1798746Y-173882*
G03X1801441Y-176122I25311J27707*
G01X1807977Y-181058*
G03X1810861Y-183032I22615J29947*
G01X1817801Y-187330*
G03X1820855Y-189028I19756J31907*
G01X1828136Y-192655*
G03X1831332Y-194067I16753J33581*
G01X1838970Y-197025*
G03X1842272Y-198131I13555J34992*
G01X1850135Y-200370*
G03X1853530Y-201166I10270J36095*
G01X1861561Y-202667*
G03X1865012Y-203148I6895J36887*
G01X1873122Y-203900*
G03X1876612Y-204062I3490J37365*
G01X1884803*
G03X1888293Y-203900J37527*
G01X1896405Y-203148*
G03X1899855Y-202667I3445J37368*
G01X1907886Y-201166*
G03X1911280Y-200370I6875J36892*
G01X1919145Y-198131*
G03X1922445Y-197025I10255J36098*
G01X1930083Y-194067*
G03X1933280Y-192655I13557J34994*
G01X1940561Y-189028*
G03X1943615Y-187330I16702J33605*
G01X1950555Y-183032*
G03X1953438Y-181058I19731J31922*
G01X1959975Y-176122*
G03X1962670Y-173882I22615J29947*
G01X1968690Y-168393*
G03X1971151Y-165932I25277J27737*
G01X1976636Y-159915*
G03X1978878Y-157218I27705J25312*
G01X1983815Y-150682*
G03X1985787Y-147800I29948J22616*
G01X1990085Y-140858*
G03X1991783Y-137806I31907J19755*
G01X1995410Y-130525*
G03X1996822Y-127327I33580J16754*
G01X1999781Y-119690*
G03X2000886Y-116391I34992J13556*
G01X2003125Y-108525*
G03X2003922Y-105130I36094J10270*
G01X2005075Y-98968*
G02X2008023Y-96520I2948J551*
X2011023Y-99520J3000*
G01Y-1158746*
Y-1158747*
G02X2008023Y-1161747I3000*
X2005075Y-1159298J3000*
G01X2003922Y-1153136*
G03X2003125Y-1149741I36892J6875*
G01X2000886Y-1141875*
G03X1999781Y-1138577I36097J10257*
G01X1996823Y-1130940*
G03X1995410Y-1127742I34993J13555*
G01X1991783Y-1120460*
G03X1990085Y-1117407I33605J16702*
G01X1985787Y-1110466*
G03X1983815Y-1107585I31921J19733*
G01X1978878Y-1101047*
G03X1976636Y-1098351I29947J22615*
G01X1971151Y-1092335*
G03X1968690Y-1089873I27738J25275*
G01X1962670Y-1084385*
G03X1959975Y-1082145I25311J27706*
G01X1953438Y-1077208*
G03X1950555Y-1075235I22615J29947*
G01X1943615Y-1070937*
G03X1940561Y-1069238I19756J31905*
G01X1933280Y-1065612*
G03X1930083Y-1064200I16753J33580*
G01X1922445Y-1061240*
G03X1919145Y-1060135I13555J34994*
G01X1911280Y-1057897*
G03X1907886Y-1057100I10270J36095*
G01X1899855Y-1055598*
G03X1896405Y-1055118I6895J36889*
G01X1888293Y-1054366*
G03X1884803Y-1054205I3490J37365*
G01X1876612*
G03X1873122Y-1054366J37526*
G01X1865012Y-1055118*
G03X1861561Y-1055598I3443J37369*
G01X1853530Y-1057100*
G03X1850135Y-1057897I6875J36892*
G01X1842272Y-1060135*
G03X1838970Y-1061240I10253J36100*
G01X1831332Y-1064200*
G03X1828136Y-1065612I13557J34992*
G01X1820855Y-1069238*
G03X1817801Y-1070937I16702J33605*
G01X1810861Y-1075235*
G03X1807977Y-1077208I19732J31921*
G01X1801441Y-1082145*
G03X1798746Y-1084385I22616J29946*
G01X1792725Y-1089873*
G03X1790265Y-1092335I25277J27737*
G01X1784780Y-1098351*
G03X1782538Y-1101047I27705J25312*
G01X1777602Y-1107585*
G03X1775628Y-1110466I29947J22615*
G01X1771331Y-1117408*
G03X1769632Y-1120460I31906J19755*
G01X1766006Y-1127742*
G03X1764593Y-1130940I33580J16752*
G01X1761635Y-1138577*
G03X1760530Y-1141875I34992J13555*
G01X1758291Y-1149741*
G03X1757493Y-1153136I36095J10270*
G01X1755992Y-1161167*
G03X1755511Y-1164623I36888J6895*
G01X1754760Y-1172728*
G03X1754597Y-1176218I37365J3490*
G01Y-1184410*
G03X1754760Y-1187900I37527J0*
G01X1755511Y-1196005*
G03X1755992Y-1199461I37370J3440*
G01X1757493Y-1207492*
G03X1758291Y-1210887I36892J6875*
G01X1760530Y-1218753*
G03X1761635Y-1222051I36097J10257*
G01X1764593Y-1229690*
G03X1766006Y-1232886I34992J13556*
G01X1769632Y-1240168*
G03X1771331Y-1243220I33605J16702*
G01X1775628Y-1250162*
G03X1777602Y-1253045I31921J19732*
G01X1782538Y-1259581*
G03X1784780Y-1262277I29947J22615*
G01X1790265Y-1268295*
G03X1792725Y-1270755I27737J25276*
G01X1798746Y-1276245*
G03X1801441Y-1278485I25311J27707*
G01X1807977Y-1283420*
G03X1810861Y-1285395I22615J29947*
G01X1817801Y-1289691*
G03X1820855Y-1291390I19756J31906*
G01X1828136Y-1295016*
G03X1831332Y-1296430I16753J33580*
G01X1838970Y-1299388*
G03X1842272Y-1300493I13555J34993*
G01X1850135Y-1302731*
G03X1853530Y-1303528I10270J36095*
G01X1857585Y-1304286*
G02X1860035Y-1307235I550J2949*
X1857035Y-1310235I3000*
G01X105755*
G02X102755Y-1307235J3000*
G01Y-730006*
G02X105755Y-727006I3000*
X107830Y-727838J3000*
G03X121653Y-733385I13823J14452*
X141653Y-713385J20000*
X121653Y-693385I20000*
X111086Y-696405J20000*
G02X109501Y-696857I1585J2547*
X106978Y-695480J3000*
G03X90156Y-686298I16822J10817*
X81195Y-688418J20000*
G02X79850Y-688737I1345J2680*
X76985Y-686621J3000*
G03X57873Y-672520I19111J5898*
X53610Y-672980J20000*
G02X52970Y-673048I640J2931*
X50015Y-670565J3000*
G03X33397Y-654255I19700J3450*
G02X30860Y-651290I462J2964*
X31086Y-650146I3000*
G03X32597Y-642520I18488J7626*
X19660Y-623807I20000*
G02X17718Y-621000I1058J2807*
X18067Y-619596I3000*
G03X20393Y-610235I17674J9360*
X7605Y-591581I20000*
G02X5686Y-588783I1080J2797*
X5860Y-587781I3000*
G03X7007Y-581101I18851J6680*
X-1095Y-565025I19999*
G02X-2311Y-562612I1783J2412*
X-1712Y-560813I2999*
G03X2282Y-548818I16003J11995*
X-17715Y-528818I19999*
X-19727Y-528920I0J20000*
G02X-20030Y-528935I302J2984*
X-23030Y-525935J3000*
X-23015Y-525633I3004*
G03X-22912Y-523621I19897J2012*
X-42912Y-503621I20000*
X-62912Y-523621J20000*
X-42912Y-543621I20000*
X-40901Y-543520J20000*
G02X-40600Y-543505I301J2985*
X-37600Y-546505J3000*
X-37615Y-546806I3003*
G03X-37716Y-548818I19898J2012*
X-29611Y-564896I20000*
G02X-28396Y-567307I1785J2411*
X-28995Y-569106I3000*
G03X-32991Y-581101I16004J11995*
X-20203Y-599756I20000*
G02X-18285Y-602555I1082J2798*
X-18457Y-603556I3000*
G03X-19605Y-610235I18851J6679*
X-6667Y-628947I19999*
G02X-4726Y-631755I1058J2807*
X-5075Y-633158I3000*
G03X-7401Y-642520I17673J9361*
X9515Y-662280I19999*
G02X12052Y-665245I462J2964*
X11825Y-666388I3000*
G03X10314Y-674015I18489J7627*
X30315Y-694015I20000*
X34578Y-693555J20000*
G02X35218Y-693486I640J2930*
X38173Y-695968J3000*
G03X41003Y-703262I19700J3448*
G02X41473Y-704873I2530J1610*
X38473Y-707873I3000*
G01X-128740*
Y-753725*
G02X-131740Y-756725I3000*
X-132940Y-756475J3000*
G03X-140945Y-754802I8004J18327*
X-160945Y-774802J20000*
X-146565Y-793996I20000*
G02X-144410Y-796875I844J2879*
X-144412Y-797005I3001*
G01X-144440Y-797658*
G02X-146847Y-800470I2997J130*
G03X-162912Y-820078I3935J19608*
X-142912Y-840078I20000*
X-133196Y-837560J20000*
G02X-131740Y-837181I1456J2621*
X-128740Y-840181J3000*
G01Y-862966*
G02X-131740Y-865966I3000*
X-133196Y-865588J3000*
G03X-142912Y-863070I9716J17482*
X-162912Y-883070J20000*
X-142912Y-903070I20000*
X-133197Y-900551J20000*
G02X-131740Y-900175I1457J2623*
X-128740Y-903175J3000*
G01Y-925958*
G02X-131740Y-928958I3000*
X-133196Y-928580J3000*
G03X-142912Y-926062I9716J17482*
X-162912Y-946062J20000*
X-142912Y-966062I20000*
X-133197Y-963543J20000*
G02X-131740Y-963166I1457J2622*
X-128740Y-966166J3000*
G01Y-988950*
G02X-131740Y-991950I3000*
X-133196Y-991573J3000*
G03X-142912Y-989055I9716J17481*
X-162912Y-1009055J20000*
X-142912Y-1029055I20000*
X-133197Y-1026536J20000*
G02X-131740Y-1026158I1457J2622*
X-128740Y-1029158J3000*
G01Y-1051943*
G02X-131740Y-1054943I3000*
X-133196Y-1054565J3000*
G03X-142912Y-1052046I9716J17480*
X-162912Y-1072046J20000*
X-142912Y-1092046I20000*
X-133197Y-1089528J20000*
G02X-131740Y-1089150I1457J2622*
X-128740Y-1092150J3000*
G01Y-1114935*
G02X-131740Y-1117935I3000*
X-133196Y-1117557J3000*
G03X-142912Y-1115038I9716J17480*
X-162912Y-1135038J20000*
X-142912Y-1155038I20000*
X-133197Y-1152520J20000*
G02X-131740Y-1152142I1457J2622*
X-128740Y-1155142J3000*
G01Y-1160998*
G02X-131740Y-1163998I3000*
X-133196Y-1163620J3000*
G03X-142912Y-1161101I9716J17480*
X-162912Y-1181101J20000*
X-142912Y-1201101I20000*
X-133197Y-1198583J20000*
G02X-131740Y-1198205I1457J2622*
X-128740Y-1201205J3000*
G01Y-1218291*
G02X-131740Y-1221291I3000*
X-132940Y-1221041J3000*
G03X-140945Y-1219370I8004J18328*
X-160945Y-1239370J20000*
X-140945Y-1259370I20000*
X-132940Y-1257698J20000*
G02X-131740Y-1257447I1200J2749*
X-128740Y-1260447J3000*
G01Y-1307235*
G02X-131740Y-1310235I3000*
G01X-1757035*
G02X-1760035Y-1307235J3000*
X-1757585Y-1304286I3000*
G01X-1753530Y-1303528*
G03X-1750135Y-1302731I6875J36892*
G01X-1742272Y-1300493*
G03X-1738970Y-1299388I10253J36098*
G01X-1731332Y-1296430*
G03X-1728136Y-1295016I13557J34994*
G01X-1720855Y-1291390*
G03X-1717801Y-1289691I16702J33605*
G01X-1710861Y-1285395*
G03X-1707977Y-1283420I19732J31922*
G01X-1701441Y-1278485*
G03X-1698746Y-1276245I22616J29948*
G01X-1692725Y-1270755*
G03X-1690265Y-1268295I25277J27737*
G01X-1684780Y-1262277*
G03X-1682538Y-1259581I27705J25312*
G01X-1677602Y-1253045*
G03X-1675628Y-1250162I29947J22615*
G01X-1671331Y-1243220*
G03X-1669632Y-1240168I31906J19755*
G01X-1666006Y-1232886*
G03X-1664593Y-1229690I33580J16752*
G01X-1661635Y-1222051*
G03X-1660530Y-1218753I34992J13555*
G01X-1658291Y-1210887*
G03X-1657493Y-1207492I36095J10270*
G01X-1655992Y-1199461*
G03X-1655511Y-1196005I36888J6895*
G01X-1654760Y-1187900*
G03X-1654597Y-1184410I37365J3490*
G01Y-1176218*
G03X-1654760Y-1172728I37527*
G01X-1655511Y-1164623*
G03X-1655992Y-1161167I37370J3440*
G01X-1657493Y-1153136*
G03X-1658291Y-1149741I36892J6875*
G01X-1660530Y-1141875*
G03X-1661635Y-1138577I36097J10257*
G01X-1664593Y-1130940*
G03X-1666006Y-1127742I34992J13555*
G01X-1669632Y-1120460*
G03X-1671331Y-1117407I33605J16702*
G01X-1675628Y-1110466*
G03X-1677602Y-1107585I31921J19733*
G01X-1682538Y-1101047*
G03X-1684780Y-1098351I29947J22615*
G01X-1690265Y-1092335*
G03X-1692725Y-1089873I27737J25275*
G01X-1698746Y-1084385*
G03X-1701441Y-1082145I25311J27706*
G01X-1707977Y-1077208*
G03X-1710861Y-1075235I22615J29947*
G01X-1717801Y-1070937*
G03X-1720855Y-1069238I19756J31905*
G01X-1728136Y-1065612*
G03X-1731332Y-1064200I16753J33580*
G01X-1738970Y-1061240*
G03X-1742272Y-1060135I13555J34994*
G01X-1750135Y-1057897*
G03X-1753530Y-1057100I10270J36095*
G01X-1761561Y-1055598*
G03X-1765012Y-1055118I6895J36889*
G01X-1773122Y-1054366*
G03X-1776612Y-1054205I3490J37365*
G01X-1784803*
G03X-1788293Y-1054366J37526*
G01X-1796405Y-1055118*
G03X-1799855Y-1055598I3445J37369*
G01X-1807886Y-1057100*
G03X-1811280Y-1057897I6875J36892*
G01X-1819145Y-1060135*
G03X-1822445Y-1061240I10255J36100*
G01X-1830083Y-1064200*
G03X-1833280Y-1065612I13557J34992*
G01X-1840561Y-1069238*
G03X-1843615Y-1070937I16702J33605*
G01X-1850555Y-1075235*
G03X-1853438Y-1077208I19731J31921*
G01X-1859975Y-1082145*
G03X-1862670Y-1084385I22615J29946*
G01X-1868690Y-1089873*
G03X-1871151Y-1092335I25277J27737*
G01X-1876636Y-1098351*
G03X-1878878Y-1101047I27705J25312*
G01X-1883815Y-1107585*
G03X-1885787Y-1110466I29948J22615*
G01X-1890085Y-1117408*
G03X-1891783Y-1120460I31907J19755*
G01X-1895410Y-1127742*
G03X-1896822Y-1130940I33580J16752*
G01X-1899781Y-1138577*
G03X-1900886Y-1141875I34992J13555*
G01X-1903125Y-1149741*
G03X-1903922Y-1153136I36094J10270*
G01X-1904680Y-1157192*
G02X-1907630Y-1159640I2949J552*
X-1910630Y-1156640J3000*
G01Y-101625*
X-1593997Y-321608D02*
G02X-1593101Y-322602I103J994D01*
X-1593103Y-322667I1000*
G03X-1593123Y-323332I10790J665*
X-1592885Y-325590I10810*
G02X-1592861Y-325806I975J215*
G01Y-325807*
G02X-1593155Y-326515I1000*
G01X-1596240Y-329599*
G02X-1596947Y-329892I707J706*
X-1597655Y-329599J1000*
G01X-1596962Y-328907*
G03X-1594098Y-322561I6960J6960*
G02X-1593997Y-321608I11785J771*
G01X-1587736Y-332825D02*
G02X-1587270Y-332940J1000D01*
G03X-1583600Y-334066I4957J9607*
G02X-1582711Y-335060I110J994*
X-1582715Y-335136I1000*
X-1583673Y-335065I402J11803*
G03X-1584832Y-334996I1159J9773*
X-1591791Y-337880J9842*
G01X-1592485Y-338571*
G02X-1592776Y-337865I708J706*
X-1592485Y-337157I1000*
G01X-1588445Y-333117*
G02X-1587736Y-332825I708J707*
G01X-1540256Y-398971D02*
G02X-1540170Y-399378I913J407D01*
X-1540680Y-400250I1000*
G03X-1541515Y-400890I1994J3467*
G01X-1543723Y-403100*
G02X-1544430Y-403392I707J707*
G01X-1544431*
G02X-1545055Y-403173J1000*
G03X-1548830Y-401275I6651J8522*
G02X-1549570Y-400310I260J965*
X-1549545Y-400085I1000*
X-1548616Y-400296I2161J11610*
G03X-1546006Y-400650I2610J9490*
X-1541140Y-399362J9843*
G02X-1540256Y-398971I2455J4355*
G01X-1536615Y-407718D02*
X-1531208D01*
G02X-1530208Y-408718J1000*
G01X-1531170*
G03X-1540508Y-415452J9842*
G02X-1540851Y-416352I11197J3756*
X-1541496Y-415417I355J935*
X-1541445Y-415100I1000*
G03X-1540898Y-411981I10261J3403*
G02X-1540606Y-411295I998J21*
G01X-1537321Y-408010*
G02X-1536615Y-407718I706J707*
G01X-1470296Y-613532D02*
X-1463266Y-606503D01*
X-1421325*
X-1414296Y-613532*
Y-655474*
X-1421325Y-662503*
X-1463266*
X-1470296Y-655474*
Y-613532*
X-1171928Y-720267D02*
X-1178957Y-713237D01*
Y-671296*
X-1171928Y-664267*
X-1129986*
X-1122957Y-671296*
Y-713237*
X-1129986Y-720267*
X-1171928*
X854970Y-1004535D02*
X862000Y-1011565D01*
Y-1053505*
X854970Y-1060535*
X813028*
X806000Y-1053505*
Y-1011565*
X813028Y-1004535*
X854970*
X980855Y-773416D02*
X973826Y-766387D01*
Y-724446*
X980855Y-717416*
X1022796*
X1029826Y-724446*
Y-766387*
X1022796Y-773416*
X980855*
X1480855Y-1277353D02*
X1473826Y-1270325D01*
Y-1228383*
X1480855Y-1221353*
X1522796*
X1529826Y-1228383*
Y-1270325*
X1522796Y-1277353*
X1480855*
G37*
G54D10*
X-1918503Y-1318109D02*
X2018503D01*
Y59842*
X-1918503*
Y-1318109*
X243425Y-1258110D02*
Y-1298212D01*
Y-1258110D02*
Y-1218007D01*
Y-1258110D02*
X283527D01*
X243425D02*
X203322D01*
G54D11*
X-1551706Y-411696D02*
X-1546665D01*
X-1538685Y-403718*
X-1495430*
X-1473902Y-425245*
Y-498995*
X-1495430Y-520521*
X-1638470*
X-1659997Y-498995*
Y-399013*
X-1584316Y-323332*
X-1582312*
G54D12*
X-1712991Y-455117D03*
X-1656327Y-766535D03*
X-1604723Y-665747D03*
X-1458296Y-650503D03*
Y-618503D03*
X-1426296Y-650503D03*
Y-618503D03*
X-1401575Y-285038D03*
X-1348818D03*
X-1344487Y-407480D03*
X-1338188Y-683070D03*
X-1320078Y-361023D03*
X-1282826Y-1045535D03*
X-1259055Y-765353D03*
X-1243306Y-361023D03*
X-1214566Y-285038D03*
X-1166957Y-708267D03*
Y-676267D03*
X-1161931Y-1277302D03*
X-1149605Y-457480D03*
X-1147243Y-285038D03*
X-1134957Y-708267D03*
Y-676267D03*
X-1053178Y-1243306D03*
X-1050786Y-577952D03*
X-1044093Y-361023D03*
X-1017322Y-610235D03*
X-1015353Y-285038D03*
X-1000393Y-638188D03*
X-993700Y-669685D03*
X-981890Y-472835D03*
X-968110Y-525983D03*
X-966535Y-693306D03*
X-958267Y-409055D03*
X-947637Y-285038D03*
X-936613Y-726771D03*
X-903936Y-727165D03*
X-894290Y-600590D03*
X-884251Y-493700D03*
X-871653Y-727165D03*
X-846456Y-707086D03*
X-831101Y-415747D03*
X-820078Y-675196D03*
X-815747Y-285038D03*
X-808267Y-1080708D03*
X-787401Y-550786D03*
X-773621Y-678345D03*
X-747243Y-285038D03*
X-728345Y-634645D03*
X-662597Y-1080708D03*
X-661416Y-610235D03*
X-643306Y-361023D03*
X-625590Y-998425D03*
X-614566Y-285038D03*
X-602361Y-1235038D03*
Y-774802D03*
X-600393Y-883070D03*
X-589763Y-585038D03*
X-555905Y-625196D03*
X-546456Y-285038D03*
X-529133Y-740945D03*
X-528740Y-977165D03*
X-526771Y-561023D03*
X-497637Y-729133D03*
X-472046Y-629527D03*
X-466141Y-735038D03*
X-449408Y-1086810D03*
Y-1009055D03*
Y-931298D03*
X-443306Y-361023D03*
X-434645Y-740945D03*
X-414566Y-285038D03*
X-371653Y-1086810D03*
Y-1009055D03*
Y-931298D03*
X-347637Y-285038D03*
X-293897Y-1086810D03*
Y-1009055D03*
Y-931298D03*
X-277165Y-740945D03*
X-245668Y-812597D03*
X-242912Y-361023D03*
X-224408Y-638975D03*
X-214566Y-1166535D03*
Y-1103542D03*
Y-1040550D03*
Y-977558D03*
Y-914566D03*
Y-851575D03*
X-214172Y-740945D03*
Y-285038D03*
X-148030D03*
X-142912Y-1181101D03*
Y-1135038D03*
Y-1072046D03*
Y-1009055D03*
Y-946062D03*
Y-883070D03*
Y-820078D03*
X-140945Y-1239370D03*
Y-774802D03*
X-77952Y-473227D03*
X-44093Y-361023D03*
X-42912Y-523621D03*
X-17716Y-548818D03*
X-15353Y-285038D03*
X-12991Y-581101D03*
X393Y-610235D03*
X12597Y-642520D03*
X30315Y-674015D03*
X43306Y-472835D03*
X50393Y-339763D03*
X52755Y-285038D03*
X56692Y-525590D03*
X57873Y-692520D03*
X66928Y-409055D03*
X90156Y-706298D03*
X121653Y-713385D03*
X130511Y-600590D03*
X140550Y-493700D03*
X184251Y-285038D03*
X193700Y-415747D03*
X240550Y-649605D03*
X240945Y-551180D03*
X252755Y-285038D03*
X259842Y-616928D03*
X316535Y-713780D03*
X356298Y-361023D03*
X385038Y-285038D03*
X445526Y-624560D03*
X453150Y-285038D03*
X514520Y-624560D03*
X563780Y-335432D03*
X585432Y-285038D03*
X643558Y-624560D03*
X652755Y-285038D03*
X703542Y-368110D03*
X712157Y-624560D03*
X741731Y-880708D03*
X784645Y-285038D03*
X815747Y-698818D03*
X818000Y-1048535D03*
Y-1016535D03*
X832676Y-203936D03*
X843652Y-624456D03*
X850000Y-1048535D03*
Y-1016535D03*
X985826Y-761416D03*
Y-729416D03*
X1017826Y-761416D03*
Y-729416D03*
X1485826Y-1265353D03*
Y-1233353D03*
X1517826Y-1265353D03*
Y-1233353D03*
G54D13*
X-1582312Y-465065D03*
Y-429631D03*
Y-394198D03*
Y-358765D03*
Y-323332D03*
Y-287900D03*
Y-252466D03*
X-1551706Y-482562D03*
Y-447130D03*
Y-411696D03*
Y-376263D03*
Y-340830D03*
Y-305397D03*
Y-269965D03*
G54D14*
X-1623250Y-462120D03*
Y-273143D03*
X-1510650Y-462120D03*
Y-273143D03*
G54D15*
X-1400000Y-156D03*
X-1300000D03*
X-1200000D03*
X-1100000D03*
X-1000000D03*
X-900000D03*
X-800000D03*
X-700000D03*
X-600000D03*
X-500000D03*
X-400000D03*
X-300000D03*
X-200000D03*
X-100000D03*
X0D03*
X100000D03*
X200000D03*
X243425Y-1258110D03*
Y-1158110D03*
Y-1058110D03*
Y-958110D03*
Y-858110D03*
X300000Y-156D03*
X400000D03*
X500000D03*
X600000D03*
X700000D03*
X800000D03*
X900000D03*
X1000000D03*
X1100000D03*
X1200000D03*
X1300000D03*
X1400000D03*
X1500000D03*
G54D16*
X-1780708Y-1180315D03*
Y-77952D03*
X1880708Y-1180315D03*
Y-77952D03*
G54D17*
X1832676Y-994093D03*
G54D18*
X1635826D03*
M02*
