*
G04 Job   : X:\0_Projects\HW-0004_A.v1.0\PCB\Board1.pcb*
G04 User  : JG_PC:grobi*
G04 Layer : Silkscreen1.gdo*
G04 Date  : Sun May 31 19:23:07 2026*
%ICAS*%
%MOIN*%
%FSLAX26Y26*%
%OFA0.0000B0.0000*%
G90*
G74*
%ADD13C,0.00197*%
%ADD12C,0.00315*%
%ADD10C,0.00591*%
%ADD11C,0.00787*%
%ADD14C,0.01181*%
%ADD15C,0.01378*%
G01*
G36*
X-972143Y-540365D02*
G02X-972435Y-540550I3840J5720D01*
G01X-979133*
G03X-979516Y-540560J7480*
G02X-982873Y-534645I3532J5915*
X-982043Y-531366I6890*
G03X-972143Y-540365I13933J5382*
G01X53055Y-540077D02*
G02X52367Y-540550I4237J5432D01*
G01X45668*
G03X45285Y-540560J7480*
G02X41928Y-534645I3532J5915*
X42850Y-531202I6890*
G03X53055Y-540077I13842J5612*
G01X609566Y-1000680D02*
X605855Y-1005026D01*
G02X598330Y-1012341I43175J36885*
X590012Y-1017642I27894J34585*
X580297Y-1021210I21870J44556*
X568565Y-1023330I21275J84228*
X564840Y-1023646I8185J74075*
X558400Y-1023997I35447J591137*
X550940Y-1024320I32234J657212*
X543365Y-1024565I26295J697922*
G03X525228Y-1025410I12316J459305*
X510676Y-1026925I12966J195210*
X499361Y-1029065I17665J124337*
X491600Y-1031920I8007J33762*
X489206Y-1033476I6197J12147*
X486397Y-1035981I25305J31197*
X483392Y-1039183I36660J37414*
X480372Y-1042920I56770J48966*
G01X478405Y-1045522*
X460786Y-1034805*
X462230Y-1032430*
G03X463341Y-1030553I84445J51304*
G01X474985Y-1010398*
X488205Y-987496*
X503625Y-960763*
X519000Y-934123*
X532078Y-911525*
X543796Y-891315*
G02X544388Y-890446I6294J3650*
X544942Y-890178I554J439*
X545515Y-890470J707*
X548070Y-894321I44515J32317*
X553205Y-903008I427047J258261*
G01X578745Y-947257*
X609566Y-1000680*
X695447Y-1235295D02*
X668420Y-1235523D01*
X625031Y-1235693*
X521030Y-1235741*
X344775Y-1235766*
X346710Y-1232420*
X348205Y-1229831*
X360747Y-1208083*
X375106Y-1183183*
X391780Y-1154270*
X408373Y-1125520*
X422472Y-1101147*
X435123Y-1079315*
G02X435696Y-1078468I6332J3670*
X436212Y-1078060I1113J872*
X436663Y-1077960I450J968*
X436817Y-1077970J1068*
X437642Y-1078230I387J2672*
X438930Y-1078938I8964J17830*
X443880Y-1081927I403210J673400*
X446745Y-1083736I53372J87665*
X448633Y-1085007I49179J75079*
X448861Y-1085443I300J435*
X448766Y-1085776I632*
X447555Y-1087722I296471J183087*
X446120Y-1089965I117115J73392*
X444416Y-1092535I207542J135694*
G03X440207Y-1099360I85651J57535*
X436188Y-1107026I121882J68780*
X432953Y-1114250I115425J56030*
X431370Y-1119411I26987J11099*
X430966Y-1122106I23812J4950*
X430823Y-1125050I33050J3077*
Y-1125267I54465J217*
G01Y-1125270*
G03X430931Y-1128701I54465*
X431313Y-1133683I185402J11710*
X432145Y-1140573I115007J10375*
X433271Y-1145165I25868J3910*
X434945Y-1148567I14238J4894*
X437442Y-1151515I13525J8930*
G02X439372Y-1153656I11019J11865*
X440713Y-1155946I9317J6998*
X441768Y-1159000I17745J7838*
X442850Y-1163758I92217J23465*
G03X443577Y-1166842I46167J9257*
X444767Y-1170998I153143J41596*
X446170Y-1175440I165652J49877*
X447591Y-1179506I120387J39811*
X451475Y-1189807I729219J268958*
X455995Y-1201376I1173728J451902*
G01X460276Y-1212075*
G03X462063Y-1216013I47745J19290*
X467561Y-1220760I8509J4300*
X471253Y-1221357I3692J11092*
X475260Y-1220650J11690*
X482600Y-1215457I5865J16076*
X486728Y-1207013I15604J12860*
X487167Y-1204385I23853J5337*
X487315Y-1201740I23742J2649*
G01Y-1201735*
Y-1201735*
G03X487181Y-1198486I39650*
X486730Y-1193805I164976J13558*
X485130Y-1182685I171689J19035*
X483051Y-1174883I46922J8318*
X480173Y-1169078I26508J9529*
X476140Y-1164347I20077J13027*
G02X474110Y-1162150I11167J12361*
X473532Y-1160456I2197J1693*
Y-1160455I2775J1*
X473533Y-1160400I2775*
X473972Y-1157948I7991J165*
X476415Y-1151120I337107J116785*
G03X477275Y-1148501I35069J12952*
X477717Y-1146378I14003J4027*
X477838Y-1144535I13984J1843*
G01Y-1144533*
G03X477835Y-1144240I14105*
X477673Y-1141580I33325J696*
X477007Y-1137023I51855J5249*
X475966Y-1132805I40592J7776*
X474660Y-1129252I31352J9507*
X473185Y-1126781I10320J4487*
G02X472173Y-1125413I22730J17878*
X471940Y-1124732I1081J750*
X471938Y-1124680I981J52*
X472128Y-1124098I982*
X472986Y-1123045I10699J7846*
X473757Y-1122317I5047J4564*
X474900Y-1121452I13905J17210*
X476191Y-1120601I14015J19850*
X477445Y-1119897I9506J15466*
G03X478828Y-1119020I3997J7831*
X480243Y-1117778I9350J12087*
X481577Y-1116290I11987J12073*
X482715Y-1114666I12895J10248*
G02X485882Y-1110230I33709J20718*
X487667Y-1109388I1785J1469*
X488142Y-1109437J2311*
X491411Y-1110716I2192J10425*
G01X506168Y-1119600*
G02X513480Y-1124080I531431J875594*
X519637Y-1127946I279542J452002*
G01X525045Y-1131402*
G02X525240Y-1131758I229J355*
X524900Y-1132573I1148*
X523272Y-1134070I20597J20773*
X521171Y-1135700I18977J22281*
X518803Y-1137240I21490J30447*
G03X514995Y-1140162I10672J17854*
X509436Y-1145863I99272J102357*
X504215Y-1151847I106648J98332*
X501752Y-1155735I14190J11713*
X499770Y-1162706I20292J9537*
X498380Y-1177740I332452J38292*
X497725Y-1193038I285657J19902*
X497717Y-1193955I57087J917*
G01Y-1193956*
Y-1193957*
G03X498452Y-1203090I57095*
X499566Y-1208013I40333J6536*
X501282Y-1212780I39732J11608*
X503366Y-1216863I32330J13926*
X505590Y-1219660I11416J6797*
X507032Y-1220865I9644J10066*
X508213Y-1221418I2022J2779*
X509510Y-1221580I1296J5132*
X509708Y-1221575J5294*
X512477Y-1221398I1977J52500*
X517778Y-1220395I2527J27873*
X521347Y-1218445I2645J9079*
X524670Y-1214611I11996J13760*
X529771Y-1206320I174024J112763*
X531395Y-1203285I40561J23658*
X533301Y-1199215I120474J58895*
X535168Y-1194855I130575J58495*
X536695Y-1190865I87470J35752*
G02X538721Y-1185617I103185J36829*
X540680Y-1181465I45291J18837*
X543171Y-1177210I52275J27735*
X546960Y-1171520I178134J114467*
X551695Y-1164878I208668J143813*
X555556Y-1160021I69525J51292*
X558750Y-1156615I38761J33145*
X561298Y-1154750I7880J8097*
X562111Y-1154546I812J1519*
X562660Y-1154635J1723*
X565171Y-1155670I6452J19230*
X569220Y-1157855I27458J55740*
X576910Y-1162440I379354J644836*
G01X584512Y-1167037*
X596913Y-1174537*
X611093Y-1183115*
X625240Y-1191670*
X639623Y-1200370*
X654518Y-1209375*
X667873Y-1217445*
X676815Y-1222843*
X683565Y-1226936*
G02X689511Y-1230580I611884J1004734*
G01X694543Y-1233697*
G02X695711Y-1234506I7562J12168*
X695883Y-1234855I267J349*
X695447Y-1235295I440*
G01X718825Y-1190645D02*
G02X718696Y-1190692I128J150D01*
X718595Y-1190665J197*
G01X703026Y-1181345*
X685811Y-1171000*
X665412Y-1158670*
X644843Y-1146210*
X627070Y-1135448*
X611616Y-1126093*
G03X609521Y-1124835I194285J320990*
G01X606780Y-1123200*
X608733Y-1121640*
G03X619705Y-1112301I142217J178207*
X626562Y-1104881I38597J42546*
X631553Y-1096898I37610J29065*
X636307Y-1085960I107887J53392*
G02X637901Y-1082052I73288J27622*
X639320Y-1079352I20192J8880*
X641015Y-1077020I16194J9988*
X643470Y-1074345I35874J30486*
X645247Y-1072611I55860J55430*
X646867Y-1071148I32350J34193*
X648256Y-1069985I41922J48642*
X648723Y-1069818I467J573*
X649566Y-1070303I1J974*
G01X684246Y-1130070*
X718952Y-1189898*
G02X719032Y-1190195I512J296*
X718825Y-1190645I592*
G01X1349528Y-375311D02*
X1340543Y-407565D01*
X1330578Y-443182*
X1318675Y-485425*
X1306768Y-527663*
X1296785Y-563263*
X1287767Y-595537*
G03X1287758Y-595607I250J70*
X1287835Y-595791I260*
X1288020Y-595868I185J185*
X1288160Y-595827J262*
G01X1307183Y-583742*
X1324798Y-572491*
X1339042Y-563255*
G02X1340143Y-562562I19097J29165*
X1340672Y-562353I885J1467*
X1340698Y-562351I25J120*
X1340820Y-562473J122*
X1340820Y-562491I122*
X1340671Y-562908I1125J163*
X1336350Y-569383I64340J38255*
G01X1304082Y-612631*
X1269918Y-658362*
G02X1269630Y-658506I287J215*
X1269356Y-658380J358*
X1268591Y-657064I3261J2776*
G01X1250193Y-606305*
X1231640Y-555105*
G02X1231615Y-554951I425J154*
X1231756Y-554622I450*
X1231845Y-554587I89J93*
X1231938Y-554626J128*
G01X1237566Y-560460*
G02X1243825Y-566995I927682J894664*
G01X1251213Y-574797*
X1258606Y-582596*
G03X1264876Y-589115I733012J698645*
G01X1270497Y-594903*
G03X1270611Y-594952I113J110*
X1270725Y-594905J160*
X1270976Y-594396I629J627*
G01X1282697Y-508158*
X1294425Y-421866*
G03X1294430Y-421792I544J73*
X1294300Y-421437I549*
X1294233Y-421406I67J57*
X1294191Y-421417J88*
G01X1278610Y-429743*
X1261427Y-438945*
X1241040Y-449898*
X1220643Y-460820*
X1203436Y-469915*
X1187988Y-478011*
G02X1187880Y-478038I107J205*
X1187662Y-477887J232*
X1187588Y-477481I1072J406*
X1187626Y-477186I1147*
G01X1217075Y-366520*
X1245760Y-258751*
G02X1247752Y-252082I112395J29925*
X1248466Y-251540I752J248*
X1254340Y-251303I17450J360418*
X1263043Y-251140I10487J326749*
G01X1278418Y-251097*
X1290051Y-251120*
G02X1299845Y-251185I5868J1584758*
G01X1308635Y-251275*
G02X1308757Y-251397I0J122*
X1308712Y-251635I652*
G01X1298120Y-278740*
X1286430Y-308620*
X1272543Y-344055*
X1258678Y-379490*
X1247052Y-409368*
X1236562Y-436426*
G03X1236545Y-436520I242J94*
X1236621Y-436703I259*
X1236780Y-436770I159J158*
X1236888Y-436742J225*
G01X1253305Y-427752*
X1271478Y-417755*
X1293010Y-405822*
X1314543Y-393893*
X1332726Y-383905*
X1349135Y-374940*
G02X1349260Y-374910I124J227*
X1349442Y-374985J258*
X1349540Y-375221I236J235*
X1349528Y-375311I334*
G37*
G54D10*
G01X-1740036Y-354526D02*
Y-323031D01*
X-1727151*
X-1722856Y-324940*
X-1721425Y-326371*
X-1719993Y-329234*
Y-332098*
X-1721425Y-334961*
X-1722856Y-336870*
X-1727151Y-338301*
X-1740036*
X-1735741Y-714328D02*
X-1737172Y-711465D01*
X-1740036Y-708601*
X-1742422Y-706692*
X-1748148*
X-1750535Y-708601*
X-1753397Y-711465*
X-1754830Y-714328*
X-1755783Y-718622*
Y-726258*
X-1754830Y-730552*
X-1753397Y-733893*
X-1750535Y-736756*
X-1748148Y-738188*
X-1742422*
X-1740036Y-736756*
X-1737172Y-733893*
X-1735741Y-730552*
X-1730015Y-338301D02*
X-1719993Y-354526D01*
X-1714745Y-707170D02*
Y-738188D01*
Y-707170D02*
X-1728105Y-727690D01*
X-1708063*
X-1712358Y-329234D02*
X-1710450Y-327803D01*
X-1708063Y-323508*
Y-354526*
X-1691838Y-707170D02*
X-1696133Y-708601D01*
X-1698996Y-712896*
X-1700428Y-720531*
Y-724826*
X-1698996Y-732461*
X-1696133Y-736756*
X-1691838Y-738188*
X-1688975*
X-1684680Y-736756*
X-1681816Y-732461*
X-1680385Y-724826*
Y-720531*
X-1681816Y-712896*
X-1684680Y-708601*
X-1688975Y-707170*
X-1691838*
Y-323508D02*
X-1696133Y-324940D01*
X-1698996Y-329234*
X-1700428Y-336870*
Y-341165*
X-1698996Y-348800*
X-1696133Y-353095*
X-1691838Y-354526*
X-1688975*
X-1684680Y-353095*
X-1681816Y-348800*
X-1680385Y-341165*
Y-336870*
X-1681816Y-329234*
X-1684680Y-324940*
X-1688975Y-323508*
X-1691838*
X-1689600Y-620233D02*
X-1691032Y-617370D01*
X-1693895Y-614506*
X-1696281Y-612598*
X-1702008*
X-1704395Y-614506*
X-1707257Y-617370*
X-1708688Y-620233*
X-1709643Y-624528*
Y-632163*
X-1708688Y-636458*
X-1707257Y-639798*
X-1704395Y-642662*
X-1702008Y-644093*
X-1696281*
X-1693895Y-642662*
X-1691032Y-639798*
X-1689600Y-636458*
X-1672750Y-329234D02*
X-1670841Y-327803D01*
X-1668455Y-323508*
Y-354526*
X-1669886Y-707170D02*
X-1654140D01*
X-1662728Y-719100*
X-1658433*
X-1655570Y-720531*
X-1654140Y-721963*
X-1652707Y-726258*
Y-729598*
X-1654140Y-733893*
X-1657002Y-736756*
X-1661297Y-738188*
X-1665592*
X-1669886Y-736756*
X-1671318Y-735325*
X-1672750Y-732461*
X-1668603Y-613075D02*
X-1681965Y-633595D01*
X-1661922*
X-1668603Y-613075D02*
Y-644093D01*
X-1645698Y-613075D02*
X-1649992Y-614506D01*
X-1652856Y-618801*
X-1654287Y-626437*
Y-630731*
X-1652856Y-638367*
X-1649992Y-642662*
X-1645698Y-644093*
X-1642835*
X-1638540Y-642662*
X-1635676Y-638367*
X-1634245Y-630731*
Y-626437*
X-1635676Y-618801*
X-1638540Y-614506*
X-1642835Y-613075*
X-1645698*
X-1613248D02*
Y-644093D01*
Y-613075D02*
X-1626610Y-633595D01*
X-1606567*
X-1602741Y-1176575D02*
Y-1208070D01*
X-1582700*
X-1582676Y-545826D02*
Y-569686D01*
X-1584585Y-574458*
X-1586971Y-575890*
X-1590788Y-577322*
X-1595083*
X-1598901Y-575890*
X-1600810Y-574458*
X-1602720Y-569686*
Y-566823*
X-1575041Y-552030D02*
X-1573132Y-550598D01*
X-1570746Y-546303*
Y-577322*
X-1561702Y-1177051D02*
Y-1208070D01*
Y-1177051D02*
X-1575063Y-1197571D01*
X-1555021*
X-1554521Y-546303D02*
X-1558816Y-547735D01*
X-1561680Y-552030*
X-1563110Y-559665*
Y-563960*
X-1561680Y-571595*
X-1558816Y-575890*
X-1554521Y-577322*
X-1551658*
X-1547363Y-575890*
X-1544500Y-571595*
X-1543068Y-563960*
Y-559665*
X-1544500Y-552030*
X-1547363Y-547735*
X-1551658Y-546303*
X-1554521*
X-1538796Y-1177051D02*
X-1543091Y-1178483D01*
X-1545955Y-1182778*
X-1547385Y-1190413*
Y-1194708*
X-1545955Y-1202343*
X-1543091Y-1206638*
X-1538796Y-1208070*
X-1535933*
X-1531638Y-1206638*
X-1528775Y-1202343*
X-1527343Y-1194708*
Y-1190413*
X-1528775Y-1182778*
X-1531638Y-1178483*
X-1535933Y-1177051*
X-1538796*
X-1535433Y-552030D02*
X-1533525Y-550598D01*
X-1531138Y-546303*
Y-577322*
X-1511118Y-1177051D02*
X-1515413Y-1178483D01*
X-1518276Y-1182778*
X-1519708Y-1190413*
Y-1194708*
X-1518276Y-1202343*
X-1515413Y-1206638*
X-1511118Y-1208070*
X-1508255*
X-1503960Y-1206638*
X-1501097Y-1202343*
X-1499665Y-1194708*
Y-1190413*
X-1501097Y-1182778*
X-1503960Y-1178483*
X-1508255Y-1177051*
X-1511118*
X-1462096Y-90945D02*
X-1464482Y-92853D01*
X-1466868Y-95716*
X-1468300Y-98580*
X-1469255Y-102875*
Y-110510*
X-1468300Y-114805*
X-1466868Y-118145*
X-1464482Y-121008*
X-1462096Y-122440*
X-1456846*
X-1454460Y-121008*
X-1451597Y-118145*
X-1450643Y-114805*
X-1449211Y-110510*
Y-102875*
X-1450643Y-98580*
X-1451597Y-95716*
X-1454460Y-92853*
X-1456846Y-90945*
X-1462096*
X-1457801Y-116713D02*
X-1450643Y-125303D01*
X-1448388Y-446227D02*
Y-414731D01*
X-1435503*
X-1431208Y-416640*
X-1429777Y-418072*
X-1428345Y-420935*
Y-423798*
X-1429777Y-426661*
X-1431208Y-428570*
X-1435503Y-430002*
X-1448388*
X-1438366D02*
X-1428345Y-446227D01*
X-1433892Y-1195233D02*
X-1435323Y-1192370D01*
X-1438187Y-1189507*
X-1440573Y-1187598*
X-1446300*
X-1448685Y-1189507*
X-1451548Y-1192370*
X-1452980Y-1195233*
X-1453935Y-1199528*
Y-1207163*
X-1452980Y-1211458*
X-1451548Y-1214798*
X-1448685Y-1217662*
X-1446300Y-1219093*
X-1440573*
X-1438187Y-1217662*
X-1435323Y-1214798*
X-1433892Y-1211458*
X-1422965Y-95716D02*
X-1424396Y-92853D01*
X-1429168Y-91421*
X-1432510*
X-1437281Y-92853*
X-1440145Y-97148*
X-1441576Y-104783*
Y-111941*
X-1440145Y-118145*
X-1437281Y-121008*
X-1432510Y-122440*
X-1431077*
X-1426305Y-121008*
X-1422965Y-118145*
X-1421533Y-113850*
Y-111941*
X-1422965Y-107646*
X-1426305Y-104783*
X-1431077Y-103351*
X-1432510*
X-1437281Y-104783*
X-1440145Y-107646*
X-1441576Y-111941*
X-1421800Y-343865D02*
Y-312370D01*
X-1408915*
X-1404620Y-314278*
X-1403188Y-315710*
X-1401757Y-318573*
Y-321436*
X-1403188Y-324300*
X-1404620Y-326208*
X-1408915Y-327640*
X-1421800*
X-1420710Y-420935D02*
X-1418801Y-419503D01*
X-1416415Y-415208*
Y-446227*
X-1412895Y-1188075D02*
Y-1219093D01*
Y-1188075D02*
X-1426256Y-1208595D01*
X-1406215*
X-1411778Y-327640D02*
X-1401757Y-343865D01*
X-1405308Y-91421D02*
X-1409603Y-92853D01*
X-1412466Y-97148*
X-1413898Y-104783*
Y-109078*
X-1412466Y-116713*
X-1409603Y-121008*
X-1405308Y-122440*
X-1402445*
X-1398150Y-121008*
X-1395287Y-116713*
X-1393855Y-109078*
Y-104783*
X-1395287Y-97148*
X-1398150Y-92853*
X-1402445Y-91421*
X-1405308*
X-1400190Y-415208D02*
X-1404485Y-416640D01*
X-1407348Y-420935*
X-1408780Y-428570*
Y-432865*
X-1407348Y-440500*
X-1404485Y-444795*
X-1400190Y-446227*
X-1397327*
X-1393032Y-444795*
X-1390170Y-440500*
X-1388737Y-432865*
Y-428570*
X-1390170Y-420935*
X-1393032Y-416640*
X-1397327Y-415208*
X-1400190*
X-1389990Y-1188075D02*
X-1394285Y-1189507D01*
X-1397147Y-1193801*
X-1398580Y-1201437*
Y-1205731*
X-1397147Y-1213367*
X-1394285Y-1217662*
X-1389990Y-1219093*
X-1387126*
X-1382831Y-1217662*
X-1379968Y-1213367*
X-1378536Y-1205731*
Y-1201437*
X-1379968Y-1193801*
X-1382831Y-1189507*
X-1387126Y-1188075*
X-1389990*
X-1379670Y-422366D02*
Y-420935D01*
X-1378240Y-418072*
X-1376807Y-416640*
X-1373945Y-414731*
X-1368217*
X-1365355Y-416640*
X-1363922Y-418072*
X-1362491Y-420935*
Y-423798*
X-1363922Y-426661*
X-1366786Y-431433*
X-1381102Y-446227*
X-1361060*
X-1378571Y-629288D02*
X-1380002Y-626425D01*
X-1382866Y-623562*
X-1385252Y-621653*
X-1390978*
X-1393365Y-623562*
X-1396227Y-626425*
X-1397660Y-629288*
X-1398613Y-633583*
Y-641218*
X-1397660Y-645513*
X-1396227Y-648853*
X-1393365Y-651717*
X-1390978Y-653148*
X-1385252*
X-1382866Y-651717*
X-1380002Y-648853*
X-1378571Y-645513*
X-1377630Y-91421D02*
X-1381925Y-92853D01*
X-1384788Y-97148*
X-1386220Y-104783*
Y-109078*
X-1384788Y-116713*
X-1381925Y-121008*
X-1377630Y-122440*
X-1374767*
X-1370472Y-121008*
X-1367610Y-116713*
X-1366177Y-109078*
Y-104783*
X-1367610Y-97148*
X-1370472Y-92853*
X-1374767Y-91421*
X-1377630*
X-1375511Y-317141D02*
X-1376942Y-314278D01*
X-1381715Y-312846*
X-1385055*
X-1389827Y-314278*
X-1392690Y-318573*
X-1394122Y-326208*
Y-333366*
X-1392690Y-339570*
X-1389827Y-342433*
X-1385055Y-343865*
X-1383623*
X-1378851Y-342433*
X-1375511Y-339570*
X-1374080Y-335275*
Y-333366*
X-1375511Y-329071*
X-1378851Y-326208*
X-1383623Y-324776*
X-1385055*
X-1389827Y-326208*
X-1392690Y-329071*
X-1394122Y-333366*
X-1362311Y-1188075D02*
X-1366606Y-1189507D01*
X-1369470Y-1193801*
X-1370901Y-1201437*
Y-1205731*
X-1369470Y-1213367*
X-1366606Y-1217662*
X-1362311Y-1219093*
X-1359448*
X-1355153Y-1217662*
X-1352290Y-1213367*
X-1350858Y-1205731*
Y-1201437*
X-1352290Y-1193801*
X-1355153Y-1189507*
X-1359448Y-1188075*
X-1362311*
X-1357855Y-312846D02*
X-1362150Y-314278D01*
X-1365012Y-318573*
X-1366445Y-326208*
Y-330503*
X-1365012Y-338138*
X-1362150Y-342433*
X-1357855Y-343865*
X-1354991*
X-1350696Y-342433*
X-1347833Y-338138*
X-1346401Y-330503*
Y-326208*
X-1347833Y-318573*
X-1350696Y-314278*
X-1354991Y-312846*
X-1357855*
X-1357575Y-622130D02*
Y-653148D01*
Y-622130D02*
X-1370935Y-642650D01*
X-1350893*
X-1338581Y-1239721D02*
X-1340013Y-1236858D01*
X-1342876Y-1233995*
X-1345262Y-1232086*
X-1350990*
X-1353375Y-1233995*
X-1356238Y-1236858*
X-1357670Y-1239721*
X-1358625Y-1244016*
Y-1251651*
X-1357670Y-1255946*
X-1356238Y-1259287*
X-1353375Y-1262150*
X-1350990Y-1263581*
X-1345262*
X-1342876Y-1262150*
X-1340013Y-1259287*
X-1338581Y-1255946*
X-1334668Y-622130D02*
X-1338963Y-623562D01*
X-1341826Y-627856*
X-1343258Y-635492*
Y-639787*
X-1341826Y-647422*
X-1338963Y-651717*
X-1334668Y-653148*
X-1331805*
X-1327510Y-651717*
X-1324647Y-647422*
X-1323215Y-639787*
Y-635492*
X-1324647Y-627856*
X-1327510Y-623562*
X-1331805Y-622130*
X-1334668*
X-1330176Y-312846D02*
X-1334471Y-314278D01*
X-1337335Y-318573*
X-1338766Y-326208*
Y-330503*
X-1337335Y-338138*
X-1334471Y-342433*
X-1330176Y-343865*
X-1327313*
X-1323018Y-342433*
X-1320155Y-338138*
X-1318723Y-330503*
Y-326208*
X-1320155Y-318573*
X-1323018Y-314278*
X-1327313Y-312846*
X-1330176*
X-1317584Y-1232563D02*
Y-1263581D01*
Y-1232563D02*
X-1330946Y-1253083D01*
X-1310903*
X-1307472Y-993306D02*
Y-1015735D01*
X-1306040Y-1020507*
X-1303177Y-1023370*
X-1298882Y-1024802*
X-1296020*
X-1291725Y-1023370*
X-1288861Y-1020507*
X-1287430Y-1015735*
Y-993306*
X-1298400Y-622130D02*
X-1312716D01*
X-1314148Y-635492*
X-1312716Y-634060*
X-1308422Y-632630*
X-1304127*
X-1299832Y-634060*
X-1296970Y-636923*
X-1295537Y-641218*
Y-644560*
X-1296970Y-648853*
X-1299832Y-651717*
X-1304127Y-653148*
X-1308422*
X-1312716Y-651717*
X-1314148Y-650285*
X-1315580Y-647422*
X-1294678Y-1232563D02*
X-1298973Y-1233995D01*
X-1301836Y-1238290*
X-1303268Y-1245925*
Y-1250220*
X-1301836Y-1257855*
X-1298973Y-1262150*
X-1294678Y-1263581*
X-1291815*
X-1287520Y-1262150*
X-1284657Y-1257855*
X-1283226Y-1250220*
Y-1245925*
X-1284657Y-1238290*
X-1287520Y-1233995*
X-1291815Y-1232563*
X-1294678*
X-1289791Y-671611D02*
X-1291223Y-668748D01*
X-1294086Y-665885*
X-1296472Y-663976*
X-1302200*
X-1304585Y-665885*
X-1307448Y-668748*
X-1308880Y-671611*
X-1309835Y-675906*
Y-683541*
X-1308880Y-687836*
X-1307448Y-691176*
X-1304585Y-694040*
X-1302200Y-695471*
X-1296472*
X-1294086Y-694040*
X-1291223Y-691176*
X-1289791Y-687836*
X-1275590Y-1238290D02*
X-1273681Y-1236858D01*
X-1271295Y-1232563*
Y-1263581*
X-1275088Y-90945D02*
X-1277475Y-92853D01*
X-1279860Y-95716*
X-1281291Y-98580*
X-1282246Y-102875*
Y-110510*
X-1281291Y-114805*
X-1279860Y-118145*
X-1277475Y-121008*
X-1275088Y-122440*
X-1269838*
X-1267452Y-121008*
X-1264590Y-118145*
X-1263635Y-114805*
X-1262203Y-110510*
Y-102875*
X-1263635Y-98580*
X-1264590Y-95716*
X-1267452Y-92853*
X-1269838Y-90945*
X-1275088*
X-1270865Y-1305315D02*
Y-1273818D01*
X-1257980*
X-1253685Y-1275727*
X-1252253Y-1277160*
X-1250821Y-1280022*
Y-1282885*
X-1252253Y-1285748*
X-1253685Y-1287657*
X-1257980Y-1289090*
X-1270865*
X-1270793Y-116713D02*
X-1263635Y-125303D01*
X-1268795Y-664453D02*
X-1282156Y-684973D01*
X-1262113*
X-1268795Y-664453D02*
Y-695471D01*
X-1266432Y-993785D02*
X-1279795Y-1014303D01*
X-1259751*
X-1266432Y-993785D02*
Y-1024802D01*
X-1260842Y-1289090D02*
X-1250821Y-1305315D01*
X-1245888Y-664453D02*
X-1250183Y-665885D01*
X-1253046Y-670180*
X-1254478Y-677815*
Y-682110*
X-1253046Y-689745*
X-1250183Y-694040*
X-1245888Y-695471*
X-1243025*
X-1238730Y-694040*
X-1235867Y-689745*
X-1234435Y-682110*
Y-677815*
X-1235867Y-670180*
X-1238730Y-665885*
X-1243025Y-664453*
X-1245888*
X-1243526Y-993785D02*
X-1247821Y-995215D01*
X-1250685Y-999510*
X-1252116Y-1007145*
Y-1011440*
X-1250685Y-1019075*
X-1247821Y-1023370*
X-1243526Y-1024802*
X-1240663*
X-1236368Y-1023370*
X-1233505Y-1019075*
X-1232073Y-1011440*
Y-1007145*
X-1233505Y-999510*
X-1236368Y-995215*
X-1240663Y-993785*
X-1243526*
X-1235957Y-95716D02*
X-1237390Y-92853D01*
X-1242161Y-91421*
X-1245501*
X-1250273Y-92853*
X-1253136Y-97148*
X-1254568Y-104783*
Y-111941*
X-1253136Y-118145*
X-1250273Y-121008*
X-1245501Y-122440*
X-1244070*
X-1239297Y-121008*
X-1235957Y-118145*
X-1234525Y-113850*
Y-111941*
X-1235957Y-107646*
X-1239297Y-104783*
X-1244070Y-103351*
X-1245501*
X-1250273Y-104783*
X-1253136Y-107646*
X-1254568Y-111941*
X-1235580Y-343865D02*
Y-312370D01*
X-1222695*
X-1218400Y-314278*
X-1216968Y-315710*
X-1215536Y-318573*
Y-321436*
X-1216968Y-324300*
X-1218400Y-326208*
X-1222695Y-327640*
X-1235580*
X-1229825Y-1274295D02*
X-1243186Y-1294815D01*
X-1223143*
X-1229825Y-1274295D02*
Y-1305315D01*
X-1225558Y-327640D02*
X-1215536Y-343865D01*
X-1225370Y-671611D02*
Y-670180D01*
X-1223937Y-667316*
X-1222505Y-665885*
X-1219642Y-663976*
X-1213916*
X-1211052Y-665885*
X-1209621Y-667316*
X-1208190Y-670180*
Y-673043*
X-1209621Y-675906*
X-1212485Y-680678*
X-1226800Y-695471*
X-1206758*
X-1218300Y-91421D02*
X-1222595Y-92853D01*
X-1225458Y-97148*
X-1226890Y-104783*
Y-109078*
X-1225458Y-116713*
X-1222595Y-121008*
X-1218300Y-122440*
X-1215437*
X-1211142Y-121008*
X-1208280Y-116713*
X-1206847Y-109078*
Y-104783*
X-1208280Y-97148*
X-1211142Y-92853*
X-1215437Y-91421*
X-1218300*
X-1215848Y-993785D02*
X-1220143Y-995215D01*
X-1223006Y-999510*
X-1224438Y-1007145*
Y-1011440*
X-1223006Y-1019075*
X-1220143Y-1023370*
X-1215848Y-1024802*
X-1212985*
X-1208690Y-1023370*
X-1205827Y-1019075*
X-1204395Y-1011440*
Y-1007145*
X-1205827Y-999510*
X-1208690Y-995215*
X-1212985Y-993785*
X-1215848*
X-1206918Y-1274295D02*
X-1211213Y-1275727D01*
X-1214076Y-1280022*
X-1215508Y-1287657*
Y-1291952*
X-1214076Y-1299587*
X-1211213Y-1303882*
X-1206918Y-1305315*
X-1204055*
X-1199760Y-1303882*
X-1196897Y-1299587*
X-1195465Y-1291952*
Y-1287657*
X-1196897Y-1280022*
X-1199760Y-1275727*
X-1204055Y-1274295*
X-1206918*
X-1197781Y-98580D02*
Y-97148D01*
X-1196350Y-94285*
X-1194917Y-92853*
X-1192055Y-90945*
X-1186328*
X-1183465Y-92853*
X-1182033Y-94285*
X-1180601Y-97148*
Y-100011*
X-1182033Y-102875*
X-1184896Y-107646*
X-1199212Y-122440*
X-1179170*
X-1193138Y-779527D02*
X-1211840D01*
Y-779526*
X-1193138*
Y-779527*
X-1189290Y-317141D02*
X-1190722Y-314278D01*
X-1195495Y-312846*
X-1198835*
X-1203606Y-314278*
X-1206470Y-318573*
X-1207901Y-326208*
Y-333366*
X-1206470Y-339570*
X-1203606Y-342433*
X-1198835Y-343865*
X-1197403*
X-1192631Y-342433*
X-1189290Y-339570*
X-1187860Y-335275*
Y-333366*
X-1189290Y-329071*
X-1192631Y-326208*
X-1197403Y-324776*
X-1198835*
X-1203606Y-326208*
X-1206470Y-329071*
X-1207901Y-333366*
X-1187830Y-1280022D02*
X-1185921Y-1278590D01*
X-1183535Y-1274295*
Y-1305315*
X-1171635Y-312846D02*
X-1175928Y-314278D01*
X-1178792Y-318573*
X-1180223Y-326208*
Y-330503*
X-1178792Y-338138*
X-1175928Y-342433*
X-1171635Y-343865*
X-1168770*
X-1164476Y-342433*
X-1161612Y-338138*
X-1160181Y-330503*
Y-326208*
X-1161612Y-318573*
X-1164476Y-314278*
X-1168770Y-312846*
X-1171635*
X-1151115Y-320005D02*
Y-318573D01*
X-1149682Y-315710*
X-1148250Y-314278*
X-1145387Y-312370*
X-1139661*
X-1136798Y-314278*
X-1135366Y-315710*
X-1133935Y-318573*
Y-321436*
X-1135366Y-324300*
X-1138230Y-329071*
X-1152545Y-343865*
X-1132503*
X-1138975Y-1305315D02*
Y-1273818D01*
X-1126090*
X-1121795Y-1275727*
X-1120363Y-1277160*
X-1118931Y-1280022*
Y-1282885*
X-1120363Y-1285748*
X-1121795Y-1287657*
X-1126090Y-1289090*
X-1138975*
Y-1001787D02*
X-1128952D01*
X-1124658Y-1003696*
X-1121795Y-1006560*
X-1120363Y-1009422*
X-1118931Y-1013717*
Y-1021352*
X-1120363Y-1025647*
X-1121795Y-1028987*
X-1124658Y-1031851*
X-1128952Y-1033282*
X-1138975*
Y-1001787*
X-1137576Y-1076542D02*
Y-1045046D01*
X-1124692*
X-1120397Y-1046955*
X-1118965Y-1048387*
X-1117535Y-1051250*
Y-1054113*
X-1118965Y-1056976*
X-1120397Y-1058885*
X-1124692Y-1060317*
X-1137576*
X-1128952Y-1289090D02*
X-1118931Y-1305315D01*
X-1127555Y-1060317D02*
X-1117535Y-1076542D01*
X-1110550Y-456960D02*
Y-425465D01*
X-1097666*
X-1093371Y-427373*
X-1091940Y-428805*
X-1090508Y-431668*
Y-434531*
X-1091940Y-437395*
X-1093371Y-439303*
X-1097666Y-440735*
X-1110550*
X-1100530D02*
X-1090508Y-456960D01*
X-1097935Y-1274295D02*
Y-1305315D01*
Y-1274295D02*
X-1111296Y-1294815D01*
X-1091253*
X-1097935Y-1002265D02*
X-1111296Y-1022785D01*
X-1091253*
X-1097935Y-1002265D02*
Y-1033282D01*
X-1096537Y-1045523D02*
Y-1076542D01*
Y-1045523D02*
X-1109900Y-1066043D01*
X-1089856*
X-1089792Y-779527D02*
X-1108493D01*
Y-779526*
X-1089792*
Y-779527*
X-1075481Y-90945D02*
X-1077867Y-92853D01*
X-1080253Y-95716*
X-1081685Y-98580*
X-1082640Y-102875*
Y-110510*
X-1081685Y-114805*
X-1080253Y-118145*
X-1077867Y-121008*
X-1075481Y-122440*
X-1070232*
X-1067846Y-121008*
X-1064983Y-118145*
X-1064028Y-114805*
X-1062597Y-110510*
Y-102875*
X-1064028Y-98580*
X-1064983Y-95716*
X-1067846Y-92853*
X-1070232Y-90945*
X-1075481*
X-1075028Y-1274295D02*
X-1079323Y-1275727D01*
X-1082186Y-1280022*
X-1083618Y-1287657*
Y-1291952*
X-1082186Y-1299587*
X-1079323Y-1303882*
X-1075028Y-1305315*
X-1072165*
X-1067870Y-1303882*
X-1065007Y-1299587*
X-1063575Y-1291952*
Y-1287657*
X-1065007Y-1280022*
X-1067870Y-1275727*
X-1072165Y-1274295*
X-1075028*
Y-1002265D02*
X-1079323Y-1003696D01*
X-1082186Y-1007990*
X-1083618Y-1015626*
Y-1019920*
X-1082186Y-1027556*
X-1079323Y-1031851*
X-1075028Y-1033282*
X-1072165*
X-1067870Y-1031851*
X-1065007Y-1027556*
X-1063575Y-1019920*
Y-1015626*
X-1065007Y-1007990*
X-1067870Y-1003696*
X-1072165Y-1002265*
X-1075028*
X-1074760Y-475745D02*
X-1076191Y-472882D01*
X-1079055Y-470018*
X-1081441Y-468110*
X-1087167*
X-1089553Y-470018*
X-1092416Y-472882*
X-1093848Y-475745*
X-1094802Y-480040*
Y-487675*
X-1093848Y-491970*
X-1092416Y-495310*
X-1089553Y-498173*
X-1087167Y-499605*
X-1081441*
X-1079055Y-498173*
X-1076191Y-495310*
X-1074760Y-491970*
X-1073631Y-1045523D02*
X-1077926Y-1046955D01*
X-1080790Y-1051250*
X-1082221Y-1058885*
Y-1063180*
X-1080790Y-1070815*
X-1077926Y-1075110*
X-1073631Y-1076542*
X-1070768*
X-1066473Y-1075110*
X-1063610Y-1070815*
X-1062178Y-1063180*
Y-1058885*
X-1063610Y-1051250*
X-1066473Y-1046955*
X-1070768Y-1045523*
X-1073631*
X-1071187Y-116713D02*
X-1064028Y-125303D01*
X-1065693Y-425941D02*
X-1080010D01*
X-1081441Y-439303*
X-1080010Y-437871*
X-1075715Y-436440*
X-1071420*
X-1067125Y-437871*
X-1064261Y-440735*
X-1062830Y-445030*
Y-448370*
X-1064261Y-452665*
X-1067125Y-455528*
X-1071420Y-456960*
X-1075715*
X-1080010Y-455528*
X-1081441Y-454096*
X-1082872Y-451233*
X-1053077Y-1274295D02*
X-1037330D01*
X-1045920Y-1286225*
X-1041625*
X-1038761Y-1287657*
X-1037330Y-1289090*
X-1035897Y-1293385*
Y-1296725*
X-1037330Y-1301020*
X-1040192Y-1303882*
X-1044487Y-1305315*
X-1048782*
X-1053077Y-1303882*
X-1054508Y-1302450*
X-1055940Y-1299587*
X-1049945Y-468587D02*
X-1064261D01*
X-1065693Y-481948*
X-1064261Y-480517*
X-1059966Y-479085*
X-1055672*
X-1051377Y-480517*
X-1048513Y-483380*
X-1047082Y-487675*
Y-491015*
X-1048513Y-495310*
X-1051377Y-498173*
X-1055672Y-499605*
X-1059966*
X-1064261Y-498173*
X-1065693Y-496742*
X-1067125Y-493880*
X-1047350Y-1002265D02*
X-1051645Y-1003696D01*
X-1054508Y-1007990*
X-1055940Y-1015626*
Y-1019920*
X-1054508Y-1027556*
X-1051645Y-1031851*
X-1047350Y-1033282*
X-1044487*
X-1040192Y-1031851*
X-1037330Y-1027556*
X-1035897Y-1019920*
Y-1015626*
X-1037330Y-1007990*
X-1040192Y-1003696*
X-1044487Y-1002265*
X-1047350*
X-1046605Y-425941D02*
X-1050900Y-427373D01*
X-1053763Y-431668*
X-1055195Y-439303*
Y-443598*
X-1053763Y-451233*
X-1050900Y-455528*
X-1046605Y-456960*
X-1043742*
X-1039447Y-455528*
X-1036583Y-451233*
X-1035152Y-443598*
Y-439303*
X-1036583Y-431668*
X-1039447Y-427373*
X-1043742Y-425941*
X-1046605*
X-1045953Y-1045523D02*
X-1050248Y-1046955D01*
X-1053111Y-1051250*
X-1054543Y-1058885*
Y-1063180*
X-1053111Y-1070815*
X-1050248Y-1075110*
X-1045953Y-1076542*
X-1043090*
X-1038795Y-1075110*
X-1035932Y-1070815*
X-1034500Y-1063180*
Y-1058885*
X-1035932Y-1051250*
X-1038795Y-1046955*
X-1043090Y-1045523*
X-1045953*
X-1036351Y-95716D02*
X-1037782Y-92853D01*
X-1042555Y-91421*
X-1045895*
X-1050667Y-92853*
X-1053530Y-97148*
X-1054962Y-104783*
Y-111941*
X-1053530Y-118145*
X-1050667Y-121008*
X-1045895Y-122440*
X-1044463*
X-1039691Y-121008*
X-1036351Y-118145*
X-1034920Y-113850*
Y-111941*
X-1036351Y-107646*
X-1039691Y-104783*
X-1044463Y-103351*
X-1045895*
X-1050667Y-104783*
X-1053530Y-107646*
X-1054962Y-111941*
X-1030857Y-468587D02*
X-1035152Y-470018D01*
X-1038015Y-474313*
X-1039447Y-481948*
Y-486243*
X-1038015Y-493880*
X-1035152Y-498173*
X-1030857Y-499605*
X-1027995*
X-1023700Y-498173*
X-1020836Y-493880*
X-1019405Y-486243*
Y-481948*
X-1020836Y-474313*
X-1023700Y-470018*
X-1027995Y-468587*
X-1030857*
X-1026085Y-433100D02*
Y-431668D01*
X-1024653Y-428805*
X-1023222Y-427373*
X-1020360Y-425465*
X-1014632*
X-1011770Y-427373*
X-1010337Y-428805*
X-1008906Y-431668*
Y-434531*
X-1010337Y-437395*
X-1013200Y-442166*
X-1027517Y-456960*
X-1007475*
X-1025343Y-1214370D02*
Y-1182873D01*
X-1012458*
X-1008163Y-1184782*
X-1006732Y-1186215*
X-1005300Y-1189077*
Y-1191940*
X-1006732Y-1194803*
X-1008163Y-1196712*
X-1012458Y-1198145*
X-1025343*
X-1023965Y-331825D02*
X-1013943Y-348050D01*
X-1018695Y-91421D02*
X-1022990Y-92853D01*
X-1025852Y-97148*
X-1027285Y-104783*
Y-109078*
X-1025852Y-116713*
X-1022990Y-121008*
X-1018695Y-122440*
X-1015831*
X-1011536Y-121008*
X-1008673Y-116713*
X-1007241Y-109078*
Y-104783*
X-1008673Y-97148*
X-1011536Y-92853*
X-1015831Y-91421*
X-1018695*
X-1015375Y-328484D02*
X-1013943Y-325621D01*
Y-322758*
X-1015375Y-319895*
Y-319895*
X-1016806Y-318463*
X-1021101Y-316555*
X-1033985*
Y-331825*
X-1021101*
X-1016806Y-330393*
X-1015375Y-328484*
X-1015322Y-1198145D02*
X-1005300Y-1214370D01*
X-1013943Y-325621D02*
X-1015375Y-328484D01*
X-1016806Y-330393*
X-1021101Y-331825*
X-1033985*
Y-346262*
X-1033986*
Y-316555*
X-1021101*
X-1016806Y-318463*
X-1015375Y-319895*
X-1013943Y-322757*
Y-322758*
Y-325621*
X-1011770Y-474313D02*
X-1009860Y-472882D01*
X-1007475Y-468587*
Y-499605*
X-987697Y-321326D02*
X-989128Y-318463D01*
X-993900Y-317031*
X-997241*
X-1002013Y-318463*
X-1004876Y-322758*
X-1006308Y-330393*
Y-337551*
X-1004876Y-343755*
X-1002013Y-346618*
X-997241Y-348050*
X-995810*
X-991037Y-346618*
X-987697Y-343755*
X-986265Y-339460*
Y-337551*
X-987697Y-333256*
X-991037Y-330393*
X-995810Y-328961*
X-997241*
X-1002013Y-330393*
X-1004876Y-333256*
X-1006308Y-337551*
X-986245Y-91421D02*
X-999606Y-111941D01*
X-979563*
X-986245Y-91421D02*
Y-122440D01*
X-984303Y-1183350D02*
X-997665Y-1203870D01*
X-977622*
X-984303Y-1183350D02*
Y-1214370D01*
X-970040Y-317031D02*
X-974335Y-318463D01*
X-977198Y-322758*
X-978630Y-330393*
Y-334688*
X-977198Y-342323*
X-974335Y-346618*
X-970040Y-348050*
X-967177*
X-962882Y-346618*
X-960020Y-342323*
X-958587Y-334688*
Y-330393*
X-960020Y-322758*
X-962882Y-318463*
X-967177Y-317031*
X-970040*
X-961397Y-1183350D02*
X-965692Y-1184782D01*
X-968555Y-1189077*
X-969987Y-1196712*
Y-1201007*
X-968555Y-1208642*
X-965692Y-1212937*
X-961397Y-1214370*
X-958535*
X-954240Y-1212937*
X-951376Y-1208642*
X-949945Y-1201007*
Y-1196712*
X-951376Y-1189077*
X-954240Y-1184782*
X-958535Y-1183350*
X-961397*
X-940878Y-1190510D02*
Y-1189077D01*
X-939446Y-1186215*
X-938015Y-1184782*
X-935151Y-1182873*
X-929425*
X-926561Y-1184782*
X-925130Y-1186215*
X-923698Y-1189077*
Y-1191940*
X-925130Y-1194803*
X-927993Y-1199575*
X-942310Y-1214370*
X-922267*
X-937590Y-317031D02*
X-950952Y-337551D01*
X-930910*
X-937590Y-317031D02*
Y-348050D01*
X-876270Y-90945D02*
X-878655Y-92853D01*
X-881041Y-95716*
X-882472Y-98580*
X-883427Y-102875*
Y-110510*
X-882472Y-114805*
X-881041Y-118145*
X-878655Y-121008*
X-876270Y-122440*
X-871020*
X-868633Y-121008*
X-865770Y-118145*
X-864816Y-114805*
X-863385Y-110510*
Y-102875*
X-864816Y-98580*
X-865770Y-95716*
X-868633Y-92853*
X-871020Y-90945*
X-876270*
X-871975Y-116713D02*
X-864816Y-125303D01*
X-837138Y-95716D02*
X-838570Y-92853D01*
X-843342Y-91421*
X-846682*
X-851455Y-92853*
X-854317Y-97148*
X-855750Y-104783*
Y-111941*
X-854317Y-118145*
X-851455Y-121008*
X-846682Y-122440*
X-845250*
X-840478Y-121008*
X-837138Y-118145*
X-835706Y-113850*
Y-111941*
X-837138Y-107646*
X-840478Y-104783*
X-845250Y-103351*
X-846682*
X-851455Y-104783*
X-854317Y-107646*
X-855750Y-111941*
X-837135Y-348050D02*
Y-316555D01*
X-824251*
X-819956Y-318463*
X-818525Y-319895*
X-817093Y-322758*
Y-325621*
X-818525Y-328484*
X-819956Y-330393*
X-824251Y-331825*
X-837135*
X-827115D02*
X-817093Y-348050D01*
X-819481Y-91421D02*
X-823776Y-92853D01*
X-826640Y-97148*
X-828071Y-104783*
Y-109078*
X-826640Y-116713*
X-823776Y-121008*
X-819481Y-122440*
X-816618*
X-812323Y-121008*
X-809460Y-116713*
X-808030Y-109078*
Y-104783*
X-809460Y-97148*
X-812323Y-92853*
X-816618Y-91421*
X-819481*
X-790846Y-321326D02*
X-792278Y-318463D01*
X-797050Y-317031*
X-800390*
X-805162Y-318463*
X-808026Y-322758*
X-809457Y-330393*
Y-337551*
X-808026Y-343755*
X-805162Y-346618*
X-800390Y-348050*
X-798960*
X-794187Y-346618*
X-790846Y-343755*
X-789415Y-339460*
Y-337551*
X-790846Y-333256*
X-794187Y-330393*
X-798960Y-328961*
X-800390*
X-805162Y-330393*
X-808026Y-333256*
X-809457Y-337551*
X-787781Y-532901D02*
X-787783D01*
X-790507Y-531993*
X-790508Y-531992*
X-793371Y-529130*
X-794802Y-524357*
Y-501928*
Y-524357*
X-793370Y-529130*
X-790507Y-531992*
X-787781Y-532901*
X-785986Y-986215D02*
X-773101D01*
X-768807Y-987646*
X-767375Y-989078*
X-765943Y-991941*
Y-996713*
X-767375Y-999576*
X-768807Y-1001008*
X-773101Y-1002440*
X-785986*
Y-970945*
X-773101*
X-768807Y-972853*
X-767375Y-974285*
X-765943Y-977148*
Y-980011*
X-767375Y-982875*
X-768807Y-984783*
X-773101Y-986215*
X-781782Y-95716D02*
X-783215Y-92853D01*
X-787986Y-91421*
X-791326*
X-796098Y-92853*
X-798962Y-97148*
X-800393Y-104783*
Y-111941*
X-798962Y-118145*
X-796098Y-121008*
X-791326Y-122440*
X-789895*
X-785123Y-121008*
X-781782Y-118145*
X-780351Y-113850*
Y-111941*
X-781782Y-107646*
X-785123Y-104783*
X-789895Y-103351*
X-791326*
X-796098Y-104783*
X-798962Y-107646*
X-800393Y-111941*
X-774760Y-446690D02*
X-776191Y-443826D01*
X-779055Y-440963*
X-781440Y-439055*
X-787167*
X-789553Y-440963*
X-792416Y-443826*
X-793848Y-446690*
X-794802Y-450985*
Y-458620*
X-793848Y-462915*
X-792416Y-466255*
X-789553Y-469118*
X-787167Y-470550*
X-781440*
X-779055Y-469118*
X-776191Y-466255*
X-774760Y-462915*
X-774760Y-524357D02*
X-776191Y-529130D01*
X-779055Y-531992*
Y-531993*
X-783240Y-533387*
X-783240*
X-779055Y-531992*
X-776191Y-529130*
X-774760Y-524357*
Y-501928*
X-774760*
Y-524357*
X-773190Y-317031D02*
X-777485Y-318463D01*
X-780348Y-322758*
X-781780Y-330393*
Y-334688*
X-780348Y-342323*
X-777485Y-346618*
X-773190Y-348050*
X-770327*
X-766032Y-346618*
X-763168Y-342323*
X-761737Y-334688*
Y-330393*
X-763168Y-322758*
X-766032Y-318463*
X-770327Y-317031*
X-773190*
X-749945Y-502406D02*
X-764261D01*
X-765693Y-515767*
X-764261Y-514336*
X-759966Y-512905*
X-755671*
X-751376Y-514336*
X-748513Y-517200*
X-747082Y-521495*
Y-524835*
X-748513Y-529130*
X-751376Y-531992*
X-755671Y-533425*
X-759966*
X-764261Y-531992*
X-765693Y-530561*
X-767125Y-527697*
X-749945Y-439532D02*
X-764261D01*
X-765693Y-452893*
X-764261Y-451462*
X-759966Y-450030*
X-755671*
X-751376Y-451462*
X-748513Y-454325*
X-747082Y-458620*
Y-461960*
X-748513Y-466255*
X-751376Y-469118*
X-755671Y-470550*
X-759966*
X-764261Y-469118*
X-765693Y-467687*
X-767125Y-464823*
X-741130Y-971421D02*
X-755445D01*
X-756876Y-984783*
X-755445Y-983351*
X-751150Y-981920*
X-746855*
X-742560Y-983351*
X-739697Y-986215*
X-738265Y-990510*
Y-993850*
X-739697Y-998145*
X-742560Y-1001008*
X-746855Y-1002440*
X-751150*
X-755445Y-1001008*
X-756876Y-999576*
X-758308Y-996713*
X-735491Y-321326D02*
X-736922Y-318463D01*
X-741695Y-317031*
X-745035*
X-749807Y-318463*
X-752670Y-322758*
X-754102Y-330393*
Y-337551*
X-752670Y-343755*
X-749807Y-346618*
X-745035Y-348050*
X-743603*
X-738831Y-346618*
X-735491Y-343755*
X-734060Y-339460*
Y-337551*
X-735491Y-333256*
X-738831Y-330393*
X-743603Y-328961*
X-745035*
X-749807Y-330393*
X-752670Y-333256*
X-754102Y-337551*
X-730857Y-502406D02*
X-735152Y-503837D01*
X-738015Y-508132*
X-739446Y-515767*
Y-520062*
X-738015Y-527697*
X-735152Y-531992*
X-730857Y-533425*
X-727993*
X-723700Y-531992*
X-720835Y-527697*
X-719405Y-520062*
Y-515767*
X-720835Y-508132*
X-723700Y-503837*
X-727993Y-502406*
X-730857*
Y-439532D02*
X-735152Y-440963D01*
X-738015Y-445258*
X-739446Y-452893*
Y-457188*
X-738015Y-464823*
X-735152Y-469118*
X-730857Y-470550*
X-727993*
X-723700Y-469118*
X-720835Y-464823*
X-719405Y-457188*
Y-452893*
X-720835Y-445258*
X-723700Y-440963*
X-727993Y-439532*
X-730857*
X-722040Y-971421D02*
X-726335Y-972853D01*
X-729200Y-977148*
X-730630Y-984783*
Y-989078*
X-729200Y-996713*
X-726335Y-1001008*
X-722040Y-1002440*
X-719177*
X-714882Y-1001008*
X-712020Y-996713*
X-710588Y-989078*
Y-984783*
X-712020Y-977148*
X-714882Y-972853*
X-719177Y-971421*
X-722040*
X-710337Y-446690D02*
Y-445258D01*
X-708905Y-442395*
X-707475Y-440963*
X-704610Y-439055*
X-698885*
X-696021Y-440963*
X-694590Y-442395*
X-693158Y-445258*
Y-448121*
X-694590Y-450985*
X-697452Y-455757*
X-711770Y-470550*
X-691726*
X-703180Y-502406D02*
X-707475Y-503837D01*
X-710337Y-508132*
X-711770Y-515767*
Y-520062*
X-710337Y-527697*
X-707475Y-531992*
X-703180Y-533425*
X-700316*
X-696021Y-531992*
X-693158Y-527697*
X-691726Y-520062*
Y-515767*
X-693158Y-508132*
X-696021Y-503837*
X-700316Y-502406*
X-703180*
X-694363Y-971421D02*
X-698657Y-972853D01*
X-701521Y-977148*
X-702952Y-984783*
Y-989078*
X-701521Y-996713*
X-698657Y-1001008*
X-694363Y-1002440*
X-691500*
X-687205Y-1001008*
X-684341Y-996713*
X-682910Y-989078*
Y-984783*
X-684341Y-977148*
X-687205Y-972853*
X-691500Y-971421*
X-694363*
X-675088Y-90945D02*
X-677475Y-92853D01*
X-679860Y-95716*
X-681291Y-98580*
X-682246Y-102875*
Y-110510*
X-681291Y-114805*
X-679860Y-118145*
X-677475Y-121008*
X-675088Y-122440*
X-669838*
X-667452Y-121008*
X-664590Y-118145*
X-663635Y-114805*
X-662203Y-110510*
Y-102875*
X-663635Y-98580*
X-664590Y-95716*
X-667452Y-92853*
X-669838Y-90945*
X-675088*
X-670793Y-116713D02*
X-663635Y-125303D01*
X-636915Y-663976D02*
Y-695471D01*
X-635957Y-95716D02*
X-637390Y-92853D01*
X-642161Y-91421*
X-645501*
X-650273Y-92853*
X-653136Y-97148*
X-654568Y-104783*
Y-111941*
X-653136Y-118145*
X-650273Y-121008*
X-645501Y-122440*
X-644070*
X-639297Y-121008*
X-635957Y-118145*
X-634525Y-113850*
Y-111941*
X-635957Y-107646*
X-639297Y-104783*
X-644070Y-103351*
X-645501*
X-650273Y-104783*
X-653136Y-107646*
X-654568Y-111941*
X-629280Y-348050D02*
Y-316555D01*
X-616395*
X-612100Y-318463*
X-610670Y-319895*
X-609237Y-322758*
Y-325621*
X-610670Y-328484*
X-612100Y-330393*
X-616395Y-331825*
X-629280*
X-619258D02*
X-609237Y-348050D01*
X-618300Y-91421D02*
X-622595Y-92853D01*
X-625458Y-97148*
X-626890Y-104783*
Y-109078*
X-625458Y-116713*
X-622595Y-121008*
X-618300Y-122440*
X-615437*
X-611142Y-121008*
X-608280Y-116713*
X-606847Y-109078*
Y-104783*
X-608280Y-97148*
X-611142Y-92853*
X-615437Y-91421*
X-618300*
X-609237Y-671611D02*
X-610670Y-668748D01*
X-613532Y-665885*
X-615918Y-663976*
X-621645*
X-624031Y-665885*
X-626895Y-668748*
X-628325Y-671611*
X-629280Y-675906*
Y-683541*
X-628325Y-687836*
X-626895Y-691176*
X-624031Y-694040*
X-621645Y-695471*
X-615918*
X-613532Y-694040*
X-610670Y-691176*
X-609237Y-687836*
X-592055Y-91421D02*
X-596350Y-92853D01*
X-597780Y-95716*
Y-98580*
X-596350Y-101920*
X-593486Y-103351*
X-587760Y-104783*
X-583465Y-106215*
X-580601Y-109078*
X-579170Y-111941*
Y-116713*
X-580601Y-119576*
X-582033Y-121008*
X-586328Y-122440*
X-592055*
X-596350Y-121008*
X-597780Y-119576*
X-599212Y-116713*
Y-111941*
X-597780Y-109078*
X-594917Y-106215*
X-590622Y-104783*
X-584896Y-103351*
X-582033Y-101920*
X-580601Y-98580*
Y-95716*
X-582033Y-92853*
X-586328Y-91421*
X-592055*
X-584423Y-664453D02*
X-598740D01*
X-600170Y-677815*
X-598740Y-676383*
X-594445Y-674951*
X-590150*
X-585855Y-676383*
X-582991Y-679246*
X-581560Y-683541*
Y-686882*
X-582991Y-691176*
X-585855Y-694040*
X-590150Y-695471*
X-594445*
X-598740Y-694040*
X-600170Y-692608*
X-601602Y-689745*
X-582991Y-321326D02*
X-584423Y-318463D01*
X-589195Y-317031*
X-592535*
X-597307Y-318463*
X-600170Y-322758*
X-601602Y-330393*
Y-337551*
X-600170Y-343755*
X-597307Y-346618*
X-592535Y-348050*
X-591103*
X-586331Y-346618*
X-582991Y-343755*
X-581560Y-339460*
Y-337551*
X-582991Y-333256*
X-586331Y-330393*
X-591103Y-328961*
X-592535*
X-597307Y-330393*
X-600170Y-333256*
X-601602Y-337551*
X-565335Y-664453D02*
X-569630Y-665885D01*
X-572492Y-670180*
X-573925Y-677815*
Y-682110*
X-572492Y-689745*
X-569630Y-694040*
X-565335Y-695471*
X-562471*
X-558176Y-694040*
X-555313Y-689745*
X-553882Y-682110*
Y-677815*
X-555313Y-670180*
X-558176Y-665885*
X-562471Y-664453*
X-565335*
Y-317031D02*
X-569630Y-318463D01*
X-572492Y-322758*
X-573925Y-330393*
Y-334688*
X-572492Y-342323*
X-569630Y-346618*
X-565335Y-348050*
X-562471*
X-558176Y-346618*
X-555313Y-342323*
X-553881Y-334688*
Y-330393*
X-555313Y-322758*
X-558176Y-318463*
X-562471Y-317031*
X-565335*
X-539088D02*
X-543383Y-318463D01*
X-544815Y-321326*
Y-324190*
X-543383Y-327530*
X-540520Y-328961*
X-534793Y-330393*
X-530498Y-331825*
X-527635Y-334688*
X-526205Y-337551*
Y-342323*
X-527635Y-345186*
X-529067Y-346618*
X-533362Y-348050*
X-539088*
X-543383Y-346618*
X-544815Y-345186*
X-546246Y-342323*
Y-337551*
X-544815Y-334688*
X-541951Y-331825*
X-537656Y-330393*
X-531930Y-328961*
X-529067Y-327530*
X-527635Y-324190*
Y-321326*
X-529067Y-318463*
X-533362Y-317031*
X-539088*
X-537657Y-664453D02*
X-541951Y-665885D01*
X-544815Y-670180*
X-546246Y-677815*
Y-682110*
X-544815Y-689745*
X-541951Y-694040*
X-537657Y-695471*
X-534793*
X-530498Y-694040*
X-527635Y-689745*
X-526205Y-682110*
Y-677815*
X-527635Y-670180*
X-530498Y-665885*
X-534793Y-664453*
X-537657*
X-486576Y-594258D02*
Y-562763D01*
X-473692*
X-469397Y-564672*
X-467965Y-566103*
X-466535Y-568966*
Y-571830*
X-467965Y-574693*
X-469397Y-576602*
X-473692Y-578033*
X-486576*
X-476555D02*
X-466535Y-594258D01*
X-467215Y-90945D02*
X-469600Y-92853D01*
X-471986Y-95716*
X-473418Y-98580*
X-474372Y-102875*
Y-110510*
X-473418Y-114805*
X-471986Y-118145*
X-469600Y-121008*
X-467215Y-122440*
X-461965*
X-459580Y-121008*
X-456715Y-118145*
X-455761Y-114805*
X-454330Y-110510*
Y-102875*
X-455761Y-98580*
X-456715Y-95716*
X-459580Y-92853*
X-461965Y-90945*
X-467215*
X-462920Y-116713D02*
X-455761Y-125303D01*
X-441720Y-563240D02*
X-456035D01*
X-457467Y-576602*
X-456035Y-575170*
X-451740Y-573738*
X-447446*
X-443151Y-575170*
X-440288Y-578033*
X-438856Y-582328*
Y-585670*
X-440288Y-589963*
X-443151Y-592827*
X-447446Y-594258*
X-451740*
X-456035Y-592827*
X-457467Y-591395*
X-458900Y-588532*
X-428475Y-348050D02*
Y-316555D01*
X-415590*
X-411295Y-318463*
X-409863Y-319895*
X-408431Y-322758*
Y-325621*
X-409863Y-328484*
X-411295Y-330393*
X-415590Y-331825*
X-428475*
X-428083Y-95716D02*
X-429515Y-92853D01*
X-434287Y-91421*
X-437627*
X-442400Y-92853*
X-445262Y-97148*
X-446695Y-104783*
Y-111941*
X-445262Y-118145*
X-442400Y-121008*
X-437627Y-122440*
X-436196*
X-431423Y-121008*
X-428083Y-118145*
X-426651Y-113850*
Y-111941*
X-428083Y-107646*
X-431423Y-104783*
X-436196Y-103351*
X-437627*
X-442400Y-104783*
X-445262Y-107646*
X-446695Y-111941*
X-422631Y-563240D02*
X-426926Y-564672D01*
X-429790Y-568966*
X-431221Y-576602*
Y-580896*
X-429790Y-588532*
X-426926Y-592827*
X-422631Y-594258*
X-419768*
X-415473Y-592827*
X-412610Y-588532*
X-411178Y-580896*
Y-576602*
X-412610Y-568966*
X-415473Y-564672*
X-419768Y-563240*
X-422631*
X-419016Y-97148D02*
X-417107Y-95716D01*
X-414721Y-91421*
Y-122440*
X-418453Y-331825D02*
X-408431Y-348050D01*
X-398496Y-91421D02*
X-402791Y-92853D01*
X-405655Y-97148*
X-407086Y-104783*
Y-109078*
X-405655Y-116713*
X-402791Y-121008*
X-398496Y-122440*
X-395633*
X-391338Y-121008*
X-388475Y-116713*
X-387043Y-109078*
Y-104783*
X-388475Y-97148*
X-391338Y-92853*
X-395633Y-91421*
X-398496*
X-394953Y-563240D02*
X-399248Y-564672D01*
X-402111Y-568966*
X-403543Y-576602*
Y-580896*
X-402111Y-588532*
X-399248Y-592827*
X-394953Y-594258*
X-392090*
X-387795Y-592827*
X-384932Y-588532*
X-383500Y-580896*
Y-576602*
X-384932Y-568966*
X-387795Y-564672*
X-392090Y-563240*
X-394953*
X-382185Y-321326D02*
X-383617Y-318463D01*
X-388390Y-317031*
X-391730*
X-396501Y-318463*
X-399365Y-322758*
X-400796Y-330393*
Y-337551*
X-399365Y-343755*
X-396501Y-346618*
X-391730Y-348050*
X-390298*
X-385526Y-346618*
X-382185Y-343755*
X-380753Y-339460*
Y-337551*
X-382185Y-333256*
X-385526Y-330393*
X-390298Y-328961*
X-391730*
X-396501Y-330393*
X-399365Y-333256*
X-400796Y-337551*
X-373118Y-322758D02*
X-371210Y-321326D01*
X-368823Y-317031*
Y-348050*
X-352598Y-317031D02*
X-356893Y-318463D01*
X-359756Y-322758*
X-361188Y-330393*
Y-334688*
X-359756Y-342323*
X-356893Y-346618*
X-352598Y-348050*
X-349735*
X-345440Y-346618*
X-342577Y-342323*
X-341145Y-334688*
Y-330393*
X-342577Y-322758*
X-345440Y-318463*
X-349735Y-317031*
X-352598*
X-266820Y-90945D02*
X-269206Y-92853D01*
X-271592Y-95716*
X-273025Y-98580*
X-273978Y-102875*
Y-110510*
X-273025Y-114805*
X-271592Y-118145*
X-269206Y-121008*
X-266820Y-122440*
X-261571*
X-259185Y-121008*
X-256322Y-118145*
X-255367Y-114805*
X-253936Y-110510*
Y-102875*
X-255367Y-98580*
X-256322Y-95716*
X-259185Y-92853*
X-261571Y-90945*
X-266820*
X-262525Y-116713D02*
X-255367Y-125303D01*
X-227690Y-95716D02*
X-229121Y-92853D01*
X-233893Y-91421*
X-237233*
X-242005Y-92853*
X-244870Y-97148*
X-246300Y-104783*
Y-111941*
X-244870Y-118145*
X-242005Y-121008*
X-237233Y-122440*
X-235802*
X-231030Y-121008*
X-227690Y-118145*
X-226258Y-113850*
Y-111941*
X-227690Y-107646*
X-231030Y-104783*
X-235802Y-103351*
X-237233*
X-242005Y-104783*
X-244870Y-107646*
X-246300Y-111941*
X-227311Y-348050D02*
Y-316555D01*
X-214427*
X-210132Y-318463*
X-208700Y-319895*
X-207270Y-322758*
Y-325621*
X-208700Y-328484*
X-210132Y-330393*
X-214427Y-331825*
X-227311*
X-218622Y-97148D02*
X-216715Y-95716D01*
X-214328Y-91421*
Y-122440*
X-217290Y-331825D02*
X-207270Y-348050D01*
X-205261Y-98580D02*
Y-97148D01*
X-203830Y-94285*
X-202397Y-92853*
X-199535Y-90945*
X-193808*
X-190945Y-92853*
X-189513Y-94285*
X-188081Y-97148*
Y-100011*
X-189513Y-102875*
X-192376Y-107646*
X-206692Y-122440*
X-186650*
X-181023Y-321326D02*
X-182455Y-318463D01*
X-187226Y-317031*
X-190567*
X-195340Y-318463*
X-198202Y-322758*
X-199635Y-330393*
Y-337551*
X-198202Y-343755*
X-195340Y-346618*
X-190567Y-348050*
X-189135*
X-184363Y-346618*
X-181023Y-343755*
X-179591Y-339460*
Y-337551*
X-181023Y-333256*
X-184363Y-330393*
X-189135Y-328961*
X-190567*
X-195340Y-330393*
X-198202Y-333256*
X-199635Y-337551*
X-171956Y-322758D02*
X-170047Y-321326D01*
X-167661Y-317031*
Y-348050*
X-169290Y-678895D02*
X-170721Y-676031D01*
X-173585Y-673168*
X-175971Y-671260*
X-181697*
X-184083Y-673168*
X-186946Y-676031*
X-188378Y-678895*
X-189332Y-683190*
Y-690825*
X-188378Y-695120*
X-186946Y-698460*
X-184083Y-701323*
X-181697Y-702755*
X-175971*
X-173585Y-701323*
X-170721Y-698460*
X-169290Y-695120*
X-158595Y-324190D02*
Y-322758D01*
X-157162Y-319895*
X-155731Y-318463*
X-152867Y-316555*
X-147141*
X-144278Y-318463*
X-142846Y-319895*
X-141415Y-322758*
Y-325621*
X-142846Y-328484*
X-145710Y-333256*
X-160026Y-348050*
X-139983*
X-144475Y-671736D02*
X-158791D01*
X-160223Y-685098*
X-158791Y-683666*
X-154496Y-682235*
X-150202*
X-145907Y-683666*
X-143043Y-686530*
X-141612Y-690825*
Y-694165*
X-143043Y-698460*
X-145907Y-701323*
X-150202Y-702755*
X-154496*
X-158791Y-701323*
X-160223Y-699891*
X-161655Y-697028*
X-125387Y-671736D02*
X-129682Y-673168D01*
X-132545Y-677463*
X-133977Y-685098*
Y-689393*
X-132545Y-697028*
X-129682Y-701323*
X-125387Y-702755*
X-122525*
X-118230Y-701323*
X-115366Y-697028*
X-113935Y-689393*
Y-685098*
X-115366Y-677463*
X-118230Y-673168*
X-122525Y-671736*
X-125387*
X-97710D02*
X-102005Y-673168D01*
X-104867Y-677463*
X-106300Y-685098*
Y-689393*
X-104867Y-697028*
X-102005Y-701323*
X-97710Y-702755*
X-94846*
X-90551Y-701323*
X-87688Y-697028*
X-86256Y-689393*
Y-685098*
X-87688Y-677463*
X-90551Y-673168*
X-94846Y-671736*
X-97710*
X-67608Y-90945D02*
X-69995Y-92853D01*
X-72380Y-95716*
X-73811Y-98580*
X-74766Y-102875*
Y-110510*
X-73811Y-114805*
X-72380Y-118145*
X-69995Y-121008*
X-67608Y-122440*
X-62358*
X-59972Y-121008*
X-57110Y-118145*
X-56155Y-114805*
X-54723Y-110510*
Y-102875*
X-56155Y-98580*
X-57110Y-95716*
X-59972Y-92853*
X-62358Y-90945*
X-67608*
X-66522Y-440735D02*
X-56500Y-456960D01*
X-63313Y-116713D02*
X-56155Y-125303D01*
X-57932Y-437395D02*
X-56501Y-434531D01*
Y-431668*
X-57932Y-428805*
X-59365Y-427373*
X-63660Y-425465*
X-76543*
Y-440735*
X-63660*
X-59365Y-439303*
X-57932Y-437395*
X-56500Y-503883D02*
X-57932Y-507225D01*
X-60795Y-510087*
X-63181Y-511520*
X-68908*
X-71295Y-510087*
X-74157Y-507225*
X-75590Y-503883*
X-76543Y-499590*
Y-491953*
X-76341Y-491045*
X-76543Y-491953*
Y-499590*
X-75588Y-503883*
X-74157Y-507225*
X-71295Y-510087*
X-68908Y-511518*
X-63181*
X-60795Y-510087*
X-57932Y-507225*
X-56501Y-503883*
X-56500*
Y-487658D02*
Y-487660D01*
X-56501*
X-57932Y-484795*
X-60795Y-481932*
X-61873Y-481070*
X-60795Y-481932*
X-57932Y-484795*
X-56500Y-487658*
Y-434531D02*
X-57932Y-437395D01*
X-59363Y-439303*
X-59365*
X-63658Y-440735*
X-76543*
Y-455393*
Y-425465*
X-63658*
X-59365Y-427372*
X-59363*
X-57932Y-428805*
X-56500Y-431667*
Y-431668*
Y-434531*
X-48455Y-506612D02*
X-48456D01*
X-48865Y-505792*
X-48455Y-506612*
X-33642Y-331825D02*
X-23621Y-348050D01*
X-31686Y-425941D02*
X-46002D01*
X-47433Y-439303*
X-46002Y-437871*
X-41707Y-436440*
X-37412*
X-33117Y-437871*
X-30255Y-440735*
X-28823Y-445030*
Y-448370*
X-30255Y-452665*
X-33117Y-455528*
X-37412Y-456960*
X-41707*
X-46002Y-455528*
X-47433Y-454096*
X-48865Y-451233*
X-28822Y-502930D02*
X-30255Y-507225D01*
X-32271Y-509241*
Y-509240*
X-30255Y-507225*
X-28823Y-502930*
Y-499590*
X-30255Y-495295*
X-33118Y-492431*
X-37412Y-491000*
X-41707*
X-46002Y-492431*
X-47433Y-493862*
X-47435*
X-46002Y-480500*
X-31686*
Y-480501*
X-46002*
X-47433Y-493862*
X-46002Y-492430*
X-41707Y-491000*
X-37412*
X-33117Y-492430*
X-30255Y-495295*
X-28822Y-499590*
Y-502930*
X-28477Y-95716D02*
X-29908Y-92853D01*
X-34680Y-91421*
X-38021*
X-42793Y-92853*
X-45656Y-97148*
X-47088Y-104783*
Y-111941*
X-45656Y-118145*
X-42793Y-121008*
X-38021Y-122440*
X-36590*
X-31817Y-121008*
X-28477Y-118145*
X-27045Y-113850*
Y-111941*
X-28477Y-107646*
X-31817Y-104783*
X-36590Y-103351*
X-38021*
X-42793Y-104783*
X-45656Y-107646*
X-47088Y-111941*
X-25052Y-328484D02*
X-23621Y-325621D01*
Y-322758*
X-25052Y-319895*
Y-319895*
X-26485Y-318463*
X-30780Y-316555*
X-43663*
Y-331825*
X-30780*
X-26485Y-330393*
X-25052Y-328484*
X-23620Y-325621D02*
X-25052Y-328484D01*
X-26485Y-330393*
X-30780Y-331825*
X-43663*
Y-343138*
Y-316555*
X-30780*
X-26485Y-318463*
X-25052Y-319895*
X-23620Y-322757*
Y-322758*
Y-325621*
X-19410Y-97148D02*
X-17501Y-95716D01*
X-15115Y-91421*
Y-122440*
X-12598Y-480500D02*
X-16892Y-481932D01*
X-19756Y-486227*
X-21187Y-493862*
Y-498157*
X-19756Y-505792*
X-16892Y-510087*
X-12598Y-511520*
X-9735*
X-5440Y-510087*
X-2576Y-505792*
X-1145Y-498157*
Y-493862*
X-2576Y-486227*
X-5440Y-481932*
X-9735Y-480500*
X-12598*
Y-425941D02*
X-16892Y-427373D01*
X-19756Y-431668*
X-21187Y-439303*
Y-443598*
X-19756Y-451233*
X-16892Y-455528*
X-12598Y-456960*
X-9735*
X-5440Y-455528*
X-2576Y-451233*
X-1145Y-443598*
Y-439303*
X-2576Y-431668*
X-5440Y-427373*
X-9735Y-425941*
X-12598*
X2625Y-321326D02*
X1192Y-318463D01*
X-3578Y-317031*
X-6918*
X-11690Y-318463*
X-14555Y-322758*
X-15985Y-330393*
Y-337551*
X-14555Y-343755*
X-11690Y-346618*
X-6918Y-348050*
X-5487*
X-715Y-346618*
X2625Y-343755*
X4055Y-339460*
Y-337551*
X2625Y-333256*
X-715Y-330393*
X-5487Y-328961*
X-6918*
X-11690Y-330393*
X-14555Y-333256*
X-15985Y-337551*
X5880Y-91421D02*
Y-122440D01*
Y-91421D02*
X-7480Y-111941D01*
X12561*
X9352Y-480500D02*
X25100D01*
X16510Y-492430*
X20805*
X23668Y-493862*
X25100Y-495295*
X26531Y-499590*
Y-502930*
X25100Y-507225*
X22236Y-510087*
X17941Y-511520*
X13647*
X9352Y-510087*
X7920Y-508655*
X6490Y-505792*
X9352Y-425941D02*
X25100D01*
X16510Y-437871*
X20805*
X23668Y-439303*
X25100Y-440735*
X26531Y-445030*
Y-448370*
X25100Y-452665*
X22236Y-455528*
X17942Y-456960*
X13647*
X9352Y-455528*
X7920Y-454096*
X6490Y-451233*
X11691Y-322758D02*
X13600Y-321326D01*
X15985Y-317031*
Y-348050*
X36983Y-327922D02*
X36982D01*
Y-317032*
X23621Y-337551*
X32640*
X23621*
X23620*
X36982Y-317031*
X36983*
Y-327922*
X131603Y-90945D02*
X129217Y-92853D01*
X126831Y-95716*
X125400Y-98580*
X124445Y-102875*
Y-110510*
X125400Y-114805*
X126831Y-118145*
X129217Y-121008*
X131603Y-122440*
X136852*
X139238Y-121008*
X142102Y-118145*
X143056Y-114805*
X144488Y-110510*
Y-102875*
X143056Y-98580*
X142102Y-95716*
X139238Y-92853*
X136852Y-90945*
X131603*
X135898Y-116713D02*
X143056Y-125303D01*
X163238Y-348050D02*
Y-316555D01*
X176122*
X180417Y-318463*
X181850Y-319895*
X183280Y-322758*
Y-325621*
X181850Y-328484*
X180417Y-330393*
X176122Y-331825*
X163238*
X170735Y-95716D02*
X169302Y-92853D01*
X164530Y-91421*
X161190*
X156418Y-92853*
X153555Y-97148*
X152123Y-104783*
Y-111941*
X153555Y-118145*
X156418Y-121008*
X161190Y-122440*
X162621*
X167393Y-121008*
X170735Y-118145*
X172165Y-113850*
Y-111941*
X170735Y-107646*
X167393Y-104783*
X162621Y-103351*
X161190*
X156418Y-104783*
X153555Y-107646*
X152123Y-111941*
X173260Y-331825D02*
X183280Y-348050D01*
X179801Y-97148D02*
X181710Y-95716D01*
X184096Y-91421*
Y-122440*
X209527Y-321326D02*
X208095Y-318463D01*
X203323Y-317031*
X199983*
X195210Y-318463*
X192347Y-322758*
X190916Y-330393*
Y-337551*
X192347Y-343755*
X195210Y-346618*
X199983Y-348050*
X201415*
X206186Y-346618*
X209527Y-343755*
X210958Y-339460*
Y-337551*
X209527Y-333256*
X206186Y-330393*
X201415Y-328961*
X199983*
X195210Y-330393*
X192347Y-333256*
X190916Y-337551*
X210342Y-95716D02*
X208910Y-92853D01*
X204138Y-91421*
X200798*
X196026Y-92853*
X193163Y-97148*
X191731Y-104783*
Y-111941*
X193163Y-118145*
X196026Y-121008*
X200798Y-122440*
X202230*
X207001Y-121008*
X210342Y-118145*
X211773Y-113850*
Y-111941*
X210342Y-107646*
X207001Y-104783*
X202230Y-103351*
X200798*
X196026Y-104783*
X193163Y-107646*
X191731Y-111941*
X218595Y-322758D02*
X220502Y-321326D01*
X222888Y-317031*
Y-348050*
X219685Y-762991D02*
Y-786852D01*
X217776Y-791625*
X215390Y-793055*
X211572Y-794487*
X207277*
X203460Y-793055*
X201551Y-791625*
X199642Y-786852*
Y-783988*
X227320Y-769195D02*
X229230Y-767763D01*
X231615Y-763470*
Y-794487*
X247840Y-763470D02*
X243545Y-764900D01*
X240681Y-769195*
X239250Y-776830*
Y-781125*
X240681Y-788760*
X243545Y-793055*
X247840Y-794487*
X250703*
X254998Y-793055*
X257861Y-788760*
X259292Y-781125*
Y-776830*
X257861Y-769195*
X254998Y-764900*
X250703Y-763470*
X247840*
X249135Y-321326D02*
X247703Y-318463D01*
X242931Y-317031*
X239591*
X234818Y-318463*
X231955Y-322758*
X230525Y-330393*
Y-337551*
X231955Y-343755*
X234818Y-346618*
X239591Y-348050*
X241022*
X245795Y-346618*
X249135Y-343755*
X250566Y-339460*
Y-337551*
X249135Y-333256*
X245795Y-330393*
X241022Y-328961*
X239591*
X234818Y-330393*
X231955Y-333256*
X230525Y-337551*
X250787Y-446690D02*
X249355Y-443826D01*
X246492Y-440963*
X244106Y-439055*
X238380*
X235995Y-440963*
X233130Y-443826*
X231700Y-446690*
X230745Y-450985*
Y-458620*
X231700Y-462915*
X233130Y-466255*
X235995Y-469118*
X238380Y-470550*
X244106*
X246492Y-469118*
X249355Y-466255*
X250787Y-462915*
Y-684436D02*
X249355Y-689208D01*
X246492Y-692071*
X242197Y-693503*
X239335*
X235040Y-692071*
X232176Y-689208*
X230745Y-684436*
Y-664568*
Y-684436*
X232176Y-689208*
X235040Y-692071*
X239335Y-693502*
X242197*
X246492Y-692071*
X249355Y-689208*
X250787Y-684436*
Y-664277*
Y-684436*
X275517Y-763470D02*
X271223Y-764900D01*
X268360Y-769195*
X266928Y-776830*
Y-781125*
X268360Y-788760*
X271223Y-793055*
X275517Y-794487*
X278381*
X282675Y-793055*
X285540Y-788760*
X286970Y-781125*
Y-776830*
X285540Y-769195*
X282675Y-764900*
X278381Y-763470*
X275517*
X275601Y-662485D02*
X261285D01*
X259855Y-675846*
X261285Y-674415*
X265580Y-672983*
X269875*
X274170Y-674415*
X277033Y-677278*
X278465Y-681573*
Y-684913*
X277033Y-689208*
X274170Y-692071*
X269875Y-693503*
X265580*
X261285Y-692071*
X259855Y-690640*
X258422Y-687776*
X275602Y-439532D02*
X261285D01*
X259855Y-452893*
X261285Y-451462*
X265580Y-450030*
X269875*
X274170Y-451462*
X277033Y-454325*
X278465Y-458620*
Y-461960*
X277033Y-466255*
X274170Y-469118*
X269875Y-470550*
X265580*
X261285Y-469118*
X259855Y-467687*
X258422Y-464823*
X294690Y-662485D02*
X290395Y-663916D01*
X287532Y-668211*
X286100Y-675846*
Y-680141*
X287532Y-687776*
X290395Y-692071*
X294690Y-693503*
X297553*
X301848Y-692071*
X304711Y-687776*
X306143Y-680141*
Y-675846*
X304711Y-668211*
X301848Y-663916*
X297553Y-662485*
X294690*
Y-439532D02*
X290395Y-440963D01*
X287532Y-445258*
X286100Y-452893*
Y-457188*
X287532Y-464823*
X290395Y-469118*
X294690Y-470550*
X297553*
X301848Y-469118*
X304711Y-464823*
X306143Y-457188*
Y-452893*
X304711Y-445258*
X301848Y-440963*
X297553Y-439532*
X294690*
X313778Y-668211D02*
X315687Y-666780D01*
X318073Y-662485*
Y-693503*
X327140Y-439532D02*
Y-470550D01*
Y-439532D02*
X313778Y-460051D01*
X333821*
X332390Y-90945D02*
X330004Y-92853D01*
X327618Y-95716*
X326187Y-98580*
X325232Y-102875*
Y-110510*
X326187Y-114805*
X327618Y-118145*
X330004Y-121008*
X332390Y-122440*
X337640*
X340026Y-121008*
X342890Y-118145*
X343843Y-114805*
X345275Y-110510*
Y-102875*
X343843Y-98580*
X342890Y-95716*
X340026Y-92853*
X337640Y-90945*
X332390*
X336685Y-116713D02*
X343843Y-125303D01*
X371521Y-95716D02*
X370090Y-92853D01*
X365318Y-91421*
X361977*
X357205Y-92853*
X354342Y-97148*
X352910Y-104783*
Y-111941*
X354342Y-118145*
X357205Y-121008*
X361977Y-122440*
X363410*
X368181Y-121008*
X371521Y-118145*
X372953Y-113850*
Y-111941*
X371521Y-107646*
X368181Y-104783*
X363410Y-103351*
X361977*
X357205Y-104783*
X354342Y-107646*
X352910Y-111941*
X377988Y-348050D02*
Y-316555D01*
X390873*
X395168Y-318463*
X396600Y-319895*
X398031Y-322758*
Y-325621*
X396600Y-328484*
X395168Y-330393*
X390873Y-331825*
X377988*
X380588Y-97148D02*
X382497Y-95716D01*
X384883Y-91421*
Y-122440*
X385147Y-429920D02*
X382760Y-431830D01*
X380375Y-434693*
X378943Y-437556*
X377988Y-441851*
Y-449486*
X378943Y-453781*
X380375Y-457121*
X382760Y-459985*
X385147Y-461416*
X390396*
X392782Y-459985*
X395645Y-457121*
X396600Y-453781*
X398031Y-449486*
Y-441851*
X396600Y-437556*
X395645Y-434693*
X392782Y-431830*
X390396Y-429920*
X385147*
X388010Y-331825D02*
X398031Y-348050D01*
X389441Y-455690D02*
X396600Y-464280D01*
X399676Y-91421D02*
X395382Y-92853D01*
X393950Y-95716*
Y-98580*
X395382Y-101920*
X398245Y-103351*
X403971Y-104783*
X408266Y-106215*
X411130Y-109078*
X412561Y-111941*
Y-116713*
X411130Y-119576*
X409698Y-121008*
X405403Y-122440*
X399676*
X395382Y-121008*
X393950Y-119576*
X392518Y-116713*
Y-111941*
X393950Y-109078*
X396813Y-106215*
X401108Y-104783*
X406835Y-103351*
X409698Y-101920*
X411130Y-98580*
Y-95716*
X409698Y-92853*
X405403Y-91421*
X399676*
X424277Y-321326D02*
X422846Y-318463D01*
X418073Y-317031*
X414733*
X409961Y-318463*
X407098Y-322758*
X405666Y-330393*
Y-337551*
X407098Y-343755*
X409961Y-346618*
X414733Y-348050*
X416165*
X420937Y-346618*
X424277Y-343755*
X425710Y-339460*
Y-337551*
X424277Y-333256*
X420937Y-330393*
X416165Y-328961*
X414733*
X409961Y-330393*
X407098Y-333256*
X405666Y-337551*
X424277Y-434693D02*
X422846Y-431830D01*
X418075Y-430398*
X414733*
X409961Y-431830*
X407098Y-436125*
X405666Y-443760*
Y-450918*
X407098Y-457121*
X409961Y-459985*
X414733Y-461416*
X416165*
X420937Y-459985*
X424277Y-457121*
X425710Y-452826*
Y-450918*
X424277Y-446623*
X420937Y-443760*
X416165Y-442328*
X414733*
X409961Y-443760*
X407098Y-446623*
X405666Y-450918*
X424655Y-692322D02*
Y-660826D01*
X437540*
X441835Y-662735*
X443266Y-664166*
X444698Y-667030*
Y-669893*
X443266Y-672756*
X441835Y-674665*
X437540Y-676097*
X424655*
X433345Y-322758D02*
X435253Y-321326D01*
X437640Y-317031*
Y-348050*
X434677Y-676097D02*
X444698Y-692322D01*
X434776Y-437556D02*
Y-436125D01*
X436207Y-433261*
X437640Y-431830*
X440502Y-429920*
X446230*
X449092Y-431830*
X450525Y-433261*
X451955Y-436125*
Y-438987*
X450525Y-441851*
X447660Y-446623*
X433345Y-461416*
X453387*
X452432Y-317031D02*
X448137Y-318463D01*
X446706Y-321326*
Y-324190*
X448137Y-327530*
X451001Y-328961*
X456727Y-330393*
X461022Y-331825*
X463885Y-334688*
X465317Y-337551*
Y-342323*
X463885Y-345186*
X462455Y-346618*
X458160Y-348050*
X452432*
X448137Y-346618*
X446706Y-345186*
X445275Y-342323*
Y-337551*
X446706Y-334688*
X449570Y-331825*
X453865Y-330393*
X459590Y-328961*
X462455Y-327530*
X463885Y-324190*
Y-321326*
X462455Y-318463*
X458160Y-317031*
X452432*
X470945Y-665598D02*
X469512Y-662735D01*
X464740Y-661303*
X461400*
X456628Y-662735*
X453765Y-667030*
X452333Y-674665*
Y-681823*
X453765Y-688027*
X456628Y-690890*
X461400Y-692322*
X462832*
X467605Y-690890*
X470945Y-688027*
X472376Y-683732*
Y-681823*
X470945Y-677528*
X467605Y-674665*
X462832Y-673233*
X461400*
X456628Y-674665*
X453765Y-677528*
X452333Y-681823*
X474385Y-430398D02*
Y-461416D01*
Y-430398D02*
X461022Y-450918D01*
X481065*
X481443Y-668461D02*
Y-667030D01*
X482875Y-664166*
X484306Y-662735*
X487170Y-660826*
X492896*
X495760Y-662735*
X497190Y-664166*
X498622Y-667030*
Y-669893*
X497190Y-672756*
X494327Y-677528*
X480011Y-692322*
X500055*
X521051Y-661303D02*
Y-692322D01*
Y-661303D02*
X507690Y-681823D01*
X527731*
X524910Y-90945D02*
X522525Y-92853D01*
X520138Y-95716*
X518707Y-98580*
X517752Y-102875*
Y-110510*
X518707Y-114805*
X520138Y-118145*
X522525Y-121008*
X524910Y-122440*
X530160*
X532546Y-121008*
X535410Y-118145*
X536363Y-114805*
X537795Y-110510*
Y-102875*
X536363Y-98580*
X535410Y-95716*
X532546Y-92853*
X530160Y-90945*
X524910*
X529205Y-116713D02*
X536363Y-125303D01*
X564041Y-95716D02*
X562610Y-92853D01*
X557837Y-91421*
X554497*
X549725Y-92853*
X546862Y-97148*
X545430Y-104783*
Y-111941*
X546862Y-118145*
X549725Y-121008*
X554497Y-122440*
X555930*
X560701Y-121008*
X564041Y-118145*
X565473Y-113850*
Y-111941*
X564041Y-107646*
X560701Y-104783*
X555930Y-103351*
X554497*
X549725Y-104783*
X546862Y-107646*
X545430Y-111941*
X574540Y-98580D02*
Y-97148D01*
X575971Y-94285*
X577403Y-92853*
X580266Y-90945*
X585993*
X588856Y-92853*
X590287Y-94285*
X591720Y-97148*
Y-100011*
X590287Y-102875*
X587425Y-107646*
X573108Y-122440*
X593151*
X582923Y-348050D02*
Y-316555D01*
X595808*
X600102Y-318463*
X601535Y-319895*
X602966Y-322758*
Y-325621*
X601535Y-328484*
X600102Y-330393*
X595808Y-331825*
X582923*
X583178Y-429920D02*
X580792Y-431830D01*
X578406Y-434693*
X576975Y-437556*
X576020Y-441851*
Y-449486*
X576975Y-453781*
X578406Y-457121*
X580792Y-459985*
X583178Y-461416*
X588427*
X590813Y-459985*
X593677Y-457121*
X594631Y-453781*
X596063Y-449486*
Y-441851*
X594631Y-437556*
X593677Y-434693*
X590813Y-431830*
X588427Y-429920*
X583178*
X587473Y-455690D02*
X594631Y-464280D01*
X592945Y-331825D02*
X602966Y-348050D01*
X609376Y-91421D02*
X605081Y-92853D01*
X602218Y-97148*
X600786Y-104783*
Y-109078*
X602218Y-116713*
X605081Y-121008*
X609376Y-122440*
X612240*
X616535Y-121008*
X619397Y-116713*
X620828Y-109078*
Y-104783*
X619397Y-97148*
X616535Y-92853*
X612240Y-91421*
X609376*
X622310Y-434693D02*
X620877Y-431830D01*
X616105Y-430398*
X612765*
X607993Y-431830*
X605130Y-436125*
X603698Y-443760*
Y-450918*
X605130Y-457121*
X607993Y-459985*
X612765Y-461416*
X614196*
X618968Y-459985*
X622310Y-457121*
X623740Y-452826*
Y-450918*
X622310Y-446623*
X618968Y-443760*
X614196Y-442328*
X612765*
X607993Y-443760*
X605130Y-446623*
X603698Y-450918*
X625443Y-692322D02*
Y-660826D01*
X638327*
X642622Y-662735*
X644055Y-664166*
X645485Y-667030*
Y-669893*
X644055Y-672756*
X642622Y-674665*
X638327Y-676097*
X625443*
X629212Y-321326D02*
X627780Y-318463D01*
X623008Y-317031*
X619668*
X614896Y-318463*
X612032Y-322758*
X610601Y-330393*
Y-337551*
X612032Y-343755*
X614896Y-346618*
X619668Y-348050*
X621100*
X625871Y-346618*
X629212Y-343755*
X630643Y-339460*
Y-337551*
X629212Y-333256*
X625871Y-330393*
X621100Y-328961*
X619668*
X614896Y-330393*
X612032Y-333256*
X610601Y-337551*
X632807Y-437556D02*
Y-436125D01*
X634240Y-433261*
X635671Y-431830*
X638535Y-429920*
X644260*
X647123Y-431830*
X648555Y-433261*
X649987Y-436125*
Y-438987*
X648555Y-441851*
X645692Y-446623*
X631376Y-461416*
X651418*
X635465Y-676097D02*
X645485Y-692322D01*
X639710Y-324190D02*
Y-322758D01*
X641142Y-319895*
X642575Y-318463*
X645437Y-316555*
X651163*
X654026Y-318463*
X655458Y-319895*
X656890Y-322758*
Y-325621*
X655458Y-328484*
X652595Y-333256*
X638280Y-348050*
X658321*
X654156Y-944795D02*
Y-913300D01*
X667041*
X671336Y-915208*
X672767Y-916640*
X674200Y-919502*
Y-922366*
X672767Y-925230*
X671336Y-927138*
X667041Y-928570*
X654156*
X664178D02*
X674200Y-944795D01*
X671731Y-665598D02*
X670300Y-662735D01*
X665528Y-661303*
X662187*
X657415Y-662735*
X654552Y-667030*
X653120Y-674665*
Y-681823*
X654552Y-688027*
X657415Y-690890*
X662187Y-692322*
X663620*
X668391Y-690890*
X671731Y-688027*
X673163Y-683732*
Y-681823*
X671731Y-677528*
X668391Y-674665*
X663620Y-673233*
X662187*
X657415Y-674665*
X654552Y-677528*
X653120Y-681823*
X674546Y-317031D02*
X670251Y-318463D01*
X667388Y-322758*
X665957Y-330393*
Y-334688*
X667388Y-342323*
X670251Y-346618*
X674546Y-348050*
X677410*
X681705Y-346618*
X684568Y-342323*
X686000Y-334688*
Y-330393*
X684568Y-322758*
X681705Y-318463*
X677410Y-317031*
X674546*
X677665Y-434693D02*
X676233Y-431830D01*
X671461Y-430398*
X668120*
X663348Y-431830*
X660485Y-436125*
X659054Y-443760*
Y-450918*
X660485Y-457121*
X663348Y-459985*
X668120Y-461416*
X669552*
X674325Y-459985*
X677665Y-457121*
X679096Y-452826*
Y-450918*
X677665Y-446623*
X674325Y-443760*
X669552Y-442328*
X668120*
X663348Y-443760*
X660485Y-446623*
X659054Y-450918*
X681835Y-919502D02*
X683743Y-918071D01*
X686130Y-913776*
Y-944795*
X682230Y-668461D02*
Y-667030D01*
X683662Y-664166*
X685093Y-662735*
X687956Y-660826*
X693683*
X696546Y-662735*
X697978Y-664166*
X699410Y-667030*
Y-669893*
X697978Y-672756*
X695115Y-677528*
X680798Y-692322*
X700841*
X702355Y-913776D02*
X698060Y-915208D01*
X695196Y-919502*
X693765Y-927138*
Y-931433*
X695196Y-939068*
X698060Y-943363*
X702355Y-944795*
X705217*
X709512Y-943363*
X712375Y-939068*
X713807Y-931433*
Y-927138*
X712375Y-919502*
X709512Y-915208*
X705217Y-913776*
X702355*
X724517Y-90945D02*
X722131Y-92853D01*
X719745Y-95716*
X718313Y-98580*
X717360Y-102875*
Y-110510*
X718313Y-114805*
X719745Y-118145*
X722131Y-121008*
X724517Y-122440*
X729766*
X732152Y-121008*
X735015Y-118145*
X735970Y-114805*
X737401Y-110510*
Y-102875*
X735970Y-98580*
X735015Y-95716*
X732152Y-92853*
X729766Y-90945*
X724517*
X727087Y-665598D02*
X725656Y-662735D01*
X720885Y-661303*
X717543*
X712771Y-662735*
X709908Y-667030*
X708476Y-674665*
Y-681823*
X709908Y-688027*
X712771Y-690890*
X717543Y-692322*
X718975*
X723747Y-690890*
X727087Y-688027*
X728520Y-683732*
Y-681823*
X727087Y-677528*
X723747Y-674665*
X718975Y-673233*
X717543*
X712771Y-674665*
X709908Y-677528*
X708476Y-681823*
X728811Y-116713D02*
X735970Y-125303D01*
X730032Y-913776D02*
X725737Y-915208D01*
X722875Y-919502*
X721442Y-927138*
Y-931433*
X722875Y-939068*
X725737Y-943363*
X730032Y-944795*
X732895*
X737190Y-943363*
X740053Y-939068*
X741485Y-931433*
Y-927138*
X740053Y-919502*
X737190Y-915208*
X732895Y-913776*
X730032*
X763647Y-95716D02*
X762216Y-92853D01*
X757445Y-91421*
X754103*
X749331Y-92853*
X746468Y-97148*
X745036Y-104783*
Y-111941*
X746468Y-118145*
X749331Y-121008*
X754103Y-122440*
X755535*
X760307Y-121008*
X763647Y-118145*
X765080Y-113850*
Y-111941*
X763647Y-107646*
X760307Y-104783*
X755535Y-103351*
X754103*
X749331Y-104783*
X746468Y-107646*
X745036Y-111941*
X767570Y-348050D02*
Y-316555D01*
X780453*
X784748Y-318463*
X786180Y-319895*
X787611Y-322758*
Y-325621*
X786180Y-328484*
X784748Y-330393*
X780453Y-331825*
X767570*
X774146Y-98580D02*
Y-97148D01*
X775578Y-94285*
X777010Y-92853*
X779872Y-90945*
X785600*
X788462Y-92853*
X789895Y-94285*
X791325Y-97148*
Y-100011*
X789895Y-102875*
X787030Y-107646*
X772715Y-122440*
X792757*
X777590Y-331825D02*
X787611Y-348050D01*
X783178Y-429920D02*
X780792Y-431830D01*
X778406Y-434693*
X776975Y-437556*
X776020Y-441851*
Y-449486*
X776975Y-453781*
X778406Y-457121*
X780792Y-459985*
X783178Y-461416*
X788427*
X790813Y-459985*
X793676Y-457121*
X794631Y-453781*
X796063Y-449486*
Y-441851*
X794631Y-437556*
X793676Y-434693*
X790813Y-431830*
X788427Y-429920*
X783178*
X784996Y-840983D02*
Y-809488D01*
X797881*
X802176Y-811396*
X803607Y-812828*
X805040Y-815691*
Y-818555*
X803607Y-821418*
X802176Y-823326*
X797881Y-824758*
X784996*
X787473Y-455690D02*
X794631Y-464280D01*
X795018Y-824758D02*
X805040Y-840983D01*
X801825Y-98580D02*
Y-97148D01*
X803255Y-94285*
X804687Y-92853*
X807550Y-90945*
X813277*
X816140Y-92853*
X817572Y-94285*
X819003Y-97148*
Y-100011*
X817572Y-102875*
X814708Y-107646*
X800392Y-122440*
X820435*
X813857Y-321326D02*
X812426Y-318463D01*
X807655Y-317031*
X804313*
X799541Y-318463*
X796678Y-322758*
X795246Y-330393*
Y-337551*
X796678Y-343755*
X799541Y-346618*
X804313Y-348050*
X805745*
X810517Y-346618*
X813857Y-343755*
X815290Y-339460*
Y-337551*
X813857Y-333256*
X810517Y-330393*
X805745Y-328961*
X804313*
X799541Y-330393*
X796678Y-333256*
X795246Y-337551*
X822310Y-434693D02*
X820877Y-431830D01*
X816105Y-430398*
X812765*
X807993Y-431830*
X805130Y-436125*
X803698Y-443760*
Y-450918*
X805130Y-457121*
X807993Y-459985*
X812765Y-461416*
X814196*
X818968Y-459985*
X822310Y-457121*
X823740Y-452826*
Y-450918*
X822310Y-446623*
X818968Y-443760*
X814196Y-442328*
X812765*
X807993Y-443760*
X805130Y-446623*
X803698Y-450918*
X824356Y-324190D02*
Y-322758D01*
X825788Y-319895*
X827220Y-318463*
X830082Y-316555*
X835810*
X838672Y-318463*
X840105Y-319895*
X841535Y-322758*
Y-325621*
X840105Y-328484*
X837240Y-333256*
X822925Y-348050*
X842967*
X828592Y-677755D02*
Y-646260D01*
X841477*
X845772Y-648168*
X847203Y-649600*
X848635Y-652463*
Y-655326*
X847203Y-658189*
X845772Y-660098*
X841477Y-661530*
X828592*
X829853Y-809965D02*
X815537D01*
X814106Y-823326*
X815537Y-821895*
X819832Y-820463*
X824127*
X828422Y-821895*
X831285Y-824758*
X832717Y-829053*
Y-832393*
X831285Y-836688*
X828422Y-839551*
X824127Y-840983*
X819832*
X815537Y-839551*
X814106Y-838120*
X812675Y-835256*
X832807Y-437556D02*
Y-436125D01*
X834240Y-433261*
X835670Y-431830*
X838535Y-429920*
X844260*
X847123Y-431830*
X848555Y-433261*
X849987Y-436125*
Y-438987*
X848555Y-441851*
X845692Y-446623*
X831376Y-461416*
X851418*
X838613Y-661530D02*
X848635Y-677755D01*
X848942Y-809965D02*
X844647Y-811396D01*
X841785Y-815691*
X840352Y-823326*
Y-827621*
X841785Y-835256*
X844647Y-839551*
X848942Y-840983*
X851805*
X856100Y-839551*
X858963Y-835256*
X860395Y-827621*
Y-823326*
X858963Y-815691*
X856100Y-811396*
X851805Y-809965*
X848942*
X852035Y-324190D02*
Y-322758D01*
X853465Y-319895*
X854897Y-318463*
X857760Y-316555*
X863487*
X866350Y-318463*
X867782Y-319895*
X869213Y-322758*
Y-325621*
X867782Y-328484*
X864918Y-333256*
X850602Y-348050*
X870645*
X866212Y-430398D02*
X861917Y-431830D01*
X860485Y-434693*
Y-437556*
X861917Y-440896*
X864780Y-442328*
X870506Y-443760*
X874801Y-445191*
X877665Y-448055*
X879096Y-450918*
Y-455690*
X877665Y-458553*
X876233Y-459985*
X871938Y-461416*
X866212*
X861917Y-459985*
X860485Y-458553*
X859055Y-455690*
Y-450918*
X860485Y-448055*
X863348Y-445191*
X867643Y-443760*
X873370Y-442328*
X876233Y-440896*
X877665Y-437556*
Y-434693*
X876233Y-431830*
X871938Y-430398*
X866212*
X868030Y-815691D02*
X869940Y-814260D01*
X872325Y-809965*
Y-840983*
X874881Y-651031D02*
X873450Y-648168D01*
X868677Y-646736*
X865337*
X860565Y-648168*
X857702Y-652463*
X856270Y-660098*
Y-667256*
X857702Y-673460*
X860565Y-676323*
X865337Y-677755*
X866770*
X871541Y-676323*
X874881Y-673460*
X876313Y-669165*
Y-667256*
X874881Y-662961*
X871541Y-660098*
X866770Y-658666*
X865337*
X860565Y-660098*
X857702Y-662961*
X856270Y-667256*
X885380Y-653895D02*
Y-652463D01*
X886811Y-649600*
X888243Y-648168*
X891106Y-646260*
X896833*
X899696Y-648168*
X901127Y-649600*
X902560Y-652463*
Y-655326*
X901127Y-658189*
X898265Y-662961*
X883948Y-677755*
X903991*
X918785Y-646736D02*
X914490Y-648168D01*
X913057Y-651031*
Y-653895*
X914490Y-657235*
X917352Y-658666*
X923080Y-660098*
X927375Y-661530*
X930237Y-664393*
X931668Y-667256*
Y-672028*
X930237Y-674891*
X928805Y-676323*
X924510Y-677755*
X918785*
X914490Y-676323*
X913057Y-674891*
X911626Y-672028*
Y-667256*
X913057Y-664393*
X915921Y-661530*
X920216Y-660098*
X925942Y-658666*
X928805Y-657235*
X930237Y-653895*
Y-651031*
X928805Y-648168*
X924510Y-646736*
X918785*
X1118540Y-639763D02*
Y-662192D01*
X1119971Y-666965*
X1122835Y-669827*
X1127130Y-671260*
X1129992*
X1134287Y-669827*
X1137150Y-666965*
X1138582Y-662192*
Y-639763*
X1146217Y-645967D02*
X1148126Y-644535D01*
X1150512Y-640240*
Y-671260*
X1166737Y-640240D02*
X1162442Y-641672D01*
X1159580Y-645967*
X1158148Y-653602*
Y-657897*
X1159580Y-665532*
X1162442Y-669827*
X1166737Y-671260*
X1169600*
X1173895Y-669827*
X1176758Y-665532*
X1178190Y-657897*
Y-653602*
X1176758Y-645967*
X1173895Y-641672*
X1169600Y-640240*
X1166737*
X1194415D02*
X1190120Y-641672D01*
X1187257Y-645967*
X1185825Y-653602*
Y-657897*
X1187257Y-665532*
X1190120Y-669827*
X1194415Y-671260*
X1197278*
X1201573Y-669827*
X1204436Y-665532*
X1205868Y-657897*
Y-653602*
X1204436Y-645967*
X1201573Y-641672*
X1197278Y-640240*
X1194415*
X1588976Y15590D02*
Y-8270D01*
X1587067Y-13041*
X1584681Y-14473*
X1580863Y-15905*
X1576568*
X1572751Y-14473*
X1570842Y-13041*
X1568933Y-8270*
Y-5406*
X1596611Y9386D02*
X1598520Y10817D01*
X1600906Y15112*
Y-15905*
X1610630Y-1071415D02*
X1609198Y-1068551D01*
X1606335Y-1065688*
X1603948Y-1063780*
X1598222*
X1595836Y-1065688*
X1592973Y-1068551*
X1591541Y-1071415*
X1590587Y-1075710*
Y-1083345*
X1591541Y-1087640*
X1592973Y-1090980*
X1595836Y-1093843*
X1598222Y-1095275*
X1603948*
X1606335Y-1093843*
X1609198Y-1090980*
X1610630Y-1087640*
X1617131Y15112D02*
X1612836Y13680D01*
X1609973Y9386*
X1608541Y1750*
Y-2542*
X1609973Y-10178*
X1612836Y-14473*
X1617131Y-15905*
X1619995*
X1624290Y-14473*
X1627152Y-10178*
X1628585Y-2542*
Y1750*
X1627152Y9386*
X1624290Y13680*
X1619995Y15112*
X1617131*
X1618265Y-1069982D02*
X1620173Y-1068551D01*
X1622560Y-1064256*
Y-1095275*
X1637651Y7955D02*
Y9386D01*
X1639082Y12250*
X1640515Y13680*
X1643377Y15590*
X1649105*
X1651967Y13680*
X1653398Y12250*
X1654830Y9386*
Y6522*
X1653398Y3660*
X1650535Y-1111*
X1636220Y-15905*
X1656262*
X1638785Y-1064256D02*
X1634490Y-1065688D01*
X1631626Y-1069982*
X1630195Y-1077618*
Y-1081913*
X1631626Y-1089548*
X1634490Y-1093843*
X1638785Y-1095275*
X1641648*
X1645942Y-1093843*
X1648806Y-1089548*
X1650237Y-1081913*
Y-1077618*
X1648806Y-1069982*
X1645942Y-1065688*
X1641648Y-1064256*
X1638785*
X1666462D02*
X1662168Y-1065688D01*
X1659305Y-1069982*
X1657873Y-1077618*
Y-1081913*
X1659305Y-1089548*
X1662168Y-1093843*
X1666462Y-1095275*
X1669325*
X1673620Y-1093843*
X1676485Y-1089548*
X1677915Y-1081913*
Y-1077618*
X1676485Y-1069982*
X1673620Y-1065688*
X1669325Y-1064256*
X1666462*
G54D11*
X-592125Y-1219181D02*
Y-900037D01*
Y-1219181*
Y-866103D02*
Y-790660D01*
Y-866103*
X-546100Y-749212D02*
X-592125D01*
Y-758945*
Y-749212*
Y-749211*
X-546100*
Y-749212*
X-478605D02*
X-512166D01*
Y-749211*
X-478605*
X-478605Y-749212*
X-451611D02*
X-453677D01*
Y-749211*
X-451612*
X-451611Y-749212*
X-396971Y-1268896D02*
X-396972Y-1268897D01*
X-592125*
Y-1250896*
Y-1250895*
Y-1268896*
X-396971*
X-353688D02*
Y-1268897D01*
X-360530*
X-360531Y-1268896*
X-353688*
X-294131Y-749212D02*
X-417678D01*
Y-749211*
X-294131*
Y-749212*
X-231140D02*
X-260198D01*
X-260197Y-749211*
X-231140*
Y-749212*
X61417Y-1268897D02*
X61416D01*
X-317247*
Y-1268896*
X61416*
Y-749212*
X-197205*
Y-749211*
X61416*
X61417Y-749212*
Y-1268897*
X193425Y-1308110D02*
X293425D01*
Y-808110*
X193425*
Y-1308110*
X1509448Y-934162D02*
X1959055D01*
Y-225500*
X1509448*
Y-934162*
G54D12*
X-1651090Y-478302D02*
X-1651090D01*
X-1700090*
Y-465422*
X-1700090*
Y-478302*
X-1651090*
Y-371302*
X-1700090*
Y-444813*
X-1700090Y-444812*
Y-371302*
X-1651090*
X-1651090*
Y-478302*
X-1646850Y-534802D02*
X-1487007D01*
Y53780*
X-1646850*
Y-534802*
X-1533100Y-862991D02*
X-1604360D01*
Y-1135826*
X-1533100*
X-1481730Y-703542D02*
Y-703543D01*
X-1644516*
Y-754996*
Y-703542*
X-1481730*
X-1481713Y-702952D02*
X-1593340D01*
Y-677708*
Y-702952*
X-1481713*
X-1474802Y-355905D02*
X-1435432D01*
Y-277165*
X-1474802*
Y-355905*
X-1473650Y-827165D02*
Y-827165D01*
X-1644516*
Y-827165*
Y-778073*
Y-827165*
X-1473650*
Y-722348*
Y-827165*
Y-685525D02*
Y-656576D01*
Y-656577*
Y-685525*
Y-644430D02*
Y-644430D01*
Y-628543*
X-1593340*
Y-653786*
Y-628542*
X-1473650*
Y-644430*
X-1450000Y-50156D02*
X1550000D01*
Y49842*
X-1450000*
Y-50156*
X-1351223Y-392405D02*
X-1351225D01*
Y-355815*
X-1458223*
Y-404815*
X-1360782*
X-1458223*
X-1458225*
Y-355815*
X-1458223*
X-1351223*
Y-392405*
X-1349240Y-702755D02*
X-1349241D01*
X-1421682*
Y-666357*
X-1421681*
Y-702755*
X-1349241*
Y-695337*
X-1349240*
Y-702755*
Y-670803D02*
X-1349241D01*
Y-662598*
X-1415055*
Y-662597*
X-1349241*
X-1349240*
Y-670803*
X-1334675Y-1224408D02*
X-1262233D01*
Y-1184251*
X-1334675*
Y-1224408*
X-1311839Y-1135826D02*
X-1382628D01*
X-1311839*
X-1311445Y-1135178D02*
Y-1135180D01*
Y-1132142*
Y-1135178*
Y-1097777D02*
Y-1094740D01*
Y-1094741*
Y-1097777*
Y-1060375D02*
Y-1060376D01*
Y-862991*
X-1382628*
X-1311445*
Y-1060375*
X-1270500Y-827165D02*
Y-827165D01*
X-1441367*
Y-827165*
Y-723680*
X-1441366*
Y-827165*
X-1270501*
Y-777255*
X-1270500*
Y-827165*
Y-753453D02*
X-1270501D01*
Y-703543*
X-1431712*
Y-703542*
X-1270500*
Y-753453*
X-1266170Y-1174802D02*
Y-1172440D01*
Y-1174802*
X-1261445Y-1261810D02*
X-1221288D01*
Y-1189370*
X-1261445*
Y-1261810*
X-1248425Y-345325D02*
Y-277165D01*
X-1287795*
Y-355905*
X-1259005*
Y-355905*
X-1287795*
Y-277165*
X-1248425*
Y-345325*
X-1246091Y-1174802D02*
X-1265776D01*
X-1245697D02*
G02X-1231641Y-1166928I14056J8608D01*
X-1217351Y-1175196J16482*
G01X-1221288Y-1264960D02*
X-1181918D01*
Y-1186220*
X-1221288*
Y-1264960*
X-1197272Y-1175196D02*
X-1216957D01*
X-1197272D02*
Y-1172440D01*
Y-1175196*
Y-1057480D02*
Y-1055117D01*
X-1266170*
Y-1057480*
Y-1055117*
X-1197272*
Y-1057480*
X-1187808Y-722440D02*
X-1214201D01*
Y-990156*
X-1187808*
Y-990157*
X-1214201*
Y-990156*
Y-722440*
X-1187808*
X-1142155Y-1264960D02*
X-1150962D01*
X-1150963Y-1264960*
X-1142155*
Y-1186220*
X-1181525*
Y-1264960*
X-1172900*
Y-1264960*
X-1181525*
Y-1186220*
X-1142155*
Y-1264960*
X-1087430Y-990156D02*
X-1087430Y-990157D01*
X-1113823*
X-1113822Y-990156*
X-1087430*
Y-722440*
X-1113822*
X-1113823*
X-1087430*
X-1087430*
Y-990156*
X-1073650Y-1215747D02*
X-1034280D01*
Y-1137007*
X-1073650*
Y-1215747*
X-1049211Y-345325D02*
X-1049212D01*
Y-277165*
X-1088581*
Y-355905*
X-1059792*
Y-355905*
X-1088582*
Y-277165*
X-1049212*
X-1049211*
Y-345325*
X-1034280Y-1135038D02*
Y-1135040D01*
X-1113020*
Y-1135038*
Y-1129770*
Y-1135038*
X-1034280*
Y-1095668*
X-1113020*
Y-1097000*
Y-1095668*
X-1034280*
Y-1135038*
X-972833Y-678043D02*
X-972835D01*
Y-661810*
X-972833*
Y-678043*
X-970823Y-460580D02*
Y-460578D01*
Y-458250*
Y-460580*
X-969087Y-421527D02*
X-978070D01*
Y-456770*
Y-456770*
Y-421527*
Y-421526*
X-969087*
Y-421527*
X-968305Y-460896D02*
Y-460897D01*
X-970480*
X-970481Y-460896*
X-968305*
X-955511Y-679133D02*
X-958063D01*
X-958065*
X-955511*
X-936412Y-452755D02*
X-940987D01*
X-936413*
X-936412*
X-900745Y-492912D02*
Y-492913D01*
X-970823*
Y-492912*
Y-485090*
Y-492912*
X-900745*
X-896255Y-482361D02*
X-898382D01*
Y-485158*
Y-485160*
Y-482361*
X-900275*
X-898382*
Y-480737*
Y-482361*
X-896255*
X-888975Y-355905D02*
X-849605D01*
Y-277165*
X-888975*
Y-355905*
X-842955Y-427243D02*
X-899330D01*
Y-429185*
Y-427243*
X-902870*
X-899330*
Y-421527*
X-947447*
X-947446Y-421526*
X-899330*
Y-421527*
Y-427243*
X-842955*
X-827952Y-1255126D02*
Y-1255127D01*
Y-1062843*
Y-1062845*
Y-1255126*
X-815353Y-538975D02*
X-815355D01*
Y-521653*
X-832676*
Y-521652*
X-815353*
Y-521653*
Y-538975*
X-807831Y-482361D02*
X-872248D01*
X-807831*
Y-427243*
X-819250*
X-807831*
Y-482361*
X-648425Y-345325D02*
Y-277165D01*
X-687795*
Y-355905*
X-659005*
Y-355905*
X-687795*
Y-277165*
X-648425*
Y-345325*
X-640945Y-1302755D02*
G02X-644881Y-1306692I3936D01*
G01X-824015*
G02X-827952Y-1302755J3937*
G01Y-1299065*
Y-1299065*
Y-1302755*
G03X-824015Y-1306692I3937*
G01X-644881*
G03X-640945Y-1302755J3937*
G01Y-1015353*
G03X-644881Y-1011417I3936*
G01X-824015*
G03X-827952Y-1015353J3935*
G01Y-1018905*
Y-1018906*
Y-1015353*
G02X-824015Y-1011416I3937*
G01X-644881*
G02X-640945Y-1015353J3937*
G01Y-1302755*
X-448425Y-345325D02*
Y-277165D01*
X-487795*
Y-355905*
X-459005*
Y-355905*
X-487795*
Y-277165*
X-448425*
Y-345325*
X-410538Y-713342D02*
X-459538D01*
X-459540*
Y-640306*
X-459538*
Y-713341*
X-410540*
Y-606342*
X-459538*
Y-618748*
X-459540Y-618747*
Y-606342*
X-459538Y-606341*
X-410538*
Y-606342*
Y-713342*
X-300786Y-714566D02*
X-200786D01*
Y-659448*
X-300786*
Y-714566*
X-248030Y-345325D02*
X-248031D01*
Y-277165*
X-287400*
Y-355905*
X-258611*
Y-355905*
X-287401*
Y-277165*
X-248030*
Y-345325*
X-49211D02*
X-49212D01*
Y-277165*
X-88581*
Y-355905*
X-59792*
Y-355905*
X-88582*
Y-277165*
X-49212*
X-49211*
Y-345325*
X51968Y-677100D02*
X51967D01*
Y-661810*
X51968*
Y-677100*
X54212Y-460436D02*
X54211Y-460435D01*
Y-458233*
X54212*
Y-460436*
X56108Y-421527D02*
X47000D01*
Y-456740*
Y-421527*
Y-421526*
X56108*
Y-421527*
X56731Y-460896D02*
Y-460897D01*
X54715*
X54715Y-460896*
X56731*
X69290Y-679133D02*
X67541D01*
X67540*
X69290*
X88656Y-452755D02*
X84082D01*
X88656*
X111023Y-355905D02*
X150393D01*
Y-277165*
X111023*
Y-355905*
X124057Y-492912D02*
Y-492913D01*
X54212*
X54211Y-492912*
Y-485232*
X54212Y-485231*
Y-492912*
X124057*
X128547Y-482361D02*
X126653D01*
Y-484783*
X126652Y-484785*
Y-482361*
X124760*
X124761*
X126652*
Y-480737*
X126653*
Y-482361*
X128547*
X181848Y-427243D02*
X125740D01*
Y-429172*
Y-427243*
X122200*
X125740*
Y-421527*
X77748*
X77750Y-421526*
X125740*
Y-421527*
Y-427243*
X181847*
X181848*
X193425Y-1308110D02*
X293425D01*
Y-808110*
X193425*
Y-1308110*
X209448Y-679133D02*
X192125D01*
X209448*
Y-661810*
Y-679133*
Y-538975D02*
Y-521653D01*
X192125*
Y-521652*
X209448*
Y-521653*
Y-538975*
X217205Y-482361D02*
X152555D01*
X152553*
X217205*
Y-427243*
X205552*
X217205*
Y-482361*
X351180Y-345325D02*
Y-277165D01*
X311810*
Y-355905*
X340600*
Y-355905*
X311810*
Y-277165*
X351180*
Y-345325*
X372440Y-694881D02*
X411810D01*
Y-616141*
X372440*
Y-694881*
X551575Y-324310D02*
Y-324311D01*
Y-277165*
X512205*
Y-355905*
X551575*
Y-346553*
Y-346555*
Y-355905*
X512205*
Y-277165*
X551575*
Y-324310*
X570471Y-694881D02*
X609842D01*
Y-616141*
X570471*
Y-694881*
X750787Y-355905D02*
X750786D01*
X714665*
X714663Y-355905*
X750786*
Y-277165*
X711417*
Y-353596*
X711416*
Y-277165*
X750786*
X750787*
Y-355905*
X803555Y-964916D02*
Y-964917D01*
X754555*
Y-964916*
Y-891111*
Y-891110*
Y-964916*
X803555*
Y-857917*
X754555*
Y-870305*
Y-857916*
X803555*
Y-964916*
X804160D02*
X853160D01*
Y-857916*
X804160*
Y-964916*
X809448Y-683555D02*
Y-616141D01*
X770078*
Y-694881*
X799711*
X770078*
Y-616141*
X809448*
Y-683555*
X882991Y-995570D02*
Y-995571D01*
Y-979230*
Y-979231*
Y-995570*
Y-905020D02*
Y-905020D01*
Y-782380*
Y-905020*
X1469605Y-1300393D02*
X882991D01*
Y-1069782*
Y-1300393*
X1469605*
Y-1286317*
Y-1300393*
Y-1212106D02*
Y-782380D01*
Y-1212106*
Y-708170D02*
Y-694095D01*
X882991*
Y-708170*
Y-694093*
X1469605*
Y-708170*
X1564960Y-974408D02*
Y-1013780D01*
X1584645Y-994093D02*
X1545275D01*
X1919290D02*
X1879920D01*
X1950787D02*
G02X1938320Y-1066506I216536D01*
G01X1938320*
G03X1950786Y-994093I204068J72412*
X1734251Y-777558I216535*
X1517716Y-994093J216535*
X1734251Y-1210630I216535*
X1756528Y-1209480J216536*
G02X1734251Y-1210630I22277J215387*
X1517715Y-994093J216536*
X1734251Y-777558I216535*
X1950787Y-994093J216535*
G54D13*
G01X-1437205Y-176771D02*
X-1477558D01*
Y-231890*
X-1474605*
X-1477558*
Y-176771*
Y-176770*
X-1437205*
Y-176771*
X-1435630Y-231890D02*
X-1399802D01*
X-1435630*
X-1357873D02*
X-1360826D01*
X-1357873*
Y-176771*
X-1398227*
Y-176770*
X-1357873*
Y-176771*
Y-231890*
X-1250196Y-176771D02*
X-1290550D01*
Y-231890*
X-1287597*
X-1290550*
Y-176771*
Y-176770*
X-1250196*
Y-176771*
X-1248621Y-231890D02*
X-1212795D01*
X-1248621*
X-1170865D02*
X-1173818D01*
X-1170865*
Y-176771*
X-1211220*
Y-176770*
X-1170865*
Y-176771*
Y-231890*
X-1050590Y-176771D02*
X-1090945D01*
Y-231890*
X-1087991*
X-1090945*
Y-176771*
Y-176770*
X-1050590*
Y-176771*
X-1049015Y-231890D02*
X-1013188D01*
X-1049015*
X-971260D02*
X-974212D01*
X-971260*
Y-176771*
X-1011613*
Y-176770*
X-971260*
Y-176771*
Y-231890*
X-851377Y-176771D02*
X-891731D01*
Y-231890*
X-888780*
X-891731*
Y-176771*
Y-176770*
X-851377*
Y-176771*
X-849802Y-231890D02*
X-813975D01*
X-849802*
X-772046D02*
X-775000D01*
X-772046*
Y-176771*
X-812401*
Y-176770*
X-772046*
Y-176771*
Y-231890*
X-650196Y-176771D02*
X-690550D01*
Y-231890*
X-687597*
X-690550*
Y-176771*
Y-176770*
X-650196*
Y-176771*
X-648621Y-231890D02*
X-612795D01*
X-648621*
X-570865D02*
X-573818D01*
X-570865*
Y-176771*
X-611220*
Y-176770*
X-570865*
Y-176771*
Y-231890*
X-450196Y-176771D02*
X-490550D01*
Y-231890*
X-487597*
X-490550*
Y-176771*
Y-176770*
X-450196*
Y-176771*
X-448621Y-231890D02*
X-412795D01*
X-448621*
X-370865D02*
X-373818D01*
X-370865*
Y-176771*
X-411220*
Y-176770*
X-370865*
Y-176771*
Y-231890*
X-249802Y-176771D02*
X-290156D01*
Y-231890*
X-287205*
X-290156*
X-290157*
Y-176771*
X-290156Y-176770*
X-249802*
Y-176771*
X-248227Y-231890D02*
X-212401D01*
X-248227*
X-170471D02*
X-173425D01*
X-170472*
Y-176771*
X-210826*
Y-176770*
X-170471*
Y-176771*
Y-231890*
X-50590Y-176771D02*
X-90945D01*
Y-231890*
X-87991*
X-90945*
Y-176771*
Y-176770*
X-50590*
Y-176771*
X-49015Y-231890D02*
X-13188D01*
X-49015*
X28740D02*
X25786D01*
X28740*
Y-176771*
X-11613*
Y-176770*
X28740*
Y-176771*
Y-231890*
X148621Y-176771D02*
X108267D01*
Y-231890*
X111220*
X108267*
Y-176771*
Y-176770*
X148621*
Y-176771*
X150196Y-231890D02*
X186023D01*
X150196*
X227952D02*
X225000D01*
X227952*
Y-176771*
X187597*
Y-176770*
X227952*
Y-176771*
Y-231890*
X349408Y-176771D02*
X309055D01*
Y-231890*
X312007*
X309055*
Y-176771*
Y-176770*
X349408*
Y-176771*
X350983Y-231890D02*
X386810D01*
X350983*
X410038Y-515747D02*
X369685D01*
Y-570865*
X372637*
X369685*
Y-515747*
X410038*
X411613Y-570865D02*
X447440D01*
X411613*
X428740Y-231890D02*
X425786D01*
X428740*
Y-176771*
X388385*
Y-176770*
X428740*
Y-176771*
Y-231890*
X489370Y-570865D02*
X486416D01*
X489370*
Y-515747*
X449015*
X489370*
Y-570865*
X549802Y-176771D02*
X509448D01*
Y-231890*
X512401*
X509448*
Y-176771*
Y-176770*
X549802*
Y-176771*
X551377Y-231890D02*
X587205D01*
X551377*
X608070Y-515747D02*
X567716D01*
Y-570865*
X570668*
X567716*
X567715*
Y-515747*
X567716*
X608070*
X609645Y-570865D02*
X645471D01*
X609645*
X629133Y-231890D02*
X626180D01*
X629133*
Y-176771*
X588780*
Y-176770*
X629133*
Y-176771*
Y-231890*
X687401Y-570865D02*
X684448D01*
X687400*
Y-515747*
X647046*
X687401*
Y-570865*
X749408Y-176771D02*
X709055D01*
Y-231890*
X712007*
X709055*
Y-176771*
Y-176770*
X749408*
Y-176771*
X750983Y-231890D02*
X786810D01*
X750983*
X808070Y-515747D02*
X767716D01*
Y-570865*
X770668*
X767716*
X767715*
Y-515747*
X767716*
X808070*
X809645Y-570865D02*
X845471D01*
X809645*
X828740Y-231890D02*
X825786D01*
X828740*
Y-219363*
Y-231890*
Y-188510D02*
Y-176771D01*
X788385*
Y-176770*
X828740*
Y-176771*
Y-188510*
X887401Y-570865D02*
X884448D01*
X887400*
Y-515747*
X847046*
X887401*
Y-570865*
G54D14*
X-1430708Y-261023D03*
X-1243700D03*
X-1156721Y-1181890D03*
X-1044093Y-261023D03*
X-844881D03*
X-643700D03*
X-443700D03*
X-243306D03*
X-44093D03*
X155117D03*
X355905D03*
X416535Y-600000D03*
X556298Y-261023D03*
X614566Y-600000D03*
X755905Y-261023D03*
X814566Y-600000D03*
G54D15*
X-1439370Y-39527D03*
X-1099635Y-734251D03*
X282795Y-1297480D03*
M02*
