*
G04 Job   : X:\0_Projects\HW-0004_A.v1.0\PCB\Board1.pcb*
G04 User  : JG_PC:grobi*
G04 Layer : SolderMask2.gdo*
G04 Date  : Sun May 31 19:23:07 2026*
%ICAS*%
%MOIN*%
%FSLAX26Y26*%
%OFA0.0000B0.0000*%
G90*
G74*
%AMVB_RECTANGLE*
21,1,$1,$2,0,0,$3*
%
%AMVB_RCRECTANGLE*
$3=$3X2*
21,1,$1-$3,$2,0,0,0*
21,1,$1,$2-$3,0,0,0*
$1=$1/2*
$2=$2/2*
$3=$3/2*
$1=$1-$3*
$2=$2-$3*
1,1,$3X2,0-$1,0-$2*
1,1,$3X2,0-$1,$2*
1,1,$3X2,$1,$2*
1,1,$3X2,$1,0-$2*
%
%ADD10C,0.00500*%
%ADD11C,0.02200*%
%ADD12C,0.02756*%
%ADD19C,0.05709*%
%ADD14C,0.06614*%
%ADD17C,0.24409*%
%ADD18VB_RECTANGLE,0.05709X0.05709X180.00000*%
%ADD16VB_RCRECTANGLE,0.02480X0.02480X0.00394*%
%ADD15VB_RCRECTANGLE,0.02913X0.04882X0.00118*%
%ADD13VB_RCRECTANGLE,0.03543X0.07874X0.01575*%
G01*
G54D10*
X-1918503Y-1318109D02*
X2018503D01*
Y59842*
X-1918503*
Y-1318109*
G54D11*
X-1712991Y-455117D03*
X-1656327Y-766535D03*
X-1604723Y-665747D03*
X-1458296Y-650503D03*
Y-618503D03*
X-1426296Y-650503D03*
Y-618503D03*
X-1401575Y-285038D03*
X-1348818D03*
X-1344487Y-407480D03*
X-1338188Y-683070D03*
X-1320078Y-361023D03*
X-1282826Y-1045535D03*
X-1259055Y-765353D03*
X-1243306Y-361023D03*
X-1214566Y-285038D03*
X-1166957Y-708267D03*
Y-676267D03*
X-1161931Y-1277302D03*
X-1149605Y-457480D03*
X-1147243Y-285038D03*
X-1134957Y-708267D03*
Y-676267D03*
X-1053178Y-1243306D03*
X-1050786Y-577952D03*
X-1044093Y-361023D03*
X-1017322Y-610235D03*
X-1015353Y-285038D03*
X-1000393Y-638188D03*
X-993700Y-669685D03*
X-981890Y-472835D03*
X-968110Y-525983D03*
X-966535Y-693306D03*
X-958267Y-409055D03*
X-947637Y-285038D03*
X-936613Y-726771D03*
X-903936Y-727165D03*
X-894290Y-600590D03*
X-884251Y-493700D03*
X-871653Y-727165D03*
X-846456Y-707086D03*
X-831101Y-415747D03*
X-820078Y-675196D03*
X-815747Y-285038D03*
X-808267Y-1080708D03*
X-787401Y-550786D03*
X-773621Y-678345D03*
X-747243Y-285038D03*
X-728345Y-634645D03*
X-662597Y-1080708D03*
X-661416Y-610235D03*
X-643306Y-361023D03*
X-625590Y-998425D03*
X-614566Y-285038D03*
X-602361Y-1235038D03*
Y-774802D03*
X-600393Y-883070D03*
X-589763Y-585038D03*
X-555905Y-625196D03*
X-546456Y-285038D03*
X-529133Y-740945D03*
X-528740Y-977165D03*
X-526771Y-561023D03*
X-497637Y-729133D03*
X-472046Y-629527D03*
X-466141Y-735038D03*
X-449408Y-1086810D03*
Y-1009055D03*
Y-931298D03*
X-443306Y-361023D03*
X-434645Y-740945D03*
X-414566Y-285038D03*
X-371653Y-1086810D03*
Y-1009055D03*
Y-931298D03*
X-347637Y-285038D03*
X-293897Y-1086810D03*
Y-1009055D03*
Y-931298D03*
X-277165Y-740945D03*
X-245668Y-812597D03*
X-242912Y-361023D03*
X-224408Y-638975D03*
X-214566Y-1166535D03*
Y-1103542D03*
Y-1040550D03*
Y-977558D03*
Y-914566D03*
Y-851575D03*
X-214172Y-740945D03*
Y-285038D03*
X-148030D03*
X-142912Y-1181101D03*
Y-1135038D03*
Y-1072046D03*
Y-1009055D03*
Y-946062D03*
Y-883070D03*
Y-820078D03*
X-140945Y-1239370D03*
Y-774802D03*
X-77952Y-473227D03*
X-44093Y-361023D03*
X-42912Y-523621D03*
X-17716Y-548818D03*
X-15353Y-285038D03*
X-12991Y-581101D03*
X393Y-610235D03*
X12597Y-642520D03*
X30315Y-674015D03*
X43306Y-472835D03*
X50393Y-339763D03*
X52755Y-285038D03*
X56692Y-525590D03*
X57873Y-692520D03*
X66928Y-409055D03*
X90156Y-706298D03*
X121653Y-713385D03*
X130511Y-600590D03*
X140550Y-493700D03*
X184251Y-285038D03*
X193700Y-415747D03*
X240550Y-649605D03*
X240945Y-551180D03*
X252755Y-285038D03*
X259842Y-616928D03*
X316535Y-713780D03*
X356298Y-361023D03*
X385038Y-285038D03*
X445526Y-624560D03*
X453150Y-285038D03*
X514520Y-624560D03*
X563780Y-335432D03*
X585432Y-285038D03*
X643558Y-624560D03*
X652755Y-285038D03*
X703542Y-368110D03*
X712157Y-624560D03*
X741731Y-880708D03*
X784645Y-285038D03*
X815747Y-698818D03*
X818000Y-1048535D03*
Y-1016535D03*
X832676Y-203936D03*
X843652Y-624456D03*
X850000Y-1048535D03*
Y-1016535D03*
X985826Y-761416D03*
Y-729416D03*
X1017826Y-761416D03*
Y-729416D03*
X1485826Y-1265353D03*
Y-1233353D03*
X1517826Y-1265353D03*
Y-1233353D03*
G54D12*
X-1582312Y-465065D03*
Y-429631D03*
Y-394198D03*
Y-358765D03*
Y-323332D03*
Y-287900D03*
Y-252466D03*
X-1551706Y-482562D03*
Y-447130D03*
Y-411696D03*
Y-376263D03*
Y-340830D03*
Y-305397D03*
Y-269965D03*
G54D13*
X-1623250Y-462120D03*
Y-273143D03*
X-1510650Y-462120D03*
Y-273143D03*
G54D14*
X-1400000Y-156D03*
X-1300000D03*
X-1200000D03*
X-1100000D03*
X-1000000D03*
X-900000D03*
X-800000D03*
X-700000D03*
X-600000D03*
X-500000D03*
X-400000D03*
X-300000D03*
X-200000D03*
X-100000D03*
X0D03*
X100000D03*
X200000D03*
X243425Y-1258110D03*
Y-1158110D03*
Y-1058110D03*
Y-958110D03*
Y-858110D03*
X300000Y-156D03*
X400000D03*
X500000D03*
X600000D03*
X700000D03*
X800000D03*
X900000D03*
X1000000D03*
X1100000D03*
X1200000D03*
X1300000D03*
X1400000D03*
X1500000D03*
G54D15*
X-1370078Y-245668D03*
X-1332676Y-162991D03*
X-1295275Y-245668D03*
X-1168503D03*
X-1131101Y-162991D03*
X-1093700Y-245668D03*
X-968897D03*
X-931495Y-162991D03*
X-894093Y-245668D03*
X-768897D03*
X-731495Y-162991D03*
X-694093Y-245668D03*
X-568110D03*
X-530708Y-162991D03*
X-493306Y-245668D03*
X-368897D03*
X-331495Y-162991D03*
X-294093Y-245668D03*
X-169290D03*
X-131890Y-162991D03*
X-94487Y-245668D03*
X31101D03*
X68503Y-162991D03*
X105905Y-245668D03*
X231101D03*
X268503Y-162991D03*
X305905Y-245668D03*
X431890D03*
X469290Y-162991D03*
X493306Y-584645D03*
X506692Y-245668D03*
X530708Y-501968D03*
X568110Y-584645D03*
X631495Y-245668D03*
X668897Y-162991D03*
X690945Y-584645D03*
X706298Y-245668D03*
X728345Y-501968D03*
X765747Y-584645D03*
X831890Y-245668D03*
X869290Y-162991D03*
X906692Y-245668D03*
G54D16*
X-1295275Y-336220D03*
Y-296850D03*
X-1093700Y-336220D03*
Y-296850D03*
X-894093Y-336220D03*
Y-296850D03*
X-693700Y-336220D03*
Y-296850D03*
X-492912Y-336220D03*
Y-296850D03*
X-294093Y-336220D03*
Y-296850D03*
X-94487Y-336220D03*
Y-296850D03*
X106298Y-336220D03*
Y-296850D03*
X306298Y-336220D03*
Y-296850D03*
X506692Y-336220D03*
Y-296850D03*
X568110Y-675196D03*
Y-635826D03*
X706298Y-336220D03*
Y-296850D03*
X765747Y-675196D03*
Y-635826D03*
X906692Y-336220D03*
Y-296850D03*
G54D17*
X-1780708Y-1180315D03*
Y-77952D03*
X1880708Y-1180315D03*
Y-77952D03*
G54D18*
X1832676Y-994093D03*
G54D19*
X1635826D03*
M02*
