*
G04 Job   : X:\0_Projects\HW-0004_A.v1.0\PCB\Board1.pcb*
G04 User  : JG_PC:grobi*
G04 Layer : SolderPaste2.gdo*
G04 Date  : Sun May 31 19:23:07 2026*
%ICAS*%
%MOIN*%
%FSLAX26Y26*%
%OFA0.0000B0.0000*%
G90*
G74*
%AMVB_RCRECTANGLE*
$3=$3X2*
21,1,$1-$3,$2,0,0,0*
21,1,$1,$2-$3,0,0,0*
$1=$1/2*
$2=$2/2*
$3=$3/2*
$1=$1-$3*
$2=$2-$3*
1,1,$3X2,0-$1,0-$2*
1,1,$3X2,0-$1,$2*
1,1,$3X2,$1,$2*
1,1,$3X2,$1,0-$2*
%
%ADD10C,0.00500*%
%ADD11C,0.02362*%
%ADD14VB_RCRECTANGLE,0.02165X0.02165X0.00591*%
%ADD13VB_RCRECTANGLE,0.01969X0.03937X0.00118*%
%ADD12VB_RCRECTANGLE,0.03150X0.07480X0.01575*%
G01*
G54D10*
X-1918503Y-1318109D02*
X2018503D01*
Y59842*
X-1918503*
Y-1318109*
G54D11*
X-1582312Y-465065D03*
Y-429631D03*
Y-394198D03*
Y-358765D03*
Y-323332D03*
Y-287900D03*
Y-252466D03*
X-1551706Y-482562D03*
Y-447130D03*
Y-411696D03*
Y-376263D03*
Y-340830D03*
Y-305397D03*
Y-269965D03*
G54D12*
X-1623250Y-462120D03*
Y-273143D03*
X-1510650Y-462120D03*
Y-273143D03*
G54D13*
X-1370078Y-245668D03*
X-1332676Y-162991D03*
X-1295275Y-245668D03*
X-1168503D03*
X-1131101Y-162991D03*
X-1093700Y-245668D03*
X-968897D03*
X-931495Y-162991D03*
X-894093Y-245668D03*
X-768897D03*
X-731495Y-162991D03*
X-694093Y-245668D03*
X-568110D03*
X-530708Y-162991D03*
X-493306Y-245668D03*
X-368897D03*
X-331495Y-162991D03*
X-294093Y-245668D03*
X-169290D03*
X-131890Y-162991D03*
X-94487Y-245668D03*
X31101D03*
X68503Y-162991D03*
X105905Y-245668D03*
X231101D03*
X268503Y-162991D03*
X305905Y-245668D03*
X431890D03*
X469290Y-162991D03*
X493306Y-584645D03*
X506692Y-245668D03*
X530708Y-501968D03*
X568110Y-584645D03*
X631495Y-245668D03*
X668897Y-162991D03*
X690945Y-584645D03*
X706298Y-245668D03*
X728345Y-501968D03*
X765747Y-584645D03*
X831890Y-245668D03*
X869290Y-162991D03*
X906692Y-245668D03*
G54D14*
X-1295275Y-336220D03*
Y-296850D03*
X-1093700Y-336220D03*
Y-296850D03*
X-894093Y-336220D03*
Y-296850D03*
X-693700Y-336220D03*
Y-296850D03*
X-492912Y-336220D03*
Y-296850D03*
X-294093Y-336220D03*
Y-296850D03*
X-94487Y-336220D03*
Y-296850D03*
X106298Y-336220D03*
Y-296850D03*
X306298Y-336220D03*
Y-296850D03*
X506692Y-336220D03*
Y-296850D03*
X568110Y-675196D03*
Y-635826D03*
X706298Y-336220D03*
Y-296850D03*
X765747Y-675196D03*
Y-635826D03*
X906692Y-336220D03*
Y-296850D03*
M02*
