; Version : LOCAL
; Job     : X:\0_Projects\HW-0004_A.v1.0\PCB\Board1.pcb
; User    : JG_PC:grobi
; Date    : Sun May 31 13:58:00 2026
; Format  : 2.4 / Absolute / Inch / Trailing
; Contents: Thru / Drill / Plated
M48
INCH,LZ
FMAT,2
ICI,OFF
T07C0.0120
T05C0.0157
T01C0.0157
T06C0.0354
T03C0.0413
%
M72
G90
G93X0Y0
T07
X015178Y-012654
Y-012334
X014858Y-012654
Y-012334
X-001409Y-012394
X-006024Y-01235
X-010532Y-012433
X-011619Y-012773
X-002146Y-011665
Y-011035
X-001429Y-011811
Y-01135
X0085Y-010485
Y-010165
X00818Y-010485
Y-010165
X-001429Y-01072
Y-010091
X-002146Y-010406
X-002939Y-010868
Y-010091
X-003717Y-010868
Y-010091
X-004494Y-010868
Y-010091
X-006626Y-010807
X-008083
X-012828Y-010455
X-006256Y-009984
X-005287Y-009772
X-004494Y-009313
X-003717
X-002939
X-002146Y-009776
Y-009146
X-001429Y-009461
X007417Y-008807
X-001429Y-008831
Y-008201
X-002146Y-008516
X-002457Y-008126
X-006004Y-008831
X-016563Y-007665
X-012591Y-007654
X-01167Y-007083
X-01135
X-009366Y-007268
X-009039Y-007272
X-008717
X-008465Y-007071
X-006024Y-007748
X-005291Y-007409
X-004976Y-007291
X-004661Y-00735
X-004346Y-007409
X-002772
X-002142
X-001409Y-007748
X000902Y-007063
X001217Y-007134
X003165Y-007138
X009858Y-007614
Y-007294
X010178Y-007614
Y-007294
X008437Y-006245
X008157Y-006988
X007122Y-006246
X006436
X005145
X004455
X002598Y-006169
X002406Y-006496
X001305Y-006006
X000579Y-006925
X000303Y-00674
X000126Y-006425
X000004Y-006102
X-002244Y-00639
X-00472Y-006295
X-005559Y-006252
X-006614Y-006102
X-007283Y-006346
X-007736Y-006783
X-008201Y-006752
X-008943Y-006006
X-009665Y-006933
X-009937Y-006697
X-010004Y-006382
X-010173Y-006102
X-01135Y-006763
X-01167
X-013382Y-006831
X-014263Y-006505
Y-006185
X-014583Y-006505
Y-006185
X-016047Y-006657
X-010508Y-00578
X-009681Y-00526
X-007874Y-005508
X-005898Y-00585
X-005268Y-00561
X-000429Y-005236
X-000177Y-005488
X-00013Y-005811
X000567Y-005256
X002409Y-005512
X001937Y-004157
X001406Y-004937
X000669Y-004091
X000433Y-004728
X-00078Y-004732
X-008311Y-004157
X-008843Y-004937
X-009583Y-004091
X-009819Y-004728
X-011496Y-004575
X-013445Y-004075
X-01713Y-004551
X-013201Y-00361
X-012433
X-010441
X-006433
X-004433
X-002429
X-000441
X000504Y-003398
X003563Y-00361
X005638Y-003354
X007035Y-003681
X008327Y-002039
X007846Y-00285
X006528
X005854
X004531
X00385
X002528
X001843
X000528
X-000154
X-00148
X-002142
X-003476
X-004146
X-005465
X-006146
X-007472
X-008157
X-009476
X-010154
X-011472
X-012146
X-013488
X-014016
T01
X-015517Y-004826
Y-004471
Y-004117
X-015823Y-004651
Y-004296
Y-003942
Y-003588
Y-003233
X-015517Y-003763
Y-003408
Y-003054
Y-0027
X-015823Y-002879
Y-002525
T05
X019433Y-01243
X018807Y-012689
X018181Y-01243
X-017181
X-017807Y-012689
X-018433Y-01243
X-018693Y-011803
X-018433Y-011177
X-017181
X-016921Y-011803
X017921
X018181Y-011177
X019433
X019693Y-011803
X018807Y-010917
X-017807
X-018433Y-001406
X-017807Y-001665
X-017181Y-001406
X018181
X018807Y-001665
X019433Y-001406
X019693Y-00078
X019433Y-000153
X018807Y000106
X018181Y-000153
X017921Y-00078
X-016921
X-017181Y-000153
X-017807Y000106
X-018433Y-000153
X-018693Y-00078
T06
X016358Y-009941
X018327
T03
X002434Y-012581
Y-011581
Y-010581
Y-009581
Y-008581
X015Y-000002
X014
X013
X012
X011
X01
X009
X008
X007
X006
X005
X004
X003
X002
X001
X0
X-001
X-002
X-003
X-004
X-005
X-006
X-007
X-008
X-009
X-01
X-011
X-012
X-013
X-014
T00
M30
